<?xml version="1.0" encoding="UTF-8" standalone="no"?>
<!DOCTYPE svg PUBLIC "-//W3C//DTD SVG 1.0//EN"
"http://www.w3.org/TR/2001/REC-SVG-20010904/DTD/svg10.dtd">
<!-- Created with Sodipodi ("http://www.sodipodi.com/") -->
<svg
   xmlns="http://www.w3.org/2000/svg"
   xmlns:xlink="http://www.w3.org/1999/xlink"
   version="1.0"
   x="0"
   y="0"
   width="60"
   height="60"
   id="svg1">
  <defs
     id="defs3" />
  <ellipse
     cx="13.7658587"
     cy="10.6048613"
     rx="4.58861923"
     ry="4.58861923"
     transform="translate(0.719783,-0.539838)"
     style="font-size:12;fill:#4c4c4c;fill-rule:evenodd;stroke:#333333;stroke-width:3.125;"
     id="path816" />
  <rect
     width="17.81464"
     height="44.9864655"
     rx="3"
     x="4.85853815"
     y="7.09591675"
     transform="translate(0.719783,3.418971)"
     style="font-size:12;fill:#7f7f7f;fill-rule:evenodd;stroke:#333333;stroke-width:3.125;"
     id="rect815" />
  <path
     d="M 33.26749 22.85946 C 33.4589 22.85946 33.60929 22.78915 33.71866 22.64852 C 33.83194 22.5079 33.88859 22.33798 33.88859 22.13876 C 33.88859 21.93563 33.83194 21.76571 33.71866 21.62899 C 33.60929 21.48837 33.4589 21.41805 33.26749 21.41805 C 33.07218 21.41805 32.91788 21.48837 32.8046 21.62899 C 32.69523 21.76571 32.64054 21.93563 32.64054 22.13876 C 32.64054 22.33798 32.69523 22.5079 32.8046 22.64852 C 32.91788 22.78915 33.07218 22.85946 33.26749 22.85946 z M 32.8339 28.05087 L 36.80656 20.49227 C 36.88859 20.33993 36.96476 20.23837 37.03507 20.18759 C 37.10929 20.1368 37.21671 20.11141 37.35734 20.11141 C 37.47452 20.11141 37.58781 20.14071 37.69718 20.1993 C 37.80656 20.2579 37.89444 20.33798 37.96085 20.43954 C 38.03116 20.5411 38.06632 20.65438 38.06632 20.77938 C 38.06632 20.90048 38.03507 21.02548 37.97257 21.15438 L 33.94132 28.77157 C 33.82804 28.93173 33.7421 29.0372 33.68351 29.08798 C 33.62882 29.14266 33.53312 29.17001 33.3964 29.17001 C 33.24015 29.17001 33.08781 29.10165 32.93937 28.96493 C 32.79093 28.83212 32.71671 28.67977 32.71671 28.5079 C 32.71671 28.37118 32.75577 28.21884 32.8339 28.05087 z M 33.26749 24.09579 C 32.74406 24.09579 32.3046 23.90243 31.94913 23.51571 C 31.59366 23.12899 31.41593 22.67001 31.41593 22.13876 C 31.41593 21.79501 31.49601 21.47274 31.65616 21.17196 C 31.81632 20.87118 32.03702 20.63095 32.31827 20.45126 C 32.59952 20.27157 32.91593 20.18173 33.26749 20.18173 C 33.61124 20.18173 33.92374 20.27157 34.20499 20.45126 C 34.48624 20.62704 34.70694 20.86727 34.8671 21.17196 C 35.03116 21.47274 35.11319 21.79501 35.11319 22.13876 C 35.11319 22.48641 35.03116 22.81259 34.8671 23.11727 C 34.70694 23.41805 34.48429 23.65634 34.19913 23.83212 C 33.91788 24.0079 33.60734 24.09579 33.26749 24.09579 z M 37.4921 29.0997 C 36.96866 29.0997 36.52921 28.90829 36.17374 28.52548 C 35.81827 28.13876 35.64054 27.68173 35.64054 27.15438 C 35.64054 26.62313 35.81827 26.1622 36.17374 25.77157 C 36.52921 25.38095 36.96866 25.18563 37.4921 25.18563 C 37.83585 25.18563 38.14835 25.27548 38.4296 25.45516 C 38.71085 25.63095 38.93156 25.87313 39.09171 26.18173 C 39.25577 26.48641 39.33781 26.81063 39.33781 27.15438 C 39.33781 27.49813 39.25577 27.8204 39.09171 28.12118 C 38.93156 28.42196 38.7089 28.66024 38.42374 28.83602 C 38.14249 29.0118 37.83194 29.0997 37.4921 29.0997 z M 37.4921 27.86337 C 37.68351 27.86337 37.8339 27.79501 37.94327 27.65829 C 38.05656 27.52157 38.11319 27.3536 38.11319 27.15438 C 38.11319 26.95126 38.05656 26.77938 37.94327 26.63876 C 37.8339 26.49423 37.68351 26.42196 37.4921 26.42196 C 37.29679 26.42196 37.14249 26.49423 37.02921 26.63876 C 36.91984 26.77938 36.86515 26.95126 36.86515 27.15438 C 36.86515 27.3536 36.91984 27.52157 37.02921 27.65829 C 37.14249 27.79501 37.29679 27.86337 37.4921 27.86337 z "
     transform="matrix(3.725008,0,0,3.725008,-89.17141,-57.85755)"
     style="font-size:12;fill:#333333;stroke-width:1;font-family:VAG Rounded Black SSi;"
     id="path830" />
</svg>
