<?xml version="1.0" encoding="UTF-8" standalone="no"?>
<!DOCTYPE svg PUBLIC "-//W3C//DTD SVG 1.0//EN"
"http://www.w3.org/TR/2001/REC-SVG-20010904/DTD/svg10.dtd">
<!-- Created with Sodipodi ("http://www.sodipodi.com/") -->
<svg
   xmlns="http://www.w3.org/2000/svg"
   xmlns:xlink="http://www.w3.org/1999/xlink"
   version="1.0"
   x="0"
   y="0"
   width="60"
   height="60"
   id="svg1">
  <defs
     id="defs3" />
  <rect
     width="31.3012714"
     height="24.9392242"
     rx="0"
     x="4.58067369"
     y="37.8600769"
     transform="matrix(0.774389,0,0,0.710631,7.1537,12.20174)"
     style="font-size:12;fill:#b3b3b3;fill-rule:evenodd;stroke:#4c4c4c;stroke-width:2.527549;stroke-linecap:round;stroke-linejoin:round;"
     id="rect976" />
  <rect
     width="30.7923069"
     height="31.3012714"
     rx="0"
     x="35.8819466"
     y="31.4980297"
     transform="matrix(0.54748,-0.432413,0,0.589462,15.37052,35.35047)"
     style="font-size:12;fill:#7f7f7f;fill-rule:evenodd;stroke:#4c4c4c;stroke-width:3.300572;stroke-linecap:round;stroke-linejoin:round;"
     id="rect977" />
  <rect
     width="31.0467892"
     height="12.7240944"
     rx="0"
     x="25.7026691"
     y="1.46916771"
     transform="matrix(0.805265,0,-0.469268,0.710631,12.7273,16.09443)"
     style="font-size:12;fill:#7f7f7f;fill-rule:evenodd;stroke:#4c4c4c;stroke-width:2.478619;stroke-linecap:round;stroke-linejoin:round;"
     id="rect975" />
  <path
     d="M 4.962397 35.06078 L -6.107565 27.29908 L 14.25098 10.885 L 25.57543 18.01049 L 4.962397 35.06078 z "
     transform="matrix(0.774389,0,0,0.774389,7.1537,12.09925)"
     style="font-size:12;fill:#b3b3b3;fill-rule:evenodd;stroke:#4c4c4c;stroke-width:2.421264;stroke-linecap:round;stroke-linejoin:round;"
     id="path980" />
  <rect
     width="32.0647163"
     height="32.0647163"
     rx="0"
     x="8.6523838"
     y="12.4118881"
     transform="matrix(0.774389,0,-0.50872,0.404228,26.55055,21.15359)"
     style="font-size:12;fill:#b3b3b3;fill-rule:evenodd;stroke:#4c4c4c;stroke-width:3.351263;stroke-linecap:round;stroke-linejoin:round;"
     id="rect974" />
  <path
     d="M 27.73852 23.48185 L 27.73852 35.95146 "
     transform="matrix(1.009527,0,0,1.009527,-1.07287,2.723026)"
     style="font-size:12;fill:none;fill-opacity:0.75;fill-rule:evenodd;stroke:#4c4c4c;stroke-width:1.857306;"
     id="path981" />
  <path
     d="M 1.885638 5.071701 C 24.58878 12.24086 20.87696 25.06132 20.87696 25.18856 L 15.15112 25.18856 L 23.48485 32.70839 L 32.13779 25.12494 L 26.34832 25.12494 C 26.34832 25.12494 29.055 4.452032 1.885638 5.071701 z "
     transform="matrix(1.009527,0,0,1.009527,5.980708,-1.095619)"
     style="font-size:12;fill:#7f7f7f;fill-rule:evenodd;stroke:#333333;stroke-width:3.095509;stroke-linecap:round;stroke-linejoin:round;"
     id="path968" />
</svg>
