<?xml version="1.0" encoding="UTF-8" standalone="no"?>
<!DOCTYPE svg PUBLIC "-//W3C//DTD SVG 1.0//EN"
"http://www.w3.org/TR/2001/REC-SVG-20010904/DTD/svg10.dtd">
<!-- Created with Sodipodi ("http://www.sodipodi.com/") -->
<svg
   xmlns="http://www.w3.org/2000/svg"
   xmlns:xlink="http://www.w3.org/1999/xlink"
   version="1.0"
   x="0"
   y="0"
   width="60"
   height="60"
   id="svg1">
  <defs
     id="defs3">
    <linearGradient
       id="linearGradient900">
      <stop
         style="stop-color:#000000;stop-opacity:1;"
         offset="0"
         id="stop901" />
      <stop
         style="stop-color:#ffffff;stop-opacity:1;"
         offset="1"
         id="stop902" />
    </linearGradient>
    <linearGradient
       id="linearGradient903"
       xlink:href="#linearGradient900" />
    <linearGradient
       id="linearGradient904"
       xlink:href="#linearGradient900" />
    <linearGradient
       id="linearGradient905"
       xlink:href="#linearGradient900" />
    <linearGradient
       id="linearGradient906"
       xlink:href="#linearGradient900" />
    <linearGradient
       id="linearGradient907"
       xlink:href="#linearGradient900" />
  </defs>
  <ellipse
     cx="739.004639"
     cy="123.263885"
     rx="60.1851845"
     ry="60.1851845"
     transform="matrix(0.414889,0,0,0.414889,-277.0216,-21.90884)"
     style="font-size:12;fill:#cccccc;fill-rule:evenodd;stroke-width:6.85052;"
     id="path640" />
  <path
     d="M -52.93461 125.1698 L -52.01945 121.4684 L -46.42683 112.5202 L -49.37567 113.9438 L -55.17166 107.436 L -54.15481 107.0293 L -48.86725 111.9101 L -44.0881 104.7922 L -45.51167 104.2838 L -46.83356 105.809 L -48.86725 103.572 L -47.95209 102.9619 L -45.20663 103.7754 L -41.85106 101.2333 L -39.51233 101.2333 M -57.55007 75.81228 L -60.35753 76.82912 L -56.59523 81.30322 L -60.5609 86.08236 L -61.7811 85.06552 L -60.35753 83.947 L -64.11984 82.93016 L -68.89898 89.0312 L -67.17036 89.33625 L -66.56026 91.57329 L -64.83163 89.23457 L -65.13668 87.40425 L -64.01815 85.26889 L -63.10299 85.26889 L -64.32321 87.60762 L -63.40805 88.82783 L -63.50974 91.36993 L -69.40741 92.99687 L -73.16972 95.3356 L -72.45792 98.38612 L -76.11854 97.97938 L -76.72864 100.2164 L -77.44043 101.64 L -76.22023 102.3518 L -75.61013 102.7585 L -73.47476 102.8602 L -71.9495 100.0131 L -71.13603 100.0131 L -70.52593 99.09791 L -67.78046 98.18275 L -65.035 101.8434 L -64.01815 100.8265 L -66.56026 97.77602 L -65.54341 97.77602 L -61.67943 102.9619 L -60.5609 100.0131 L -59.03564 99.8097 L -58.62891 96.35244 L -53.54471 97.36928 L -53.64639 98.58949 L -59.44238 100.7249 L -58.73058 102.4535 L -54.66324 101.64 L -54.76491 105.4023 L -57.61206 106.4192 L -61.88279 105.7074 L -62.59458 106.9276 L -67.37372 105.6057 L -67.47542 103.2669 L -77.94885 104.4872 L -78.45727 106.7242 L -82.1179 108.9613 L -82.93137 113.8421 L -78.96569 119.5364 L -70.42424 120.8583 L -67.88215 121.8751 L -68.28888 123.6037 L -66.15353 125.434 L -65.74677 126.4509 L -66.96699 127.6711 L -64.01815 128.8913 "
     transform="matrix(0.909506,0,0,0.909506,90.59192,-63.19118)"
     style="font-size:12;fill:none;fill-opacity:0.75;fill-rule:evenodd;stroke:#7f7f7f;stroke-width:2.061559;stroke-linecap:round;stroke-linejoin:round;"
     id="path593" />
  <path
     d="M -90.55766 87.40425 L -87.8122 86.38741 L -87.8122 85.37057 L -87.10041 85.37057 L -87.10041 86.38741 L -85.67683 86.28573 L -81.60948 80.08301 L -86.28694 82.015 L -86.28694 81.91332 "
     transform="matrix(0.909506,0,0,0.909506,90.59192,-63.19118)"
     style="font-size:12;fill:none;fill-opacity:0.75;fill-rule:evenodd;stroke:#7f7f7f;stroke-width:2.061559;stroke-linecap:round;stroke-linejoin:round;"
     id="path594" />
  <path
     d="M -81.40611 84.45542 L -77.23707 82.72679 L -73.47476 82.21837 L -69.40741 77.94765 L -74.08487 77.33754 L -77.23707 80.7948 L -81.40611 84.45542 z "
     transform="matrix(0.909506,0,0,0.909506,90.59192,-63.19118)"
     style="font-size:12;fill:none;fill-opacity:0.75;fill-rule:evenodd;stroke:#7f7f7f;stroke-width:2.061559;stroke-linecap:round;stroke-linejoin:round;"
     id="path595" />
  <path
     d="M -73.57645 93.91202 L -70.93267 93.20024 L -72.25456 90.75982 L -71.54277 90.14972 L -72.35623 89.33625 L -73.57645 93.91202 z "
     transform="matrix(0.909506,0,0,0.909506,90.59192,-63.19118)"
     style="font-size:12;fill:none;fill-opacity:0.75;fill-rule:evenodd;stroke:#7f7f7f;stroke-width:2.061559;stroke-linecap:round;stroke-linejoin:round;"
     id="path597" />
  <path
     d="M -73.98318 92.69182 L -73.67812 91.06487 L -75.40675 92.1834 L -73.98318 92.69182 z "
     transform="matrix(0.909506,0,0,0.909506,90.59192,-63.19118)"
     style="font-size:12;fill:none;fill-opacity:0.75;fill-rule:evenodd;stroke:#7f7f7f;stroke-width:2.061559;stroke-linecap:round;stroke-linejoin:round;"
     id="path598" />
  <ellipse
     cx="739.004639"
     cy="123.263885"
     rx="60.1851845"
     ry="60.1851845"
     transform="matrix(0.414889,0,0,0.414889,-277.0216,-21.90884)"
     style="font-size:12;fill:none;fill-rule:evenodd;stroke:#333333;stroke-width:7.532135;"
     id="path957" />
  <path
     d="M -48.32773 15.70804 C -44.2079 18.3565 -42.24608 13.74621 -42.63845 18.25841 C -43.03081 22.77059 -46.75827 23.35913 -46.75827 23.35913 L -48.32773 15.70804 z "
     transform="translate(70.86614,0.763446)"
     style="font-size:12;fill:#999999;fill-rule:evenodd;stroke:#333333;stroke-width:1.875;"
     id="path949" />
  <path
     d="M -52.25137 25.61523 C -52.44755 28.65605 -48.91628 34.54152 -44.50218 33.6587 C -42.54036 33.16824 -41.85372 30.81406 -38.51863 32.08924 C -35.18353 33.36443 -30.57325 33.07015 -35.28162 34.93389 C -39.98999 36.79761 -42.63845 39.74035 -44.60027 39.44607 C -48.32773 38.75943 -52.54565 37.38616 -53.13419 37.68044 L -52.25137 25.61523 z "
     transform="translate(70.86614,0.763446)"
     style="font-size:12;fill:#666666;fill-rule:evenodd;stroke:#333333;stroke-width:1.875;"
     id="path950" />
  <path
     d="M -63.33073 7.549649 L -60.45736 12.56912 L -52.75866 12.40661 C -51.92633 11.78236 -50.58467 10.8351 -49.47898 10.16733 C -47.12479 8.597878 -44.40987 8.360219 -48.52391 12.56912 C -50.14097 14.07295 -42.70168 28.11511 -47.97311 27.21342 L -51.81344 27.54832 C -54.02518 34.83121 -46.3659 43.40542 -39.69572 43.36972 C -31.30341 43.32415 -27.64735 35.68393 -27.64735 35.68393 L -27.86734 38.81095 C -24.71141 37.63181 -25.11976 26.90334 -25.11976 26.90334 L -23.02024 29.44078 C -23.02024 29.44078 -23.15794 21.85122 -23.47006 19.49295 L -21.2546 21.20113 C -21.32396 16.48459 -25.77936 12.68711 -31.53631 10.32884 L -28.98594 9.475768 L -34.59498 6.879841 C -23.70533 6.706439 -18.70423 13.94239 -18.70423 13.94239 L -18.70423 10.80348 C -18.70423 10.80348 -15.83188 14.12326 -15.17295 22.96677 L -13.49945 20.84345 C -12.97925 21.39834 -12.99115 22.47786 -13.01495 22.96677 C -14.14852 34.5881 -15.84112 41.34353 -23.88659 49.51886 C -30.42836 56.01757 -43.17354 58.62656 -53.40634 53.34056 C -64.62394 46.88237 -69.76123 36.14125 -67.47232 24.90479 L -68.68307 24.60355 C -67.5733 18.91596 -65.19939 17.27749 -65.19939 17.27749 C -65.19939 17.27749 -65.689 11.98874 -63.33073 7.549649 z "
     transform="translate(70.86614,0.763446)"
     style="font-size:12;fill:#666666;fill-rule:evenodd;stroke-width:1.875;stroke-linecap:round;stroke-linejoin:round;"
     id="path948" />
  <path
     d="M -34.60261 7.65625 L -28.97761 10.25 L -31.54011 11.09375 C -25.78316 13.45202 -21.32822 17.25221 -21.25886 21.96875 L -23.47761 20.25 C -23.16548 22.60827 -23.00886 30.21875 -23.00886 30.21875 L -25.13386 27.65625 C -25.13386 27.65625 -24.69668 38.38336 -27.85261 39.5625 L -27.63386 36.4375 C -27.63386 36.4375 -29.67348 40.62206 -34.13386 42.8125 L -31.16511 45.78125 L -32.22761 48.125 L -28.10261 49.9375 L -31.07136 54.84375 C -28.30448 53.7079 -25.80301 52.18776 -23.88386 50.28125 C -15.83839 42.10592 -14.14244 35.34008 -13.00886 23.71875 C -12.98506 23.22984 -12.98865 22.14863 -13.50886 21.59375 L -15.16511 23.71875 C -15.82404 14.87524 -18.69636 11.5625 -18.69636 11.5625 L -18.69636 14.71875 C -18.69636 14.71875 -23.71296 7.482848 -34.60261 7.65625 z "
     transform="translate(70.86614,0)"
     style="font-size:12;fill:#8c8c8c;fill-rule:evenodd;stroke-width:1.875;stroke-linecap:round;stroke-linejoin:round;"
     id="path993" />
  <path
     d="M -34.60261 7.65625 L -34.00886 7.9375 L -33.85261 7.71875 C -34.11357 7.714256 -34.33452 7.651981 -34.60261 7.65625 z M -63.32136 8.3125 C -65.67963 12.75159 -65.19635 18.03125 -65.19636 18.03125 C -65.19636 18.03125 -67.58659 19.68741 -68.69636 25.375 L -67.47761 25.65625 C -68.24345 29.41585 -68.10532 33.11818 -67.25886 36.625 L -63.19636 33.375 L -60.66511 34.4375 L -58.69636 29.59375 L -56.35261 31.5625 L -53.29011 30.125 L -52.13386 30.53125 C -52.09896 29.78855 -52.04209 29.03932 -51.82136 28.3125 L -47.97761 27.96875 C -42.70618 28.87044 -50.12593 14.84758 -48.50886 13.34375 C -44.39482 9.134848 -47.12343 9.368043 -49.47761 10.9375 C -50.5833 11.60527 -51.92653 12.532 -52.75886 13.15625 L -60.44636 13.34375 L -63.32136 8.3125 z "
     transform="translate(70.86614,0)"
     style="font-size:12;fill:#4c4c4c;fill-rule:evenodd;stroke-width:1.875;stroke-linecap:round;stroke-linejoin:round;"
     id="path1002" />
  <path
     d="M -63.33073 7.549649 L -60.45736 12.56912 L -52.75866 12.40661 C -51.92633 11.78236 -50.58467 10.8351 -49.47898 10.16733 C -47.12479 8.597878 -44.40987 8.360219 -48.52391 12.56912 C -50.14097 14.07295 -42.70168 28.11511 -47.97311 27.21342 L -51.81344 27.54832 C -54.02518 34.83121 -46.3659 43.40542 -39.69572 43.36972 C -31.30341 43.32415 -27.64735 35.68393 -27.64735 35.68393 L -27.86734 38.81095 C -24.71141 37.63181 -25.11976 26.90334 -25.11976 26.90334 L -23.02024 29.44078 C -23.02024 29.44078 -23.15794 21.85122 -23.47006 19.49295 L -21.2546 21.20113 C -21.32396 16.48459 -25.77936 12.68711 -31.53631 10.32884 L -28.98594 9.475768 L -34.59498 6.879841 C -23.70533 6.706439 -18.70423 13.94239 -18.70423 13.94239 L -18.70423 10.80348 C -18.70423 10.80348 -15.83188 14.12326 -15.17295 22.96677 L -13.49945 20.84345 C -12.97925 21.39834 -12.99115 22.47786 -13.01495 22.96677 C -14.14852 34.5881 -15.84112 41.34353 -23.88659 49.51886 C -30.42836 56.01757 -43.17354 58.62656 -53.40634 53.34056 C -64.62394 46.88237 -69.76123 36.14125 -67.47232 24.90479 L -68.68307 24.60355 C -67.5733 18.91596 -65.19939 17.27749 -65.19939 17.27749 C -65.19939 17.27749 -65.689 11.98874 -63.33073 7.549649 z "
     transform="translate(70.86614,0.763446)"
     style="font-size:12;fill:none;fill-rule:evenodd;stroke:#333333;stroke-width:2.5;stroke-linecap:round;stroke-linejoin:round;"
     id="path1003" />
</svg>
