<?xml version="1.0" encoding="UTF-8" standalone="no"?>
<!DOCTYPE svg PUBLIC "-//W3C//DTD SVG 1.0//EN"
"http://www.w3.org/TR/2001/REC-SVG-20010904/DTD/svg10.dtd">
<!-- Created with Sodipodi ("http://www.sodipodi.com/") -->
<svg
   xmlns="http://www.w3.org/2000/svg"
   xmlns:xlink="http://www.w3.org/1999/xlink"
   version="1.0"
   x="0"
   y="0"
   width="60"
   height="60"
   id="svg1">
  <defs
     id="defs3" />
  <ellipse
     cx="29.5111217"
     cy="30.8487701"
     rx="25.192421"
     ry="25.192421"
     transform="matrix(1.053806,0,0,1.053806,-1.048028,-2.199677)"
     style="font-size:12;fill:#b3b3b3;fill-rule:evenodd;stroke:#333333;stroke-width:2.965441;stroke-linecap:round;stroke-linejoin:round;"
     id="path864" />
  <g
     style="font-size:12;"
     id="g870">
    <path
       d="M -54.67101 82.67318 C -54.52314 95.33514 -50.34697 108.8509 -40.34361 117.1824 C -33.43655 122.2031 -24.74814 125.3406 -16.1385 124.6103 C -4.542028 123.5998 4.356148 113.5661 7.010525 102.7037 C 8.00345 98.26093 8.835155 92.53115 5.165556 89.09037 C 0.661429 85.32096 -5.806754 81.77364 -11.63425 84.82242 C -14.76826 86.63923 -18.62908 90.4966 -16.64271 94.39017 C -15.4649 97.98371 -9.719219 97.39157 -8.883755 100.4717 C -13.33769 104.8347 -20.40102 107.9516 -26.42788 104.822 C -32.13073 101.8411 -37.53159 95.80388 -36.49578 88.95301 C -35.99037 84.6994 -31.60721 83.67127 -28.30124 82.38126 C -22.04252 79.03554 -16.13928 73.47693 -14.7557 66.25747 C -13.6967 60.26602 -19.49626 55.516 -24.94902 54.82379 C -33.14668 53.0572 -42.74343 54.75214 -48.10299 61.70949 C -52.81152 67.56964 -54.60939 75.2802 -54.67101 82.67318 z "
       transform="matrix(0.420601,2.925913e-2,-2.925913e-2,0.420601,44.73768,-0.851753)"
       style="fill:#333333;fill-rule:evenodd;stroke:#333333;stroke-width:1.482386;stroke-linecap:round;stroke-linejoin:round;"
       id="path857" />
    <path
       d="M -21.56098 33.7279 C -28.03903 24.73061 -39.55556 20.05202 -39.91545 31.56855 C -39.55556 39.12628 -39.55556 49.20325 -33.07751 49.20325 C -26.59946 49.20325 -15.08292 41.64552 -21.56098 33.7279 z "
       transform="matrix(0.420601,2.925913e-2,-2.925913e-2,0.420601,44.73768,-0.851753)"
       style="fill:#333333;fill-rule:evenodd;stroke:#333333;stroke-width:1.482386;stroke-linecap:round;stroke-linejoin:round;"
       id="path853" />
    <path
       d="M -50.35231 31.92844 C -43.51437 33.00812 -40.99513 49.20325 -45.67372 50.28292 C -50.71221 51.72249 -58.26993 44.52466 -58.26993 40.20596 C -58.26993 35.88725 -57.55015 30.48888 -50.35231 31.92844 z "
       transform="matrix(0.420601,2.925913e-2,-2.925913e-2,0.420601,44.73768,-0.851753)"
       style="fill:#333333;fill-rule:evenodd;stroke:#333333;stroke-width:1.482386;stroke-linecap:round;stroke-linejoin:round;"
       id="path854" />
    <path
       d="M -67.62712 49.56314 C -64.38809 45.24444 -50.71221 58.56043 -55.75069 62.51924 C -59.7095 65.39838 -63.66831 66.83794 -66.90733 61.79946 C -70.14636 56.76098 -70.86614 52.44227 -67.62712 49.56314 z "
       transform="matrix(0.420601,2.925913e-2,-2.925913e-2,0.420601,44.73768,-0.851753)"
       style="fill:#333333;fill-rule:evenodd;stroke:#333333;stroke-width:1.482386;stroke-linecap:round;stroke-linejoin:round;"
       id="path855" />
    <path
       d="M -73.74528 69.71708 C -66.90733 60.35989 -56.47047 76.91491 -59.34961 80.15394 C -64.38809 84.83253 -75.90463 75.47535 -73.74528 69.71708 z "
       transform="matrix(0.420601,2.925913e-2,-2.925913e-2,0.420601,44.73768,-0.851753)"
       style="fill:#333333;fill-rule:evenodd;stroke:#333333;stroke-width:1.482386;stroke-linecap:round;stroke-linejoin:round;"
       id="path856" />
  </g>
</svg>
