<?xml version="1.0" encoding="UTF-8" standalone="no"?>
<!DOCTYPE svg PUBLIC "-//W3C//DTD SVG 1.0//EN"
"http://www.w3.org/TR/2001/REC-SVG-20010904/DTD/svg10.dtd">
<!-- Created with Sodipodi ("http://www.sodipodi.com/") -->
<svg
   xmlns="http://www.w3.org/2000/svg"
   xmlns:xlink="http://www.w3.org/1999/xlink"
   version="1.0"
   x="0"
   y="0"
   width="60"
   height="60"
   id="svg1">
  <defs
     id="defs3" />
  <path
     d="M 30.8818 1.741598 C 30.8818 1.940816 30.81345 2.118551 30.67673 2.274801 C 30.54391 2.431051 30.3779 2.509176 30.17868 2.509176 C 30.08884 2.509176 29.91696 2.452535 29.66305 2.339254 C 29.41305 2.225973 29.2197 2.141988 29.08298 2.087301 C 28.94626 2.032613 28.79391 2.005269 28.62595 2.005269 C 28.46188 2.005269 28.32321 2.046285 28.20993 2.128316 C 28.09665 2.206441 28.04001 2.325582 28.04001 2.485738 C 28.04001 2.657613 28.21188 2.819723 28.55563 2.972066 C 28.89938 3.120504 29.26266 3.274801 29.64548 3.434957 C 30.02829 3.591207 30.35641 3.804098 30.62985 4.073629 C 30.90329 4.34316 31.04001 4.704488 31.04001 5.157613 C 31.04001 5.544332 30.93649 5.895894 30.72946 6.212301 C 30.52634 6.524801 30.23727 6.770894 29.86227 6.950582 C 29.48727 7.126363 29.05954 7.214254 28.57907 7.214254 C 28.23923 7.214254 27.8818 7.15566 27.5068 7.038473 C 27.1318 6.921285 26.81345 6.759176 26.55173 6.552144 C 26.29391 6.341207 26.16501 6.112691 26.16501 5.866598 C 26.16501 5.768941 26.1943 5.659566 26.2529 5.538473 C 26.3154 5.417379 26.40524 5.31191 26.52243 5.222066 C 26.63962 5.132223 26.76852 5.087301 26.90915 5.087301 C 27.0654 5.087301 27.20212 5.112691 27.3193 5.163473 C 27.43649 5.210348 27.58493 5.284566 27.76462 5.386129 C 27.9443 5.487691 28.10251 5.563863 28.23923 5.614644 C 28.37985 5.661519 28.53415 5.684957 28.70212 5.684957 C 28.95602 5.684957 29.1318 5.645894 29.22946 5.567769 C 29.33102 5.485738 29.3818 5.356832 29.3818 5.181051 C 29.3818 5.013082 29.21188 4.856832 28.87204 4.712301 C 28.5322 4.567769 28.16501 4.413473 27.77048 4.24941 C 27.37985 4.081441 27.04977 3.862691 26.78024 3.59316 C 26.51462 3.319723 26.3818 2.958395 26.3818 2.509176 C 26.3818 2.110738 26.48141 1.759176 26.68063 1.454488 C 26.87985 1.145895 27.1572 0.907613 27.51266 0.739645 C 27.86813 0.56777 28.27243 0.481832 28.72555 0.481832 C 29.04196 0.481832 29.36423 0.528707 29.69235 0.622457 C 30.02438 0.716207 30.30563 0.860738 30.5361 1.056051 C 30.76657 1.247457 30.8818 1.475973 30.8818 1.741598 z M 23.4111 6.165426 L 23.4111 2.145894 L 23.02438 2.145894 C 22.79001 2.145894 22.60641 2.079488 22.4736 1.946676 C 22.33688 1.809957 22.26852 1.620504 22.26852 1.378316 C 22.26852 1.163473 22.34079 0.983785 22.48532 0.839254 C 22.62985 0.694723 22.80954 0.622457 23.02438 0.622457 L 23.4111 0.622457 L 23.4111 -0.420512 C 23.4111 -0.71348 23.48923 -0.947855 23.64548 -1.123637 C 23.80563 -1.303324 24.01462 -1.393168 24.27243 -1.393168 C 24.4404 -1.393168 24.59079 -1.352152 24.7236 -1.270121 C 24.85641 -1.18809 24.95798 -1.072855 25.02829 -0.924418 C 25.10251 -0.779887 25.13962 -0.611918 25.13962 -0.420512 L 25.13962 0.622457 L 25.6318 0.622457 C 25.87009 0.622457 26.06735 0.684957 26.2236 0.809957 C 26.37985 0.931051 26.45798 1.120504 26.45798 1.378316 C 26.45798 1.640035 26.37985 1.833394 26.2236 1.958394 C 26.07126 2.083394 25.87399 2.145894 25.6318 2.145894 L 25.13962 2.145894 L 25.13962 6.165426 C 25.13962 6.352926 25.10251 6.522848 25.02829 6.675191 C 24.95407 6.823629 24.85055 6.938863 24.71774 7.020894 C 24.58493 7.099019 24.43649 7.138082 24.27243 7.138082 C 24.01462 7.138082 23.80563 7.050191 23.64548 6.87441 C 23.48923 6.694723 23.4111 6.458394 23.4111 6.165426 z M 16.3154 6.165426 L 16.3154 1.513082 C 16.3154 1.220113 16.39352 0.987691 16.54977 0.815816 C 16.70993 0.640035 16.91891 0.552145 17.17673 0.552145 C 17.39938 0.552145 17.57907 0.606832 17.71579 0.716207 C 17.85641 0.825582 17.94235 0.981832 17.9736 1.184957 C 18.14548 0.946676 18.36423 0.770895 18.62985 0.657613 C 18.89938 0.540426 19.23532 0.481832 19.63766 0.481832 C 20.09079 0.481832 20.49704 0.575582 20.85641 0.763082 C 21.21579 0.946676 21.49704 1.216207 21.70016 1.571676 C 21.90329 1.923238 22.00485 2.339254 22.00485 2.819723 L 22.00485 6.165426 C 22.00485 6.352926 21.96774 6.522848 21.89352 6.675191 C 21.8193 6.823629 21.71579 6.938863 21.58298 7.020894 C 21.45016 7.099019 21.30173 7.138082 21.13766 7.138082 C 20.87985 7.138082 20.67087 7.050191 20.51071 6.87441 C 20.35446 6.694723 20.27634 6.458394 20.27634 6.165426 L 20.27634 3.130269 C 20.27634 2.735738 20.17087 2.43691 19.95993 2.233785 C 19.7529 2.03066 19.48141 1.929098 19.14548 1.929098 C 18.80173 1.929098 18.5322 2.042379 18.33688 2.268941 C 18.14157 2.495504 18.04391 2.782613 18.04391 3.130269 L 18.04391 6.165426 C 18.04391 6.352926 18.0068 6.522848 17.93259 6.675191 C 17.85837 6.823629 17.75485 6.938863 17.62204 7.020894 C 17.48923 7.099019 17.34079 7.138082 17.17673 7.138082 C 16.91891 7.138082 16.70993 7.050191 16.54977 6.87441 C 16.39352 6.694723 16.3154 6.458394 16.3154 6.165426 z M 12.48337 0.481832 C 12.92868 0.481832 13.34469 0.575582 13.73141 0.763082 C 14.12204 0.946676 14.45212 1.194723 14.72165 1.507223 C 14.99509 1.819723 15.20602 2.177144 15.35446 2.579488 C 15.5068 2.977926 15.58298 3.401754 15.58298 3.850973 C 15.58298 4.304098 15.50876 4.735738 15.36032 5.145894 C 15.21188 5.552144 15.0029 5.909566 14.73337 6.21816 C 14.46384 6.522848 14.1318 6.765035 13.73727 6.944723 C 13.34665 7.12441 12.92868 7.214254 12.48337 7.214254 C 11.8818 7.214254 11.34469 7.063863 10.87204 6.763082 C 10.40329 6.458394 10.03805 6.050191 9.776336 5.538473 C 9.518523 5.022848 9.389617 4.460348 9.389617 3.850973 C 9.389617 3.417379 9.463836 2.997457 9.612273 2.591207 C 9.760711 2.184957 9.971648 1.823629 10.24509 1.507223 C 10.52243 1.190816 10.85446 0.940816 11.24118 0.757223 C 11.6279 0.573629 12.04196 0.481832 12.48337 0.481832 z M 12.48337 2.075582 C 12.1904 2.075582 11.9404 2.161519 11.73337 2.333394 C 11.52634 2.505269 11.37204 2.729879 11.27048 3.007223 C 11.16891 3.28066 11.11813 3.56191 11.11813 3.850973 C 11.11813 4.147848 11.16891 4.431051 11.27048 4.700582 C 11.37594 4.970113 11.53024 5.190816 11.73337 5.362691 C 11.9404 5.53066 12.1904 5.614644 12.48337 5.614644 C 12.78415 5.614644 13.0361 5.53066 13.23923 5.362691 C 13.44235 5.190816 13.59469 4.970113 13.69626 4.700582 C 13.80173 4.431051 13.85446 4.147848 13.85446 3.850973 C 13.85446 3.565816 13.80368 3.286519 13.70212 3.013082 C 13.60055 2.735738 13.44626 2.511129 13.23923 2.339254 C 13.0361 2.163473 12.78415 2.075582 12.48337 2.075582 z M 6.489226 6.165426 L 6.489226 2.145894 L 6.102508 2.145894 C 5.868133 2.145894 5.684539 2.079488 5.551726 1.946676 C 5.415008 1.809957 5.346648 1.620504 5.346648 1.378316 C 5.346648 1.163473 5.418914 0.983785 5.563445 0.839254 C 5.707976 0.694723 5.887664 0.622457 6.102508 0.622457 L 6.489226 0.622457 L 6.489226 -0.274027 C 6.489226 -0.902934 6.655242 -1.391215 6.987273 -1.738871 C 7.323211 -2.090434 7.760711 -2.266215 8.299773 -2.266215 C 9.100554 -2.266215 9.500945 -2.002543 9.500945 -1.475199 C 9.500945 -0.979105 9.264617 -0.731059 8.791961 -0.731059 C 8.600554 -0.731059 8.456023 -0.693949 8.358367 -0.61973 C 8.260711 -0.549418 8.211883 -0.37559 8.211883 -0.098246 L 8.211883 0.622457 L 8.756804 0.622457 C 9.338836 0.622457 9.629851 0.87441 9.629851 1.378316 C 9.629851 1.890035 9.338836 2.145894 8.756804 2.145894 L 8.211883 2.145894 L 8.211883 6.165426 C 8.211883 6.352926 8.174773 6.522848 8.100554 6.675191 C 8.030242 6.823629 7.92868 6.938863 7.795867 7.020894 C 7.663055 7.099019 7.514617 7.138082 7.350555 7.138082 C 7.092742 7.138082 6.883758 7.050191 6.723601 6.87441 C 6.567351 6.694723 6.489226 6.458394 6.489226 6.165426 z "
     transform="matrix(2.089372,0,0,2.089372,-8.001611,10.47006)"
     style="font-size:12;fill:#333333;stroke-width:1;font-family:VAG Rounded Black SSi;"
     id="path832" />
  <path
     d="M 20.28493 23.43187 C 20.27293 23.53987 20.26093 23.63587 20.26093 23.70787 C 20.26093 24.22387 20.62093 24.58387 21.14893 24.58387 C 21.52093 24.58387 22.03693 24.42787 22.42093 24.21187 C 23.12893 23.80387 23.56093 23.19187 23.56093 22.59187 C 23.56093 22.14787 23.47693 22.05187 22.80493 21.63187 C 22.39693 21.36787 22.22893 21.13987 22.22893 20.82787 C 22.22893 20.41987 22.57693 20.05987 22.98493 20.05987 C 23.26093 20.05987 23.46493 20.19187 23.72893 20.52787 C 24.13693 20.13187 24.13693 20.13187 24.29293 19.90387 C 24.05293 19.61587 23.82493 19.49587 23.48893 19.49587 C 22.61293 19.49587 21.48493 20.53987 21.48493 21.33187 C 21.48493 21.70387 21.67693 21.99187 22.13293 22.31587 C 22.73293 22.73587 22.81693 22.84387 22.81693 23.14387 C 22.81693 23.57587 22.26493 24.07987 21.79693 24.07987 C 21.53293 24.07987 21.32893 23.93587 21.20893 23.67187 C 21.12493 23.49187 21.10093 23.31187 21.08893 22.90387 C 20.95693 22.99987 20.86093 23.05987 20.81293 23.09587 C 20.71693 23.15587 20.60893 23.21587 20.50093 23.28787 C 20.50093 23.28787 20.40493 23.34787 20.28493 23.43187 z M 20.28493 22.91587 C 19.37293 23.45587 18.98893 23.65987 18.82093 23.65987 C 18.66493 23.65987 18.47293 23.34787 18.47293 23.09587 C 18.47293 22.92787 18.67693 22.00387 18.98893 20.74387 C 19.15693 20.73187 19.27693 20.73187 19.33693 20.73187 L 19.81693 20.71987 C 19.86493 20.71987 19.98493 20.70787 20.17693 20.68387 L 20.63293 20.33587 L 19.09693 20.33587 C 19.16893 20.03587 19.32493 19.38787 19.57693 18.39187 C 19.34893 18.51187 19.25293 18.54787 19.07293 18.63187 C 18.98893 18.67987 18.89293 18.71587 18.79693 18.76387 C 18.74893 18.78787 18.68893 18.81187 18.62893 18.83587 C 18.46093 19.60387 18.40093 19.85587 18.29293 20.33587 C 18.18493 20.34787 18.11293 20.34787 18.07693 20.34787 L 17.78893 20.34787 C 17.76493 20.34787 17.70493 20.34787 17.60893 20.35987 C 17.47693 20.44387 17.46493 20.44387 17.26093 20.61187 C 17.22493 20.63587 17.16493 20.68387 17.08093 20.74387 L 17.36893 20.74387 L 17.92093 20.74387 L 18.18493 20.74387 C 17.54893 23.40787 17.54893 23.40787 17.54893 23.77987 C 17.54893 24.16387 17.80093 24.58387 18.02893 24.58387 C 18.29293 24.58387 19.10893 24.07987 20.26093 23.21587 L 20.28493 22.91587 z M 12.37693 24.19987 L 13.08493 21.37987 C 14.58493 20.43187 14.62093 20.41987 14.78893 20.41987 C 14.87293 20.41987 14.92093 20.47987 14.92093 20.57587 C 14.92093 20.75587 14.82493 21.21187 14.47693 22.57987 C 14.21293 23.64787 14.16493 23.85187 14.16493 24.07987 C 14.16493 24.24787 14.21293 24.40387 14.34493 24.61987 C 14.89693 24.36787 15.72493 23.85187 16.56493 23.22787 L 16.64893 22.89187 C 15.44893 23.57587 15.40093 23.59987 15.28093 23.59987 C 15.16093 23.59987 15.08893 23.46787 15.08893 23.27587 C 15.08893 23.02387 15.17293 22.62787 15.40093 21.79987 C 15.96493 19.78387 15.96493 19.78387 15.96493 19.69987 C 15.96493 19.56787 15.88093 19.49587 15.72493 19.49587 C 15.54493 19.49587 15.28093 19.60387 14.84893 19.87987 C 14.63293 20.01187 14.08093 20.34787 13.20493 20.89987 C 13.31293 20.50387 13.49293 19.74787 13.49293 19.65187 C 13.49293 19.56787 13.42093 19.49587 13.33693 19.49587 C 13.20493 19.49587 12.34093 19.93987 11.45293 20.46787 L 11.38093 20.77987 C 12.14893 20.43187 12.19693 20.41987 12.30493 20.41987 C 12.38893 20.41987 12.44893 20.49187 12.44893 20.58787 C 12.44893 20.83987 12.22093 21.83587 11.92093 22.92787 L 11.64493 23.89987 C 11.62093 23.98387 11.56093 24.21187 11.47693 24.54787 L 12.37693 24.19987 z M 9.916929 19.49587 C 9.436929 19.49587 8.668929 19.84387 7.960929 20.37187 C 7.192929 20.94787 6.652929 22.19587 6.652929 23.38387 C 6.652929 24.11587 7.060929 24.58387 7.696929 24.58387 C 8.032929 24.58387 8.368929 24.46387 8.920929 24.17587 C 9.520929 23.83987 9.916929 23.53987 10.13293 23.25187 C 10.61293 22.60387 10.99693 21.42787 10.99693 20.59987 C 10.99693 19.95187 10.55293 19.49587 9.916929 19.49587 z M 9.292929 20.05987 C 9.772929 20.05987 10.07293 20.52787 10.07293 21.24787 C 10.07293 21.75187 9.904929 22.37587 9.604929 22.96387 C 9.268929 23.64787 8.836929 24.01987 8.380929 24.01987 C 7.888929 24.01987 7.576929 23.57587 7.576929 22.89187 C 7.576929 21.49987 8.452929 20.05987 9.292929 20.05987 z M 5.968929 20.68387 C 6.004929 20.68387 6.076929 20.68387 6.208929 20.69587 L 6.700929 20.31187 C 6.076929 20.29987 6.076929 20.29987 5.944929 20.29987 C 5.800929 20.29987 5.800929 20.29987 5.236929 20.31187 C 6.016929 17.26387 6.196929 16.89187 6.904929 16.89187 C 7.108929 16.89187 7.264929 16.91587 7.708929 16.98787 L 8.260929 16.33987 C 8.020929 16.27987 7.924929 16.26787 7.684929 16.26787 C 6.964929 16.26787 6.460929 16.53187 5.656929 17.31187 C 4.984929 17.95987 4.828929 18.31987 4.360929 20.31187 C 4.240929 20.29987 4.180929 20.29987 4.120929 20.29987 L 3.532929 20.32387 C 3.508929 20.32387 3.448929 20.32387 3.352929 20.31187 C 3.280929 20.35987 3.208929 20.40787 3.184929 20.41987 L 2.920929 20.56387 C 2.872929 20.58787 2.776929 20.63587 2.680929 20.69587 L 2.980929 20.69587 L 3.820929 20.70787 C 3.892929 20.70787 4.024929 20.70787 4.264929 20.69587 C 4.072929 21.42787 4.000929 21.75187 3.772929 22.79587 C 3.052929 26.09587 2.776929 26.63587 1.756929 26.63587 C 1.588929 26.63587 1.444929 26.62387 1.120929 26.57587 C 1.000929 26.75587 0.964929 26.81587 0.880929 26.92387 C 0.784929 27.05587 0.676929 27.18787 0.580929 27.33187 C 0.844929 27.36787 0.976929 27.37987 1.168929 27.37987 C 1.564929 27.37987 1.876929 27.31987 2.068929 27.21187 C 2.416929 27.01987 3.028929 26.43187 3.352929 26.01187 C 3.724929 25.50787 4.156929 24.47587 4.432929 23.38387 C 4.948929 21.42787 5.080929 20.93587 5.140929 20.69587 C 5.248929 20.70787 5.296929 20.70787 5.344929 20.70787 L 5.968929 20.68387 z "
     transform="matrix(2.241825,0,0,2.241825,2.201773,-6.718957)"
     style="font-size:12;font-style:italic;fill:#333333;stroke-width:1;font-family:URW Chancery L;"
     id="path831" />
</svg>
