<?xml version="1.0" encoding="UTF-8" standalone="no"?>
<!DOCTYPE svg PUBLIC "-//W3C//DTD SVG 1.0//EN"
"http://www.w3.org/TR/2001/REC-SVG-20010904/DTD/svg10.dtd">
<!-- Created with Sodipodi ("http://www.sodipodi.com/") -->
<svg
   xmlns="http://www.w3.org/2000/svg"
   xmlns:xlink="http://www.w3.org/1999/xlink"
   version="1.0"
   x="0"
   y="0"
   width="60"
   height="60"
   id="svg1">
  <defs
     id="defs3" />
  <path
     d="M 30.09375 2.9375 C 15.0031 2.9375 2.749998 15.1906 2.75 30.28125 C 2.75 45.3719 15.0031 57.625 30.09375 57.625 C 45.1844 57.625 57.43751 45.3719 57.4375 30.28125 C 57.4375 15.1906 45.1844 2.9375 30.09375 2.9375 z M 29.59375 10.53125 C 31.33552 10.53125 32.99047 10.79826 34.5 11.3125 C 36.00953 11.82673 37.33882 12.5672 38.5 13.5625 C 39.66118 14.55779 40.57181 15.76091 41.21875 17.1875 C 41.88228 18.5975 42.1875 20.19573 42.1875 21.9375 C 42.1875 25.05609 41.41963 27.46232 39.84375 29.1875 C 38.28446 30.89609 36.14331 32.02975 33.40625 32.59375 L 33.40625 33.59375 C 33.40625 34.38999 33.22335 35.10498 32.875 35.71875 C 32.54324 36.31593 32.05126 36.77665 31.4375 37.125 C 30.84032 37.45677 30.16931 37.625 29.40625 37.625 C 28.64319 37.625 27.95752 37.45676 27.34375 37.125 C 26.74657 36.77665 26.28585 36.31593 25.9375 35.71875 C 25.60573 35.10498 25.4375 34.38999 25.4375 33.59375 L 25.4375 29.5 C 25.4375 28.654 25.58915 27.97913 25.9375 27.53125 C 26.28585 27.08337 26.7211 26.79088 27.21875 26.625 C 27.7164 26.45912 28.47346 26.27622 29.46875 26.09375 C 32.05652 25.61269 33.34375 24.31079 33.34375 22.1875 C 33.34375 21.32491 32.97796 20.55512 32.28125 19.875 C 31.60113 19.17829 30.70516 18.84375 29.59375 18.84375 C 28.56528 18.84375 27.75343 19.03938 27.15625 19.4375 C 26.57566 19.83562 26.01809 20.42444 25.4375 21.1875 C 24.8735 21.93397 24.31207 22.50813 23.78125 22.90625 C 23.26701 23.28778 22.55202 23.46875 21.65625 23.46875 C 20.64437 23.46875 19.79238 23.07556 19.0625 22.3125 C 18.34921 21.53285 18 20.63881 18 19.59375 C 18 17.76904 18.5869 16.15807 19.78125 14.78125 C 20.97561 13.40442 22.45847 12.35488 24.25 11.625 C 26.04153 10.89512 27.81881 10.53125 29.59375 10.53125 z M 29.34375 42.0625 C 30.1234 42.0625 30.85113 42.27279 31.53125 42.6875 C 32.21137 43.1022 32.72688 43.64704 33.125 44.34375 C 33.53971 45.02387 33.75 45.76626 33.75 46.5625 C 33.75 47.37532 33.53971 48.14704 33.125 48.84375 C 32.72688 49.52387 32.19671 50.03938 31.5 50.4375 C 30.81988 50.83562 30.10681 51.03125 29.34375 51.03125 C 28.58069 51.03125 27.85296 50.83562 27.15625 50.4375 C 26.47613 50.03938 25.91471 49.52387 25.5 48.84375 C 25.10188 48.14704 24.90625 47.37532 24.90625 46.5625 C 24.90625 45.76626 25.10188 45.02387 25.5 44.34375 C 25.91471 43.64704 26.47613 43.10221 27.15625 42.6875 C 27.83637 42.27279 28.5641 42.0625 29.34375 42.0625 z "
     style="font-size:12;fill:#b3b3b3;fill-rule:evenodd;stroke:#333333;stroke-width:3.125;"
     id="path839" />
</svg>
