<?xml version="1.0" encoding="UTF-8" standalone="no"?>
<!-- Created with Sodipodi ("http://www.sodipodi.com/") -->

<svg
   xmlns:dc="http://purl.org/dc/elements/1.1/"
   xmlns:cc="http://creativecommons.org/ns#"
   xmlns:rdf="http://www.w3.org/1999/02/22-rdf-syntax-ns#"
   xmlns:svg="http://www.w3.org/2000/svg"
   xmlns="http://www.w3.org/2000/svg"
   xmlns:sodipodi="http://sodipodi.sourceforge.net/DTD/sodipodi-0.dtd"
   xmlns:inkscape="http://www.inkscape.org/namespaces/inkscape"
   version="1.0"
   x="0"
   y="0"
   width="60"
   height="60"
   id="svg1"
   inkscape:version="0.48.3.1 r9886"
   sodipodi:docname="ink_ext_XXXXXX.svgN5PXVW">
  <sodipodi:namedview
     pagecolor="#ffffff"
     bordercolor="#666666"
     borderopacity="1"
     objecttolerance="10"
     gridtolerance="10"
     guidetolerance="10"
     inkscape:pageopacity="0"
     inkscape:pageshadow="2"
     inkscape:window-width="1432"
     inkscape:window-height="877"
     id="namedview3007"
     showgrid="false"
     inkscape:zoom="10.683333"
     inkscape:cx="24.898596"
     inkscape:cy="30"
     inkscape:window-x="0"
     inkscape:window-y="0"
     inkscape:window-maximized="0"
     inkscape:current-layer="svg1" />
  <metadata
     id="metadata3009">
    <rdf:RDF>
      <cc:Work
         rdf:about="">
        <dc:format>image/svg+xml</dc:format>
        <dc:type
           rdf:resource="http://purl.org/dc/dcmitype/StillImage" />
      </cc:Work>
    </rdf:RDF>
  </metadata>
  <defs
     id="defs3" />
  <path
     sodipodi:nodetypes="sssssccccscccccccccc"
     inkscape:connector-curvature="0"
     id="path701"
     style="font-size:12px;fill:#b3b3b3;fill-rule:evenodd;stroke:#333333;stroke-width:3.22656012;stroke-linecap:round;stroke-linejoin:round"
     d="m 30.15625,4.90625 c -14.0474,0 -25.4375,11.3901 -25.4375,25.4375 0,14.0474 11.3901,25.46875 25.4375,25.46875 14.0474,0 25.4375,-11.42135 25.4375,-25.46875 0,-14.0474 -11.3901,-25.4375 -25.4375,-25.4375 z m 7.46875,5.46875 8.34375,8.34375 -8.25,9.90625 0,-6.15625 c -0.07849,0 -4.846874,-1.441212 -10.497661,0.852125 C 23.031919,25.021023 18.357789,28.773638 14.75,36.6875 17.75703,11.94787 37.625,16.59375 37.625,16.59375 z m 8.34375,14.15625 C 42.96172,49.27088 23.09375,44.625 23.09375,44.625 l 0,6.21875 L 14.75,42.5 23,32.59375 23,38.75 c 0.13668,0 14.4944,4.37015 22.96875,-14.21875 z" />
  <path
     inkscape:connector-curvature="0"
     id="path3043"
     d="m 19.394875,26.588507 c 9.8e-5,-0.04396 0.214901,-0.436944 0.477339,-0.873298 2.476713,-4.118014 6.206562,-6.708746 10.848535,-7.535331 1.195904,-0.212951 4.184339,-0.294099 5.288611,-0.143605 1.57304,0.214378 1.955955,0.222139 2.302057,0.04665 0.787389,-0.39923 0.865283,-0.59417 0.925647,-2.316539 l 0.04843,-1.381818 2.214671,2.224251 2.214669,2.224251 -2.167868,2.601056 -2.167868,2.601057 -0.0468,-1.110989 c -0.0432,-1.025465 -0.06621,-1.136411 -0.298928,-1.441238 -0.310733,-0.407013 -0.667549,-0.580484 -1.573147,-0.764806 -1.892955,-0.385284 -4.707238,-0.431381 -6.645865,-0.108857 -3.964977,0.659642 -7.641647,2.505057 -10.673722,5.357416 -0.410264,0.385947 -0.745855,0.665755 -0.745756,0.621795 l 0,0 z"
     style="fill:#008000;fill-opacity:0;stroke:#ff0000;stroke-width:0.09360375;stroke-opacity:0" />
  <path
     inkscape:connector-curvature="0"
     id="path3045"
     d="m 19.394875,26.588507 c 9.8e-5,-0.04396 0.214901,-0.436944 0.477339,-0.873298 2.476713,-4.118014 6.206562,-6.708746 10.848535,-7.535331 1.195904,-0.212951 4.184339,-0.294099 5.288611,-0.143605 1.57304,0.214378 1.955955,0.222139 2.302057,0.04665 0.787389,-0.39923 0.865283,-0.59417 0.925647,-2.316539 l 0.04843,-1.381818 2.214671,2.224251 2.214669,2.224251 -2.167868,2.601056 -2.167868,2.601057 -0.0468,-1.110989 c -0.0432,-1.025465 -0.06621,-1.136411 -0.298928,-1.441238 -0.310733,-0.407013 -0.667549,-0.580484 -1.573147,-0.764806 -1.892955,-0.385284 -4.707238,-0.431381 -6.645865,-0.108857 -3.964977,0.659642 -7.641647,2.505057 -10.673722,5.357416 -0.410264,0.385947 -0.745855,0.665755 -0.745756,0.621795 l 0,0 z"
     style="fill:#008000;fill-opacity:0;stroke:#ff0000;stroke-width:0.09360375;stroke-opacity:0" />
  <path
     inkscape:connector-curvature="0"
     id="path3047"
     d="m 19.394875,26.588507 c 9.8e-5,-0.04396 0.214901,-0.436944 0.477339,-0.873298 2.476713,-4.118014 6.206562,-6.708746 10.848535,-7.535331 1.195904,-0.212951 4.184339,-0.294099 5.288611,-0.143605 1.57304,0.214378 1.955955,0.222139 2.302057,0.04665 0.787389,-0.39923 0.865283,-0.59417 0.925647,-2.316539 l 0.04843,-1.381818 2.214671,2.224251 2.214669,2.224251 -2.167868,2.601056 -2.167868,2.601057 -0.0468,-1.110989 c -0.0432,-1.025465 -0.06621,-1.136411 -0.298928,-1.441238 -0.310733,-0.407013 -0.667549,-0.580484 -1.573147,-0.764806 -1.892955,-0.385284 -4.707238,-0.431381 -6.645865,-0.108857 -3.964977,0.659642 -7.641647,2.505057 -10.673722,5.357416 -0.410264,0.385947 -0.745855,0.665755 -0.745756,0.621795 l 0,0 z"
     style="fill:#008000;fill-opacity:0;stroke:#ff0000;stroke-width:0.09360375;stroke-opacity:0" />
  <path
     inkscape:connector-curvature="0"
     id="path3049"
     d="m 19.394875,26.588507 c 9.8e-5,-0.04396 0.214901,-0.436944 0.477339,-0.873298 2.476713,-4.118014 6.206562,-6.708746 10.848535,-7.535331 1.195904,-0.212951 4.184339,-0.294099 5.288611,-0.143605 1.57304,0.214378 1.955955,0.222139 2.302057,0.04665 0.787389,-0.39923 0.865283,-0.59417 0.925647,-2.316539 l 0.04843,-1.381818 2.214671,2.224251 2.214669,2.224251 -2.167868,2.601056 -2.167868,2.601057 -0.0468,-1.110989 c -0.0432,-1.025465 -0.06621,-1.136411 -0.298928,-1.441238 -0.310733,-0.407013 -0.667549,-0.580484 -1.573147,-0.764806 -1.892955,-0.385284 -4.707238,-0.431381 -6.645865,-0.108857 -3.964977,0.659642 -7.641647,2.505057 -10.673722,5.357416 -0.410264,0.385947 -0.745855,0.665755 -0.745756,0.621795 l 0,0 z"
     style="fill:#008000;fill-opacity:0;stroke:#ff0000;stroke-width:0.09360375;stroke-opacity:0" />
  <path
     inkscape:connector-curvature="0"
     id="path3051"
     d="m 19.394875,26.588507 c 9.8e-5,-0.04396 0.214901,-0.436944 0.477339,-0.873298 2.476713,-4.118014 6.206562,-6.708746 10.848535,-7.535331 1.195904,-0.212951 4.184339,-0.294099 5.288611,-0.143605 1.57304,0.214378 1.955955,0.222139 2.302057,0.04665 0.787389,-0.39923 0.865283,-0.59417 0.925647,-2.316539 l 0.04843,-1.381818 2.214671,2.224251 2.214669,2.224251 -2.167868,2.601056 -2.167868,2.601057 -0.0468,-1.110989 c -0.0432,-1.025465 -0.06621,-1.136411 -0.298928,-1.441238 -0.310733,-0.407013 -0.667549,-0.580484 -1.573147,-0.764806 -1.892955,-0.385284 -4.707238,-0.431381 -6.645865,-0.108857 -3.964977,0.659642 -7.641647,2.505057 -10.673722,5.357416 -0.410264,0.385947 -0.745855,0.665755 -0.745756,0.621795 l 0,0 z"
     style="fill:#008000;fill-opacity:0;stroke:#ff0000;stroke-width:0.09360375;stroke-opacity:0" />
  <g
     id="g3063"
     transform="translate(24.898596, 30.0)"
     inkscape:label="WireframeSphere">
    <g
       id="g3065"
       inkscape:label="Lines of Longitude">
      <path
         d="M 5.715116,0 C 5.715116,55.228475 3.1563714,100 0,100 -3.1563714,100 -5.715116,55.228475 -5.715116,0 c 0,-55.228475 2.5587446,-100 5.715116,-100 3.1563714,0 5.715116,44.771525 5.715116,100"
         id="path3067"
         sodipodi:cx="0"
         sodipodi:cy="0"
         transform="rotate(2.29680933217)"
         sodipodi:end="6.28318530718"
         sodipodi:start="0"
         sodipodi:open="true"
         sodipodi:type="arc"
         style="stroke:#000000;stroke-width:1;fill:none"
         sodipodi:ry="100.0"
         sodipodi:rx="5.71511580699" />
      <path
         d="M 26.669981,0 C 26.669981,55.228475 14.729424,100 0,100 -14.729424,100 -26.669981,55.228475 -26.669981,0 c 0,-55.228475 11.940557,-100 26.669981,-100 14.729424,0 26.669981,44.771525 26.669981,100"
         id="path3069"
         sodipodi:cx="0"
         sodipodi:cy="0"
         transform="rotate(11.1720372875)"
         sodipodi:end="6.28318530718"
         sodipodi:start="0"
         sodipodi:open="true"
         sodipodi:type="arc"
         style="stroke:#000000;stroke-width:1;fill:none"
         sodipodi:ry="100.0"
         sodipodi:rx="26.6699819279" />
      <path
         d="M 45.8074,0 C 45.8074,55.228475 25.298728,100 0,100 -25.298728,100 -45.8074,55.228475 -45.8074,0 c 0,-55.228475 20.508672,-100 45.8074,-100 25.298728,0 45.8074,44.771525 45.8074,100"
         id="path3071"
         sodipodi:cx="0"
         sodipodi:cy="0"
         transform="rotate(21.1505665587)"
         sodipodi:end="6.28318530718"
         sodipodi:start="0"
         sodipodi:open="true"
         sodipodi:type="arc"
         style="stroke:#000000;stroke-width:1;fill:none"
         sodipodi:ry="100.0"
         sodipodi:rx="45.807401003" />
      <path
         d="M 61.823189,0 C 61.823189,55.228475 34.144004,100 0,100 -34.144004,100 -61.823189,55.228475 -61.823189,0 c 0,-55.228475 27.679185,-100 61.823189,-100 34.144004,0 61.823189,44.771525 61.823189,100"
         id="path3073"
         sodipodi:cx="0"
         sodipodi:cy="0"
         transform="rotate(33.4177947763)"
         sodipodi:end="6.28318530718"
         sodipodi:start="0"
         sodipodi:open="true"
         sodipodi:type="arc"
         style="stroke:#000000;stroke-width:1;fill:none"
         sodipodi:ry="100.0"
         sodipodi:rx="61.8231895484" />
      <path
         d="M 73.6259,0 C 73.6259,55.228475 40.662462,100 0,100 -40.662462,100 -73.6259,55.228475 -73.6259,0 c 0,-55.228475 32.963438,-100 73.6259,-100 40.662462,0 73.6259,44.771525 73.6259,100"
         id="path3075"
         sodipodi:cx="0"
         sodipodi:cy="0"
         transform="rotate(49.6242948908)"
         sodipodi:end="6.28318530718"
         sodipodi:start="0"
         sodipodi:open="true"
         sodipodi:type="arc"
         style="stroke:#000000;stroke-width:1;fill:none"
         sodipodi:ry="100.0"
         sodipodi:rx="73.6258980421" />
      <path
         d="M 80.411194,0 C 80.411194,55.228475 44.409876,100 0,100 -44.409876,100 -80.411194,55.228475 -80.411194,0 c 0,-55.228475 36.001318,-100 80.411194,-100 44.409876,0 80.411194,44.771525 80.411194,100"
         id="path3077"
         sodipodi:cx="0"
         sodipodi:cy="0"
         transform="rotate(71.27890546)"
         sodipodi:end="6.28318530718"
         sodipodi:start="0"
         sodipodi:open="true"
         sodipodi:type="arc"
         style="stroke:#000000;stroke-width:1;fill:none"
         sodipodi:ry="100.0"
         sodipodi:rx="80.4111914051" />
      <path
         d="M 81.71666,0 C 81.71666,55.228475 45.130865,100 0,100 -45.130865,100 -81.71666,55.228475 -81.71666,0 c 0,-55.228475 36.585795,-100 81.71666,-100 45.130865,0 81.71666,44.771525 81.71666,100"
         id="path3079"
         sodipodi:cx="0"
         sodipodi:cy="0"
         transform="rotate(-83.0491620919)"
         sodipodi:end="6.28318530718"
         sodipodi:start="0"
         sodipodi:open="true"
         sodipodi:type="arc"
         style="stroke:#000000;stroke-width:1;fill:none"
         sodipodi:ry="100.0"
         sodipodi:rx="81.716663108" />
      <path
         d="M 77.453346,0 C 77.453346,55.228475 42.776302,100 0,100 -42.776302,100 -77.453346,55.228475 -77.453346,0 c 0,-55.228475 34.677044,-100 77.453346,-100 42.776302,0 77.453346,44.771525 77.453346,100"
         id="path3081"
         sodipodi:cx="0"
         sodipodi:cy="0"
         transform="rotate(-59.0228956689)"
         sodipodi:end="6.28318530718"
         sodipodi:start="0"
         sodipodi:open="true"
         sodipodi:type="arc"
         style="stroke:#000000;stroke-width:1;fill:none"
         sodipodi:ry="100.0"
         sodipodi:rx="77.4533474115" />
      <path
         d="M 67.911781,0 C 67.911781,55.228475 37.506641,100 0,100 -37.506641,100 -67.911781,55.228475 -67.911781,0 c 0,-55.228475 30.40514,-100 67.911781,-100 37.506641,0 67.911781,44.771525 67.911781,100"
         id="path3083"
         sodipodi:cx="0"
         sodipodi:cy="0"
         transform="rotate(-40.3765769134)"
         sodipodi:end="6.28318530718"
         sodipodi:start="0"
         sodipodi:open="true"
         sodipodi:type="arc"
         style="stroke:#000000;stroke-width:1;fill:none"
         sodipodi:ry="100.0"
         sodipodi:rx="67.9117822351" />
      <path
         d="M 53.74221,0 C 53.74221,55.228475 29.681003,100 0,100 -29.681003,100 -53.74221,55.228475 -53.74221,0 c 0,-55.228475 24.061207,-100 53.74221,-100 29.681003,0 53.74221,44.771525 53.74221,100"
         id="path3085"
         sodipodi:cx="0"
         sodipodi:cy="0"
         transform="rotate(-26.5009536122)"
         sodipodi:end="6.28318530718"
         sodipodi:start="0"
         sodipodi:open="true"
         sodipodi:type="arc"
         style="stroke:#000000;stroke-width:1;fill:none"
         sodipodi:ry="100.0"
         sodipodi:rx="53.7422094772" />
      <path
         d="M 35.910263,0 C 35.910263,55.228475 19.832691,100 0,100 -19.832691,100 -35.910263,55.228475 -35.910263,0 c 0,-55.228475 16.077572,-100 35.910263,-100 19.832691,0 35.910263,44.771525 35.910263,100"
         id="path3087"
         sodipodi:cx="0"
         sodipodi:cy="0"
         transform="rotate(-15.6290650311)"
         sodipodi:end="6.28318530718"
         sodipodi:start="0"
         sodipodi:open="true"
         sodipodi:type="arc"
         style="stroke:#000000;stroke-width:1;fill:none"
         sodipodi:ry="100.0"
         sodipodi:rx="35.910262105" />
      <path
         d="M 15.631158,0 C 15.631158,55.228475 8.6328501,100 0,100 -8.6328501,100 -15.631158,55.228475 -15.631158,0 c 0,-55.228475 6.9983079,-100 15.631158,-100 8.6328501,0 15.631158,44.771525 15.631158,100"
         id="path3089"
         sodipodi:cx="0"
         sodipodi:cy="0"
         transform="rotate(-6.36174605136)"
         sodipodi:end="6.28318530718"
         sodipodi:start="0"
         sodipodi:open="true"
         sodipodi:type="arc"
         style="stroke:#000000;stroke-width:1;fill:none"
         sodipodi:ry="100.0"
         sodipodi:rx="15.6311578631" />
    </g>
    <g
       id="g3091"
       inkscape:label="Lines of Latitude">
      <path
         d="m 15.643447,80.906693 c 0,4.956044 -7.0038098,8.973711 -15.643447,8.973711 -8.6396372,0 -15.643447,-4.017667 -15.643447,-8.973711 0,-4.956045 7.0038098,-8.973712 15.643447,-8.973712 8.6396372,0 15.643447,4.017667 15.643447,8.973712"
         id="path3093"
         sodipodi:cx="0"
         sodipodi:cy="80.9066923319"
         transform=""
         sodipodi:end="6.28318530718"
         sodipodi:start="0"
         sodipodi:open="true"
         sodipodi:type="arc"
         style="stroke:#000000;stroke-width:1;fill:none"
         sodipodi:ry="8.97371229803"
         sodipodi:rx="15.643446504" />
      <path
         d="m 30.901699,77.905991 c 0,9.789516 -13.835162,17.725486 -30.901699,17.725486 -17.066537,0 -30.901699,-7.93597 -30.901699,-17.725486 0,-9.789516 13.835162,-17.725487 30.901699,-17.725487 17.066537,0 30.901699,7.935971 30.901699,17.725487"
         id="path3095"
         sodipodi:cx="0"
         sodipodi:cy="77.9059889558"
         transform=""
         sodipodi:end="6.28318530718"
         sodipodi:start="0"
         sodipodi:open="true"
         sodipodi:type="arc"
         style="stroke:#000000;stroke-width:1;fill:none"
         sodipodi:ry="17.7254866405"
         sodipodi:rx="30.9016994375" />
      <path
         d="m 45.399052,72.986984 c 0,14.381951 -20.325848,26.040825 -45.399052,26.040825 -25.073204,0 -45.399052,-11.658874 -45.399052,-26.040825 0,-14.38195 20.325848,-26.040825 45.399052,-26.040825 25.073204,0 45.399052,11.658875 45.399052,26.040825"
         id="path3097"
         sodipodi:cx="0"
         sodipodi:cy="72.9869815764"
         transform=""
         sodipodi:end="6.28318530718"
         sodipodi:start="0"
         sodipodi:open="true"
         sodipodi:type="arc"
         style="stroke:#000000;stroke-width:1;fill:none"
         sodipodi:ry="26.0408252978"
         sodipodi:rx="45.399049974" />
      <path
         d="m 58.778526,66.27079 c 0,18.620268 -26.316042,33.714977 -58.778526,33.714977 -32.462484,0 -58.778526,-15.094709 -58.778526,-33.714977 0,-18.620268 26.316042,-33.714977 58.778526,-33.714977 32.462484,0 58.778526,15.094709 58.778526,33.714977"
         id="path3099"
         sodipodi:cx="0"
         sodipodi:cy="66.2707924807"
         transform=""
         sodipodi:end="6.28318530718"
         sodipodi:start="0"
         sodipodi:open="true"
         sodipodi:type="arc"
         style="stroke:#000000;stroke-width:1;fill:none"
         sodipodi:ry="33.714977035"
         sodipodi:rx="58.7785252292" />
      <path
         d="m 70.710678,57.922798 c 0,22.400106 -31.658249,40.558979 -70.710678,40.558979 -39.052429,0 -70.710678,-18.158873 -70.710678,-40.558979 0,-22.400105 31.658249,-40.558979 70.710678,-40.558979 39.052429,0 70.710678,18.158874 70.710678,40.558979"
         id="path3101"
         sodipodi:cx="0"
         sodipodi:cy="57.922796534"
         transform=""
         sodipodi:end="6.28318530718"
         sodipodi:start="0"
         sodipodi:open="true"
         sodipodi:type="arc"
         style="stroke:#000000;stroke-width:1;fill:none"
         sodipodi:ry="40.5589787673"
         sodipodi:rx="70.7106781187" />
      <path
         d="M 80.901703,48.148548 C 80.901703,73.77694 44.680777,94.552856 0,94.552856 c -44.680777,0 -80.901703,-20.775916 -80.901703,-46.404308 0,-25.628392 36.220926,-46.4043082 80.901703,-46.4043082 44.680777,0 80.901703,20.7759162 80.901703,46.4043082"
         id="path3103"
         sodipodi:cx="0"
         sodipodi:cy="48.1485491018"
         transform=""
         sodipodi:end="6.28318530718"
         sodipodi:start="0"
         sodipodi:open="true"
         sodipodi:type="arc"
         style="stroke:#000000;stroke-width:1;fill:none"
         sodipodi:ry="46.4043084581"
         sodipodi:rx="80.9016994375" />
      <path
         d="m 89.100655,37.188725 c 0,28.225636 -39.891722,51.107036 -89.100655,51.107036 -49.208933,0 -89.100655,-22.8814 -89.100655,-51.107036 0,-28.2256374 39.891722,-51.107037 89.100655,-51.107037 49.208933,0 89.100655,22.8813996 89.100655,51.107037"
         id="path3105"
         sodipodi:cx="0"
         sodipodi:cy="37.1887245949"
         transform=""
         sodipodi:end="6.28318530718"
         sodipodi:start="0"
         sodipodi:open="true"
         sodipodi:type="arc"
         style="stroke:#000000;stroke-width:1;fill:none"
         sodipodi:ry="51.1070346909"
         sodipodi:rx="89.1006524188" />
      <path
         d="m 95.105652,25.31319 c 0,30.127885 -42.580251,54.551362 -95.105652,54.551362 -52.525401,0 -95.105652,-24.423477 -95.105652,-54.551362 0,-30.1278843 42.580251,-54.551361 95.105652,-54.551361 52.525401,0 95.105652,24.4234767 95.105652,54.551361"
         id="path3107"
         sodipodi:cx="0"
         sodipodi:cy="25.3131902662"
         transform=""
         sodipodi:end="6.28318530718"
         sodipodi:start="0"
         sodipodi:open="true"
         sodipodi:type="arc"
         style="stroke:#000000;stroke-width:1;fill:none"
         sodipodi:ry="54.5513607385"
         sodipodi:rx="95.1056516295" />
      <path
         d="m 98.768837,12.814362 c 0,31.288299 -44.220315,56.652477 -98.768837,56.652477 -54.548522,0 -98.768837,-25.364178 -98.768837,-56.652477 0,-31.2883 44.220315,-56.652478 98.768837,-56.652478 54.548522,0 98.768837,25.364178 98.768837,56.652478"
         id="path3109"
         sodipodi:cx="0"
         sodipodi:cy="12.8143611835"
         transform=""
         sodipodi:end="6.28318530718"
         sodipodi:start="0"
         sodipodi:open="true"
         sodipodi:type="arc"
         style="stroke:#000000;stroke-width:1;fill:none"
         sodipodi:ry="56.6524758624"
         sodipodi:rx="98.7688340595" />
      <path
         d="M 100,0 C 100,31.678304 55.228475,57.358643 0,57.358643 -55.228475,57.358643 -100,31.678304 -100,0 c 0,-31.678304 44.771525,-57.358643 100,-57.358643 55.228475,0 100,25.680339 100,57.358643"
         id="path3111"
         sodipodi:cx="0"
         sodipodi:cy="5.01585964527e-15"
         transform=""
         sodipodi:end="6.28318530718"
         sodipodi:start="0"
         sodipodi:open="true"
         sodipodi:type="arc"
         style="stroke:#000000;stroke-width:1;fill:none"
         sodipodi:ry="57.3586436351"
         sodipodi:rx="100.0" />
      <path
         d="m 98.768837,-12.814362 c 0,31.2883 -44.220315,56.652478 -98.768837,56.652478 -54.548522,0 -98.768837,-25.364178 -98.768837,-56.652478 0,-31.288299 44.220315,-56.652477 98.768837,-56.652477 54.548522,0 98.768837,25.364178 98.768837,56.652477"
         id="path3113"
         sodipodi:cx="0"
         sodipodi:cy="-12.8143611835"
         transform=""
         sodipodi:end="6.28318530718"
         sodipodi:start="0"
         sodipodi:open="true"
         sodipodi:type="arc"
         style="stroke:#000000;stroke-width:1;fill:none"
         sodipodi:ry="56.6524758624"
         sodipodi:rx="98.7688340595" />
      <path
         d="M 95.105652,-25.31319 C 95.105652,4.8146943 52.525401,29.238171 0,29.238171 c -52.525401,0 -95.105652,-24.4234767 -95.105652,-54.551361 0,-30.127885 42.580251,-54.551362 95.105652,-54.551362 52.525401,0 95.105652,24.423477 95.105652,54.551362"
         id="path3115"
         sodipodi:cx="0"
         sodipodi:cy="-25.3131902662"
         transform=""
         sodipodi:end="6.28318530718"
         sodipodi:start="0"
         sodipodi:open="true"
         sodipodi:type="arc"
         style="stroke:#000000;stroke-width:1;fill:none"
         sodipodi:ry="54.5513607385"
         sodipodi:rx="95.1056516295" />
      <path
         d="m 89.100655,-37.188725 c 0,28.2256374 -39.891722,51.107037 -89.100655,51.107037 -49.208933,0 -89.100655,-22.8813996 -89.100655,-51.107037 0,-28.225636 39.891722,-51.107036 89.100655,-51.107036 49.208933,0 89.100655,22.8814 89.100655,51.107036"
         id="path3117"
         sodipodi:cx="0"
         sodipodi:cy="-37.1887245949"
         transform=""
         sodipodi:end="6.28318530718"
         sodipodi:start="0"
         sodipodi:open="true"
         sodipodi:type="arc"
         style="stroke:#000000;stroke-width:1;fill:none"
         sodipodi:ry="51.1070346909"
         sodipodi:rx="89.1006524188" />
      <path
         d="m 80.901703,-48.148548 c 0,25.628392 -36.220926,46.4043082 -80.901703,46.4043082 -44.680777,0 -80.901703,-20.7759162 -80.901703,-46.4043082 0,-25.628392 36.220926,-46.404308 80.901703,-46.404308 44.680777,0 80.901703,20.775916 80.901703,46.404308"
         id="path3119"
         sodipodi:cx="0"
         sodipodi:cy="-48.1485491018"
         transform=""
         sodipodi:end="6.28318530718"
         sodipodi:start="0"
         sodipodi:open="true"
         sodipodi:type="arc"
         style="stroke:#000000;stroke-width:1;fill:none"
         sodipodi:ry="46.4043084581"
         sodipodi:rx="80.9016994375" />
      <path
         d="m 70.710678,-57.922798 c 0,22.400105 -31.658249,40.558979 -70.710678,40.558979 -39.052429,0 -70.710678,-18.158874 -70.710678,-40.558979 0,-22.400106 31.658249,-40.558979 70.710678,-40.558979 39.052429,0 70.710678,18.158873 70.710678,40.558979"
         id="path3121"
         sodipodi:cx="0"
         sodipodi:cy="-57.922796534"
         transform=""
         sodipodi:end="6.28318530718"
         sodipodi:start="0"
         sodipodi:open="true"
         sodipodi:type="arc"
         style="stroke:#000000;stroke-width:1;fill:none"
         sodipodi:ry="40.5589787673"
         sodipodi:rx="70.7106781187" />
      <path
         d="m 58.778526,-66.27079 c 0,18.620268 -26.316042,33.714977 -58.778526,33.714977 -32.462484,0 -58.778526,-15.094709 -58.778526,-33.714977 0,-18.620268 26.316042,-33.714977 58.778526,-33.714977 32.462484,0 58.778526,15.094709 58.778526,33.714977"
         id="path3123"
         sodipodi:cx="0"
         sodipodi:cy="-66.2707924807"
         transform=""
         sodipodi:end="6.28318530718"
         sodipodi:start="0"
         sodipodi:open="true"
         sodipodi:type="arc"
         style="stroke:#000000;stroke-width:1;fill:none"
         sodipodi:ry="33.714977035"
         sodipodi:rx="58.7785252292" />
      <path
         d="m 45.399052,-72.986984 c 0,14.38195 -20.325848,26.040825 -45.399052,26.040825 -25.073204,0 -45.399052,-11.658875 -45.399052,-26.040825 0,-14.381951 20.325848,-26.040825 45.399052,-26.040825 25.073204,0 45.399052,11.658874 45.399052,26.040825"
         id="path3125"
         sodipodi:cx="0"
         sodipodi:cy="-72.9869815764"
         transform=""
         sodipodi:end="6.28318530718"
         sodipodi:start="0"
         sodipodi:open="true"
         sodipodi:type="arc"
         style="stroke:#000000;stroke-width:1;fill:none"
         sodipodi:ry="26.0408252978"
         sodipodi:rx="45.399049974" />
      <path
         d="m 30.901699,-77.905991 c 0,9.789516 -13.835162,17.725487 -30.901699,17.725487 -17.066537,0 -30.901699,-7.935971 -30.901699,-17.725487 0,-9.789516 13.835162,-17.725486 30.901699,-17.725486 17.066537,0 30.901699,7.93597 30.901699,17.725486"
         id="path3127"
         sodipodi:cx="0"
         sodipodi:cy="-77.9059889558"
         transform=""
         sodipodi:end="6.28318530718"
         sodipodi:start="0"
         sodipodi:open="true"
         sodipodi:type="arc"
         style="stroke:#000000;stroke-width:1;fill:none"
         sodipodi:ry="17.7254866405"
         sodipodi:rx="30.9016994375" />
      <path
         d="m 15.643447,-80.906693 c 0,4.956045 -7.0038098,8.973712 -15.643447,8.973712 -8.6396372,0 -15.643447,-4.017667 -15.643447,-8.973712 0,-4.956044 7.0038098,-8.973711 15.643447,-8.973711 8.6396372,0 15.643447,4.017667 15.643447,8.973711"
         id="path3129"
         sodipodi:cx="0"
         sodipodi:cy="-80.9066923319"
         transform=""
         sodipodi:end="6.28318530718"
         sodipodi:start="0"
         sodipodi:open="true"
         sodipodi:type="arc"
         style="stroke:#000000;stroke-width:1;fill:none"
         sodipodi:ry="8.97371229803"
         sodipodi:rx="15.643446504" />
    </g>
    <path
       d="M 100,0 C 100,55.228475 55.228475,100 0,100 -55.228475,100 -100,55.228475 -100,0 c 0,-55.228475 44.771525,-100 100,-100 55.228475,0 100,44.771525 100,100"
       id="path3131"
       sodipodi:cx="0"
       sodipodi:cy="0"
       transform=""
       sodipodi:end="6.28318530718"
       sodipodi:start="0"
       sodipodi:open="true"
       sodipodi:type="arc"
       style="stroke:#000000;stroke-width:1;fill:none"
       sodipodi:ry="100.0"
       sodipodi:rx="100.0" />
  </g>
</svg>
