<?xml version="1.0" encoding="UTF-8" standalone="no"?>
<!DOCTYPE svg PUBLIC "-//W3C//DTD SVG 1.0//EN"
"http://www.w3.org/TR/2001/REC-SVG-20010904/DTD/svg10.dtd">
<!-- Created with Sodipodi ("http://www.sodipodi.com/") -->
<svg
   xmlns="http://www.w3.org/2000/svg"
   xmlns:xlink="http://www.w3.org/1999/xlink"
   version="1.0"
   x="0"
   y="0"
   width="60"
   height="60"
   id="svg1">
  <defs
     id="defs3" />
  <path
     d="M 57.01311 8.414985 C 58.27274 16.87244 60.64176 50.82276 55.78322 50.82276 C 50.92468 50.82276 39.04825 52.44227 39.04825 52.44227 L 46.06614 9.255267 L 57.01311 8.414985 z "
     transform="matrix(0.92371,0,0,0.92371,2.788567,1.910734)"
     style="font-size:12;fill:#999999;fill-rule:evenodd;stroke:#333333;stroke-width:3.383096;stroke-linecap:round;stroke-linejoin:round;"
     id="path836" />
  <path
     d="M 56.68295 7.995646 C 38.32847 28.50947 60.46181 56.76098 41.02766 55.32141 C 21.5935 53.88184 19.25421 60.35989 3.598917 53.88184 C 3.598917 27.4298 -7.917618 8.175591 10.61681 6.736025 C 29.15123 5.296458 56.68295 7.995646 56.68295 7.995646 z "
     transform="matrix(0.92371,0,0,0.92371,2.788567,1.910734)"
     style="font-size:12;fill:#cccccc;fill-rule:evenodd;stroke:#333333;stroke-width:3.383096;stroke-linecap:round;stroke-linejoin:round;"
     id="path835" />
  <path
     d="M 11.33659 14.73722 L 43.36695 14.73722 "
     transform="translate(-0.719783,1.079675)"
     style="font-size:12;fill:none;fill-opacity:0.75;fill-rule:evenodd;stroke:#333333;stroke-width:4.375;stroke-linecap:round;stroke-linejoin:round;"
     id="path837" />
  <path
     d="M 9.357185 21.88235 L 42.64717 21.88235 M 9.717077 26.92083 L 42.10733 26.92083 M 9.897023 31.77937 L 24.37718 31.77937 M 10.43686 36.81786 L 24.35069 36.81786 M 10.43686 41.85634 L 24.53064 41.6764 M 10.79675 46.53493 L 24.35069 46.53493 "
     style="font-size:12;fill:none;fill-opacity:0.75;fill-rule:evenodd;stroke:#333333;stroke-width:1.875;stroke-linecap:round;stroke-linejoin:round;"
     id="path838" />
  <path
     d="M 26.06508 15.72245 L 26.06508 1.730267 C 26.06508 1.214642 26.23305 0.784954 26.56898 0.441204 C 26.90492 0.097454 27.33851 -0.074421 27.86976 -0.074421 C 28.40101 -0.074421 28.8307 0.085735 29.15883 0.406048 C 29.49476 0.72636 29.66273 1.167767 29.66273 1.730267 L 29.66273 6.956829 L 35.56898 0.605267 C 35.98305 0.152142 36.44789 -0.074421 36.96351 -0.074421 C 37.44008 -0.074421 37.85414 0.089642 38.2057 0.417767 C 38.56508 0.738079 38.74476 1.159954 38.74476 1.683392 C 38.74476 1.980267 38.65101 2.273235 38.46351 2.562298 C 38.27601 2.843548 37.97523 3.191204 37.56117 3.605267 L 33.02601 8.116985 L 38.56898 13.96464 C 38.8893 14.26933 39.13539 14.5662 39.30726 14.85527 C 39.48695 15.13652 39.5768 15.44902 39.5768 15.79277 C 39.5768 16.33964 39.39711 16.75761 39.03773 17.04667 C 38.67836 17.32792 38.23305 17.46855 37.7018 17.46855 C 37.3893 17.46855 37.10414 17.38261 36.84633 17.21073 C 36.59633 17.03886 36.27601 16.7498 35.88539 16.34355 L 29.66273 9.546673 L 29.66273 15.72245 C 29.66273 16.21464 29.49476 16.6287 29.15883 16.96464 C 28.82289 17.30058 28.3932 17.46855 27.86976 17.46855 C 27.34633 17.46855 26.91273 17.30839 26.56898 16.98808 C 26.23305 16.66777 26.06508 16.24589 26.06508 15.72245 z "
     transform="matrix(0.69815,0,0,0.69815,16.94303,30.24598)"
     style="font-size:24;fill:#333333;stroke-width:1;font-family:VAG Rounded Black SSi;"
     id="path839" />
  <path
     d="M 34.30232 44.82514 L 38.88683 49.62795 L 46.30933 44.60681 L 52.2037 47.22656 L 54.16848 55.83107 L 60.49943 55.77292 L 62.24592 46.94426 L 68.14028 44.60681 L 75.56279 49.40966 L 79.05574 44.60681 L 70.6321 36.65726 C 49.04152 56.46016 30.38393 25.93904 48.92905 13.17026 L 48.92903 8.585745 L 46.74596 9.677291 L 39.97836 5.37502 L 35.30342 9.214153 L 39.54174 16.44487 L 37.14034 22.33923 L 28.87009 23.71305 L 28.84457 29.98006 L 37.35866 32.16316 L 39.70548 37.89382 L 34.30232 44.82514 z "
     transform="matrix(0.351045,0,0,0.351045,16.94303,30.24598)"
     style="font-size:12;fill:#333333;fill-rule:evenodd;stroke:#333333;stroke-width:0.374999;stroke-linecap:round;stroke-linejoin:round;"
     id="path705" />
  <path
     d="M 51.65982 15.84739 C 49.62397 31.11631 52.80499 47.91211 52.80499 47.91211 "
     style="font-size:12;fill:none;fill-opacity:0.75;fill-rule:evenodd;stroke:#333333;stroke-width:1;stroke-linecap:round;stroke-linejoin:round;"
     id="path850" />
  <path
     d="M 54.0774 13.81154 C 52.55051 31.37079 55.09533 46.13074 55.09533 46.13074 "
     style="font-size:12;fill:none;fill-opacity:0.75;fill-rule:evenodd;stroke:#333333;stroke-width:1;stroke-linecap:round;stroke-linejoin:round;"
     id="path851" />
</svg>
