<?xml version="1.0" encoding="UTF-8" standalone="no"?>
<!DOCTYPE svg PUBLIC "-//W3C//DTD SVG 1.0//EN"
"http://www.w3.org/TR/2001/REC-SVG-20010904/DTD/svg10.dtd">
<!-- Created with Sodipodi ("http://www.sodipodi.com/") -->
<svg
   xmlns="http://www.w3.org/2000/svg"
   xmlns:xlink="http://www.w3.org/1999/xlink"
   version="1.0"
   x="0"
   y="0"
   width="60"
   height="60"
   id="svg1">
  <defs
     id="defs3">
    <linearGradient
       id="linearGradient1160">
      <stop
         style="stop-color:#000000;stop-opacity:1;"
         offset="0"
         id="stop1161" />
      <stop
         style="stop-color:#ffffff;stop-opacity:1;"
         offset="1"
         id="stop1162" />
    </linearGradient>
    <linearGradient
       id="linearGradient1163"
       xlink:href="#linearGradient1160" />
  </defs>
  <rect
     width="41.5674934"
     height="34.7295494"
     rx="2"
     x="7.37778044"
     y="12.8541842"
     transform="matrix(1,0,0,1.156951,6.837935,-7.41585)"
     style="font-size:12;fill:#4c4c4c;fill-rule:evenodd;stroke-width:3.125;"
     id="rect803" />
  <rect
     width="41.5674934"
     height="34.7295494"
     rx="2"
     x="7.37778044"
     y="12.8541842"
     transform="matrix(1,0,0,1.156951,4.858539,-5.125776)"
     style="font-size:12;fill:#7f7f7f;fill-rule:evenodd;stroke-width:3.125;"
     id="rect802" />
  <rect
     width="41.5674934"
     height="34.7295494"
     rx="2"
     x="7.37778044"
     y="12.8541842"
     transform="matrix(1,0,0,1.156951,1.439567,-1.170194)"
     style="font-size:12;fill:#b3b3b3;fill-rule:evenodd;stroke:#333333;stroke-width:2.90531;stroke-linecap:round;stroke-linejoin:round;"
     id="rect788" />
  <rect
     width="51.4645157"
     height="11.5165348"
     rx="2"
     x="2.51924205"
     y="5.65634966"
     transform="matrix(1.013986,0,0,0.703125,1.044441,3.298742)"
     style="font-size:12;fill:#4c4c4c;fill-rule:evenodd;stroke:#333333;stroke-width:3.70099;stroke-linecap:round;stroke-linejoin:round;"
     id="rect804" />
  <path
     d="M 36.40901 21.69587 C 37.74561 21.69587 38.97178 21.93413 40.08755 22.41066 C 41.21494 22.88718 42.16218 23.52642 42.92927 24.32838 C 43.69636 25.11872 44.29492 26.06014 44.72495 27.15266 C 45.15499 28.23356 45.37001 29.39001 45.37001 30.622 C 45.37001 32.29565 44.88767 34.19012 43.923 36.30543 C 42.96995 38.42074 41.79026 40.44306 40.38393 42.37241 C 38.9776 44.29013 37.61776 45.8708 36.30441 47.11441 C 36.04871 47.35849 35.66517 47.64324 35.15378 47.96867 C 34.89808 48.14301 34.54359 48.23018 34.09031 48.23018 C 33.56729 48.23018 33.00941 47.95124 32.41666 47.39335 C 31.83553 46.82385 31.54497 46.21948 31.54497 45.58023 C 31.54497 45.35941 31.60308 45.14439 31.71931 44.93518 C 31.83553 44.71435 32.0273 44.44123 32.29463 44.11579 C 32.62006 43.709 33.18956 43.05233 34.00314 42.14577 C 34.82834 41.22759 35.47921 40.49536 35.95573 39.9491 C 36.43226 39.40284 36.85648 38.86239 37.2284 38.32776 L 37.15866 38.25802 C 36.53105 38.54859 35.78139 38.69387 34.9097 38.69387 C 33.52661 38.69387 32.26557 38.32776 31.12656 37.59554 C 29.98755 36.85169 29.0868 35.85796 28.42431 34.61435 C 27.77345 33.35911 27.44801 32.02833 27.44801 30.622 C 27.44801 29.4365 27.66303 28.31492 28.09307 27.25727 C 28.5231 26.18799 29.14491 25.23494 29.95849 24.39812 C 30.78369 23.54967 31.74255 22.88718 32.83507 22.41066 C 33.93922 21.93413 35.13053 21.69587 36.40901 21.69587 z M 36.40901 34.37027 C 37.40855 34.37027 38.22213 34.01579 38.84975 33.30681 C 39.47737 32.59783 39.79118 31.7029 39.79118 30.622 C 39.79118 29.58759 39.48318 28.70427 38.86718 27.97205 C 38.26281 27.23983 37.44342 26.87372 36.40901 26.87372 C 35.40947 26.87372 34.59008 27.23983 33.95084 27.97205 C 33.32322 28.69265 33.00941 29.57597 33.00941 30.622 C 33.00941 31.64478 33.30579 32.5281 33.89854 33.27194 C 34.50291 34.00416 35.33973 34.37027 36.40901 34.37027 z M 18.36498 45.17926 L 18.36498 27.08293 L 16.25549 27.08293 C 15.45353 27.08293 14.84916 26.84466 14.44237 26.36814 C 14.03558 25.89162 13.83218 25.31049 13.83218 24.62476 C 13.83218 23.95065 14.0472 23.36371 14.47724 22.86394 C 14.91889 22.36417 15.51164 22.11428 16.25549 22.11428 L 21.32874 22.11428 C 21.82851 22.11428 22.25854 22.23051 22.61884 22.46296 C 22.97914 22.68379 23.25227 22.98597 23.43823 23.36952 C 23.62419 23.74144 23.71717 24.1831 23.71717 24.69449 L 23.71717 45.17926 C 23.71717 46.08582 23.4731 46.78317 22.98495 47.27132 C 22.4968 47.75946 21.85175 48.00354 21.04979 48.00354 C 20.25946 48.00354 19.61441 47.75365 19.11464 47.25388 C 18.61487 46.75411 18.36498 46.06257 18.36498 45.17926 z "
     style="font-size:12;fill:#333333;stroke-width:1;font-family:VAG Rounded Black SSi;"
     id="path840" />
</svg>
