<?xml version="1.0" encoding="UTF-8" standalone="no"?>
<!DOCTYPE svg PUBLIC "-//W3C//DTD SVG 1.0//EN"
"http://www.w3.org/TR/2001/REC-SVG-20010904/DTD/svg10.dtd">
<!-- Created with Sodipodi ("http://www.sodipodi.com/") -->
<svg
   xmlns="http://www.w3.org/2000/svg"
   xmlns:xlink="http://www.w3.org/1999/xlink"
   version="1.0"
   x="0"
   y="0"
   width="60"
   height="60"
   id="svg1">
  <defs
     id="defs3">
    <linearGradient
       id="linearGradient1160">
      <stop
         style="stop-color:#000000;stop-opacity:1;"
         offset="0"
         id="stop1161" />
      <stop
         style="stop-color:#ffffff;stop-opacity:1;"
         offset="1"
         id="stop1162" />
    </linearGradient>
    <linearGradient
       id="linearGradient1163"
       xlink:href="#linearGradient1160" />
  </defs>
  <path
     d="M 26.17437 45.74902 C 23.76318 46.60243 21.13478 50.73059 28.7602 52.26013 C 39.62464 53.87965 45.35797 52.11636 49.49672 49.05728 C 49.94659 50.04698 43.88863 55.31812 32.8879 54.74211 C 23.41672 54.70594 18.77786 51.35027 19.19155 48.37102 C 19.60524 44.49204 24.7348 45.74902 26.17437 45.74902 z "
     transform="matrix(1.454855,0,0,1.454855,-20.17521,-21.62015)"
     style="font-size:12;fill:#333333;fill-rule:evenodd;stroke-width:0.871044;stroke-linecap:round;stroke-linejoin:round;"
     id="path1009" />
  <path
     d="M 39.13822 17.17289 C 39.2282 19.24226 38.2385 19.87207 37.06885 19.7821 C 29.60109 19.7821 26.18212 20.32194 22.9431 24.19077 C 19.25421 30.12899 25.10245 32.64823 26.99188 34.26774 C 24.11275 35.16747 16.19513 39.03631 22.67318 42.7252 C 26.72196 45.51436 43.00706 43.53495 43.09703 47.40379 C 43.09703 48.93333 39.2282 49.83306 35.71925 49.65311 C 34.00977 49.74309 30.2309 48.84336 31.5805 48.21355 C 31.49053 47.58374 34.36966 46.95392 33.46993 46.77398 C 30.50082 46.05419 25.82223 49.74309 32.84012 50.73279 C 37.06885 51.45257 50.11492 51.54254 49.21519 44.97452 C 48.76533 41.55555 44.26668 39.66612 36.79893 39.12628 C 30.14093 39.12628 26.90191 38.76639 27.08185 37.32682 C 27.2618 35.88725 32.21031 35.43739 32.30028 34.62763 C 34.99947 33.09809 24.74256 30.21896 28.88131 25.0905 C 31.22061 21.67153 37.78863 21.85148 39.40814 20.32194 C 41.02766 19.15229 39.13822 17.17289 39.13822 17.17289 z "
     transform="matrix(1.454855,0,0,1.454855,-20.17521,-21.62015)"
     style="font-size:12;fill:#333333;fill-rule:evenodd;stroke-width:0.871044;stroke-linecap:round;stroke-linejoin:round;"
     id="path1010" />
  <path
     d="M 37.96858 34.98752 C 46.24609 32.46828 49.21519 27.69972 43.27698 22.1214 C 43.45692 16.81299 39.49812 16.00324 39.76803 16.54308 C 42.28728 18.70243 42.73714 21.58156 41.02766 22.48129 C 36.79893 24.82058 35.98917 26.35012 40.39785 29.85907 C 42.82711 32.91815 37.96858 34.98752 37.96858 34.98752 z "
     transform="matrix(1.454855,0,0,1.454855,-19.78252,-21.88194)"
     style="font-size:12;fill:#333333;fill-rule:evenodd;stroke-width:0.871044;stroke-linecap:round;stroke-linejoin:round;"
     id="path1011" />
  <path
     d="M 31.87291 26.03522 C 30.99567 26.59755 30.47833 26.73251 30.79323 27.33983 C 31.62549 28.44199 31.22061 29.11679 31.76044 28.77939 C 32.30028 28.44199 33.42494 29.18427 32.66017 28.46449 C 31.60299 27.40731 31.87291 26.03522 31.87291 26.03522 z "
     transform="matrix(1.454855,0,0,1.454855,-20.17521,-21.62015)"
     style="font-size:12;fill:#333333;fill-rule:evenodd;stroke-width:0.871044;stroke-linecap:round;stroke-linejoin:round;"
     id="path1012" />
  <path
     d="M 34.27969 25.113 C 33.33497 26.71002 32.86261 26.39511 33.51492 27.0924 C 34.16722 27.78969 34.03226 28.77939 34.63958 28.23955 C 35.2469 27.69972 35.60679 28.19457 34.84202 27.24985 C 34.07725 26.30514 34.27969 25.113 34.27969 25.113 z "
     transform="matrix(1.454855,0,0,1.454855,-20.17521,-21.62015)"
     style="font-size:12;fill:#333333;fill-rule:evenodd;stroke-width:0.871044;stroke-linecap:round;stroke-linejoin:round;"
     id="path1013" />
  <path
     d="M 33.98727 30.39891 C 34.68456 31.32113 35.2469 31.34362 35.33687 31.83847 C 35.51681 33.48048 34.59459 34.42519 35.69676 33.413 C 36.79893 32.4008 37.85611 32.69322 36.61898 31.34362 C 35.38186 29.99403 33.98727 30.39891 33.98727 30.39891 z "
     transform="matrix(1.454855,0,0,1.454855,-20.17521,-21.62015)"
     style="font-size:12;fill:#333333;fill-rule:evenodd;stroke-width:0.871044;stroke-linecap:round;stroke-linejoin:round;"
     id="path1014" />
</svg>
