<?xml version="1.0" encoding="UTF-8" standalone="no"?>
<!DOCTYPE svg PUBLIC "-//W3C//DTD SVG 1.0//EN"
"http://www.w3.org/TR/2001/REC-SVG-20010904/DTD/svg10.dtd">
<!-- Created with Sodipodi ("http://www.sodipodi.com/") -->
<svg
   xmlns="http://www.w3.org/2000/svg"
   xmlns:xlink="http://www.w3.org/1999/xlink"
   version="1.0"
   x="0"
   y="0"
   width="60"
   height="60"
   id="svg1">
  <defs
     id="defs3">
    <linearGradient
       id="linearGradient772">
      <stop
         style="stop-color:#000000;stop-opacity:1;"
         offset="0"
         id="stop773" />
      <stop
         style="stop-color:#ffffff;stop-opacity:1;"
         offset="1"
         id="stop774" />
    </linearGradient>
    <linearGradient
       id="linearGradient775"
       xlink:href="#linearGradient772" />
  </defs>
  <path
     d="M 44.91605 25.62551 L 54.96809 9.465908 L 37.9178 5.139716 "
     transform="translate(0,1.079675)"
     style="font-size:12;fill:none;fill-opacity:0.75;fill-rule:evenodd;stroke:#333333;stroke-width:3.125;stroke-linecap:round;stroke-linejoin:round;"
     id="path594" />
  <rect
     width="23.2850914"
     height="5.47136021"
     rx="3"
     x="20.9947548"
     y="4.63075256"
     transform="translate(0,1.079675)"
     style="font-size:12;fill:#4c4c4c;fill-rule:evenodd;stroke:#333333;stroke-width:3.125;"
     id="rect595" />
  <rect
     width="53.1867142"
     height="35.6274643"
     rx="2"
     x="3.68998718"
     y="18.519455"
     transform="translate(0,1.079675)"
     style="font-size:12;fill:#7f7f7f;fill-rule:evenodd;stroke:#333333;stroke-width:3.125;stroke-linecap:round;stroke-linejoin:round;"
     id="rect593" />
  <rect
     width="15.268918"
     height="18.9589081"
     x="4.99597645"
     y="27.2401333"
     transform="matrix(0.986884,-0.161432,0.161432,0.986884,0,1.079675)"
     style="font-size:12;fill:#cccccc;fill-rule:evenodd;stroke:#333333;stroke-width:1.875;stroke-linecap:round;stroke-linejoin:round;"
     id="rect596" />
  <rect
     width="15.2689257"
     height="18.9589195"
     x="27.9053326"
     y="19.6396332"
     transform="matrix(0.952877,0.303358,-0.303358,0.952877,0,1.079675)"
     style="font-size:12;fill:#cccccc;fill-rule:evenodd;stroke:#333333;stroke-width:1.875;stroke-linecap:round;stroke-linejoin:round;"
     id="rect597" />
  <g
     style="font-size:12;"
     id="g836">
    <path
       d="M 64.48932 23.60909 C 66.07895 16.02366 66.07895 16.02366 66.07895 16.02366 L 67.71869 23.59372 L 64.48932 23.60909 z "
       transform="matrix(0.656671,-0.345444,0.345444,0.656671,-9.727915,39.26459)"
       style="fill:#595959;fill-rule:evenodd;stroke:#333333;stroke-width:1.68466;stroke-linecap:round;stroke-linejoin:round;"
       id="path599" />
    <rect
       width="3.18102336"
       height="22.9033699"
       x="64.5111542"
       y="23.6168118"
       transform="matrix(0.656671,-0.345444,0.345444,0.656671,-9.727915,39.26459)"
       style="fill:#b3b3b3;fill-rule:evenodd;stroke:#333333;stroke-width:1.68466;stroke-linecap:round;stroke-linejoin:round;"
       id="rect598" />
    <ellipse
       cx="61.3460388"
       cy="18.7262211"
       rx="0.62029958"
       ry="0.62029958"
       transform="matrix(0.432047,-0.22728,0.22728,0.432047,9.25838,34.34242)"
       style="fill:#333333;fill-rule:evenodd;stroke:#333333;stroke-width:2.56053;"
       id="path600" />
    <rect
       width="3.62636685"
       height="1.97223461"
       rx="1"
       x="64.3202972"
       y="46.4488411"
       transform="matrix(0.656671,-0.345444,0.345444,0.656671,-9.727915,39.26459)"
       style="fill:#cccccc;fill-rule:evenodd;stroke:#333333;stroke-width:1.68466;"
       id="rect601" />
  </g>
</svg>
