<?xml version="1.0" encoding="UTF-8" standalone="no"?>
<!DOCTYPE svg PUBLIC "-//W3C//DTD SVG 1.0//EN"
"http://www.w3.org/TR/2001/REC-SVG-20010904/DTD/svg10.dtd">
<!-- Created with Sodipodi ("http://www.sodipodi.com/") -->
<svg
   xmlns="http://www.w3.org/2000/svg"
   xmlns:xlink="http://www.w3.org/1999/xlink"
   version="1.0"
   x="0"
   y="0"
   width="60"
   height="60"
   id="svg1">
  <defs
     id="defs3" />
  <g
     transform="translate(0.168934,-0.155528)"
     style="font-size:12;"
     id="g853">
    <path
       d="M 2.43068 2.989517 L 2.43068 57.79029 L 57.23145 57.79029 L 57.23145 2.989517 "
       style="fill:#4c4c4c;fill-rule:evenodd;stroke-width:1;"
       id="path851" />
    <path
       d="M 2.43068 2.989517 L 2.43068 57.79029 M 57.23145 57.79029 L 57.23145 2.989517 "
       style="fill:none;fill-opacity:0.75;fill-rule:evenodd;stroke:#333333;stroke-width:2.5;stroke-linecap:round;stroke-linejoin:round;"
       id="path852" />
  </g>
  <rect
     width="5.72756529"
     height="22.1191845"
     rx="1.44000006"
     x="6.85893583"
     y="32.2239647"
     transform="translate(-5.203724e-2,-0.155528)"
     style="font-size:12;fill:#ffffff;fill-rule:evenodd;stroke:#333333;stroke-width:1.25;stroke-linejoin:round;"
     id="rect857" />
  <rect
     width="5.72756529"
     height="22.1191845"
     rx="1.44000006"
     x="6.85893583"
     y="6.65763521"
     transform="translate(-5.203724e-2,-0.155528)"
     style="font-size:12;fill:#ffffff;fill-rule:evenodd;stroke:#333333;stroke-width:1.25;stroke-linejoin:round;"
     id="rect858" />
  <rect
     width="5.72756529"
     height="22.1191845"
     rx="1.44000006"
     x="47.3008804"
     y="32.2239647"
     transform="translate(-5.203724e-2,-0.155528)"
     style="font-size:12;fill:#ffffff;fill-rule:evenodd;stroke:#333333;stroke-width:1.25;stroke-linejoin:round;"
     id="rect861" />
  <rect
     width="5.72756529"
     height="22.1191845"
     rx="1.44000006"
     x="47.3008804"
     y="6.65763521"
     transform="translate(-5.203724e-2,-0.155528)"
     style="font-size:12;fill:#ffffff;fill-rule:evenodd;stroke:#333333;stroke-width:1.25;stroke-linejoin:round;"
     id="rect862" />
  <path
     d="M 17.9099 12.49126 C 16.8019 12.49126 15.9099 13.38326 15.9099 14.49126 L 15.9099 45.8466 C 15.9099 46.9546 16.8019 47.8466 17.9099 47.8466 L 41.9732 47.8466 C 43.0812 47.8466 43.9732 46.9546 43.9732 45.8466 L 43.9732 14.49126 C 43.9732 13.38326 43.0812 12.49126 41.9732 12.49126 L 17.9099 12.49126 z "
     transform="translate(-5.203724e-2,-0.155528)"
     style="font-size:12;fill:#cccccc;fill-rule:evenodd;stroke:#333333;stroke-width:1;"
     id="path864" />
  <path
     d="M 15.9099 2.942889 L 15.9099 5.846603 C 15.9099 6.954603 16.8019 7.846603 17.9099 7.846603 L 41.9732 7.846603 C 43.0812 7.846603 43.9732 6.954603 43.9732 5.846603 L 43.9732 2.942889 C 43.9732 1.834889 15.9099 1.834889 15.9099 2.942889 z "
     transform="translate(-5.203724e-2,-0.155528)"
     style="font-size:12;fill:#cccccc;fill-rule:evenodd;stroke-width:1;"
     id="path867" />
  <path
     d="M 15.9099 2.630389 L 15.9099 5.846603 C 15.9099 6.954603 16.8019 7.846603 17.9099 7.846603 L 41.9732 7.846603 C 43.0812 7.846603 43.9732 6.954603 43.9732 5.846603 L 43.9732 2.630389 "
     transform="translate(-5.203724e-2,-0.155528)"
     style="font-size:12;fill:none;fill-opacity:0.75;fill-rule:evenodd;stroke:#333333;stroke-width:1;stroke-linecap:round;stroke-linejoin:round;"
     id="path868" />
  <path
     d="M 15.9099 57.69035 L 15.9099 54.78664 C 15.9099 53.67864 16.8019 52.78664 17.9099 52.78664 L 41.9732 52.78664 C 43.0812 52.78664 43.9732 53.67864 43.9732 54.78664 L 43.9732 57.69035 C 43.9732 58.79835 15.9099 58.79835 15.9099 57.69035 z "
     transform="translate(-5.203724e-2,-0.155528)"
     style="font-size:12;fill:#cccccc;fill-rule:evenodd;stroke-width:1;"
     id="path869" />
  <path
     d="M 15.9099 58.00285 L 15.9099 54.78664 C 15.9099 53.67864 16.8019 52.78664 17.9099 52.78664 L 41.9732 52.78664 C 43.0812 52.78664 43.9732 53.67864 43.9732 54.78664 L 43.9732 58.00285 "
     transform="translate(-5.203724e-2,-0.155528)"
     style="font-size:12;fill:none;fill-opacity:0.75;fill-rule:evenodd;stroke:#333333;stroke-width:1;stroke-linecap:round;stroke-linejoin:round;"
     id="path870" />
  <g
     transform="translate(0.358267,0.137991)"
     style="font-size:12;"
     id="g849">
    <ellipse
       cx="23.9212971"
       cy="43.3314362"
       rx="10.4337568"
       ry="7.25273371"
       transform="matrix(0.508511,-0.121315,-2.652734e-2,0.543782,14.34905,17.32168)"
       style="fill:#333333;fill-rule:evenodd;stroke:#333333;stroke-width:5;"
       id="path838" />
    <path
       d="M 30.68538 36.18649 L 30.68538 17.82717 "
       style="fill:none;fill-opacity:0.75;fill-rule:evenodd;stroke:#333333;stroke-width:2.613909;stroke-linecap:round;stroke-linejoin:round;"
       id="path839" />
    <path
       d="M 30.15322 17.01555 C 29.48803 17.76589 29.88714 19.51668 29.7541 20.6422 C 39.0668 19.7668 39.86503 33.89821 39.99807 29.89639 C 37.07122 15.1397 30.81841 16.26521 30.15322 17.01555 z "
       style="fill:#333333;fill-rule:evenodd;stroke:#333333;stroke-width:0.506857;stroke-linejoin:round;"
       id="path841" />
  </g>
</svg>
