<?xml version="1.0" encoding="UTF-8" standalone="no"?>
<!DOCTYPE svg PUBLIC "-//W3C//DTD SVG 1.0//EN"
"http://www.w3.org/TR/2001/REC-SVG-20010904/DTD/svg10.dtd">
<!-- Created with Sodipodi ("http://www.sodipodi.com/") -->
<svg
   xmlns="http://www.w3.org/2000/svg"
   xmlns:xlink="http://www.w3.org/1999/xlink"
   version="1.0"
   x="0"
   y="0"
   width="60"
   height="60"
   id="svg1">
  <defs
     id="defs3">
    <linearGradient
       id="linearGradient895">
      <stop
         style="stop-color:#000000;stop-opacity:1;"
         offset="0"
         id="stop896" />
      <stop
         style="stop-color:#ffffff;stop-opacity:1;"
         offset="1"
         id="stop897" />
    </linearGradient>
    <linearGradient
       id="linearGradient898"
       xlink:href="#linearGradient895" />
    <linearGradient
       id="linearGradient899"
       xlink:href="#linearGradient895" />
    <linearGradient
       id="linearGradient900"
       xlink:href="#linearGradient895" />
    <linearGradient
       id="linearGradient901"
       xlink:href="#linearGradient895" />
    <linearGradient
       id="linearGradient902"
       xlink:href="#linearGradient895" />
  </defs>
  <path
     d="M 20.375 7.78125 C 18.2276 7.751738 18.10278 10.13918 17.87905 11.71994 C 16.26872 21.96165 14.55621 32.19234 13.0098 42.44095 C 13.20358 44.44366 15.52838 43.95121 16.94219 44.08601 C 30.89182 44.57797 44.84281 45.17319 58.7916 45.60058 C 61.00996 45.1483 60.64971 42.56314 61.06267 40.86832 C 62.3647 32.69346 63.66672 24.51861 64.96875 16.34375 C 66.16667 15.76042 67.36458 15.17708 68.5625 14.59375 C 69.17965 11.82129 66.35172 9.567878 64.02199 9.400111 C 49.47299 8.860491 34.924 8.32087 20.375 7.78125 z "
     transform="matrix(0.835431,0,0,0.835431,-0.327042,13.66292)"
     style="font-size:12;fill:#7f7f7f;fill-rule:evenodd;stroke:#333333;stroke-width:3.740584;stroke-linecap:round;stroke-linejoin:round;"
     id="path907" />
  <rect
     width="45.9563293"
     height="25.5312939"
     rx="2.08481455"
     x="-0.89701712"
     y="-2.79930639"
     transform="matrix(0.674847,-0.345397,0.345397,0.674847,11.36034,20.72516)"
     style="font-size:12;fill:#999999;fill-rule:evenodd;stroke-width:1.874999;"
     id="rect1178" />
  <rect
     width="46.0364456"
     height="7.87113762"
     rx="2.088449"
     x="-0.96604401"
     y="10.9725266"
     transform="matrix(0.672841,-0.349288,0.35027,0.67233,11.36034,20.72516)"
     style="font-size:12;fill:#4c4c4c;fill-rule:evenodd;stroke-width:1;"
     id="rect1185" />
  <rect
     width="45.9563293"
     height="25.5312939"
     rx="2.08481455"
     x="-0.89701712"
     y="-2.79930639"
     transform="matrix(0.674847,-0.345397,0.345397,0.674847,11.36034,20.72516)"
     style="font-size:12;fill:none;fill-rule:evenodd;stroke:#333333;stroke-width:2.473284;stroke-linejoin:round;"
     id="rect1186" />
  <path
     d="M 55.22257 16.35636 L 55.34981 51.98382 C 57.00394 51.98382 67.85564 51.48766 68.23736 43.98045 L 68.61908 14.19326 C 64.03841 16.35636 57.64014 16.4836 55.22257 16.35636 z "
     transform="matrix(0.835431,0,0,0.835431,-0.327042,13.66292)"
     style="font-size:12;fill:#999999;fill-rule:evenodd;stroke:#333333;stroke-width:3.740584;stroke-linecap:round;stroke-linejoin:round;"
     id="path893" />
  <path
     d="M 19.15625 2.21875 L 2.71875 18.65625 C 2.099707 19.27548 2.099514 20.28721 2.71875 20.90625 L 14.1875 32.34375 C 14.80674 32.96279 15.78721 32.96299 16.40625 32.34375 L 38.8125 9.9375 C 39.43154 9.318264 39.43174 8.306543 38.8125 7.6875 L 33.34375 2.21875 L 19.15625 2.21875 z "
     transform="translate(0,0.254482)"
     style="font-size:12;fill:#7f7f7f;fill-rule:evenodd;stroke:#333333;stroke-width:1.875;stroke-linecap:round;stroke-linejoin:round;"
     id="path1064" />
  <rect
     width="47.5881119"
     height="36.3909073"
     rx="1.8755883"
     x="3.94446921"
     y="15.5929117"
     transform="matrix(0.835431,0,0,0.818488,3.712397,14.55434)"
     style="font-size:12;fill:#b3b3b3;fill-rule:evenodd;stroke:#333333;stroke-width:3.779102;stroke-linejoin:round;"
     id="rect888" />
  <rect
     width="16.1595993"
     height="8.14342022"
     rx="4"
     x="3.05378246"
     y="31.752512"
     transform="matrix(0.835431,0,0,0.835431,-0.433344,12.3873)"
     style="font-size:12;fill:#7f7f7f;fill-rule:evenodd;stroke:#333333;stroke-width:2.24435;stroke-linejoin:round;"
     id="rect889" />
  <path
     d="M 40.83032 22.07337 L 40.83032 8.081186 C 40.83032 7.565561 40.99829 7.135874 41.33423 6.792124 C 41.67016 6.448374 42.10376 6.276499 42.63501 6.276499 C 43.16626 6.276499 43.59594 6.436655 43.92407 6.756967 C 44.26001 7.07728 44.42798 7.518686 44.42798 8.081186 L 44.42798 13.30775 L 50.33423 6.956186 C 50.74829 6.503061 51.21313 6.276499 51.72876 6.276499 C 52.20532 6.276499 52.61938 6.440561 52.97094 6.768686 C 53.33032 7.088999 53.51001 7.510874 53.51001 8.034311 C 53.51001 8.331186 53.41626 8.624155 53.22876 8.913217 C 53.04126 9.194468 52.74048 9.542124 52.32641 9.956186 L 47.79126 14.4679 L 53.33423 20.31556 C 53.65454 20.62025 53.90063 20.91712 54.07251 21.20619 C 54.25219 21.48744 54.34204 21.79994 54.34204 22.14369 C 54.34204 22.69056 54.16235 23.10853 53.80298 23.39759 C 53.4436 23.67884 52.99829 23.81947 52.46704 23.81947 C 52.15454 23.81947 51.86938 23.73353 51.61157 23.56166 C 51.36157 23.38978 51.04126 23.10072 50.65063 22.69447 L 44.42798 15.89759 L 44.42798 22.07337 C 44.42798 22.56556 44.26001 22.97962 43.92407 23.31556 C 43.58813 23.6515 43.15844 23.81947 42.63501 23.81947 C 42.11157 23.81947 41.67798 23.65931 41.33423 23.339 C 40.99829 23.01869 40.83032 22.59681 40.83032 22.07337 z "
     transform="matrix(0.761592,0,0,0.761592,-1.853873,27.07759)"
     style="font-size:24;fill:#333333;stroke-width:1;font-family:VAG Rounded Black SSi;"
     id="path886" />
  <path
     d="M 63.66709 57.4557 L 68.25161 62.25851 L 75.67411 57.23737 L 81.56847 59.85713 L 83.53325 68.46164 L 89.86421 68.40349 L 91.6107 59.57482 L 97.50505 57.23737 L 104.9276 62.04022 L 108.4205 57.23737 L 99.99688 49.28782 C 78.4063 69.09072 59.7487 38.5696 78.29383 25.80082 L 78.29381 21.21631 L 76.11073 22.30785 L 69.34313 18.00558 L 64.66819 21.84472 L 68.90652 29.07544 L 66.50512 34.96979 L 58.23487 36.34361 L 58.20935 42.61063 L 66.72344 44.79373 L 69.07026 50.52438 L 63.66709 57.4557 z "
     transform="matrix(0.382945,0,0,0.382945,-1.853873,27.07759)"
     style="font-size:12;fill:#333333;fill-rule:evenodd;stroke:#333333;stroke-width:0.374999;stroke-linecap:round;stroke-linejoin:round;"
     id="path705" />
  <g
     transform="translate(-10.43686,7.917618)"
     style="font-size:12;"
     id="g1033">
    <path
       d="M 48.55381 28.29179 L 48.55381 28.29179 z M 41.54617 -5.607063 L 46.67362 -0.235457 L 54.97516 -5.851254 L 61.56759 -2.921237 L 63.76506 6.702298 L 70.84579 6.637264 L 72.79912 -3.236973 L 79.39154 -5.851254 L 87.69309 -0.479603 L 91.59972 -5.851254 L 82.17847 -14.74226 C 58.03092 7.405888 37.16372 -26.72983 57.90514 -41.01082 L 57.90511 -46.13827 L 55.4635 -44.91745 L 47.89442 -49.72924 L 42.66582 -45.43544 L 47.40609 -37.34839 L 44.7203 -30.75597 L 35.47061 -29.21945 L 35.44206 -22.21023 L 44.96447 -19.76859 L 47.58922 -13.35926 L 41.54617 -5.607063 z "
       transform="matrix(0.218822,-0.126336,0.126336,0.218822,14.70584,24.71889)"
       style="fill:#333333;fill-rule:evenodd;stroke-width:1.2844;"
       id="path1026" />
    <path
       d="M 799.1898 123.2639 C 799.1898 156.4861 772.2269 183.4491 739.0046 183.4491 C 705.7824 183.4491 678.8194 156.4861 678.8194 123.2639 C 678.8194 90.04166 705.7824 63.0787 739.0046 63.0787 C 772.2269 63.0787 799.1898 90.04166 799.1898 123.2639 z "
       transform="matrix(5.819801e-2,-3.360064e-2,3.360064e-2,5.819801e-2,-20.93456,28.23146)"
       style="fill:#b3b3b3;fill-rule:evenodd;stroke:#333333;stroke-width:7.04991;"
       id="path854" />
    <path
       d="M 75.68654 -11.97331 L 76.2201 -14.13138 L 79.48078 -19.34845 L 77.76151 -18.51846 L 74.38227 -22.31269 L 74.97512 -22.54983 L 78.05794 -19.70416 L 80.84432 -23.8541 L 80.01434 -24.15053 L 79.24364 -23.26125 L 78.05794 -24.56552 L 78.5915 -24.92123 L 80.19219 -24.44695 L 82.14859 -25.92907 L 83.51214 -25.92907 M 72.99558 -40.7503 L 71.35874 -40.15745 L 73.55228 -37.54891 L 71.24017 -34.76252 L 70.52876 -35.35537 L 71.35874 -36.0075 L 69.1652 -36.60035 L 66.37881 -33.04326 L 67.38666 -32.86541 L 67.74236 -31.56114 L 68.7502 -32.92469 L 68.57236 -33.99182 L 69.22449 -35.2368 L 69.75805 -35.2368 L 69.04663 -33.87325 L 69.5802 -33.16183 L 69.52091 -31.67971 L 66.08239 -30.73115 L 63.88884 -29.3676 L 64.30384 -27.58905 L 62.16959 -27.82619 L 61.81388 -26.52192 L 61.39888 -25.69193 L 62.1103 -25.27694 L 62.46601 -25.0398 L 63.71099 -24.98051 L 64.60027 -26.64049 L 65.07454 -26.64049 L 65.43025 -27.17405 L 67.03095 -27.70762 L 68.63164 -25.57336 L 69.22449 -26.16621 L 67.74236 -27.94476 L 68.33522 -27.94476 L 70.58804 -24.92123 L 71.24017 -26.64049 L 72.12945 -26.75906 L 72.36658 -28.77475 L 75.33083 -28.1819 L 75.27155 -27.47048 L 71.89231 -26.2255 L 72.3073 -25.21765 L 74.6787 -25.69193 L 74.61942 -23.49839 L 72.95944 -22.90554 L 70.46947 -23.32054 L 70.05447 -22.60912 L 67.26809 -23.37982 L 67.2088 -24.74338 L 61.10246 -24.03196 L 60.80603 -22.72769 L 58.67178 -21.42342 L 58.1975 -18.57775 L 60.50961 -15.25779 L 65.48954 -14.48709 L 66.97166 -13.89424 L 66.73452 -12.8864 L 67.9795 -11.81927 L 68.21665 -11.22642 L 67.50522 -10.515 L 69.22449 -9.803582 "
       transform="matrix(0.218822,-0.126336,0.126336,0.218822,14.70584,24.71889)"
       style="fill:none;fill-opacity:0.75;fill-rule:evenodd;stroke:#333333;stroke-width:1.249997;stroke-linecap:round;stroke-linejoin:round;"
       id="path593" />
    <path
       d="M 53.75113 -33.99182 L 55.35182 -34.58467 L 55.35182 -35.17752 L 55.76682 -35.17752 L 55.76682 -34.58467 L 56.59681 -34.64395 L 58.9682 -38.26033 L 56.2411 -37.13392 L 56.2411 -37.1932 "
       transform="matrix(0.218822,-0.126336,0.126336,0.218822,14.70584,24.71889)"
       style="fill:none;fill-opacity:0.75;fill-rule:evenodd;stroke:#333333;stroke-width:1.249997;stroke-linecap:round;stroke-linejoin:round;"
       id="path594" />
    <path
       d="M 59.08677 -35.71108 L 61.51745 -36.71892 L 63.71099 -37.01535 L 66.08239 -39.50531 L 63.35528 -39.86102 L 61.51745 -37.84534 L 59.08677 -35.71108 z "
       transform="matrix(0.218822,-0.126336,0.126336,0.218822,14.70584,24.71889)"
       style="fill:none;fill-opacity:0.75;fill-rule:evenodd;stroke:#333333;stroke-width:1.249997;stroke-linecap:round;stroke-linejoin:round;"
       id="path595" />
    <path
       d="M 63.6517 -30.19759 L 65.19311 -30.61258 L 64.42241 -32.03542 L 64.83741 -32.39113 L 64.36313 -32.86541 L 63.6517 -30.19759 z "
       transform="matrix(0.218822,-0.126336,0.126336,0.218822,14.70584,24.71889)"
       style="fill:none;fill-opacity:0.75;fill-rule:evenodd;stroke:#333333;stroke-width:1.249997;stroke-linecap:round;stroke-linejoin:round;"
       id="path597" />
    <path
       d="M 63.41457 -30.909 L 63.59243 -31.85756 L 62.58458 -31.20543 L 63.41457 -30.909 z "
       transform="matrix(0.218822,-0.126336,0.126336,0.218822,14.70584,24.71889)"
       style="fill:none;fill-opacity:0.75;fill-rule:evenodd;stroke:#333333;stroke-width:1.249997;stroke-linecap:round;stroke-linejoin:round;"
       id="path598" />
  </g>
  <path
     d="M -2.198486 -5.204173 C -2.081299 -5.204173 -1.973877 -5.184641 -1.876221 -5.145579 C -1.774658 -5.106516 -1.69458 -5.044016 -1.635986 -4.958079 C -1.577393 -4.876048 -1.548096 -4.770579 -1.548096 -4.641673 C -1.548096 -4.544016 -1.563721 -4.411204 -1.594971 -4.243235 C -1.626221 -4.079173 -1.647705 -3.954173 -1.659424 -3.868235 C -1.534424 -3.954173 -1.423096 -4.034251 -1.32544 -4.108469 C -1.223877 -4.186594 -1.126221 -4.247141 -1.032471 -4.29011 C -0.938721 -4.336985 -0.846924 -4.360423 -0.75708 -4.360423 C -0.573486 -4.360423 -0.419189 -4.29011 -0.294189 -4.149485 C -0.169189 -4.00886 -0.106689 -3.844798 -0.106689 -3.657298 C -0.106689 -3.524485 -0.157471 -3.413157 -0.259033 -3.323313 C -0.360596 -3.233469 -0.524658 -3.141673 -0.751221 -3.047923 C -0.977783 -2.958079 -1.098877 -2.909251 -1.114502 -2.901438 C -1.098877 -2.893626 -0.977783 -2.842844 -0.751221 -2.749094 C -0.520752 -2.655344 -0.356689 -2.565501 -0.259033 -2.479563 C -0.157471 -2.397532 -0.106689 -2.29011 -0.106689 -2.157298 C -0.106689 -1.965891 -0.169189 -1.797923 -0.294189 -1.653391 C -0.419189 -1.50886 -0.573486 -1.436595 -0.75708 -1.436595 C -0.88208 -1.436595 -1.024658 -1.491282 -1.184815 -1.600657 C -1.344971 -1.710032 -1.503174 -1.819407 -1.659424 -1.928782 C -1.639893 -1.803782 -1.616455 -1.670969 -1.589111 -1.530344 C -1.561768 -1.38972 -1.548096 -1.270579 -1.548096 -1.172923 C -1.548096 -0.97761 -1.610596 -0.831126 -1.735596 -0.733469 C -1.85669 -0.639719 -2.010986 -0.592844 -2.198486 -0.592844 C -2.38208 -0.592844 -2.536377 -0.639719 -2.661377 -0.733469 C -2.782471 -0.831126 -2.843018 -0.97761 -2.843018 -1.172923 C -2.843018 -1.235423 -2.827393 -1.35261 -2.796143 -1.524485 C -2.764893 -1.69636 -2.745361 -1.831126 -2.737549 -1.928782 C -2.94458 -1.784251 -3.081299 -1.686594 -3.147705 -1.635813 C -3.214111 -1.588938 -3.294189 -1.544016 -3.387939 -1.501048 C -3.477783 -1.458079 -3.563721 -1.436595 -3.645752 -1.436595 C -3.833252 -1.436595 -3.985596 -1.506907 -4.102783 -1.647532 C -4.216064 -1.788157 -4.272705 -1.958079 -4.272705 -2.157298 C -4.272705 -2.297923 -4.223877 -2.409251 -4.126221 -2.491282 C -4.028564 -2.573313 -3.870361 -2.657298 -3.651611 -2.743235 C -3.432861 -2.833079 -3.307861 -2.885813 -3.276611 -2.901438 C -3.307861 -2.917063 -3.432861 -2.967844 -3.651611 -3.053782 C -3.866455 -3.143626 -4.024658 -3.231516 -4.126221 -3.317454 C -4.223877 -3.407298 -4.272705 -3.520579 -4.272705 -3.657298 C -4.272705 -3.848704 -4.216064 -4.012766 -4.102783 -4.149485 C -3.985596 -4.29011 -3.833252 -4.360423 -3.645752 -4.360423 C -3.528564 -4.360423 -3.421143 -4.329173 -3.323486 -4.266673 C -3.221924 -4.204173 -3.026611 -4.07136 -2.737549 -3.868235 C -2.745361 -3.954173 -2.764893 -4.088938 -2.796143 -4.272532 C -2.827393 -4.456126 -2.843018 -4.579173 -2.843018 -4.641673 C -2.843018 -4.836985 -2.782471 -4.979563 -2.661377 -5.069407 C -2.536377 -5.159251 -2.38208 -5.204173 -2.198486 -5.204173 z M -6.868408 -5.204173 C -6.751221 -5.204173 -6.643799 -5.184641 -6.546143 -5.145579 C -6.44458 -5.106516 -6.364502 -5.044016 -6.305908 -4.958079 C -6.247314 -4.876048 -6.218018 -4.770579 -6.218018 -4.641673 C -6.218018 -4.544016 -6.233643 -4.411204 -6.264893 -4.243235 C -6.296143 -4.079173 -6.317627 -3.954173 -6.329346 -3.868235 C -6.204346 -3.954173 -6.093018 -4.034251 -5.995361 -4.108469 C -5.893799 -4.186594 -5.796143 -4.247141 -5.702393 -4.29011 C -5.608643 -4.336985 -5.516846 -4.360423 -5.427002 -4.360423 C -5.243408 -4.360423 -5.089111 -4.29011 -4.964111 -4.149485 C -4.839111 -4.00886 -4.776611 -3.844798 -4.776611 -3.657298 C -4.776611 -3.524485 -4.827393 -3.413157 -4.928955 -3.323313 C -5.030518 -3.233469 -5.19458 -3.141673 -5.421143 -3.047923 C -5.647705 -2.958079 -5.768799 -2.909251 -5.784424 -2.901438 C -5.768799 -2.893626 -5.647705 -2.842844 -5.421143 -2.749094 C -5.190674 -2.655344 -5.026611 -2.565501 -4.928955 -2.479563 C -4.827393 -2.397532 -4.776611 -2.29011 -4.776611 -2.157298 C -4.776611 -1.965891 -4.839111 -1.797923 -4.964111 -1.653391 C -5.089111 -1.50886 -5.243408 -1.436595 -5.427002 -1.436595 C -5.552002 -1.436595 -5.69458 -1.491282 -5.854736 -1.600657 C -6.014893 -1.710032 -6.173096 -1.819407 -6.329346 -1.928782 C -6.309814 -1.803782 -6.286377 -1.670969 -6.259033 -1.530344 C -6.231689 -1.38972 -6.218018 -1.270579 -6.218018 -1.172923 C -6.218018 -0.97761 -6.280518 -0.831126 -6.405518 -0.733469 C -6.526611 -0.639719 -6.680908 -0.592844 -6.868408 -0.592844 C -7.052002 -0.592844 -7.206299 -0.639719 -7.331299 -0.733469 C -7.452393 -0.831126 -7.512939 -0.97761 -7.512939 -1.172923 C -7.512939 -1.235423 -7.497314 -1.35261 -7.466064 -1.524485 C -7.434814 -1.69636 -7.415283 -1.831126 -7.407471 -1.928782 C -7.614502 -1.784251 -7.751221 -1.686594 -7.817627 -1.635813 C -7.884033 -1.588938 -7.964111 -1.544016 -8.057861 -1.501048 C -8.147705 -1.458079 -8.233643 -1.436595 -8.315674 -1.436595 C -8.503174 -1.436595 -8.655518 -1.506907 -8.772705 -1.647532 C -8.885986 -1.788157 -8.942627 -1.958079 -8.942627 -2.157298 C -8.942627 -2.297923 -8.893799 -2.409251 -8.796143 -2.491282 C -8.698486 -2.573313 -8.540283 -2.657298 -8.321533 -2.743235 C -8.102783 -2.833079 -7.977783 -2.885813 -7.946533 -2.901438 C -7.977783 -2.917063 -8.102783 -2.967844 -8.321533 -3.053782 C -8.536377 -3.143626 -8.69458 -3.231516 -8.796143 -3.317454 C -8.893799 -3.407298 -8.942627 -3.520579 -8.942627 -3.657298 C -8.942627 -3.848704 -8.885986 -4.012766 -8.772705 -4.149485 C -8.655518 -4.29011 -8.503174 -4.360423 -8.315674 -4.360423 C -8.198486 -4.360423 -8.091064 -4.329173 -7.993408 -4.266673 C -7.891846 -4.204173 -7.696533 -4.07136 -7.407471 -3.868235 C -7.415283 -3.954173 -7.434814 -4.088938 -7.466064 -4.272532 C -7.497314 -4.456126 -7.512939 -4.579173 -7.512939 -4.641673 C -7.512939 -4.836985 -7.452393 -4.979563 -7.331299 -5.069407 C -7.206299 -5.159251 -7.052002 -5.204173 -6.868408 -5.204173 z M -11.53833 -5.204173 C -11.42114 -5.204173 -11.31372 -5.184641 -11.21606 -5.145579 C -11.1145 -5.106516 -11.03442 -5.044016 -10.97583 -4.958079 C -10.91724 -4.876048 -10.88794 -4.770579 -10.88794 -4.641673 C -10.88794 -4.544016 -10.90356 -4.411204 -10.93481 -4.243235 C -10.96606 -4.079173 -10.98755 -3.954173 -10.99927 -3.868235 C -10.87427 -3.954173 -10.76294 -4.034251 -10.66528 -4.108469 C -10.56372 -4.186594 -10.46606 -4.247141 -10.37231 -4.29011 C -10.27856 -4.336985 -10.18677 -4.360423 -10.09692 -4.360423 C -9.91333 -4.360423 -9.759033 -4.29011 -9.634033 -4.149485 C -9.509033 -4.00886 -9.446533 -3.844798 -9.446533 -3.657298 C -9.446533 -3.524485 -9.497314 -3.413157 -9.598877 -3.323313 C -9.700439 -3.233469 -9.864502 -3.141673 -10.09106 -3.047923 C -10.31763 -2.958079 -10.43872 -2.909251 -10.45435 -2.901438 C -10.43872 -2.893626 -10.31763 -2.842844 -10.09106 -2.749094 C -9.860596 -2.655344 -9.696533 -2.565501 -9.598877 -2.479563 C -9.497314 -2.397532 -9.446533 -2.29011 -9.446533 -2.157298 C -9.446533 -1.965891 -9.509033 -1.797923 -9.634033 -1.653391 C -9.759033 -1.50886 -9.91333 -1.436595 -10.09692 -1.436595 C -10.22192 -1.436595 -10.3645 -1.491282 -10.52466 -1.600657 C -10.68481 -1.710032 -10.84302 -1.819407 -10.99927 -1.928782 C -10.97974 -1.803782 -10.9563 -1.670969 -10.92896 -1.530344 C -10.90161 -1.38972 -10.88794 -1.270579 -10.88794 -1.172923 C -10.88794 -0.97761 -10.95044 -0.831126 -11.07544 -0.733469 C -11.19653 -0.639719 -11.35083 -0.592844 -11.53833 -0.592844 C -11.72192 -0.592844 -11.87622 -0.639719 -12.00122 -0.733469 C -12.12231 -0.831126 -12.18286 -0.97761 -12.18286 -1.172923 C -12.18286 -1.235423 -12.16724 -1.35261 -12.13599 -1.524485 C -12.10474 -1.69636 -12.08521 -1.831126 -12.07739 -1.928782 C -12.28442 -1.784251 -12.42114 -1.686594 -12.48755 -1.635813 C -12.55396 -1.588938 -12.63403 -1.544016 -12.72778 -1.501048 C -12.81763 -1.458079 -12.90356 -1.436595 -12.9856 -1.436595 C -13.1731 -1.436595 -13.32544 -1.506907 -13.44263 -1.647532 C -13.55591 -1.788157 -13.61255 -1.958079 -13.61255 -2.157298 C -13.61255 -2.297923 -13.56372 -2.409251 -13.46606 -2.491282 C -13.36841 -2.573313 -13.21021 -2.657298 -12.99146 -2.743235 C -12.77271 -2.833079 -12.64771 -2.885813 -12.61646 -2.901438 C -12.64771 -2.917063 -12.77271 -2.967844 -12.99146 -3.053782 C -13.2063 -3.143626 -13.3645 -3.231516 -13.46606 -3.317454 C -13.56372 -3.407298 -13.61255 -3.520579 -13.61255 -3.657298 C -13.61255 -3.848704 -13.55591 -4.012766 -13.44263 -4.149485 C -13.32544 -4.29011 -13.1731 -4.360423 -12.9856 -4.360423 C -12.86841 -4.360423 -12.76099 -4.329173 -12.66333 -4.266673 C -12.56177 -4.204173 -12.36646 -4.07136 -12.07739 -3.868235 C -12.08521 -3.954173 -12.10474 -4.088938 -12.13599 -4.272532 C -12.16724 -4.456126 -12.18286 -4.579173 -12.18286 -4.641673 C -12.18286 -4.836985 -12.12231 -4.979563 -12.00122 -5.069407 C -11.87622 -5.159251 -11.72192 -5.204173 -11.53833 -5.204173 z M -16.20825 -5.204173 C -16.09106 -5.204173 -15.98364 -5.184641 -15.88599 -5.145579 C -15.78442 -5.106516 -15.70435 -5.044016 -15.64575 -4.958079 C -15.58716 -4.876048 -15.55786 -4.770579 -15.55786 -4.641673 C -15.55786 -4.544016 -15.57349 -4.411204 -15.60474 -4.243235 C -15.63599 -4.079173 -15.65747 -3.954173 -15.66919 -3.868235 C -15.54419 -3.954173 -15.43286 -4.034251 -15.33521 -4.108469 C -15.23364 -4.186594 -15.13599 -4.247141 -15.04224 -4.29011 C -14.94849 -4.336985 -14.85669 -4.360423 -14.76685 -4.360423 C -14.58325 -4.360423 -14.42896 -4.29011 -14.30396 -4.149485 C -14.17896 -4.00886 -14.11646 -3.844798 -14.11646 -3.657298 C -14.11646 -3.524485 -14.16724 -3.413157 -14.2688 -3.323313 C -14.37036 -3.233469 -14.53442 -3.141673 -14.76099 -3.047923 C -14.98755 -2.958079 -15.10864 -2.909251 -15.12427 -2.901438 C -15.10864 -2.893626 -14.98755 -2.842844 -14.76099 -2.749094 C -14.53052 -2.655344 -14.36646 -2.565501 -14.2688 -2.479563 C -14.16724 -2.397532 -14.11646 -2.29011 -14.11646 -2.157298 C -14.11646 -1.965891 -14.17896 -1.797923 -14.30396 -1.653391 C -14.42896 -1.50886 -14.58325 -1.436595 -14.76685 -1.436595 C -14.89185 -1.436595 -15.03442 -1.491282 -15.19458 -1.600657 C -15.35474 -1.710032 -15.51294 -1.819407 -15.66919 -1.928782 C -15.64966 -1.803782 -15.62622 -1.670969 -15.59888 -1.530344 C -15.57153 -1.38972 -15.55786 -1.270579 -15.55786 -1.172923 C -15.55786 -0.97761 -15.62036 -0.831126 -15.74536 -0.733469 C -15.86646 -0.639719 -16.02075 -0.592844 -16.20825 -0.592844 C -16.39185 -0.592844 -16.54614 -0.639719 -16.67114 -0.733469 C -16.79224 -0.831126 -16.85278 -0.97761 -16.85278 -1.172923 C -16.85278 -1.235423 -16.83716 -1.35261 -16.80591 -1.524485 C -16.77466 -1.69636 -16.75513 -1.831126 -16.74731 -1.928782 C -16.95435 -1.784251 -17.09106 -1.686594 -17.15747 -1.635813 C -17.22388 -1.588938 -17.30395 -1.544016 -17.3977 -1.501048 C -17.48755 -1.458079 -17.57349 -1.436595 -17.65552 -1.436595 C -17.84302 -1.436595 -17.99536 -1.506907 -18.11255 -1.647532 C -18.22583 -1.788157 -18.28247 -1.958079 -18.28247 -2.157298 C -18.28247 -2.297923 -18.23364 -2.409251 -18.13599 -2.491282 C -18.03833 -2.573313 -17.88013 -2.657298 -17.66138 -2.743235 C -17.44263 -2.833079 -17.31763 -2.885813 -17.28638 -2.901438 C -17.31763 -2.917063 -17.44263 -2.967844 -17.66138 -3.053782 C -17.87622 -3.143626 -18.03442 -3.231516 -18.13599 -3.317454 C -18.23364 -3.407298 -18.28247 -3.520579 -18.28247 -3.657298 C -18.28247 -3.848704 -18.22583 -4.012766 -18.11255 -4.149485 C -17.99536 -4.29011 -17.84302 -4.360423 -17.65552 -4.360423 C -17.53833 -4.360423 -17.43091 -4.329173 -17.33325 -4.266673 C -17.23169 -4.204173 -17.03638 -4.07136 -16.74731 -3.868235 C -16.75513 -3.954173 -16.77466 -4.088938 -16.80591 -4.272532 C -16.83716 -4.456126 -16.85278 -4.579173 -16.85278 -4.641673 C -16.85278 -4.836985 -16.79224 -4.979563 -16.67114 -5.069407 C -16.54614 -5.159251 -16.39185 -5.204173 -16.20825 -5.204173 z "
     transform="matrix(0.59574,-0.578966,0.578966,0.59574,32.91677,6.070726)"
     style="font-size:12;font-weight:900;fill:#333333;stroke-width:1;font-family:VAG Rounded Black SSi;"
     id="path855" />
</svg>
