<?xml version="1.0" encoding="UTF-8" standalone="no"?>
<!DOCTYPE svg PUBLIC "-//W3C//DTD SVG 1.0//EN"
"http://www.w3.org/TR/2001/REC-SVG-20010904/DTD/svg10.dtd">
<!-- Created with Sodipodi ("http://www.sodipodi.com/") -->
<svg
   xmlns="http://www.w3.org/2000/svg"
   xmlns:xlink="http://www.w3.org/1999/xlink"
   version="1.0"
   x="0"
   y="0"
   width="60"
   height="60"
   id="svg1">
  <defs
     id="defs3" />
  <rect
     width="41.8622704"
     height="20.2313099"
     rx="2"
     x="3.30826449"
     y="4.26846886"
     transform="matrix(1.057751,0,0,1.106918,-6.3813e-2,-1.219822)"
     style="font-size:12;fill:#b3b3b3;fill-rule:evenodd;stroke:#4c4c4c;stroke-width:2.88802;stroke-linejoin:round;"
     id="rect773" />
  <path
     d="M 29.69763 20.86737 L 29.69763 7.944127 C 29.69763 7.443305 29.83637 7.037233 30.11386 6.725911 C 30.39134 6.414589 30.75003 6.258928 31.18994 6.258928 C 31.48096 6.258928 31.73814 6.329991 31.96148 6.472116 C 32.19159 6.614241 32.37094 6.817277 32.49953 7.081224 C 32.62812 7.338403 32.69241 7.626037 32.69241 7.944127 L 32.69241 20.86737 C 32.69241 21.19223 32.62812 21.48663 32.49953 21.75058 C 32.37094 22.00775 32.19159 22.20741 31.96148 22.34953 C 31.73137 22.48489 31.4742 22.55257 31.18994 22.55257 C 30.74327 22.55257 30.38118 22.40029 30.1037 22.09574 C 29.83299 21.78441 29.69763 21.37496 29.69763 20.86737 z M 22.7741 20.86737 L 22.7741 12.63426 C 22.7741 12.16728 22.92638 11.80181 23.23093 11.53786 C 23.54226 11.27392 23.90095 11.14194 24.30702 11.14194 C 25.2816 11.14194 25.76888 11.55817 25.76888 12.39062 L 25.80949 12.39062 C 26.11405 11.9507 26.42537 11.63261 26.74346 11.43635 C 27.06155 11.24008 27.4507 11.14194 27.91091 11.14194 C 28.29668 11.14194 28.63508 11.28069 28.92609 11.55817 C 29.21711 11.83565 29.36262 12.23157 29.36262 12.74593 C 29.36262 13.04372 29.28479 13.27382 29.12913 13.43625 C 28.98024 13.59868 28.77382 13.73404 28.50987 13.84232 C 28.24592 13.95061 27.9346 14.07581 27.5759 14.21794 C 26.98033 14.48865 26.53027 14.76275 26.22571 15.04024 C 25.92116 15.31095 25.76888 15.71025 25.76888 16.23815 L 25.76888 20.86737 C 25.76888 21.19223 25.70459 21.48663 25.576 21.75058 C 25.44741 22.00775 25.26806 22.20741 25.03795 22.34953 C 24.80785 22.48489 24.55067 22.55257 24.26642 22.55257 C 23.81974 22.55257 23.45766 22.40029 23.18017 22.09574 C 22.90946 21.78441 22.7741 21.37496 22.7741 20.86737 z M 17.39365 20.86737 L 17.39365 13.90323 L 16.72363 13.90323 C 16.31756 13.90323 15.99947 13.78818 15.76936 13.55807 C 15.53248 13.3212 15.41405 12.99296 15.41405 12.57335 C 15.41405 12.20111 15.53925 11.88979 15.78966 11.63938 C 16.04008 11.38897 16.3514 11.26377 16.72363 11.26377 L 17.39365 11.26377 L 17.39365 9.456745 C 17.39365 8.949155 17.52901 8.543083 17.79972 8.238529 C 18.0772 7.927207 18.43928 7.771546 18.88596 7.771546 C 19.17698 7.771546 19.43754 7.842609 19.66765 7.984734 C 19.89776 8.126859 20.07372 8.326511 20.19554 8.58369 C 20.32413 8.834101 20.38843 9.12512 20.38843 9.456745 L 20.38843 11.26377 L 21.24118 11.26377 C 21.65402 11.26377 21.9958 11.37205 22.26651 11.58862 C 22.53723 11.79843 22.67259 12.12667 22.67259 12.57335 C 22.67259 13.02679 22.53723 13.36181 22.26651 13.57838 C 22.00257 13.79495 21.66079 13.90323 21.24118 13.90323 L 20.38843 13.90323 L 20.38843 20.86737 C 20.38843 21.19223 20.32413 21.48663 20.19554 21.75058 C 20.06695 22.00775 19.88761 22.20741 19.6575 22.34953 C 19.42739 22.48489 19.17021 22.55257 18.88596 22.55257 C 18.43928 22.55257 18.0772 22.40029 17.79972 22.09574 C 17.52901 21.78441 17.39365 21.37496 17.39365 20.86737 z M 15.62723 12.90836 C 15.62723 13.26029 15.51556 13.59191 15.29223 13.90323 C 15.07565 14.20779 14.80494 14.36007 14.48008 14.36007 C 14.2432 14.36007 13.87774 14.26531 13.38369 14.07581 C 12.88963 13.87955 12.46664 13.78141 12.11471 13.78141 C 11.70187 13.78141 11.33641 13.8694 11.01832 14.04536 C 10.70023 14.21456 10.4329 14.44805 10.21632 14.74583 C 10.00652 15.04362 9.85086 15.37186 9.749342 15.73056 C 9.647824 16.08249 9.597065 16.4581 9.597065 16.85741 C 9.597065 17.2161 9.651208 17.58157 9.759493 17.9538 C 9.874547 18.32604 10.04036 18.66105 10.25693 18.95883 C 10.4735 19.25662 10.74083 19.49011 11.05893 19.6593 C 11.38378 19.8285 11.73571 19.9131 12.11471 19.9131 C 12.32451 19.9131 12.5377 19.87926 12.75427 19.81158 C 12.97762 19.73714 13.2754 19.62885 13.64763 19.48672 C 14.01987 19.3446 14.24997 19.27354 14.33796 19.27354 C 14.68989 19.27354 14.99105 19.40551 15.24147 19.66946 C 15.49864 19.92664 15.62723 20.23796 15.62723 20.60342 C 15.62723 21.07041 15.41405 21.46294 14.98767 21.78103 C 14.56806 22.09235 14.06386 22.31908 13.47505 22.4612 C 12.88625 22.6101 12.38204 22.68454 11.96243 22.68454 C 10.92018 22.68454 9.989601 22.42398 9.170689 21.90285 C 8.358545 21.37496 7.72575 20.66772 7.272302 19.78113 C 6.825623 18.88777 6.602284 17.9132 6.602284 16.85741 C 6.602284 16.10618 6.730873 15.37863 6.988052 14.67477 C 7.245231 13.97091 7.610696 13.34488 8.084446 12.79669 C 8.564965 12.24849 9.140234 11.81535 9.810253 11.49726 C 10.48027 11.17917 11.19767 11.02012 11.96243 11.02012 C 12.42265 11.02012 12.94039 11.08442 13.51566 11.21301 C 14.0977 11.33483 14.59513 11.53786 15.00798 11.82212 C 15.42081 12.0996 15.62723 12.46168 15.62723 12.90836 z "
     style="font-size:12;fill:#333333;stroke-width:1;font-family:VAG Rounded Black SSi;"
     id="path835" />
  <path
     d="M 12.97858 26.28115 L 12.97858 45.11281 L 22.13992 45.11281 "
     style="font-size:12;fill:none;fill-opacity:0.75;fill-rule:evenodd;stroke:#4c4c4c;stroke-width:3.125;stroke-linecap:round;stroke-linejoin:round;stroke-dasharray:3.125 3.125 ;stroke-dashoffset:0;"
     id="path793" />
  <rect
     width="41.8622704"
     height="20.2313099"
     rx="2"
     x="3.30826449"
     y="4.26846886"
     transform="matrix(0.81459,0,0,1.106918,19.57228,29.06353)"
     style="font-size:12;fill:#b3b3b3;fill-rule:evenodd;stroke:#4c4c4c;stroke-width:3.29096;stroke-linejoin:round;"
     id="rect776" />
  <path
     d="M 17.72344 10.87334 L 17.72344 6.853809 L 17.33672 6.853809 C 17.10234 6.853809 16.91875 6.787403 16.78594 6.654591 C 16.64922 6.517872 16.58086 6.328419 16.58086 6.086231 C 16.58086 5.871387 16.65312 5.6917 16.79766 5.547169 C 16.94219 5.402637 17.12187 5.330372 17.33672 5.330372 L 17.72344 5.330372 L 17.72344 4.287403 C 17.72344 3.994434 17.80156 3.760059 17.95781 3.584278 C 18.11797 3.404591 18.32695 3.314747 18.58477 3.314747 C 18.75273 3.314747 18.90312 3.355762 19.03594 3.437794 C 19.16875 3.519825 19.27031 3.635059 19.34062 3.783497 C 19.41484 3.928028 19.45195 4.095997 19.45195 4.287403 L 19.45195 5.330372 L 19.94414 5.330372 C 20.18242 5.330372 20.37969 5.392872 20.53594 5.517872 C 20.69219 5.638966 20.77031 5.828419 20.77031 6.086231 C 20.77031 6.34795 20.69219 6.541309 20.53594 6.666309 C 20.38359 6.791309 20.18633 6.853809 19.94414 6.853809 L 19.45195 6.853809 L 19.45195 10.87334 C 19.45195 11.06084 19.41484 11.23076 19.34062 11.38311 C 19.26641 11.53154 19.16289 11.64678 19.03008 11.72881 C 18.89727 11.80693 18.74883 11.846 18.58477 11.846 C 18.32695 11.846 18.11797 11.75811 17.95781 11.58233 C 17.80156 11.40264 17.72344 11.16631 17.72344 10.87334 z M 14.61211 10.87334 L 14.61211 3.414356 C 14.61211 3.125294 14.69219 2.890919 14.85234 2.711231 C 15.0125 2.531544 15.21953 2.4417 15.47344 2.4417 C 15.64141 2.4417 15.78984 2.482716 15.91875 2.564747 C 16.05156 2.646778 16.15508 2.763966 16.2293 2.916309 C 16.30352 3.064747 16.34062 3.230762 16.34062 3.414356 L 16.34062 10.87334 C 16.34062 11.06084 16.30352 11.23076 16.2293 11.38311 C 16.15508 11.53154 16.05156 11.64678 15.91875 11.72881 C 15.78594 11.80693 15.6375 11.846 15.47344 11.846 C 15.21562 11.846 15.00664 11.75811 14.84648 11.58233 C 14.69023 11.40264 14.61211 11.16631 14.61211 10.87334 z M 13.65117 6.396778 L 13.65117 10.70928 C 13.65117 11.04522 13.6043 11.31865 13.51055 11.52959 C 13.4168 11.74053 13.18633 11.846 12.81914 11.846 C 12.58477 11.846 12.40312 11.78545 12.27422 11.66436 C 12.14922 11.53936 12.05547 11.35186 11.99297 11.10186 C 11.76641 11.37529 11.51836 11.58037 11.24883 11.71709 C 10.9793 11.85381 10.67852 11.92217 10.34648 11.92217 C 9.811328 11.92217 9.324999 11.77959 8.887499 11.49443 C 8.453906 11.20537 8.112109 10.80498 7.862109 10.29326 C 7.616015 9.777638 7.492968 9.199513 7.492968 8.558888 C 7.492968 7.937794 7.619921 7.369434 7.873827 6.853809 C 8.13164 6.334278 8.479296 5.928028 8.916796 5.635059 C 9.358203 5.338184 9.834765 5.189747 10.34648 5.189747 C 10.6707 5.189747 10.9793 5.256153 11.27227 5.388966 C 11.56523 5.521778 11.80547 5.719044 11.99297 5.980762 C 12.01641 5.769825 12.10625 5.59795 12.2625 5.465137 C 12.42266 5.328419 12.6082 5.260059 12.81914 5.260059 C 13.18633 5.260059 13.4168 5.365528 13.51055 5.576466 C 13.6043 5.783497 13.65117 6.056934 13.65117 6.396778 z M 9.221484 8.558888 C 9.221484 8.855763 9.272265 9.138966 9.373828 9.408497 C 9.479296 9.678028 9.633593 9.898731 9.836718 10.07061 C 10.04375 10.23858 10.29375 10.32256 10.58672 10.32256 C 10.87187 10.32256 11.11406 10.23858 11.31328 10.07061 C 11.51641 9.898731 11.66875 9.678028 11.77031 9.408497 C 11.87187 9.138966 11.92266 8.855763 11.92266 8.558888 C 11.92266 8.09795 11.80547 7.687794 11.57109 7.328419 C 11.34062 6.965137 11.0125 6.783497 10.58672 6.783497 C 10.29375 6.783497 10.04375 6.869434 9.836718 7.041309 C 9.629687 7.213184 9.47539 7.437794 9.373828 7.715137 C 9.272265 7.988575 9.221484 8.269825 9.221484 8.558888 z "
     transform="matrix(1.732574,0,0,1.732574,17.11817,32.23771)"
     style="font-size:12;fill:#333333;stroke-width:1;font-family:VAG Rounded Black SSi;"
     id="path834" />
</svg>
