<?xml version="1.0" encoding="UTF-8" standalone="no"?>
<!DOCTYPE svg PUBLIC "-//W3C//DTD SVG 1.0//EN"
"http://www.w3.org/TR/2001/REC-SVG-20010904/DTD/svg10.dtd">
<!-- Created with Sodipodi ("http://www.sodipodi.com/") -->
<svg
   xmlns="http://www.w3.org/2000/svg"
   xmlns:xlink="http://www.w3.org/1999/xlink"
   version="1.0"
   x="0"
   y="0"
   width="60"
   height="60"
   id="svg1">
  <defs
     id="defs3">
    <linearGradient
       id="linearGradient1160">
      <stop
         style="stop-color:#000000;stop-opacity:1;"
         offset="0"
         id="stop1161" />
      <stop
         style="stop-color:#ffffff;stop-opacity:1;"
         offset="1"
         id="stop1162" />
    </linearGradient>
    <linearGradient
       id="linearGradient1163"
       xlink:href="#linearGradient1160" />
  </defs>
  <rect
     width="44.9864655"
     height="38.8683052"
     rx="2"
     x="6.29810524"
     y="8.89537525"
     transform="matrix(0.948011,0,0,0.948011,8.872747,-1.916818)"
     style="font-size:12;fill:#4c4c4c;fill-rule:evenodd;stroke-width:3.44187;"
     id="rect735" />
  <rect
     width="44.9864655"
     height="38.8683052"
     rx="2"
     x="6.29810524"
     y="8.89537525"
     transform="matrix(0.948011,0,0,0.948011,4.182704,2.790528)"
     style="font-size:12;fill:#7f7f7f;fill-rule:evenodd;stroke-width:3.44187;"
     id="rect734" />
  <rect
     width="44.9864655"
     height="38.8683052"
     rx="2"
     x="6.29810524"
     y="8.89537525"
     transform="matrix(0.948011,0,0,0.948011,-1.651969,8.061537)"
     style="font-size:12;fill:#b3b3b3;fill-rule:evenodd;stroke:#333333;stroke-width:3.296375;stroke-linejoin:round;"
     id="rect733" />
  <path
     d="M -6.822553 5.819373 L -6.822553 -8.172814 C -6.822553 -8.688439 -6.654584 -9.118127 -6.318646 -9.461877 C -5.982709 -9.805627 -5.549115 -9.977502 -5.017865 -9.977502 C -4.486615 -9.977502 -4.056928 -9.817346 -3.728803 -9.497033 C -3.392865 -9.176721 -3.224896 -8.735314 -3.224896 -8.172814 L -3.224896 -2.946252 L 2.681354 -9.297814 C 3.095416 -9.750939 3.56026 -9.977502 4.075885 -9.977502 C 4.552447 -9.977502 4.96651 -9.813439 5.318072 -9.485314 C 5.677447 -9.165002 5.857135 -8.743127 5.857135 -8.219689 C 5.857135 -7.922814 5.763385 -7.629846 5.575885 -7.340783 C 5.388385 -7.059533 5.087604 -6.711877 4.673541 -6.297814 L 0.138385 -1.786096 L 5.681354 4.061561 C 6.001666 4.366248 6.24776 4.663123 6.419635 4.952186 C 6.599322 5.233436 6.689166 5.545936 6.689166 5.889686 C 6.689166 6.436561 6.509479 6.854529 6.150104 7.143592 C 5.790729 7.424842 5.345416 7.565467 4.814166 7.565467 C 4.501666 7.565467 4.21651 7.479529 3.958697 7.307654 C 3.708697 7.135779 3.388385 6.846717 2.99776 6.440467 L -3.224896 -0.356408 L -3.224896 5.819373 C -3.224896 6.311561 -3.392865 6.725623 -3.728803 7.061561 C -4.06474 7.397498 -4.494428 7.565467 -5.017865 7.565467 C -5.541303 7.565467 -5.974896 7.405311 -6.318646 7.084998 C -6.654584 6.764686 -6.822553 6.342811 -6.822553 5.819373 z "
     transform="matrix(1.033713,0,0,1.033713,30.78889,30.95179)"
     style="font-size:24;fill:#333333;stroke-width:1;font-family:VAG Rounded Black SSi;"
     id="path836" />
  <path
     d="M 37.1392 181.1474 L 52.94628 197.7072 L 78.53855 180.3946 L 98.86191 189.4273 L 105.6363 219.0951 L 127.4651 218.8946 L 133.4868 188.454 L 153.8101 180.3946 L 179.4024 196.9545 L 191.4459 180.3946 L 162.4018 152.9851 C 87.95894 221.2642 23.62886 116.0294 87.57118 72.00355 L 87.57109 56.19647 L 80.044 59.96004 L 56.70979 45.12611 L 40.59092 58.36318 L 55.20437 83.2942 L 46.92451 103.6175 L 18.40927 108.3544 L 18.32127 129.9626 L 47.67726 137.4898 L 55.76894 157.2487 L 37.1392 181.1474 z "
     transform="matrix(0.15075,0,0,0.15075,9.023233,16.7059)"
     style="font-size:12;fill:#333333;fill-rule:evenodd;stroke:#333333;stroke-width:1.29297;stroke-linecap:round;stroke-linejoin:round;"
     id="path705" />
</svg>
