<?xml version="1.0" encoding="UTF-8" standalone="no"?>
<!DOCTYPE svg PUBLIC "-//W3C//DTD SVG 1.0//EN"
"http://www.w3.org/TR/2001/REC-SVG-20010904/DTD/svg10.dtd">
<!-- Created with Sodipodi ("http://www.sodipodi.com/") -->
<svg
   xmlns="http://www.w3.org/2000/svg"
   xmlns:xlink="http://www.w3.org/1999/xlink"
   version="1.0"
   x="0"
   y="0"
   width="60"
   height="60"
   id="svg1">
  <defs
     id="defs3" />
  <path
     d="M -38.80848 12.28465 C -39.19021 13.30257 -39.69917 24.2453 -35.7547 41.93179 C -32.19196 43.2042 -28.88369 44.73109 -25.19371 47.40315 C -20.61303 45.74902 -9.415829 43.96764 -7.379975 43.71316 C -8.397901 33.40664 -5.725842 16.99256 -3.053783 12.28465 C -8.397902 9.230866 -20.10407 6.304324 -24.5575 6.813287 C -32.57368 6.813288 -37.53608 10.75776 -38.80848 12.28465 z "
     transform="matrix(1.269208,0,0,1.269208,53.77825,-3.854441)"
     style="font-size:12;fill:#7f7f7f;fill-rule:evenodd;stroke:#333333;stroke-width:2.46217;stroke-linecap:round;stroke-linejoin:round;"
     id="path707" />
  <ellipse
     cx="34.482296"
     cy="36.9693909"
     rx="5.85308313"
     ry="6.61652899"
     transform="matrix(1.365778,0,0,1.269208,-14.55354,-7.407335)"
     style="font-size:12;fill:#bfbfbf;fill-rule:evenodd;stroke:#333333;stroke-width:1.42411;stroke-linecap:round;stroke-linejoin:round;"
     id="path708" />
  <path
     d="M -22.01268 20.30083 C -17.43201 18.39221 -13.3603 19.41014 -10.17927 20.04635 "
     transform="matrix(1.269208,0,0,1.269208,53.77825,-3.854441)"
     style="font-size:12;fill:none;fill-opacity:0.75;fill-rule:evenodd;stroke:#333333;stroke-width:1.4773;stroke-linecap:round;stroke-linejoin:round;"
     id="path709" />
  <path
     d="M -21.7582 14.3205 C -14.12374 12.66637 -9.670312 14.82947 -9.670312 14.82947 "
     transform="matrix(1.269208,0,0,1.269208,53.77825,-3.854441)"
     style="font-size:12;fill:none;fill-opacity:0.75;fill-rule:evenodd;stroke:#333333;stroke-width:1.4773;stroke-linecap:round;stroke-linejoin:round;"
     id="path710" />
  <ellipse
     cx="34.1005707"
     cy="37.0330124"
     rx="2.41757774"
     ry="2.48119831"
     transform="matrix(1.269208,0,0,1.269208,-10.98133,-6.922849)"
     style="font-size:12;fill:#7f7f7f;fill-rule:evenodd;stroke:#333333;stroke-width:2.46217;stroke-linecap:round;stroke-linejoin:round;"
     id="path711" />
  <path
     d="M -16.92304 31.62527 L -16.41408 27.80804 "
     transform="matrix(1.269208,0,0,1.269208,53.77825,-3.854441)"
     style="font-size:12;fill:none;fill-opacity:0.75;fill-rule:evenodd;stroke:#333333;stroke-width:2.46217;stroke-linecap:round;stroke-linejoin:round;"
     id="path712" />
  <path
     d="M -19.46786 34.42457 L -22.77613 34.42457 "
     transform="matrix(1.269208,0,0,1.269208,53.77825,-3.854441)"
     style="font-size:12;fill:none;fill-opacity:0.75;fill-rule:evenodd;stroke:#333333;stroke-width:2.46217;stroke-linecap:round;stroke-linejoin:round;"
     id="path713" />
  <path
     d="M -15.90512 36.96939 L -13.9965 39.76869 "
     transform="matrix(1.269208,0,0,1.269208,53.77825,-3.854441)"
     style="font-size:12;fill:none;fill-opacity:0.75;fill-rule:evenodd;stroke:#333333;stroke-width:2.46217;stroke-linecap:round;stroke-linejoin:round;"
     id="path714" />
  <path
     d="M -24.81198 7.19501 C -26.08439 16.86532 -27.99301 26.28115 -25.32095 46.76694 "
     transform="matrix(1.269208,0,0,1.269208,53.77825,-3.854441)"
     style="font-size:12;fill:none;fill-opacity:0.75;fill-rule:evenodd;stroke:#333333;stroke-width:2.46217;stroke-linecap:round;stroke-linejoin:round;"
     id="path715" />
  <path
     d="M 45.14737 33.11747 L 53.2174 30.8503 "
     transform="matrix(1.269208,0,0,1.269208,-9.2734,-6.761355)"
     style="font-size:12;fill:none;fill-opacity:0.75;fill-rule:evenodd;stroke:#333333;stroke-width:1.4773;stroke-linecap:round;stroke-linejoin:round;"
     id="path749" />
  <path
     d="M 46.03805 37.86008 L 52.10316 37.09663 "
     transform="matrix(1.269208,0,0,1.269208,-9.2734,-6.761355)"
     style="font-size:12;fill:none;fill-opacity:0.75;fill-rule:evenodd;stroke:#333333;stroke-width:1.4773;stroke-linecap:round;stroke-linejoin:round;"
     id="path750" />
  <path
     d="M 44.65381 41.5269 L 52.49641 43.61673 "
     transform="matrix(1.269208,0,0,1.269208,-9.2734,-6.761355)"
     style="font-size:12;fill:none;fill-opacity:0.75;fill-rule:evenodd;stroke:#333333;stroke-width:1.4773;stroke-linecap:round;stroke-linejoin:round;"
     id="path751" />
</svg>
