<?xml version="1.0" encoding="UTF-8" standalone="no"?>
<!DOCTYPE svg PUBLIC "-//W3C//DTD SVG 1.0//EN"
"http://www.w3.org/TR/2001/REC-SVG-20010904/DTD/svg10.dtd">
<!-- Created with Sodipodi ("http://www.sodipodi.com/") -->
<svg
   xmlns="http://www.w3.org/2000/svg"
   xmlns:xlink="http://www.w3.org/1999/xlink"
   version="1.0"
   x="0"
   y="0"
   width="60"
   height="60"
   id="svg1">
  <defs
     id="defs3">
    <linearGradient
       id="linearGradient895">
      <stop
         style="stop-color:#000000;stop-opacity:1;"
         offset="0"
         id="stop896" />
      <stop
         style="stop-color:#ffffff;stop-opacity:1;"
         offset="1"
         id="stop897" />
    </linearGradient>
    <linearGradient
       id="linearGradient898"
       xlink:href="#linearGradient895" />
    <linearGradient
       id="linearGradient899"
       xlink:href="#linearGradient895" />
    <linearGradient
       id="linearGradient900"
       xlink:href="#linearGradient895" />
    <linearGradient
       id="linearGradient901"
       xlink:href="#linearGradient895" />
    <linearGradient
       id="linearGradient902"
       xlink:href="#linearGradient895" />
  </defs>
  <path
     d="M 32.57368 16.73808 C 57.5129 13.17533 57.51291 2.232613 57.51291 2.232613 "
     style="font-size:12;fill:none;fill-opacity:0.75;fill-rule:evenodd;stroke:#4c4c4c;stroke-width:3.125;stroke-linecap:round;stroke-linejoin:round;stroke-dasharray:3.125 3.125 ;stroke-dashoffset:0;"
     id="path1160" />
  <path
     d="M 32.62667 9.707314 C 19.55258 6.653312 6.470729 14.80395 3.416727 27.87804 C 0.362725 40.95213 8.48631 54.02766 21.5604 57.08166 C 34.63449 60.13566 47.73707 52.0184 50.79107 38.94431 C 53.84507 25.87022 45.70075 12.76132 32.62667 9.707314 z M 30.67379 18.06749 C 39.1458 20.04649 44.43694 28.52575 42.45795 36.99776 C 40.47896 45.46977 31.97896 50.72753 23.50695 48.74854 C 15.03494 46.76954 9.770857 38.2966 11.74985 29.82459 C 13.72884 21.35258 22.20178 16.0885 30.67379 18.06749 z "
     style="font-size:12;fill:#b3b3b3;fill-rule:evenodd;stroke:#4c4c4c;stroke-width:2.5;"
     id="path1150" />
  <path
     d="M 32.62815 9.707662 C 27.86839 8.595819 23.12351 9.013098 18.84594 10.56831 L 21.82116 18.59599 C 24.57218 17.61478 27.61982 17.35411 30.67528 18.06784 C 34.14292 18.87785 37.01963 20.81331 39.14107 23.35508 L 46.41694 18.83471 C 43.10608 14.43566 38.39964 11.05583 32.62815 9.707662 z "
     style="font-size:12;fill:#4c4c4c;fill-rule:evenodd;stroke:#4c4c4c;stroke-width:2.5;stroke-linecap:round;stroke-linejoin:round;"
     id="path1157" />
  <path
     d="M 3.257801 38.93265 C 4.385483 43.6887 6.875145 47.74943 10.17488 50.88441 L 16.03304 44.64119 C 13.92788 42.61653 12.33534 40.00504 11.61144 36.95196 C 10.78989 33.48704 11.23921 30.04908 12.56804 27.01669 L 5.277149 22.52057 C 2.816455 27.44587 1.890424 33.16569 3.257801 38.93265 z "
     style="font-size:12;fill:#4c4c4c;fill-rule:evenodd;stroke:#4c4c4c;stroke-width:2.5;stroke-linecap:round;stroke-linejoin:round;"
     id="path1158" />
  <path
     d="M 46.01319 48.91991 C 42.89523 52.68419 38.86425 55.22176 34.51715 56.57049 L 32.03106 48.37812 C 34.81531 47.49559 37.39996 45.85986 39.4015 43.44343 C 41.67303 40.70103 42.79327 37.41979 42.94534 34.11253 L 51.47356 33.31164 C 51.49765 38.81735 49.7939 44.3555 46.01319 48.91991 z "
     style="font-size:12;fill:#4c4c4c;fill-rule:evenodd;stroke:#4c4c4c;stroke-width:2.5;stroke-linecap:round;stroke-linejoin:round;"
     id="path1159" />
  <path
     d="M 9.757172 14.30177 L 9.757172 13.33498 C 9.757172 13.13576 9.798187 12.98342 9.880218 12.87795 C 9.96225 12.77248 10.06186 12.70021 10.17905 12.66115 C 10.29623 12.62209 10.47202 12.58107 10.70639 12.5381 C 11.31577 12.42482 11.62045 12.11818 11.62045 11.61818 C 11.62045 11.41506 11.53842 11.23342 11.37436 11.07326 C 11.2142 10.9092 11.00327 10.82717 10.74155 10.82717 C 10.49936 10.82717 10.30795 10.87404 10.16733 10.96779 C 10.03061 11.06154 9.89389 11.19826 9.757172 11.37795 C 9.624359 11.55373 9.495453 11.68849 9.370453 11.78224 C 9.249359 11.87209 9.083343 11.91701 8.872406 11.91701 C 8.634125 11.91701 8.429047 11.82717 8.257172 11.64748 C 8.089203 11.46388 8.005218 11.24904 8.005218 11.00295 C 8.005218 10.57326 8.145843 10.19631 8.427093 9.872087 C 8.708343 9.547869 9.059906 9.299822 9.481781 9.127947 C 9.903656 8.956072 10.32358 8.870134 10.74155 8.870134 C 11.1517 8.870134 11.53452 8.930681 11.88998 9.051775 C 12.24545 9.172869 12.55991 9.350603 12.83334 9.584978 C 13.10678 9.819353 13.31967 10.10451 13.47202 10.44045 C 13.62827 10.77248 13.70639 11.14357 13.70639 11.55373 C 13.70639 12.2881 13.52084 12.85842 13.14975 13.26467 C 12.78256 13.66701 12.2767 13.93459 11.63217 14.0674 L 11.63217 14.30177 C 11.63217 14.48927 11.59116 14.65529 11.50912 14.79982 C 11.431 14.94045 11.31967 15.05177 11.17514 15.13381 C 11.03452 15.21193 10.87436 15.25099 10.69467 15.25099 C 10.51498 15.25099 10.35287 15.21193 10.20834 15.13381 C 10.06772 15.05177 9.95639 14.94045 9.874359 14.79982 C 9.796234 14.65529 9.757172 14.48927 9.757172 14.30177 z M 9.651703 16.82717 C 9.651703 16.63967 9.698578 16.46584 9.792328 16.30568 C 9.889984 16.14162 10.01889 16.01076 10.17905 15.9131 C 10.3392 15.81545 10.51108 15.76662 10.69467 15.76662 C 10.87827 15.76662 11.05014 15.81545 11.2103 15.9131 C 11.37045 16.01076 11.49741 16.14162 11.59116 16.30568 C 11.68881 16.46584 11.73764 16.63967 11.73764 16.82717 C 11.73764 17.01857 11.68881 17.19631 11.59116 17.36037 C 11.49741 17.52052 11.3685 17.64748 11.20444 17.74123 C 11.04428 17.83498 10.87436 17.88185 10.69467 17.88185 C 10.51498 17.88185 10.34311 17.83498 10.17905 17.74123 C 10.01889 17.64748 9.889984 17.52052 9.792328 17.36037 C 9.698578 17.19631 9.651703 17.01857 9.651703 16.82717 z "
     transform="scale(2.496667,2.496667)"
     style="font-size:12;font-weight:900;fill:#333333;stroke-width:1;font-family:VAG Rounded Black SSi;"
     id="path841" />
</svg>
