<?xml version="1.0" encoding="UTF-8" standalone="no"?>
<!DOCTYPE svg PUBLIC "-//W3C//DTD SVG 1.0//EN"
"http://www.w3.org/TR/2001/REC-SVG-20010904/DTD/svg10.dtd">
<!-- Created with Sodipodi ("http://www.sodipodi.com/") -->
<svg
   xmlns="http://www.w3.org/2000/svg"
   xmlns:xlink="http://www.w3.org/1999/xlink"
   version="1.0"
   x="0"
   y="0"
   width="60"
   height="60"
   id="svg1">
  <defs
     id="defs3" />
  <path
     d="M 23.69174 56.79572 L 34.72955 46.1234 L 34.72955 28.43366 L 23.76484 38.81359 L 23.69174 56.79572 z "
     transform="matrix(0.898555,0,0,0.898555,-0.68572,1.278275)"
     style="font-size:12;fill:#4c4c4c;fill-rule:evenodd;stroke:#333333;stroke-width:3.47781;stroke-linecap:round;stroke-linejoin:round;"
     id="path848" />
  <path
     d="M 5.344117 38.2288 L 15.72405 28.14127 L 34.72955 28.14127 L 23.61864 39.03288 L 5.344117 38.2288 z "
     transform="matrix(0.898555,0,0,0.898555,-0.68572,1.278275)"
     style="font-size:12;fill:#737373;fill-rule:evenodd;stroke:#333333;stroke-width:3.47781;stroke-linecap:round;stroke-linejoin:round;"
     id="path847" />
  <path
     d="M 6.733967 37.51147 C 5.833778 37.51147 5.109076 38.23617 5.109076 39.13636 L 5.109076 55.32133 C 5.109076 56.22152 5.833778 56.94622 6.733967 56.94622 L 22.91893 56.94622 C 23.81912 56.94622 24.54382 56.22152 24.54382 55.32133 L 24.54382 39.13636 C 24.54382 38.23617 23.81912 37.51147 22.91893 37.51147 L 6.733967 37.51147 z "
     transform="matrix(0.898555,0,0,0.898555,-0.68572,1.278275)"
     style="font-size:12;fill:#b3b3b3;fill-rule:evenodd;stroke:#333333;stroke-width:3.47781;"
     id="path846" />
  <path
     d="M 23.69174 56.79572 L 34.72955 46.1234 L 34.72955 28.43366 L 23.76484 38.81359 L 23.69174 56.79572 z "
     transform="matrix(0.898555,0,0,0.898555,25.2966,1.278275)"
     style="font-size:12;fill:#4c4c4c;fill-rule:evenodd;stroke:#333333;stroke-width:3.47781;stroke-linecap:round;stroke-linejoin:round;"
     id="path664" />
  <path
     d="M 5.344117 38.2288 L 15.72405 28.14127 L 34.72955 28.14127 L 23.61864 39.03288 L 5.344117 38.2288 z "
     transform="matrix(0.898555,0,0,0.898555,25.2966,1.278275)"
     style="font-size:12;fill:#737373;fill-rule:evenodd;stroke:#333333;stroke-width:3.47781;stroke-linecap:round;stroke-linejoin:round;"
     id="path665" />
  <rect
     width="19.4347477"
     height="19.4347477"
     rx="1.6248908"
     x="5.1090765"
     y="37.5114708"
     transform="matrix(0.898555,0,0,0.898555,25.2966,1.278275)"
     style="font-size:12;fill:#cccccc;fill-rule:evenodd;stroke:#333333;stroke-width:3.47781;"
     id="rect666" />
  <path
     d="M 23.69174 56.79572 L 34.72955 46.1234 L 34.72955 28.43366 L 23.76484 38.81359 L 23.69174 56.79572 z "
     transform="matrix(0.898555,0,0,0.898555,12.07327,-16.18438)"
     style="font-size:12;fill:#4c4c4c;fill-rule:evenodd;stroke:#333333;stroke-width:3.47781;stroke-linecap:round;stroke-linejoin:round;"
     id="path660" />
  <path
     d="M 5.344117 38.2288 L 15.72405 28.14127 L 34.72955 28.14127 L 23.61864 39.03288 L 5.344117 38.2288 z "
     transform="matrix(0.898555,0,0,0.898555,12.07327,-16.18438)"
     style="font-size:12;fill:#737373;fill-rule:evenodd;stroke:#333333;stroke-width:3.47781;stroke-linecap:round;stroke-linejoin:round;"
     id="path661" />
  <rect
     width="19.4347477"
     height="19.4347477"
     rx="1.6248908"
     x="5.1090765"
     y="37.5114708"
     transform="matrix(0.898555,0,0,0.898555,12.07327,-16.18438)"
     style="font-size:12;fill:#a6a6a6;fill-rule:evenodd;stroke:#333333;stroke-width:3.47781;"
     id="rect662" />
  <path
     d="M -35.92216 20.09162 L -35.92216 13.40607 C -35.92216 13.07013 -35.83231 12.81232 -35.65263 12.63263 C -35.47294 12.45295 -35.23856 12.3631 -34.9495 12.3631 C -34.65653 12.3631 -34.42216 12.45099 -34.24638 12.62677 C -34.06669 12.80255 -33.97684 13.06232 -33.97684 13.40607 L -33.97684 15.80841 L -31.30497 12.85529 C -31.12919 12.65607 -30.97489 12.52521 -30.84208 12.46271 C -30.70927 12.3963 -30.55888 12.3631 -30.39091 12.3631 C -30.16044 12.3631 -29.94169 12.4588 -29.73466 12.65021 C -29.52372 12.83771 -29.41825 13.05841 -29.41825 13.31232 C -29.41825 13.55841 -29.54716 13.81818 -29.80497 14.09162 L -32.11942 16.44709 L -29.58817 19.21857 C -29.39677 19.4217 -29.26005 19.58966 -29.17802 19.72248 C -29.09208 19.85138 -29.04911 19.99787 -29.04911 20.16193 C -29.04911 20.46662 -29.14677 20.7049 -29.34208 20.87677 C -29.53739 21.04865 -29.77958 21.13459 -30.06864 21.13459 C -30.18973 21.13459 -30.30497 21.11115 -30.41435 21.06427 C -30.51981 21.0174 -30.62528 20.95099 -30.73075 20.86506 C -30.83622 20.77521 -30.93192 20.68341 -31.01786 20.58966 C -31.1038 20.49201 -31.18778 20.39826 -31.26981 20.30841 L -33.97684 17.2381 L -33.97684 20.09162 C -33.97684 20.43146 -34.06669 20.69123 -34.24638 20.87091 C -34.42216 21.0467 -34.65653 21.13459 -34.9495 21.13459 C -35.23466 21.13459 -35.46903 21.04474 -35.65263 20.86506 C -35.83231 20.68146 -35.92216 20.42365 -35.92216 20.09162 z "
     transform="matrix(1.154691,0.15888,-0.15888,1.154691,53.29857,29.83728)"
     style="font-size:12;font-weight:900;fill:#333333;stroke-width:1;font-family:VAG Rounded Black SSi;"
     id="path845" />
  <path
     d="M -9.801067 -4.327358 L -9.801067 0.66483 L -8.769817 0.66483 C -8.394817 0.66483 -8.068646 0.604283 -7.791302 0.483189 C -7.510052 0.358189 -7.27763 0.182408 -7.094036 -0.044155 C -6.910442 -0.270717 -6.773724 -0.538295 -6.68388 -0.846889 C -6.594036 -1.155483 -6.549114 -1.505092 -6.549114 -1.895717 C -6.549114 -2.637905 -6.732708 -3.227748 -7.099895 -3.665248 C -7.467083 -4.106655 -7.99638 -4.327358 -8.687786 -4.327358 L -9.801067 -4.327358 z M -11.74638 1.50272 L -11.74638 -5.159389 C -11.74638 -5.46017 -11.65068 -5.698451 -11.45927 -5.874233 C -11.26396 -6.05392 -11.03544 -6.143764 -10.77372 -6.143764 L -8.447552 -6.143764 C -7.631145 -6.143764 -6.922161 -5.946498 -6.320599 -5.551967 C -5.71513 -5.161342 -5.254192 -4.639858 -4.937786 -3.987514 C -4.62138 -3.339077 -4.463177 -2.641811 -4.463177 -1.895717 C -4.463177 -1.208217 -4.568645 -0.589077 -4.779583 -0.038295 C -4.986614 0.50858 -5.27763 0.97147 -5.65263 1.350377 C -6.02763 1.729283 -6.455364 2.014439 -6.935833 2.205845 C -7.416302 2.393345 -7.920208 2.487095 -8.447552 2.487095 L -10.77372 2.487095 C -11.03544 2.487095 -11.26396 2.399205 -11.45927 2.223423 C -11.65068 2.043736 -11.74638 1.803502 -11.74638 1.50272 z "
     transform="matrix(1.152896,-0.171421,0.171421,1.152896,35.67824,27.15296)"
     style="font-size:12;font-weight:900;fill:#333333;stroke-width:1;font-family:VAG Rounded Black SSi;"
     id="path844" />
  <path
     d="M 13.44733 -17.32894 L 13.44733 -23.99105 C 13.44733 -24.29183 13.54303 -24.53011 13.73443 -24.70589 C 13.92975 -24.88558 14.15826 -24.97542 14.41998 -24.97542 L 17.39654 -24.97542 C 17.70514 -24.97542 17.94342 -24.89339 18.11139 -24.72933 C 18.28326 -24.56527 18.3692 -24.34261 18.3692 -24.06136 C 18.3692 -23.78011 18.28326 -23.55941 18.11139 -23.39925 C 17.93951 -23.2391 17.70123 -23.15902 17.39654 -23.15902 L 15.39264 -23.15902 L 15.39264 -21.58871 L 17.22662 -21.58871 C 17.53131 -21.58871 17.76959 -21.50863 17.94147 -21.34847 C 18.11334 -21.18831 18.19928 -20.96761 18.19928 -20.68636 C 18.19928 -20.40121 18.11334 -20.17855 17.94147 -20.01839 C 17.76959 -19.85824 17.53131 -19.77816 17.22662 -19.77816 L 15.39264 -19.77816 L 15.39264 -18.16683 L 17.46686 -18.16683 C 17.77154 -18.16683 18.00983 -18.08675 18.1817 -17.9266 C 18.35358 -17.77035 18.43951 -17.54769 18.43951 -17.25863 C 18.43951 -16.97738 18.35358 -16.75472 18.1817 -16.59066 C 18.00983 -16.4266 17.77154 -16.34456 17.46686 -16.34456 L 14.41998 -16.34456 C 14.15826 -16.34456 13.92975 -16.43246 13.73443 -16.60824 C 13.54303 -16.78792 13.44733 -17.02816 13.44733 -17.32894 z "
     transform="matrix(1.157544,-0.136549,0.136549,1.157544,23.14792,70.02093)"
     style="font-size:12;font-weight:900;fill:#333333;stroke-width:1;font-family:VAG Rounded Black SSi;"
     id="path843" />
</svg>
