<?xml version="1.0" encoding="UTF-8" standalone="no"?>
<!DOCTYPE svg PUBLIC "-//W3C//DTD SVG 1.0//EN"
"http://www.w3.org/TR/2001/REC-SVG-20010904/DTD/svg10.dtd">
<!-- Created with Sodipodi ("http://www.sodipodi.com/") -->
<svg
   xmlns="http://www.w3.org/2000/svg"
   xmlns:xlink="http://www.w3.org/1999/xlink"
   version="1.0"
   x="0"
   y="0"
   width="60"
   height="60"
   id="svg1">
  <defs
     id="defs3" />
  <path
     d="M 26.625 3.28125 C 25.87259 3.28125 25.28125 3.872588 25.28125 4.625 L 25.28125 23.875 C 24.91333 23.85126 24.56138 23.78125 24.1875 23.78125 C 24.15573 23.78125 24.12548 23.78108 24.09375 23.78125 L 24.09375 7 C 24.09375 6.247588 23.47116 5.625 22.71875 5.625 L 17.375 5.625 C 16.62259 5.625 16.03125 6.247588 16.03125 7 L 16.03125 25.9375 C 15.75935 26.08673 15.48139 26.21164 15.21875 26.375 L 15.21875 16.40625 C 15.21875 15.65384 14.62741 15.03125 13.875 15.03125 L 8.5 15.03125 C 7.747588 15.03125 7.15625 15.65384 7.15625 16.40625 L 7.15625 40.5 C 7.15425 40.60747 7.125 40.70455 7.125 40.8125 C 7.125 40.91947 7.154285 41.01849 7.15625 41.125 L 7.15625 42.59375 C 7.15625 42.76901 7.283823 42.87771 7.34375 43.03125 C 8.441889 51.38747 15.53311 57.875 24.1875 57.875 C 29.83868 57.875 34.80251 55.11245 37.90625 50.875 L 54.40625 39.125 C 55.01889 38.68819 55.15556 37.83139 54.71875 37.21875 L 51.625 32.875 C 51.18819 32.26236 50.33139 32.12569 49.71875 32.5625 L 41 38.78125 C 40.89711 37.93407 40.75382 37.11678 40.53125 36.3125 L 40.875 36.3125 C 41.62741 36.3125 42.25 35.72116 42.25 34.96875 L 42.25 8.78125 C 42.25 8.028838 41.62741 7.4375 40.875 7.4375 L 35.53125 7.4375 C 34.77884 7.4375 34.15625 8.028838 34.15625 8.78125 L 34.15625 27.0625 C 33.88747 26.86727 33.62404 26.6796 33.34375 26.5 L 33.34375 4.625 C 33.34375 3.872588 32.72116 3.28125 31.96875 3.28125 L 26.625 3.28125 z "
     transform="matrix(0.971881,0,0,0.971881,0.513185,0.414813)"
     style="font-size:12;fill:#b3b3b3;fill-rule:evenodd;stroke:#333333;stroke-width:3.215414;stroke-linecap:round;stroke-linejoin:round;"
     id="path841" />
</svg>
