<?xml version="1.0" encoding="UTF-8" standalone="no"?>
<!DOCTYPE svg PUBLIC "-//W3C//DTD SVG 1.0//EN"
"http://www.w3.org/TR/2001/REC-SVG-20010904/DTD/svg10.dtd">
<!-- Created with Sodipodi ("http://www.sodipodi.com/") -->
<svg
   xmlns="http://www.w3.org/2000/svg"
   xmlns:xlink="http://www.w3.org/1999/xlink"
   version="1.0"
   x="0"
   y="0"
   width="60"
   height="60"
   id="svg1">
  <defs
     id="defs3">
    <linearGradient
       id="linearGradient772">
      <stop
         style="stop-color:#000000;stop-opacity:1;"
         offset="0"
         id="stop773" />
      <stop
         style="stop-color:#ffffff;stop-opacity:1;"
         offset="1"
         id="stop774" />
    </linearGradient>
    <linearGradient
       id="linearGradient775"
       xlink:href="#linearGradient772" />
  </defs>
  <path
     d="M 11.93414 39.67663 C 11.93414 39.05553 12.06695 38.48327 12.33258 37.95983 C 12.5982 37.43249 12.9693 37.01843 13.44586 36.71764 C 13.92633 36.41686 14.4732 36.26647 15.08648 36.26647 C 15.4107 36.26647 15.74469 36.30553 16.08844 36.38366 C 16.43219 36.45788 16.72125 36.58678 16.95563 36.77038 C 17.19 36.95397 17.30719 37.20202 17.30719 37.51452 C 17.30719 37.76452 17.23297 37.9735 17.08453 38.14147 C 16.94 38.30944 16.75836 38.39343 16.53961 38.39343 C 16.43414 38.39343 16.33063 38.37585 16.22906 38.34069 C 16.13141 38.30553 16.0318 38.26843 15.93023 38.22936 C 15.83258 38.18639 15.72711 38.15124 15.61383 38.12389 C 15.50445 38.09655 15.36578 38.08288 15.19781 38.08288 C 14.89313 38.08288 14.63531 38.15514 14.42438 38.29968 C 14.21734 38.4403 14.06109 38.63171 13.95563 38.87389 C 13.85406 39.11218 13.80328 39.37975 13.80328 39.67663 C 13.80328 39.96569 13.85406 40.23522 13.95563 40.48522 C 14.05719 40.73132 14.20367 40.92663 14.39508 41.07116 C 14.59039 41.21569 14.82086 41.28796 15.08648 41.28796 C 15.38727 41.28796 15.69 41.23132 15.99469 41.11803 C 16.29938 41.00475 16.48102 40.94811 16.53961 40.94811 C 16.68023 40.94811 16.80914 40.98913 16.92633 41.07116 C 17.04352 41.15319 17.13531 41.26061 17.20172 41.39343 C 17.27203 41.52233 17.30719 41.65514 17.30719 41.79186 C 17.30719 42.08093 17.18023 42.32507 16.92633 42.52428 C 16.67633 42.7235 16.3775 42.86803 16.02985 42.95788 C 15.68219 43.05163 15.36773 43.0985 15.08648 43.0985 C 14.62164 43.0985 14.19586 43.01257 13.80914 42.84069 C 13.42633 42.66882 13.09234 42.42468 12.80719 42.10827 C 12.52203 41.78796 12.30523 41.42077 12.1568 41.00671 C 12.00836 40.58874 11.93414 40.14538 11.93414 39.67663 z M 7.961485 41.99108 L 7.961485 37.36218 C 7.961485 37.08483 8.047423 36.85436 8.219298 36.67077 C 8.395079 36.48327 8.619688 36.38952 8.893126 36.38952 C 9.119688 36.38952 9.315001 36.45007 9.479063 36.57116 C 9.647032 36.68835 9.764219 36.82702 9.830626 36.98718 C 10.23297 36.50671 10.66461 36.26647 11.12555 36.26647 C 11.37945 36.26647 11.60211 36.35827 11.79352 36.54186 C 11.98883 36.72155 12.08648 36.95397 12.08648 37.23913 C 12.08648 37.5321 11.99469 37.74499 11.81109 37.8778 C 11.63141 38.01061 11.33258 38.13757 10.91461 38.25866 C 10.48883 38.37975 10.20172 38.5321 10.05328 38.71569 C 9.904844 38.89538 9.830626 39.2196 9.830626 39.68835 L 9.830626 41.99108 C 9.830626 42.26843 9.742735 42.5028 9.566954 42.69421 C 9.395079 42.88171 9.170469 42.97546 8.893126 42.97546 C 8.619688 42.97546 8.395079 42.88171 8.219298 42.69421 C 8.047423 42.5028 7.961485 42.26843 7.961485 41.99108 z M 5.260313 41.99108 L 5.260313 37.36218 C 5.260313 37.08483 5.346251 36.85436 5.518126 36.67077 C 5.693907 36.48327 5.918516 36.38952 6.191954 36.38952 C 6.469298 36.38952 6.693907 36.48327 6.865782 36.67077 C 7.041563 36.85436 7.129454 37.08483 7.129454 37.36218 L 7.129454 41.99108 C 7.129454 42.26843 7.041563 42.5028 6.865782 42.69421 C 6.693907 42.88171 6.469298 42.97546 6.191954 42.97546 C 5.918516 42.97546 5.693907 42.88171 5.518126 42.69421 C 5.346251 42.5028 5.260313 42.26843 5.260313 41.99108 z M 5.078673 34.69616 C 5.078673 34.39147 5.188048 34.1278 5.406798 33.90514 C 5.625548 33.68249 5.887266 33.57116 6.191954 33.57116 C 6.500548 33.57116 6.76422 33.68053 6.98297 33.89928 C 7.20172 34.11803 7.311095 34.38366 7.311095 34.69616 C 7.311095 35.02038 7.20172 35.28991 6.98297 35.50475 C 6.76422 35.7196 6.500548 35.82702 6.191954 35.82702 C 5.887266 35.82702 5.625548 35.71764 5.406798 35.49889 C 5.188048 35.28014 5.078673 35.01257 5.078673 34.69616 z M -0.956484 42.05553 L -0.745546 40.47936 L -1.196718 40.47936 C -1.395937 40.47936 -1.542421 40.42272 -1.636171 40.30944 C -1.729921 40.19225 -1.776796 40.05358 -1.776796 39.89343 C -1.776796 39.73327 -1.729921 39.5985 -1.636171 39.48913 C -1.542421 39.37585 -1.395937 39.31921 -1.196718 39.31921 L -0.587343 39.31921 L -0.393984 37.8778 L -0.851015 37.8778 C -1.046327 37.8778 -1.190859 37.82116 -1.284609 37.70788 C -1.378359 37.59069 -1.425234 37.45202 -1.425234 37.29186 C -1.425234 37.1278 -1.378359 36.99108 -1.284609 36.88171 C -1.190859 36.76843 -1.046327 36.71178 -0.851015 36.71178 L -0.218202 36.71178 L 0.03961 34.83093 C 0.066954 34.63171 0.129454 34.47741 0.22711 34.36803 C 0.328673 34.25866 0.488829 34.20397 0.707579 34.20397 C 0.863829 34.20397 0.992735 34.24889 1.094298 34.33874 C 1.19586 34.42468 1.246641 34.54382 1.246641 34.69616 C 1.246641 34.76257 1.231016 34.9071 1.199766 35.12975 L 0.98297 36.71178 L 2.066954 36.71178 L 2.318907 34.83093 C 2.346251 34.63171 2.408751 34.47741 2.506407 34.36803 C 2.607969 34.25866 2.768126 34.20397 2.986876 34.20397 C 3.143126 34.20397 3.272032 34.24889 3.373594 34.33874 C 3.475157 34.42858 3.525938 34.54772 3.525938 34.69616 C 3.525938 34.76257 3.510313 34.9071 3.479063 35.12975 L 3.262266 36.71178 L 3.719298 36.71178 C 3.922423 36.71178 4.068907 36.76843 4.158751 36.88171 C 4.252501 36.99108 4.299376 37.1278 4.299376 37.29186 C 4.299376 37.45202 4.252501 37.59069 4.158751 37.70788 C 4.065001 37.82116 3.918516 37.8778 3.719298 37.8778 L 3.109923 37.8778 L 2.916563 39.31921 L 3.373594 39.31921 C 3.576719 39.31921 3.723204 39.37389 3.813048 39.48327 C 3.902891 39.59264 3.947813 39.72936 3.947813 39.89343 C 3.947813 40.05749 3.900938 40.19616 3.807188 40.30944 C 3.717344 40.42272 3.572813 40.47936 3.373594 40.47936 L 2.734923 40.47936 L 2.482969 42.35436 C 2.455626 42.54968 2.393126 42.70202 2.295469 42.81139 C 2.197813 42.92077 2.037657 42.97546 1.815001 42.97546 C 1.658751 42.97546 1.527891 42.93249 1.422423 42.84655 C 1.32086 42.75671 1.270079 42.63561 1.270079 42.48327 C 1.270079 42.40514 1.287657 42.26257 1.322813 42.05553 L 1.53961 40.47936 L 0.455626 40.47936 L 0.203673 42.35436 C 0.176329 42.55358 0.111876 42.70788 0.010313 42.81725 C -0.087343 42.92272 -0.247499 42.97546 -0.470155 42.97546 C -0.622499 42.97546 -0.751405 42.93249 -0.856874 42.84655 C -0.958437 42.75671 -1.009218 42.63561 -1.009218 42.48327 C -1.009218 42.40514 -0.99164 42.26257 -0.956484 42.05553 z M 1.715391 39.31921 L 1.908751 37.8778 L 0.818907 37.8778 L 0.625548 39.31921 L 1.715391 39.31921 z "
     transform="matrix(2.687231,-1.389012e-16,1.389012e-16,2.687231,8.790176,-72.34898)"
     style="font-size:12;font-weight:900;fill:#333333;stroke-width:1;font-family:VAG Rounded Black SSi;"
     id="path832" />
</svg>
