<?xml version="1.0" encoding="UTF-8" standalone="no"?>
<!DOCTYPE svg PUBLIC "-//W3C//DTD SVG 1.0//EN"
"http://www.w3.org/TR/2001/REC-SVG-20010904/DTD/svg10.dtd">
<!-- Created with Sodipodi ("http://www.sodipodi.com/") -->
<svg
   xmlns="http://www.w3.org/2000/svg"
   xmlns:xlink="http://www.w3.org/1999/xlink"
   version="1.0"
   x="0"
   y="0"
   width="60"
   height="60"
   id="svg1">
  <defs
     id="defs3">
    <linearGradient
       id="linearGradient900">
      <stop
         style="stop-color:#000000;stop-opacity:1;"
         offset="0"
         id="stop901" />
      <stop
         style="stop-color:#ffffff;stop-opacity:1;"
         offset="1"
         id="stop902" />
    </linearGradient>
    <linearGradient
       id="linearGradient903"
       xlink:href="#linearGradient900" />
    <linearGradient
       id="linearGradient904"
       xlink:href="#linearGradient900" />
    <linearGradient
       id="linearGradient905"
       xlink:href="#linearGradient900" />
    <linearGradient
       id="linearGradient906"
       xlink:href="#linearGradient900" />
    <linearGradient
       id="linearGradient907"
       xlink:href="#linearGradient900" />
  </defs>
  <rect
     width="45.5522575"
     height="45.5522575"
     rx="2"
     x="5.85308313"
     y="6.55880547"
     transform="matrix(0.592488,0.592488,-0.592488,0.592488,30.52661,-4.060461)"
     style="font-size:12;fill:#7f7f7f;fill-rule:evenodd;stroke:#4c4c4c;stroke-width:3.729542;stroke-linejoin:round;"
     id="rect869" />
  <path
     d="M -8.756174 6.786398 L -7.10383 2.386007 C -6.97883 2.08132 -6.849924 1.85671 -6.717112 1.712179 C -6.580393 1.567648 -6.347971 1.495382 -6.019846 1.495382 C -5.844065 1.495382 -5.683909 1.540304 -5.539377 1.630148 C -5.39094 1.716085 -5.275705 1.833273 -5.193674 1.98171 C -5.111643 2.126242 -5.070627 2.284445 -5.070627 2.45632 C -5.070627 2.585226 -5.138987 2.821554 -5.275705 3.165304 L -7.701487 9.223898 C -7.834299 9.567648 -7.969065 9.827414 -8.105783 10.00319 C -8.242502 10.17898 -8.467112 10.26687 -8.779612 10.26687 C -9.002268 10.26687 -9.180002 10.21999 -9.312815 10.12624 C -9.445627 10.02858 -9.545237 9.91921 -9.611643 9.798117 C -9.678049 9.677023 -9.762033 9.485617 -9.863596 9.223898 L -12.23664 3.165304 C -12.37336 2.82546 -12.44172 2.589132 -12.44172 2.45632 C -12.44172 2.284445 -12.40071 2.126242 -12.31867 1.98171 C -12.23664 1.833273 -12.12336 1.716085 -11.97883 1.630148 C -11.83039 1.540304 -11.66828 1.495382 -11.4925 1.495382 C -11.16047 1.495382 -10.9261 1.569601 -10.78938 1.718039 C -10.65266 1.866476 -10.52766 2.089132 -10.41438 2.386007 L -8.756174 6.786398 z "
     transform="matrix(5.340805,0,-2.166373,5.217012,81.38208,-1.077878)"
     style="font-size:12;font-weight:900;fill:#b3b3b3;stroke:#333333;stroke-width:0.355211;stroke-linejoin:round;font-family:VAG Rounded Black SSi;"
     id="path841" />
  <path
     d="M -44.4885 46.61633 L -44.4885 41.98742 C -44.4885 41.71008 -44.40257 41.47961 -44.23069 41.29601 C -44.05491 41.10851 -43.8303 41.01476 -43.55686 41.01476 C -43.3303 41.01476 -43.13499 41.07531 -42.97092 41.1964 C -42.80296 41.31359 -42.68577 41.45226 -42.61936 41.61242 C -42.46702 41.37804 -42.24632 41.20031 -41.95725 41.07922 C -41.66819 40.95422 -41.35178 40.89172 -41.00803 40.89172 C -40.69163 40.89172 -40.37522 40.95422 -40.05882 41.07922 C -39.74241 41.20031 -39.47874 41.39562 -39.2678 41.66515 C -38.94749 41.42297 -38.65647 41.23351 -38.39475 41.09679 C -38.12913 40.96008 -37.81663 40.89172 -37.45725 40.89172 C -37.01585 40.89172 -36.61936 40.97179 -36.2678 41.13195 C -35.91233 41.29211 -35.63499 41.5382 -35.43577 41.87023 C -35.23264 42.19836 -35.13108 42.61242 -35.13108 43.11242 L -35.13108 46.61633 C -35.13108 46.89367 -35.21897 47.12804 -35.39475 47.31945 C -35.56663 47.50695 -35.79124 47.6007 -36.06858 47.6007 C -36.34202 47.6007 -36.56663 47.50695 -36.74241 47.31945 C -36.91428 47.12804 -37.00022 46.89367 -37.00022 46.61633 L -37.00022 43.62804 C -37.00022 43.30773 -37.08421 43.0382 -37.25217 42.81945 C -37.41624 42.6007 -37.64475 42.49133 -37.93772 42.49133 C -38.23069 42.49133 -38.46116 42.6007 -38.62913 42.81945 C -38.79319 43.0382 -38.87522 43.30773 -38.87522 43.62804 L -38.87522 46.61633 C -38.87522 46.89367 -38.96311 47.12804 -39.13889 47.31945 C -39.31077 47.50695 -39.53538 47.6007 -39.81272 47.6007 C -40.08616 47.6007 -40.31077 47.50695 -40.48655 47.31945 C -40.65842 47.12804 -40.74436 46.89367 -40.74436 46.61633 L -40.74436 43.62804 C -40.74436 43.30773 -40.82835 43.0382 -40.99632 42.81945 C -41.16038 42.6007 -41.38889 42.49133 -41.68186 42.49133 C -41.97483 42.49133 -42.2053 42.6007 -42.37327 42.81945 C -42.53733 43.0382 -42.61936 43.30773 -42.61936 43.62804 L -42.61936 46.61633 C -42.61936 46.89367 -42.70725 47.12804 -42.88303 47.31945 C -43.05491 47.50695 -43.27952 47.6007 -43.55686 47.6007 C -43.8303 47.6007 -44.05491 47.50695 -44.23069 47.31945 C -44.40257 47.12804 -44.4885 46.89367 -44.4885 46.61633 z M -47.18967 46.61633 L -47.18967 41.98742 C -47.18967 41.71008 -47.10374 41.47961 -46.93186 41.29601 C -46.75608 41.10851 -46.53147 41.01476 -46.25803 41.01476 C -45.98069 41.01476 -45.75608 41.10851 -45.58421 41.29601 C -45.40842 41.47961 -45.32053 41.71008 -45.32053 41.98742 L -45.32053 46.61633 C -45.32053 46.89367 -45.40842 47.12804 -45.58421 47.31945 C -45.75608 47.50695 -45.98069 47.6007 -46.25803 47.6007 C -46.53147 47.6007 -46.75608 47.50695 -46.93186 47.31945 C -47.10374 47.12804 -47.18967 46.89367 -47.18967 46.61633 z M -47.37132 39.3214 C -47.37132 39.01672 -47.26194 38.75304 -47.04319 38.53039 C -46.82444 38.30773 -46.56272 38.1964 -46.25803 38.1964 C -45.94944 38.1964 -45.68577 38.30578 -45.46702 38.52453 C -45.24827 38.74328 -45.13889 39.0089 -45.13889 39.3214 C -45.13889 39.64562 -45.24827 39.91515 -45.46702 40.13 C -45.68577 40.34484 -45.94944 40.45226 -46.25803 40.45226 C -46.56272 40.45226 -46.82444 40.34289 -47.04319 40.12414 C -47.26194 39.90539 -47.37132 39.63781 -47.37132 39.3214 z "
     transform="matrix(2.325948,0,-0.581853,2.325948,161.1065,-56.75402)"
     style="font-size:12;font-weight:900;fill:#b3b3b3;stroke:#333333;stroke-width:0.537415;font-family:VAG Rounded Black SSi;"
     id="path840" />
</svg>
