<?xml version="1.0" encoding="UTF-8" standalone="no"?>
<!DOCTYPE svg PUBLIC "-//W3C//DTD SVG 1.0//EN"
"http://www.w3.org/TR/2001/REC-SVG-20010904/DTD/svg10.dtd">
<!-- Created with Sodipodi ("http://www.sodipodi.com/") -->
<svg
   xmlns="http://www.w3.org/2000/svg"
   xmlns:xlink="http://www.w3.org/1999/xlink"
   version="1.0"
   x="0"
   y="0"
   width="60"
   height="60"
   id="svg1">
  <defs
     id="defs3">
    <linearGradient
       id="linearGradient900">
      <stop
         style="stop-color:#000000;stop-opacity:1;"
         offset="0"
         id="stop901" />
      <stop
         style="stop-color:#ffffff;stop-opacity:1;"
         offset="1"
         id="stop902" />
    </linearGradient>
    <linearGradient
       id="linearGradient903"
       xlink:href="#linearGradient900" />
    <linearGradient
       id="linearGradient904"
       xlink:href="#linearGradient900" />
    <linearGradient
       id="linearGradient905"
       xlink:href="#linearGradient900" />
    <linearGradient
       id="linearGradient906"
       xlink:href="#linearGradient900" />
    <linearGradient
       id="linearGradient907"
       xlink:href="#linearGradient900" />
  </defs>
  <path
     d="M 30.78125 11.90625 C 22.67468 11.97295 15.97848 19.00663 14.50917 26.67418 C 13.4552 33.30235 14.71119 40.05823 16.27406 46.50357 C 17.37847 50.41957 18.51969 54.41063 20.52918 57.96749 C 22.79535 61.41148 27.09992 63.24989 31.15505 62.56685 C 34.1987 62.56359 37.86897 62.71061 39.98413 60.09526 C 43.49969 53.78294 44.96152 46.61012 46.56371 39.63408 C 47.94054 33.09298 48.2001 25.68639 44.28501 19.92045 C 41.36361 15.37302 36.36268 11.77434 30.78125 11.90625 z "
     transform="matrix(0.936381,0,0,0.838505,1.366982,-6.449296)"
     style="font-size:12;fill:#b3b3b3;fill-rule:evenodd;stroke:#333333;stroke-width:3.526719;stroke-linecap:round;stroke-linejoin:round;"
     id="path866" />
  <ellipse
     cx="31.4285126"
     cy="62.4175797"
     rx="5.72584248"
     ry="5.72584248"
     transform="translate(-1.272409,-10.30652)"
     style="font-size:12;fill:#4c4c4c;fill-rule:evenodd;stroke:#333333;stroke-width:1.875;"
     id="path859" />
  <rect
     width="25.7026691"
     height="13.7420216"
     rx="5"
     x="17.0502853"
     y="47.0214233"
     transform="translate(0,-8.270661)"
     style="font-size:12;fill:#7f7f7f;fill-rule:evenodd;stroke:#333333;stroke-width:3.125;"
     id="rect858" />
  <path
     d="M 18.44994 40.91386 L 42.37123 43.8404 M 17.30477 44.4766 L 42.11675 47.78487 M 18.06821 48.42108 L 40.20814 51.47486 "
     style="font-size:12;fill:none;fill-opacity:0.75;fill-rule:evenodd;stroke:#333333;stroke-width:1.875;stroke-linecap:round;stroke-linejoin:round;"
     id="path860" />
  <ellipse
     cx="31.7466145"
     cy="23.5454712"
     rx="10.3701363"
     ry="10.3701363"
     transform="translate(-1.781373,-1.145168)"
     style="font-size:12;fill:#cccccc;fill-rule:evenodd;stroke-width:1;"
     id="path864" />
  <path
     d="M 25.95715 37.86008 L 23.53957 23.73633 M 34.73678 37.98732 L 36.51815 24.75426 "
     transform="translate(0,0.508964)"
     style="font-size:12;fill:none;fill-opacity:0.75;fill-rule:evenodd;stroke:#333333;stroke-width:1;stroke-linecap:round;stroke-linejoin:round;"
     id="path862" />
  <path
     d="M 22.647 26.19665 C 22.12423 25.89692 21.75476 25.42195 21.46432 24.90288 C 20.84872 23.68474 20.79161 22.57954 21.43583 21.34976 C 22.50869 19.60445 24.13203 18.16193 26.17638 17.74055 C 28.09927 17.56466 29.36751 18.48587 29.38327 20.42327 C 29.32576 21.74716 29.01781 23.12454 27.93932 23.98878 C 26.54338 24.86279 24.62356 24.44906 24.34359 22.69055 C 24.26197 21.2374 25.32689 20.47057 26.62475 20.12661 C 28.04868 19.84152 29.65135 19.94849 30.68243 21.08573 C 31.23907 21.82485 31.39158 22.72277 31.20692 23.62263 C 30.75276 25.16424 28.49541 25.18277 28.07838 23.59933 C 27.85499 22.11802 28.89509 21.21744 30.14121 20.6593 C 31.64389 20.08052 33.7404 19.63057 34.95696 20.99942 C 35.5282 21.86923 35.52788 23.04033 35.08843 23.97052 C 34.08514 25.58755 32.07997 24.50548 32.04217 22.90566 C 32.1099 21.65062 32.89357 20.86627 34.06253 20.49945 C 35.40837 20.20234 36.73742 20.51128 37.59683 21.62933 C 38.1031 22.37512 38.31105 23.19144 38.30085 24.08724 C 38.29045 24.3455 38.26787 24.60112 38.23683 24.85768 L 35.94951 24.75211 C 35.97959 24.52608 36.00285 24.30079 36.01489 24.07305 C 36.03092 23.40028 35.90408 22.77174 35.51831 22.21074 C 35.44286 22.11244 35.16379 21.76255 35.06008 21.76005 C 34.54109 21.79191 34.3373 22.47161 34.31066 22.8853 C 34.31697 23.1265 34.37821 23.29906 34.4518 23.51981 C 34.51457 23.70807 34.09108 23.32914 33.89321 23.31378 C 33.55393 23.28745 32.66413 23.7955 32.90008 23.55029 C 33.23712 23.02891 33.23837 22.16255 32.92195 21.63183 C 32.65922 21.26375 31.86906 21.61093 31.47161 21.75736 C 30.77277 22.05775 30.19374 22.53691 30.33462 23.37448 C 30.39478 23.57944 28.77137 23.87821 28.93557 23.43555 C 29.08281 22.86864 29.0083 22.21821 28.66049 21.73891 C 28.35408 21.3745 27.96762 21.32514 27.5121 21.40142 C 26.90547 21.53575 26.57568 21.92427 26.60045 22.56212 C 26.61318 22.64622 26.82097 23.07736 26.80867 23.11422 C 26.73993 23.32034 25.95205 23.19378 26.15688 23.1213 C 26.98939 22.61364 27.1459 21.31319 27.16963 20.43925 C 27.15957 20.1421 26.98293 19.09683 26.81307 19.05656 C 25.43286 19.13841 24.1498 20.64943 23.50578 21.7332 C 23.04093 22.68194 23.12885 23.53357 23.62091 24.44987 C 23.7474 24.66041 24.21226 25.11332 24.16852 25.08867 L 22.647 26.19665 z "
     transform="translate(0,0.508964)"
     style="font-size:12;fill:#333333;stroke-width:1;"
     id="path863" />
  <path
     d="M 12.34237 11.13948 L 2.926542 4.52295 M 10.94272 17.50153 L 4.835156 16.22912 M 11.06996 23.48185 L 2.67206 27.55356 M 44.91605 4.904673 L 48.22432 1.978131 M 49.87845 16.4836 L 57.25842 14.06602 M 48.4788 10.24879 L 55.73153 6.177082 "
     transform="translate(0,0.890687)"
     style="font-size:12;fill:none;fill-opacity:0.75;fill-rule:evenodd;stroke:#7f7f7f;stroke-width:1.875;stroke-linecap:round;stroke-linejoin:round;stroke-dasharray:1.875 1.875 ;stroke-dashoffset:0;"
     id="path871" />
</svg>
