<?xml version="1.0" encoding="UTF-8" standalone="no"?>
<!DOCTYPE svg PUBLIC "-//W3C//DTD SVG 1.0//EN"
"http://www.w3.org/TR/2001/REC-SVG-20010904/DTD/svg10.dtd">
<!-- Created with Sodipodi ("http://www.sodipodi.com/") -->
<svg
   xmlns="http://www.w3.org/2000/svg"
   xmlns:xlink="http://www.w3.org/1999/xlink"
   version="1.0"
   x="0"
   y="0"
   width="60"
   height="60"
   id="svg1">
  <defs
     id="defs3">
    <linearGradient
       id="linearGradient772">
      <stop
         style="stop-color:#000000;stop-opacity:1;"
         offset="0"
         id="stop773" />
      <stop
         style="stop-color:#ffffff;stop-opacity:1;"
         offset="1"
         id="stop774" />
    </linearGradient>
    <linearGradient
       id="linearGradient775"
       xlink:href="#linearGradient772" />
  </defs>
  <path
     d="M 9.90625 49.2263 C 6.897764 50.82759 4.944065 53.86513 3.65625 57.13255 L 26.4375 57.13255 C 25.25563 53.94445 23.44689 50.93903 20.6875 49.2263 C 17.58503 49.09142 13.68317 49.2263 9.90625 49.2263 z "
     transform="matrix(0.932678,0,0,0.932678,0.755112,3.368216)"
     style="font-size:12;fill:#7f7f7f;fill-rule:evenodd;stroke:#333333;stroke-width:3.35057;stroke-linecap:round;stroke-linejoin:round;"
     id="path692" />
  <ellipse
     cx="19.5241261"
     cy="22.301342"
     rx="12.3262911"
     ry="12.3262911"
     transform="matrix(0.724681,0,0,0.724681,0.352436,26.58414)"
     style="font-size:12;fill:#bfbfbf;fill-rule:evenodd;stroke:#333333;stroke-width:4.31224;stroke-linecap:round;stroke-linejoin:round;"
     id="path716" />
  <path
     d="M 30.07968 3.84407 C 15.47039 3.84407 3.610925 9.669866 3.610925 16.84407 C 3.610925 24.01827 15.47039 29.84407 30.07968 29.84407 C 33.06544 29.84407 35.90157 29.5423 38.57968 29.09407 C 36.15819 40.82553 28.01718 45.21907 28.01718 45.21907 C 28.01717 45.21907 36.24863 47.96097 46.17343 36.00032 C 49.67362 31.44756 50.64964 27.53492 51.04843 24.71907 C 54.46058 22.53064 56.54843 19.8112 56.54843 16.84407 C 56.54843 9.669866 44.68897 3.84407 30.07968 3.84407 z "
     transform="translate(0.254482,0.254482)"
     style="font-size:12;fill:#cccccc;fill-rule:evenodd;stroke:#333333;stroke-width:3.125;stroke-linecap:round;stroke-linejoin:round;"
     id="path672" />
  <path
     d="M 15.66126 10.653 L 15.66126 5.983078 C 15.66126 5.736984 15.74133 5.539719 15.90149 5.391281 C 16.06165 5.242844 16.26868 5.168625 16.52258 5.168625 C 16.76868 5.168625 16.97376 5.242844 17.13782 5.391281 C 17.30188 5.539719 17.38391 5.736984 17.38391 5.983078 L 17.38391 10.653 C 17.38391 10.89909 17.30188 11.09831 17.13782 11.25066 C 16.97376 11.403 16.76868 11.47917 16.52258 11.47917 C 16.26868 11.47917 16.06165 11.40495 15.90149 11.25652 C 15.74133 11.10417 15.66126 10.903 15.66126 10.653 z M 16.52258 14.08659 C 16.26477 14.08659 16.04407 13.99284 15.86048 13.80534 C 15.67688 13.61784 15.58508 13.39519 15.58508 13.13738 C 15.58508 12.87956 15.67688 12.65886 15.86048 12.47527 C 16.04407 12.29167 16.26477 12.19988 16.52258 12.19988 C 16.7804 12.19988 17.0011 12.29167 17.18469 12.47527 C 17.36829 12.65886 17.46008 12.87956 17.46008 13.13738 C 17.46008 13.39519 17.36829 13.61784 17.18469 13.80534 C 17.0011 13.99284 16.7804 14.08659 16.52258 14.08659 z M 10.39954 13.12566 L 10.39954 9.897141 L 8.13196 6.668625 C 8.022585 6.504562 7.967897 6.324875 7.967897 6.129562 C 7.967897 5.879562 8.047975 5.668625 8.208132 5.49675 C 8.372194 5.324875 8.579225 5.238937 8.829225 5.238937 C 8.981569 5.238937 9.1261 5.27214 9.262819 5.338547 C 9.399538 5.404953 9.503054 5.492844 9.573366 5.602219 L 11.30188 8.133469 L 13.0304 5.602219 C 13.10071 5.492844 13.20423 5.404953 13.34094 5.338547 C 13.47766 5.27214 13.62219 5.238937 13.77454 5.238937 C 13.94251 5.238937 14.09094 5.279953 14.21985 5.361984 C 14.35266 5.440109 14.45423 5.547531 14.52454 5.68425 C 14.59876 5.820969 14.63587 5.969406 14.63587 6.129562 C 14.63587 6.324875 14.58118 6.504562 14.4718 6.668625 L 12.19837 9.897141 L 12.19837 13.12566 C 12.19837 13.37956 12.12219 13.5905 11.96985 13.75847 C 11.82141 13.92644 11.59876 14.01042 11.30188 14.01042 C 11.0011 14.01042 10.77454 13.92644 10.62219 13.75847 C 10.47376 13.5905 10.39954 13.37956 10.39954 13.12566 z "
     transform="matrix(1.846042,0,0,1.846042,6.307719,-0.551216)"
     style="font-size:12;fill:#333333;stroke-width:1;font-family:VAG Rounded Black SSi;"
     id="path835" />
</svg>
