<?xml version="1.0" encoding="UTF-8" standalone="no"?>
<!DOCTYPE svg PUBLIC "-//W3C//DTD SVG 1.0//EN"
"http://www.w3.org/TR/2001/REC-SVG-20010904/DTD/svg10.dtd">
<!-- Created with Sodipodi ("http://www.sodipodi.com/") -->
<svg
   xmlns="http://www.w3.org/2000/svg"
   xmlns:xlink="http://www.w3.org/1999/xlink"
   version="1.0"
   x="0"
   y="0"
   width="60"
   height="60"
   id="svg1">
  <defs
     id="defs3">
    <linearGradient
       id="linearGradient772">
      <stop
         style="stop-color:#000000;stop-opacity:1;"
         offset="0"
         id="stop773" />
      <stop
         style="stop-color:#ffffff;stop-opacity:1;"
         offset="1"
         id="stop774" />
    </linearGradient>
    <linearGradient
       id="linearGradient775"
       xlink:href="#linearGradient772" />
  </defs>
  <path
     d="M 30.18997 4.895903 C 28.18647 3.817093 0.445676 27.705 3.219756 30.78731 C 5.993835 33.86962 14.31607 33.25316 15.85723 35.25666 C 17.39838 37.26016 10.30907 36.02724 10.00084 38.95543 C 9.692607 41.88363 21.5595 41.5754 22.63831 44.50359 C 23.71712 47.43179 17.70661 49.89763 21.25127 50.5141 C 23.10066 50.66821 24.64181 50.97644 25.72062 51.74702 C 28.4947 52.82583 24.02535 55.75402 33.11817 54.98345 C 42.67333 52.97995 32.50171 50.82233 37.58752 48.97294 C 41.59452 47.89413 48.52972 45.12005 45.13918 43.11655 C 41.81499 41.09165 40.20748 40.18836 41.74864 39.26366 C 45.75564 36.79781 59.00957 36.95193 56.69784 29.7085 C 57.00607 26.78031 33.27228 3.662978 30.18997 4.895903 z "
     style="font-size:12;fill:#333333;fill-rule:evenodd;stroke:#333333;stroke-width:1.875;stroke-linecap:round;stroke-linejoin:round;"
     id="path834" />
  <path
     d="M 30.18997 7.207635 C 28.34059 7.207635 19.71012 14.29695 18.32308 16.30045 C 14.93253 19.84511 16.78192 20.7698 18.16896 20.92392 C 21.71362 20.92392 23.71712 22.31096 24.64181 20.15334 C 25.41239 17.37926 26.64531 13.37226 27.72412 14.91341 C 28.80293 18.30395 27.72412 20.61568 29.11116 20.61569 C 31.11466 19.99922 31.73113 17.07103 34.35109 17.99572 C 36.97105 18.92041 36.35459 21.07803 37.12517 18.61218 C 37.27929 16.14634 36.97105 13.98872 38.97456 14.91341 C 40.51571 15.68399 43.59802 18.45807 43.28979 17.07103 C 38.35809 12.29345 31.57701 7.207635 30.18997 7.207635 z "
     style="font-size:12;fill:#cccccc;fill-rule:evenodd;stroke-width:0.757006;stroke-opacity:0.7;"
     id="path835" />
  <path
     d="M 30.65232 39.72601 C 32.30645 39.59877 31.4229 37.56839 29.41939 37.26016 C 26.33708 36.95193 21.40539 34.94843 21.40539 36.02724 C 20.38746 37.48777 29.12543 39.72601 30.65232 39.72601 z "
     style="font-size:12;fill:#cccccc;fill-rule:evenodd;stroke-width:0.454204;stroke-linecap:round;stroke-linejoin:round;"
     id="path836" />
  <path
     d="M 18.79255 46.19886 C 15.55613 45.12005 12.93616 46.04475 13.09028 47.74002 C 12.93616 49.43529 13.55263 50.66821 16.01847 49.12706 C 18.48432 47.5859 20.11871 47.00344 18.79255 46.19886 z "
     style="font-size:12;fill:#333333;fill-rule:evenodd;stroke-width:0.757006;stroke-linecap:round;stroke-linejoin:round;"
     id="path837" />
  <path
     d="M 48.08711 44.34947 C 47.27705 45.40141 53.78939 46.04475 55.17643 45.73652 C 56.94519 45.54839 57.17993 41.42128 53.17293 41.88363 C 49.16592 42.34597 48.08711 44.34947 48.08711 44.34947 z "
     style="font-size:12;fill:#333333;fill-rule:evenodd;stroke-width:0.757006;stroke-linecap:round;stroke-linejoin:round;"
     id="path838" />
  <path
     d="M 46.98856 46.81533 C 45.75564 47.5859 44.06037 49.5894 46.06387 50.66821 C 47.45091 51.28467 50.07087 51.43879 49.45441 49.28117 C 48.52972 46.81532 46.98856 46.81533 46.98856 46.81533 z "
     style="font-size:12;fill:#333333;fill-rule:evenodd;stroke-width:0.757006;stroke-linecap:round;stroke-linejoin:round;"
     id="path839" />
</svg>
