<?xml version="1.0" encoding="UTF-8" standalone="no"?>
<!DOCTYPE svg PUBLIC "-//W3C//DTD SVG 1.0//EN"
"http://www.w3.org/TR/2001/REC-SVG-20010904/DTD/svg10.dtd">
<!-- Created with Sodipodi ("http://www.sodipodi.com/") -->
<svg
   xmlns="http://www.w3.org/2000/svg"
   xmlns:xlink="http://www.w3.org/1999/xlink"
   version="1.0"
   x="0"
   y="0"
   width="60"
   height="60"
   id="svg1">
  <defs
     id="defs3">
    <linearGradient
       id="linearGradient900">
      <stop
         style="stop-color:#000000;stop-opacity:1;"
         offset="0"
         id="stop901" />
      <stop
         style="stop-color:#ffffff;stop-opacity:1;"
         offset="1"
         id="stop902" />
    </linearGradient>
    <linearGradient
       id="linearGradient903"
       xlink:href="#linearGradient900" />
    <linearGradient
       id="linearGradient904"
       xlink:href="#linearGradient900" />
    <linearGradient
       id="linearGradient905"
       xlink:href="#linearGradient900" />
    <linearGradient
       id="linearGradient906"
       xlink:href="#linearGradient900" />
    <linearGradient
       id="linearGradient907"
       xlink:href="#linearGradient900" />
  </defs>
  <rect
     width="50.7447319"
     height="50.3848419"
     rx="2"
     x="4.67859221"
     y="5.1165123"
     style="font-size:12;fill:#b3b3b3;fill-rule:evenodd;stroke:#333333;stroke-width:3.125;"
     id="rect812" />
  <g
     transform="matrix(0.688214,0,0,0.688214,12.5913,14.13153)"
     style="font-size:12;stroke:#333333;stroke-width:2.724443;"
     id="g768">
    <rect
       width="25.5523129"
       height="23.3375359"
       rx="2"
       x="26.6938744"
       y="7.36162996"
       transform="matrix(1,0,-0.339266,0.940691,0,0)"
       style="fill:#cccccc;fill-rule:evenodd;stroke:#333333;"
       id="rect765" />
    <rect
       width="50.7447319"
       height="26.2720966"
       rx="2"
       x="4.40227938"
       y="27.0789509"
       style="fill:#7f7f7f;fill-rule:evenodd;stroke:#333333;"
       id="rect764" />
    <rect
       width="39.228199"
       height="8.27750969"
       x="10.2877884"
       y="44.9681244"
       style="fill:#b3b3b3;fill-rule:evenodd;stroke:#333333;stroke-linecap:round;stroke-linejoin:round;"
       id="rect766" />
  </g>
  <path
     d="M 19.16435 10.16935 C 19.16435 9.884195 19.24638 9.640055 19.41044 9.43693 C 19.5745 9.229899 19.79716 9.126383 20.07841 9.126383 C 20.20732 9.126383 20.4124 9.18107 20.69365 9.290445 C 20.9749 9.395914 21.21708 9.479899 21.42021 9.542399 C 21.62724 9.600992 21.87919 9.630289 22.17607 9.630289 C 22.53154 9.630289 22.7913 9.552164 22.95536 9.395914 C 23.12333 9.239664 23.20732 9.046305 23.20732 8.815836 C 23.20732 8.65568 23.16435 8.522867 23.07841 8.417399 C 22.99247 8.308024 22.87529 8.216227 22.72685 8.142008 C 22.57841 8.063883 22.36357 7.979898 22.08232 7.890055 C 21.80107 7.800211 21.56083 7.724039 21.36161 7.661539 C 20.95536 7.532633 20.60771 7.388102 20.31865 7.227945 C 20.02958 7.063883 19.78935 6.829508 19.59794 6.52482 C 19.40654 6.216227 19.31083 5.819742 19.31083 5.335367 C 19.31083 4.729898 19.4495 4.220133 19.72685 3.80607 C 20.0081 3.392008 20.38115 3.083414 20.84599 2.880289 C 21.31083 2.677164 21.82255 2.575602 22.38115 2.575602 C 23.14677 2.575602 23.74247 2.694742 24.16825 2.933023 C 24.59404 3.171305 24.80693 3.483805 24.80693 3.870523 C 24.80693 4.132242 24.7249 4.352945 24.56083 4.532633 C 24.40068 4.708414 24.19365 4.796305 23.93974 4.796305 C 23.76396 4.796305 23.52177 4.739664 23.21318 4.626383 C 22.90458 4.513102 22.59599 4.456461 22.2874 4.456461 C 22.02177 4.456461 21.80693 4.522867 21.64286 4.65568 C 21.4788 4.788492 21.39677 4.958414 21.39677 5.165445 C 21.39677 5.286539 21.42607 5.384195 21.48466 5.458414 C 21.54716 5.528727 21.65654 5.600992 21.81279 5.675211 C 21.97294 5.74943 22.21318 5.839273 22.53349 5.944742 C 22.85771 6.050211 23.08622 6.126383 23.21904 6.173258 C 23.86357 6.384195 24.37138 6.673258 24.74247 7.040445 C 25.11357 7.403727 25.29911 7.958414 25.29911 8.704508 C 25.29911 9.64982 24.99443 10.36662 24.38505 10.8549 C 23.77568 11.34318 22.99247 11.58732 22.03544 11.58732 C 21.60966 11.58732 21.17607 11.53459 20.73466 11.42912 C 20.29716 11.32365 19.92607 11.16154 19.62138 10.94279 C 19.31669 10.72404 19.16435 10.46623 19.16435 10.16935 z M 14.62919 4.503336 L 14.62919 6.870523 L 15.67216 6.870523 C 15.93388 6.870523 16.1624 6.815836 16.35771 6.706461 C 16.55302 6.597086 16.70146 6.452555 16.80302 6.272867 C 16.90458 6.09318 16.95536 5.89982 16.95536 5.692789 C 16.95536 5.317789 16.83818 5.026774 16.6038 4.819742 C 16.36943 4.608805 16.05888 4.503336 15.67216 4.503336 L 14.62919 4.503336 z M 12.68388 10.42131 L 12.68388 3.747477 C 12.68388 3.446695 12.77958 3.208414 12.97099 3.032633 C 13.1663 2.852945 13.39482 2.763102 13.65654 2.763102 L 16.0413 2.763102 C 16.54911 2.763102 17.02763 2.876383 17.47685 3.102945 C 17.92997 3.325602 18.2913 3.659586 18.56083 4.104899 C 18.83427 4.546305 18.97099 5.075602 18.97099 5.692789 C 18.97099 6.259195 18.85966 6.765055 18.637 7.210367 C 18.41435 7.651773 18.08818 7.997477 17.65849 8.247477 C 17.2288 8.497477 16.71122 8.622477 16.10575 8.622477 L 14.62919 8.622477 L 14.62919 10.42131 C 14.62919 10.76115 14.53935 11.02091 14.35966 11.2006 C 14.18388 11.37638 13.94951 11.46427 13.65654 11.46427 C 13.37138 11.46427 13.13701 11.37443 12.95341 11.19474 C 12.77372 11.01115 12.68388 10.75334 12.68388 10.42131 z "
     transform="matrix(1.379252,0,0,1.379252,-8.882102,5.130761)"
     style="font-size:12;font-weight:900;fill:#333333;stroke-width:1;font-family:VAG Rounded Black SSi;"
     id="path841" />
</svg>
