<?xml version="1.0" encoding="UTF-8" standalone="no"?>
<!DOCTYPE svg PUBLIC "-//W3C//DTD SVG 1.0//EN"
"http://www.w3.org/TR/2001/REC-SVG-20010904/DTD/svg10.dtd">
<!-- Created with Sodipodi ("http://www.sodipodi.com/") -->
<svg
   xmlns="http://www.w3.org/2000/svg"
   xmlns:xlink="http://www.w3.org/1999/xlink"
   version="1.0"
   x="0"
   y="0"
   width="60"
   height="60"
   id="svg1">
  <defs
     id="defs3" />
  <path
     d="M 58.7426 285.6519 L 58.7426 285.6519 z M 37.1392 181.1474 L 52.94628 197.7072 L 78.53855 180.3946 L 98.86191 189.4273 L 105.6363 219.0951 L 127.4651 218.8946 L 133.4868 188.454 L 153.8101 180.3946 L 179.4024 196.9545 L 191.4459 180.3946 L 162.4018 152.9851 C 87.95894 221.2642 23.62886 116.0294 87.57118 72.00355 L 87.57109 56.19647 L 80.044 59.96004 L 56.70979 45.12611 L 40.59092 58.36318 L 55.20437 83.2942 L 46.92451 103.6175 L 18.40927 108.3544 L 18.32127 129.9626 L 47.67726 137.4898 L 55.76894 157.2487 L 37.1392 181.1474 z "
     transform="matrix(0.191808,0,0,0.191808,-1.555254,-2.764438)"
     style="font-size:12;fill:#333333;fill-rule:evenodd;stroke:#333333;stroke-width:1.2844;"
     id="path705" />
  <path
     d="M 58.7426 285.6519 L 58.7426 285.6519 z M 37.1392 181.1474 L 52.94628 197.7072 L 78.53855 180.3946 L 98.86191 189.4273 L 105.6363 219.0951 L 127.4651 218.8946 L 133.4868 188.454 L 153.8101 180.3946 L 179.4024 196.9545 L 191.4459 180.3946 L 162.4018 152.9851 C 87.95894 221.2642 23.62886 116.0294 87.57118 72.00355 L 87.57109 56.19647 L 80.044 59.96004 L 56.70979 45.12611 L 40.59092 58.36318 L 55.20437 83.2942 L 46.92451 103.6175 L 18.40927 108.3544 L 18.32127 129.9626 L 47.67726 137.4898 L 55.76894 157.2487 L 37.1392 181.1474 z "
     transform="matrix(-0.135629,0.135629,-0.135629,-0.135629,71.6544,49.74814)"
     style="font-size:12;fill:#333333;fill-rule:evenodd;stroke:#333333;stroke-width:1.2844;"
     id="path583" />
</svg>
