<?xml version="1.0" encoding="UTF-8" standalone="no"?>
<!DOCTYPE svg PUBLIC "-//W3C//DTD SVG 1.0//EN"
"http://www.w3.org/TR/2001/REC-SVG-20010904/DTD/svg10.dtd">
<!-- Created with Sodipodi ("http://www.sodipodi.com/") -->
<svg
   xmlns="http://www.w3.org/2000/svg"
   xmlns:xlink="http://www.w3.org/1999/xlink"
   version="1.0"
   x="0"
   y="0"
   width="60"
   height="60"
   id="svg1">
  <defs
     id="defs3">
    <linearGradient
       id="linearGradient772">
      <stop
         style="stop-color:#000000;stop-opacity:1;"
         offset="0"
         id="stop773" />
      <stop
         style="stop-color:#ffffff;stop-opacity:1;"
         offset="1"
         id="stop774" />
    </linearGradient>
    <linearGradient
       id="linearGradient775"
       xlink:href="#linearGradient772" />
  </defs>
  <path
     d="M 27.86577 21.44599 L 15.39615 5.922601 "
     transform="translate(0,-0.636205)"
     style="font-size:12;fill:none;fill-opacity:0.75;fill-rule:evenodd;stroke:#333333;stroke-width:1.875;"
     id="path791" />
  <path
     d="M 29.90162 22.20944 L 43.13468 5.668119 "
     transform="translate(0,-0.636205)"
     style="font-size:12;fill:none;fill-opacity:0.75;fill-rule:evenodd;stroke:#333333;stroke-width:1.875;"
     id="path794" />
  <ellipse
     cx="-19.7223454"
     cy="6.6860466"
     rx="1.39965034"
     ry="1.39965034"
     transform="translate(35.24574,-1.526892)"
     style="font-size:12;fill:#7f7f7f;fill-rule:evenodd;stroke:#333333;stroke-width:1.875;"
     id="path795" />
  <ellipse
     cx="-19.7223454"
     cy="6.6860466"
     rx="1.39965034"
     ry="1.39965034"
     transform="translate(62.55486,-1.781374)"
     style="font-size:12;fill:#7f7f7f;fill-rule:evenodd;stroke:#333333;stroke-width:1.875;"
     id="path796" />
  <rect
     width="53.3139534"
     height="37.2815933"
     rx="2"
     x="3.43550539"
     y="18.9312248"
     transform="translate(0,-0.636205)"
     style="font-size:12;fill:#7f7f7f;fill-rule:evenodd;stroke:#333333;stroke-width:3.125;stroke-linecap:round;stroke-linejoin:round;"
     id="rect627" />
  <rect
     width="40.4369965"
     height="32.1919556"
     x="6.99825144"
     y="21.3487988"
     transform="matrix(0.948771,0,0,0.929891,1.030425,2.226807)"
     style="font-size:12;fill:#000000;fill-rule:evenodd;stroke:#333333;stroke-width:1.9962;stroke-linecap:round;stroke-linejoin:round;"
     id="rect628" />
  <path
     d="M 21.99879 44.00842 C 18.41337 45.91679 16.23577 49.70773 14.87997 53.65165 L 40.12401 53.65165 C 38.88257 49.79142 36.86393 46.05879 33.56056 44.00842 C 30.23485 43.86382 26.04749 44.00842 21.99879 44.00842 z "
     transform="matrix(0.929891,0,0,0.929891,1.408112,1.871847)"
     style="font-size:12;fill:#666666;fill-rule:evenodd;stroke:#333333;stroke-width:1.34424;stroke-linecap:round;stroke-linejoin:round;"
     id="path966" />
  <ellipse
     cx="19.5241261"
     cy="22.301342"
     rx="12.3262911"
     ry="12.3262911"
     transform="matrix(0.774505,0,0,0.774505,11.55693,18.52796)"
     style="font-size:12;fill:#b3b3b3;fill-rule:evenodd;stroke:#333333;stroke-width:1.61393;stroke-linecap:round;stroke-linejoin:round;"
     id="path710" />
  <ellipse
     cx="52.1687851"
     cy="26.7901154"
     rx="2.41757774"
     ry="2.41757774"
     transform="translate(-1.017928,-2.67206)"
     style="font-size:12;fill:#b3b3b3;fill-rule:evenodd;stroke:#333333;stroke-width:1.25;"
     id="path807" />
  <ellipse
     cx="52.1687851"
     cy="26.7901154"
     rx="2.41757774"
     ry="2.41757774"
     transform="translate(-1.017928,4.414554)"
     style="font-size:12;fill:#b3b3b3;fill-rule:evenodd;stroke:#333333;stroke-width:1.25;"
     id="path808" />
  <ellipse
     cx="52.1687851"
     cy="26.7901154"
     rx="2.41757774"
     ry="2.41757774"
     transform="translate(-1.017928,11.50118)"
     style="font-size:12;fill:#b3b3b3;fill-rule:evenodd;stroke:#333333;stroke-width:1.25;"
     id="path809" />
</svg>
