<?xml version="1.0" encoding="UTF-8" standalone="no"?>
<!DOCTYPE svg PUBLIC "-//W3C//DTD SVG 1.0//EN"
"http://www.w3.org/TR/2001/REC-SVG-20010904/DTD/svg10.dtd">
<!-- Created with Sodipodi ("http://www.sodipodi.com/") -->
<svg
   xmlns="http://www.w3.org/2000/svg"
   xmlns:xlink="http://www.w3.org/1999/xlink"
   version="1.0"
   x="0"
   y="0"
   width="60"
   height="60"
   id="svg1">
  <defs
     id="defs3" />
  <ellipse
     cx="31.6193733"
     cy="31.8161316"
     rx="25.5118084"
     ry="25.5118084"
     transform="matrix(1.072319,0,0,1.072319,-3.749958,-4.01867)"
     style="font-size:12;fill:#b3b3b3;fill-rule:evenodd;stroke:#4c4c4c;stroke-width:2.91424;"
     id="path587" />
  <ellipse
     cx="34.6395798"
     cy="32.0184174"
     rx="19.1642342"
     ry="19.1642342"
     transform="matrix(0.985515,-0.276134,0.276134,0.985515,-12.74831,8.13955)"
     style="font-size:12;fill:#999999;fill-rule:evenodd;stroke:#4c4c4c;stroke-width:1.832;stroke-linecap:round;stroke-linejoin:round;stroke-dasharray:1.832 3.664 ;stroke-dashoffset:0;"
     id="path740" />
  <ellipse
     cx="29.6471386"
     cy="30.861824"
     rx="10.560998"
     ry="10.560998"
     transform="translate(0.508964,0.127241)"
     style="font-size:12;fill:#7f7f7f;fill-rule:evenodd;stroke:#4c4c4c;stroke-width:3.125;"
     id="path588" />
  <ellipse
     cx="30.9831696"
     cy="32.4523354"
     rx="5.66222191"
     ry="5.66222191"
     transform="translate(-0.763445,-1.272409)"
     style="font-size:12;fill:#cccccc;fill-rule:evenodd;stroke:#4c4c4c;stroke-width:1.875;"
     id="path589" />
  <g
     transform="matrix(-0.741398,-1.888717,1.888717,-0.741398,2.982912,143.8471)"
     style="font-size:12;"
     id="g836">
    <path
       d="M 64.48932 23.60909 C 66.07895 16.02366 66.07895 16.02366 66.07895 16.02366 L 67.71869 23.59372 L 64.48932 23.60909 z "
       transform="matrix(0.656671,-0.345444,0.345444,0.656671,-9.727915,39.26459)"
       style="fill:#595959;fill-rule:evenodd;stroke:#333333;stroke-width:1.68466;stroke-linecap:round;stroke-linejoin:round;"
       id="path599" />
    <rect
       width="3.18102336"
       height="22.9033699"
       x="64.5111542"
       y="23.6168118"
       transform="matrix(0.656671,-0.345444,0.345444,0.656671,-9.727915,39.26459)"
       style="fill:#b3b3b3;fill-rule:evenodd;stroke:#333333;stroke-width:1.68466;stroke-linecap:round;stroke-linejoin:round;"
       id="rect598" />
    <ellipse
       cx="61.3460388"
       cy="18.7262211"
       rx="0.62029958"
       ry="0.62029958"
       transform="matrix(0.432047,-0.22728,0.22728,0.432047,9.25838,34.34242)"
       style="fill:#333333;fill-rule:evenodd;stroke:#333333;stroke-width:2.56053;"
       id="path600" />
    <rect
       width="3.62636685"
       height="1.97223461"
       rx="1"
       x="64.3202972"
       y="46.4488411"
       transform="matrix(0.656671,-0.345444,0.345444,0.656671,-9.727915,39.26459)"
       style="fill:#cccccc;fill-rule:evenodd;stroke:#333333;stroke-width:1.68466;"
       id="rect601" />
  </g>
</svg>
