<?xml version="1.0" encoding="UTF-8" standalone="no"?>
<!DOCTYPE svg PUBLIC "-//W3C//DTD SVG 1.0//EN"
"http://www.w3.org/TR/2001/REC-SVG-20010904/DTD/svg10.dtd">
<!-- Created with Sodipodi ("http://www.sodipodi.com/") -->
<svg
   xmlns="http://www.w3.org/2000/svg"
   xmlns:xlink="http://www.w3.org/1999/xlink"
   version="1.0"
   x="0"
   y="0"
   width="60"
   height="60"
   id="svg1">
  <defs
     id="defs3" />
  <path
     d="M 9.90625 49.2263 C 6.897764 50.82759 4.944065 53.86513 3.65625 57.13255 L 26.4375 57.13255 C 25.25563 53.94445 23.44689 50.93903 20.6875 49.2263 C 17.58503 49.09142 13.68317 49.2263 9.90625 49.2263 z "
     transform="matrix(0.932678,0,0,0.932678,0.755112,3.368216)"
     style="font-size:12;fill:#7f7f7f;fill-rule:evenodd;stroke:#333333;stroke-width:3.35057;stroke-linecap:round;stroke-linejoin:round;"
     id="path692" />
  <ellipse
     cx="19.5241261"
     cy="22.301342"
     rx="12.3262911"
     ry="12.3262911"
     transform="matrix(0.724681,0,0,0.724681,0.352436,26.58414)"
     style="font-size:12;fill:#bfbfbf;fill-rule:evenodd;stroke:#333333;stroke-width:4.31224;stroke-linecap:round;stroke-linejoin:round;"
     id="path716" />
  <path
     d="M 30.07968 3.84407 C 15.47039 3.84407 3.610925 9.669866 3.610925 16.84407 C 3.610925 24.01827 15.47039 29.84407 30.07968 29.84407 C 33.06544 29.84407 35.90157 29.5423 38.57968 29.09407 C 36.15819 40.82553 28.01718 45.21907 28.01718 45.21907 C 28.01717 45.21907 36.24863 47.96097 46.17343 36.00032 C 49.67362 31.44756 50.64964 27.53492 51.04843 24.71907 C 54.46058 22.53064 56.54843 19.8112 56.54843 16.84407 C 56.54843 9.669866 44.68897 3.84407 30.07968 3.84407 z "
     transform="translate(0.254482,0.254482)"
     style="font-size:12;fill:#cccccc;fill-rule:evenodd;stroke:#333333;stroke-width:3.125;stroke-linecap:round;stroke-linejoin:round;"
     id="path672" />
  <path
     d="M 24.08118 11.778 L 22.34094 9.838547 C 22.02063 10.03777 21.76868 10.25066 21.58508 10.47722 C 21.40149 10.70378 21.30969 10.97722 21.30969 11.29753 C 21.30969 11.66863 21.42493 11.95964 21.6554 12.17058 C 21.88587 12.38152 22.18665 12.48698 22.55774 12.48698 C 22.87024 12.48698 23.13977 12.43034 23.36633 12.31706 C 23.5968 12.19988 23.83508 12.02019 24.08118 11.778 z M 24.04602 9.188156 L 25.30579 10.59441 L 25.77454 10.04948 C 25.95032 9.842453 26.10071 9.697922 26.22571 9.615891 C 26.35071 9.529953 26.50501 9.486984 26.6886 9.486984 C 26.87219 9.486984 27.02649 9.55925 27.15149 9.703781 C 27.2804 9.844406 27.34485 10.028 27.34485 10.25456 C 27.34485 10.52409 27.1261 10.90886 26.6886 11.40886 L 26.38391 11.73113 L 27.20423 12.66863 C 27.29407 12.77409 27.36048 12.86784 27.40344 12.94988 C 27.44641 13.028 27.4679 13.13347 27.4679 13.26628 C 27.4679 13.48503 27.38391 13.67644 27.21594 13.8405 C 27.04798 14.00456 26.85071 14.08659 26.62415 14.08659 C 26.37805 14.08659 26.16712 13.99284 25.99133 13.80534 L 25.1593 12.9323 C 24.72962 13.31902 24.30579 13.60808 23.88782 13.79948 C 23.47376 13.99089 23.01868 14.08659 22.52258 14.08659 C 21.97962 14.08659 21.48352 13.98503 21.0343 13.78191 C 20.58899 13.57878 20.23548 13.278 19.97376 12.87956 C 19.71204 12.48113 19.58118 12.01042 19.58118 11.46745 C 19.58118 10.89714 19.74915 10.39128 20.08508 9.949875 C 20.42493 9.504562 20.86048 9.135422 21.39173 8.842453 C 21.13001 8.569016 20.93274 8.305344 20.79993 8.051437 C 20.66712 7.797531 20.60071 7.512375 20.60071 7.195969 C 20.60071 6.762375 20.7218 6.391281 20.96399 6.082687 C 21.20618 5.774094 21.51868 5.545578 21.90149 5.39714 C 22.2843 5.244797 22.69055 5.168625 23.12024 5.168625 C 23.51087 5.168625 23.89368 5.24089 24.26868 5.385422 C 24.64758 5.529953 24.95813 5.744797 25.20032 6.029953 C 25.44641 6.315109 25.56946 6.658859 25.56946 7.061203 C 25.56946 7.369797 25.49915 7.660812 25.35852 7.93425 C 25.2179 8.203781 25.0343 8.442062 24.80774 8.649094 C 24.58508 8.856125 24.33118 9.035812 24.04602 9.188156 z M 23.91126 7.242844 C 23.91126 6.99675 23.82923 6.819015 23.66516 6.70964 C 23.5011 6.600265 23.31946 6.545578 23.12024 6.545578 C 22.94837 6.545578 22.7843 6.604172 22.62805 6.721359 C 22.47571 6.83464 22.39954 6.977219 22.39954 7.149094 C 22.39954 7.324875 22.44446 7.485031 22.5343 7.629562 C 22.62805 7.770187 22.79602 7.957687 23.03821 8.192062 C 23.62024 7.895187 23.91126 7.578781 23.91126 7.242844 z M 16.42883 10.653 L 16.42883 5.983078 C 16.42883 5.736984 16.50891 5.539719 16.66907 5.391281 C 16.82923 5.242844 17.03626 5.168625 17.29016 5.168625 C 17.53626 5.168625 17.74133 5.242844 17.9054 5.391281 C 18.06946 5.539719 18.15149 5.736984 18.15149 5.983078 L 18.15149 10.653 C 18.15149 10.89909 18.06946 11.09831 17.9054 11.25066 C 17.74133 11.403 17.53626 11.47917 17.29016 11.47917 C 17.03626 11.47917 16.82923 11.40495 16.66907 11.25652 C 16.50891 11.10417 16.42883 10.903 16.42883 10.653 z M 17.29016 14.08659 C 17.03235 14.08659 16.81165 13.99284 16.62805 13.80534 C 16.44446 13.61784 16.35266 13.39519 16.35266 13.13738 C 16.35266 12.87956 16.44446 12.65886 16.62805 12.47527 C 16.81165 12.29167 17.03235 12.19988 17.29016 12.19988 C 17.54798 12.19988 17.76868 12.29167 17.95227 12.47527 C 18.13587 12.65886 18.22766 12.87956 18.22766 13.13738 C 18.22766 13.39519 18.13587 13.61784 17.95227 13.80534 C 17.76868 13.99284 17.54798 14.08659 17.29016 14.08659 z M 9.860475 10.31902 L 10.05383 8.936203 L 9.022585 8.936203 C 8.831179 8.936203 8.686647 8.879562 8.588991 8.766281 C 8.491335 8.649094 8.442507 8.510422 8.442507 8.350266 C 8.442507 8.190109 8.491335 8.053391 8.588991 7.940109 C 8.686647 7.826828 8.831179 7.770187 9.022585 7.770187 L 10.22376 7.770187 L 10.48743 5.819015 C 10.51477 5.604172 10.57532 5.453781 10.66907 5.367844 C 10.76282 5.281906 10.90149 5.238937 11.08508 5.238937 C 11.23743 5.238937 11.36633 5.283859 11.4718 5.373703 C 11.58118 5.463547 11.63587 5.578781 11.63587 5.719406 C 11.63587 5.785812 11.62805 5.881515 11.61243 6.006515 L 11.37219 7.770187 L 12.52649 7.770187 L 12.79016 5.819015 C 12.81751 5.604172 12.87805 5.453781 12.9718 5.367844 C 13.06555 5.281906 13.20423 5.238937 13.38782 5.238937 C 13.54016 5.238937 13.66907 5.283859 13.77454 5.373703 C 13.88391 5.463547 13.9386 5.578781 13.9386 5.719406 C 13.9386 5.785812 13.93079 5.881515 13.91516 6.006515 L 13.67493 7.770187 L 14.70618 7.770187 C 14.89758 7.770187 15.04212 7.826828 15.13977 7.940109 C 15.23743 8.053391 15.28626 8.190109 15.28626 8.350266 C 15.28626 8.506516 15.23743 8.643234 15.13977 8.760422 C 15.04212 8.877609 14.89758 8.936203 14.70618 8.936203 L 13.51087 8.936203 L 13.31751 10.31902 L 14.34876 10.31902 C 14.54016 10.31902 14.68274 10.37566 14.77649 10.48894 C 14.87415 10.59831 14.92298 10.73308 14.92298 10.89323 C 14.92298 11.0573 14.87415 11.19597 14.77649 11.30925 C 14.68274 11.42253 14.54016 11.47917 14.34876 11.47917 L 13.14758 11.47917 L 12.88391 13.4362 C 12.85657 13.64714 12.79602 13.79558 12.70227 13.88152 C 12.61243 13.96745 12.47376 14.01042 12.28626 14.01042 C 12.13782 14.01042 12.00891 13.9655 11.89954 13.87566 C 11.79016 13.78581 11.73548 13.67058 11.73548 13.52995 C 11.73548 13.46745 11.74329 13.36784 11.75891 13.23113 L 11.99915 11.47917 L 10.84485 11.47917 L 10.58118 13.4362 C 10.55383 13.64714 10.49329 13.79558 10.39954 13.88152 C 10.30969 13.96745 10.17102 14.01042 9.983522 14.01042 C 9.831179 14.01042 9.700319 13.9655 9.590944 13.87566 C 9.481569 13.78581 9.426882 13.67058 9.426882 13.52995 C 9.426882 13.46745 9.434694 13.36784 9.450319 13.23113 L 9.690554 11.47917 L 8.659304 11.47917 C 8.471804 11.47917 8.329225 11.42253 8.231569 11.30925 C 8.133913 11.19206 8.085085 11.05339 8.085085 10.89323 C 8.085085 10.73698 8.133913 10.60222 8.231569 10.48894 C 8.329225 10.37566 8.471804 10.31902 8.659304 10.31902 L 9.860475 10.31902 z M 11.21985 8.936203 L 11.02649 10.31902 L 12.16321 10.31902 L 12.35657 8.936203 L 11.21985 8.936203 z "
     transform="matrix(1.724975,0,0,1.724975,0.254482,0.254482)"
     style="font-size:12;fill:#333333;stroke-width:1;font-family:VAG Rounded Black SSi;"
     id="path831" />
</svg>
