<?xml version="1.0" encoding="UTF-8" standalone="no"?>
<!DOCTYPE svg PUBLIC "-//W3C//DTD SVG 1.0//EN"
"http://www.w3.org/TR/2001/REC-SVG-20010904/DTD/svg10.dtd">
<!-- Created with Sodipodi ("http://www.sodipodi.com/") -->
<svg
   xmlns="http://www.w3.org/2000/svg"
   xmlns:xlink="http://www.w3.org/1999/xlink"
   version="1.0"
   x="0"
   y="0"
   width="60"
   height="60"
   id="svg1">
  <defs
     id="defs3">
    <linearGradient
       id="linearGradient900">
      <stop
         style="stop-color:#000000;stop-opacity:1;"
         offset="0"
         id="stop901" />
      <stop
         style="stop-color:#ffffff;stop-opacity:1;"
         offset="1"
         id="stop902" />
    </linearGradient>
    <linearGradient
       id="linearGradient903"
       xlink:href="#linearGradient900" />
    <linearGradient
       id="linearGradient904"
       xlink:href="#linearGradient900" />
    <linearGradient
       id="linearGradient905"
       xlink:href="#linearGradient900" />
    <linearGradient
       id="linearGradient906"
       xlink:href="#linearGradient900" />
    <linearGradient
       id="linearGradient907"
       xlink:href="#linearGradient900" />
  </defs>
  <rect
     width="50.7447319"
     height="50.3848419"
     rx="2"
     x="4.67859221"
     y="5.1165123"
     style="font-size:12;fill:#b3b3b3;fill-rule:evenodd;stroke:#333333;stroke-width:3.125;"
     id="rect812" />
  <rect
     width="55.4624176"
     height="55.0690689"
     rx="2.18593788"
     x="2.42645288"
     y="2.68442941"
     transform="matrix(0.71127,0,0,0.71127,8.707415,9.028222)"
     style="font-size:12;fill:#4c4c4c;fill-rule:evenodd;stroke:#333333;stroke-width:1.875;"
     id="rect945" />
  <path
     d="M 57.58268 51.18265 L 8.457455 51.18265 L 4.858538 2.777216 L 57.40273 2.777216 L 57.58268 51.18265 z "
     transform="matrix(0.71127,0,0,0.71127,8.707415,9.028222)"
     style="font-size:12;fill:#b3b3b3;fill-rule:evenodd;stroke-width:1;"
     id="path1022" />
  <path
     d="M 34.09375 8.15625 C 19.99139 8.15625 8.53125 14.97582 8.53125 23.375 C 8.53125 31.55152 19.41463 38.18299 33 38.53125 L 31.84375 50.46875 C 31.84375 50.46875 42.65316 41.05336 47.875 36.15625 C 52.44669 34.40247 55.85833 31.75352 57.8125 28.6875 L 57.8125 17.84375 C 54.08615 12.19168 44.90142 8.15625 34.09375 8.15625 z "
     transform="matrix(0.71127,0,0,0.71127,8.707415,8.132292)"
     style="font-size:12;fill:#4c4c4c;fill-rule:evenodd;stroke:#4c4c4c;stroke-width:1.875;stroke-linecap:round;stroke-linejoin:round;"
     id="path1021" />
  <path
     d="M 35.28236 19.49785 L 35.28236 12.0623 C 35.28236 11.78105 35.37025 11.54668 35.54603 11.35918 C 35.72181 11.17168 35.94447 11.07793 36.214 11.07793 C 36.48743 11.07793 36.71204 11.17168 36.88782 11.35918 C 37.06361 11.54668 37.1515 11.78105 37.1515 12.0623 L 37.1515 19.49785 C 37.1515 19.77519 37.06361 20.00956 36.88782 20.20097 C 36.71595 20.38847 36.49134 20.48222 36.214 20.48222 C 35.94056 20.48222 35.71595 20.38847 35.54017 20.20097 C 35.36829 20.00956 35.28236 19.77519 35.28236 19.49785 z M 34.48548 14.86894 L 34.48548 19.49785 C 34.48548 19.7791 34.39759 20.01347 34.22181 20.20097 C 34.04603 20.38847 33.82142 20.48222 33.54798 20.48222 C 33.33314 20.48222 33.1515 20.42363 33.00306 20.30644 C 32.85853 20.18925 32.74915 20.04863 32.67493 19.88456 C 32.464 20.14238 32.22962 20.32597 31.97181 20.43535 C 31.7179 20.54863 31.41517 20.60527 31.06361 20.60527 C 30.52845 20.60527 30.04017 20.45488 29.59876 20.1541 C 29.16126 19.84941 28.81361 19.43535 28.55579 18.91191 C 28.30189 18.38456 28.17493 17.80839 28.17493 17.18339 C 28.17493 16.56621 28.30189 15.99589 28.55579 15.47246 C 28.81361 14.94511 29.16322 14.53105 29.60462 14.23027 C 30.04603 13.92558 30.53236 13.77324 31.06361 13.77324 C 31.41907 13.77324 31.72181 13.82793 31.97181 13.9373 C 32.22572 14.04668 32.46009 14.23222 32.67493 14.49394 C 32.74525 14.33378 32.85462 14.19511 33.00306 14.07793 C 33.1515 13.95683 33.33314 13.89628 33.54798 13.89628 C 33.82142 13.89628 34.04603 13.99003 34.22181 14.17753 C 34.39759 14.36113 34.48548 14.5916 34.48548 14.86894 z M 31.32728 15.58964 C 30.92884 15.58964 30.61439 15.74199 30.38392 16.04668 C 30.15736 16.35136 30.04407 16.73027 30.04407 17.18339 C 30.04407 17.47246 30.09486 17.74199 30.19642 17.99199 C 30.29798 18.23808 30.44447 18.43339 30.63587 18.57793 C 30.83118 18.72246 31.06165 18.79472 31.32728 18.79472 C 31.72962 18.79472 32.04407 18.64238 32.27064 18.33769 C 32.4972 18.0291 32.61048 17.64433 32.61048 17.18339 C 32.61048 16.72636 32.4972 16.34746 32.27064 16.04668 C 32.04407 15.74199 31.72962 15.58964 31.32728 15.58964 z M 26.89759 17.81035 L 23.51673 17.81035 C 23.51673 18.06425 23.63392 18.30449 23.86829 18.53105 C 24.10267 18.75371 24.48548 18.86503 25.01673 18.86503 C 25.29017 18.86503 25.51673 18.82988 25.69642 18.75956 C 25.87611 18.68925 26.09681 18.58964 26.35853 18.46074 C 26.62415 18.32793 26.81556 18.26152 26.93275 18.26152 C 27.1515 18.26152 27.33704 18.33769 27.48939 18.49003 C 27.64173 18.64238 27.7179 18.83964 27.7179 19.08183 C 27.7179 19.37089 27.57337 19.63456 27.28431 19.87285 C 26.99915 20.10722 26.63001 20.28691 26.17689 20.41191 C 25.72376 20.54081 25.25697 20.60527 24.7765 20.60527 C 24.2804 20.60527 23.83118 20.51933 23.42884 20.34746 C 23.0304 20.17558 22.6847 19.93339 22.39173 19.62089 C 22.10267 19.30449 21.88197 18.9373 21.72962 18.51933 C 21.57728 18.09746 21.50111 17.65214 21.50111 17.18339 C 21.50111 16.74199 21.58118 16.3123 21.74134 15.89433 C 21.9015 15.47636 22.12806 15.10918 22.42103 14.79277 C 22.714 14.47636 23.06361 14.22832 23.46986 14.04863 C 23.87611 13.86503 24.31165 13.77324 24.7765 13.77324 C 25.37415 13.77324 25.90345 13.92363 26.36439 14.22441 C 26.82532 14.52519 27.18079 14.91972 27.43079 15.408 C 27.6847 15.89628 27.81165 16.41972 27.81165 16.97831 C 27.81165 17.29863 27.73939 17.51738 27.59486 17.63456 C 27.45032 17.75175 27.2179 17.81035 26.89759 17.81035 z M 23.51673 16.50956 L 25.93665 16.50956 C 25.93665 16.36113 25.88392 16.19706 25.77845 16.01738 C 25.67298 15.83378 25.52845 15.68144 25.34486 15.56035 C 25.16517 15.43535 24.96009 15.37285 24.72962 15.37285 C 24.49915 15.37285 24.29017 15.43535 24.10267 15.56035 C 23.91907 15.68535 23.77454 15.83769 23.66907 16.01738 C 23.56751 16.19316 23.51673 16.35722 23.51673 16.50956 z M 17.52845 19.49785 L 17.52845 14.86894 C 17.52845 14.5916 17.61439 14.36113 17.78626 14.17753 C 17.96204 13.99003 18.18665 13.89628 18.46009 13.89628 C 18.68665 13.89628 18.88197 13.95683 19.04603 14.07793 C 19.214 14.19511 19.33118 14.33378 19.39759 14.49394 C 19.79993 14.01347 20.23157 13.77324 20.69251 13.77324 C 20.94642 13.77324 21.16907 13.86503 21.36048 14.04863 C 21.55579 14.22832 21.65345 14.46074 21.65345 14.74589 C 21.65345 15.03886 21.56165 15.25175 21.37806 15.38457 C 21.19837 15.51738 20.89954 15.64433 20.48157 15.76543 C 20.05579 15.88652 19.76868 16.03886 19.62025 16.22246 C 19.47181 16.40214 19.39759 16.72636 19.39759 17.19511 L 19.39759 19.49785 C 19.39759 19.77519 19.3097 20.00956 19.13392 20.20097 C 18.96204 20.38847 18.73743 20.48222 18.46009 20.48222 C 18.18665 20.48222 17.96204 20.38847 17.78626 20.20097 C 17.61439 20.00956 17.52845 19.77519 17.52845 19.49785 z "
     transform="matrix(1.360999,0,-0.338912,1.360999,0.217836,2.728212)"
     style="font-size:12;font-weight:900;fill:#e6e6e6;stroke-width:1;font-family:VAG Rounded Black SSi;"
     id="path841" />
  <rect
     width="55.4624176"
     height="55.0690689"
     rx="2.18593788"
     x="2.42645288"
     y="2.68442941"
     transform="matrix(0.71127,0,0,0.71127,8.707415,9.028222)"
     style="font-size:12;fill:none;fill-rule:evenodd;stroke:#333333;stroke-width:1.75742;"
     id="rect1026" />
</svg>
