<?xml version="1.0" encoding="UTF-8" standalone="no"?>
<!DOCTYPE svg PUBLIC "-//W3C//DTD SVG 1.0//EN"
"http://www.w3.org/TR/2001/REC-SVG-20010904/DTD/svg10.dtd">
<!-- Created with Sodipodi ("http://www.sodipodi.com/") -->
<svg
   xmlns="http://www.w3.org/2000/svg"
   xmlns:xlink="http://www.w3.org/1999/xlink"
   version="1.0"
   x="0"
   y="0"
   width="60"
   height="60"
   id="svg1">
  <defs
     id="defs3">
    <linearGradient
       id="linearGradient900">
      <stop
         style="stop-color:#000000;stop-opacity:1;"
         offset="0"
         id="stop901" />
      <stop
         style="stop-color:#ffffff;stop-opacity:1;"
         offset="1"
         id="stop902" />
    </linearGradient>
    <linearGradient
       id="linearGradient903"
       xlink:href="#linearGradient900" />
    <linearGradient
       id="linearGradient904"
       xlink:href="#linearGradient900" />
    <linearGradient
       id="linearGradient905"
       xlink:href="#linearGradient900" />
    <linearGradient
       id="linearGradient906"
       xlink:href="#linearGradient900" />
    <linearGradient
       id="linearGradient907"
       xlink:href="#linearGradient900" />
  </defs>
  <rect
     width="50.7447319"
     height="50.3848419"
     rx="2"
     x="4.67859221"
     y="5.1165123"
     style="font-size:12;fill:#b3b3b3;fill-rule:evenodd;stroke:#333333;stroke-width:3.125;stroke-linejoin:round;"
     id="rect812" />
  <path
     d="M 30.05096 10.51144 C 19.12499 10.51144 10.25347 19.38296 10.25347 30.30893 C 10.25347 41.2349 19.12499 50.10642 30.05096 50.10643 C 40.97693 50.10643 49.84846 41.2349 49.84845 30.30893 C 49.84845 19.38296 40.97693 10.51144 30.05096 10.51144 z M 30.05096 14.83295 C 31.01101 14.83295 31.814 15.17057 32.49453 15.85111 C 33.17508 16.53165 33.51269 17.34511 33.51269 18.31731 C 33.51269 19.32597 33.17508 20.183 32.49453 20.85139 C 31.814 21.51978 31.01101 21.84692 30.05096 21.84692 C 29.10307 21.84692 28.28793 21.5093 27.60738 20.82876 C 26.92684 20.14822 26.5666 19.30166 26.5666 18.31731 C 26.5666 17.36941 26.92684 16.56643 27.60738 15.87373 C 28.28793 15.18104 29.10307 14.83295 30.05096 14.83295 z M 30.05096 25.30865 C 30.91379 25.30865 31.59781 25.60774 32.13252 26.19106 C 32.67938 26.76222 32.94705 27.47767 32.94705 28.3405 L 32.94705 42.75307 C 32.94705 43.6159 32.67938 44.32967 32.13252 44.92514 C 31.59781 45.50846 30.91379 45.80754 30.05096 45.80754 C 29.20029 45.80754 28.49362 45.50846 27.94677 44.92514 C 27.41206 44.32967 27.13224 43.6159 27.13224 42.75307 L 27.13224 28.3405 C 27.13224 27.47767 27.41206 26.76222 27.94677 26.19106 C 28.49362 25.60774 29.20029 25.30865 30.05096 25.30865 z "
     style="font-size:12;fill:#7f7f7f;fill-rule:evenodd;stroke:#333333;stroke-width:2.5;"
     id="path838" />
</svg>
