<?xml version="1.0" encoding="UTF-8" standalone="no"?>
<!DOCTYPE svg PUBLIC "-//W3C//DTD SVG 1.0//EN"
"http://www.w3.org/TR/2001/REC-SVG-20010904/DTD/svg10.dtd">
<!-- Created with Sodipodi ("http://www.sodipodi.com/") -->
<svg
   xmlns="http://www.w3.org/2000/svg"
   xmlns:xlink="http://www.w3.org/1999/xlink"
   version="1.0"
   x="0"
   y="0"
   width="60"
   height="60"
   id="svg1">
  <defs
     id="defs3">
    <linearGradient
       id="linearGradient900">
      <stop
         style="stop-color:#000000;stop-opacity:1;"
         offset="0"
         id="stop901" />
      <stop
         style="stop-color:#ffffff;stop-opacity:1;"
         offset="1"
         id="stop902" />
    </linearGradient>
    <linearGradient
       id="linearGradient903"
       xlink:href="#linearGradient900" />
    <linearGradient
       id="linearGradient904"
       xlink:href="#linearGradient900" />
    <linearGradient
       id="linearGradient905"
       xlink:href="#linearGradient900" />
    <linearGradient
       id="linearGradient906"
       xlink:href="#linearGradient900" />
    <linearGradient
       id="linearGradient907"
       xlink:href="#linearGradient900" />
  </defs>
  <rect
     width="50.7447319"
     height="50.3848419"
     rx="2"
     x="4.67859221"
     y="5.1165123"
     style="font-size:12;fill:#b3b3b3;fill-rule:evenodd;stroke:#333333;stroke-width:3.125;"
     id="rect812" />
  <path
     d="M 42.09196 7.013596 L 38.7111 7.013596 C 38.7111 7.267502 38.82829 7.507736 39.06267 7.734299 C 39.29704 7.956955 39.67985 8.068283 40.2111 8.068283 C 40.48454 8.068283 40.7111 8.033127 40.89079 7.962814 C 41.07048 7.892502 41.29118 7.792892 41.5529 7.663986 C 41.81853 7.531174 42.00993 7.464767 42.12712 7.464767 C 42.34587 7.464767 42.53142 7.540939 42.68376 7.693283 C 42.8361 7.845627 42.91228 8.042893 42.91228 8.28508 C 42.91228 8.574143 42.76774 8.837814 42.47868 9.076096 C 42.19353 9.310471 41.82438 9.490158 41.37126 9.615158 C 40.91813 9.744064 40.45134 9.808518 39.97087 9.808518 C 39.47478 9.808518 39.02556 9.72258 38.62321 9.550705 C 38.22478 9.37883 37.87907 9.136643 37.5861 8.824143 C 37.29704 8.507736 37.07634 8.140549 36.92399 7.72258 C 36.77165 7.300705 36.69548 6.855392 36.69548 6.386642 C 36.69548 5.945236 36.77556 5.515549 36.93571 5.09758 C 37.09587 4.679611 37.32243 4.312424 37.6154 3.996018 C 37.90837 3.679611 38.25798 3.431564 38.66423 3.251877 C 39.07048 3.068283 39.50603 2.976486 39.97087 2.976486 C 40.56853 2.976486 41.09782 3.126877 41.55876 3.427658 C 42.0197 3.728439 42.37517 4.122971 42.62517 4.611252 C 42.87907 5.099533 43.00603 5.622971 43.00603 6.181564 C 43.00603 6.501877 42.93376 6.720627 42.78923 6.837814 C 42.6447 6.955002 42.41228 7.013596 42.09196 7.013596 z M 38.7111 5.712814 L 41.13103 5.712814 C 41.13103 5.564377 41.07829 5.400314 40.97282 5.220627 C 40.86735 5.037033 40.72282 4.884689 40.53923 4.763596 C 40.35954 4.638596 40.15446 4.576096 39.92399 4.576096 C 39.69353 4.576096 39.48454 4.638596 39.29704 4.763596 C 39.11345 4.888596 38.96892 5.040939 38.86345 5.220627 C 38.76188 5.396408 38.7111 5.560471 38.7111 5.712814 z M 31.14079 6.386642 C 31.14079 5.765549 31.2736 5.193283 31.53923 4.669846 C 31.80485 4.142502 32.17595 3.728439 32.65251 3.427658 C 33.13298 3.126877 33.67985 2.976486 34.29313 2.976486 C 34.61735 2.976486 34.95134 3.015549 35.29509 3.093674 C 35.63884 3.167893 35.9279 3.296799 36.16228 3.480393 C 36.39665 3.663986 36.51384 3.912033 36.51384 4.224533 C 36.51384 4.474533 36.43962 4.683517 36.29118 4.851486 C 36.14665 5.019455 35.96501 5.103439 35.74626 5.103439 C 35.64079 5.103439 35.53728 5.085861 35.43571 5.050705 C 35.33806 5.015549 35.23845 4.978439 35.13688 4.939377 C 35.03923 4.896408 34.93376 4.861252 34.82048 4.833908 C 34.7111 4.806564 34.57243 4.792892 34.40446 4.792892 C 34.09978 4.792892 33.84196 4.865158 33.63103 5.009689 C 33.42399 5.150314 33.26774 5.341721 33.16228 5.583908 C 33.06071 5.822189 33.00993 6.089767 33.00993 6.386642 C 33.00993 6.675705 33.06071 6.945236 33.16228 7.195236 C 33.26384 7.44133 33.41032 7.636642 33.60173 7.781174 C 33.79704 7.925705 34.02751 7.997971 34.29313 7.997971 C 34.59392 7.997971 34.89665 7.94133 35.20134 7.828049 C 35.50603 7.714767 35.68767 7.658127 35.74626 7.658127 C 35.88688 7.658127 36.01579 7.699142 36.13298 7.781174 C 36.25017 7.863205 36.34196 7.970627 36.40837 8.103439 C 36.47868 8.232346 36.51384 8.365158 36.51384 8.501877 C 36.51384 8.790939 36.38688 9.03508 36.13298 9.234299 C 35.88298 9.433518 35.58415 9.578049 35.23649 9.667893 C 34.88884 9.761643 34.57438 9.808518 34.29313 9.808518 C 33.82829 9.808518 33.40251 9.72258 33.01579 9.550705 C 32.63298 9.37883 32.29899 9.134689 32.01384 8.818283 C 31.72868 8.497971 31.51188 8.130783 31.36345 7.716721 C 31.21501 7.298752 31.14079 6.855392 31.14079 6.386642 z M 27.16813 8.701096 L 27.16813 4.072189 C 27.16813 3.794846 27.25407 3.564377 27.42595 3.380783 C 27.60173 3.193283 27.82634 3.099533 28.09978 3.099533 C 28.32634 3.099533 28.52165 3.16008 28.68571 3.281174 C 28.85368 3.398361 28.97087 3.537033 29.03728 3.697189 C 29.43962 3.216721 29.87126 2.976486 30.3322 2.976486 C 30.5861 2.976486 30.80876 3.068283 31.00017 3.251877 C 31.19548 3.431564 31.29313 3.663986 31.29313 3.949143 C 31.29313 4.242111 31.20134 4.455002 31.01774 4.587814 C 30.83806 4.720627 30.53923 4.84758 30.12126 4.968674 C 29.69548 5.089767 29.40837 5.242111 29.25993 5.425705 C 29.11149 5.605392 29.03728 5.929611 29.03728 6.398361 L 29.03728 8.701096 C 29.03728 8.978439 28.94938 9.212814 28.7736 9.404221 C 28.60173 9.591721 28.37712 9.685471 28.09978 9.685471 C 27.82634 9.685471 27.60173 9.591721 27.42595 9.404221 C 27.25407 9.212814 27.16813 8.978439 27.16813 8.701096 z M 26.30095 4.072189 L 26.30095 7.288986 C 26.30095 7.851486 26.17204 8.320236 25.91423 8.695236 C 25.65642 9.070236 25.30876 9.349533 24.87126 9.533127 C 24.43376 9.716721 23.94157 9.808518 23.3947 9.808518 C 22.84782 9.808518 22.35563 9.716721 21.91813 9.533127 C 21.48454 9.349533 21.13884 9.070236 20.88103 8.695236 C 20.62321 8.320236 20.49431 7.851486 20.49431 7.288986 L 20.49431 4.072189 C 20.49431 3.794846 20.58024 3.564377 20.75212 3.380783 C 20.9279 3.193283 21.15251 3.099533 21.42595 3.099533 C 21.70329 3.099533 21.9279 3.193283 22.09978 3.380783 C 22.27556 3.564377 22.36345 3.794846 22.36345 4.072189 L 22.36345 7.025314 C 22.36345 7.353439 22.46696 7.609299 22.67399 7.792892 C 22.88493 7.976486 23.12517 8.068283 23.3947 8.068283 C 23.66032 8.068283 23.8986 7.976486 24.10954 7.792892 C 24.32048 7.605392 24.42595 7.349533 24.42595 7.025314 L 24.42595 4.072189 C 24.42595 3.798752 24.51384 3.568283 24.68962 3.380783 C 24.8654 3.193283 25.09001 3.099533 25.36345 3.099533 C 25.63688 3.099533 25.86149 3.193283 26.03728 3.380783 C 26.21306 3.564377 26.30095 3.794846 26.30095 4.072189 z M 16.72087 2.976486 C 17.18962 2.976486 17.61735 3.064377 18.00407 3.240158 C 18.3947 3.412033 18.72868 3.654221 19.00603 3.966721 C 19.28728 4.279221 19.50212 4.640549 19.65056 5.050705 C 19.8029 5.456955 19.87907 5.902267 19.87907 6.386642 C 19.87907 7.015549 19.74626 7.593674 19.48063 8.121018 C 19.21892 8.644455 18.84782 9.056564 18.36735 9.357346 C 17.88688 9.658127 17.33806 9.808518 16.72087 9.808518 C 16.25603 9.808518 15.83024 9.72258 15.44352 9.550705 C 15.06071 9.37883 14.72673 9.134689 14.44157 8.818283 C 14.15642 8.497971 13.93962 8.130783 13.79118 7.716721 C 13.64274 7.298752 13.56852 6.855392 13.56852 6.386642 C 13.56852 5.765549 13.70134 5.193283 13.96696 4.669846 C 14.23259 4.142502 14.60368 3.728439 15.08024 3.427658 C 15.56071 3.126877 16.10759 2.976486 16.72087 2.976486 z M 16.72087 4.792892 C 16.32243 4.792892 16.00798 4.945236 15.77751 5.249924 C 15.55095 5.554611 15.43767 5.933517 15.43767 6.386642 C 15.43767 6.675705 15.48845 6.945236 15.59001 7.195236 C 15.69157 7.44133 15.83806 7.636642 16.02946 7.781174 C 16.22478 7.925705 16.45524 7.997971 16.72087 7.997971 C 17.12321 7.997971 17.43767 7.845627 17.66423 7.540939 C 17.89079 7.232346 18.00407 6.84758 18.00407 6.386642 C 18.00407 5.929611 17.89079 5.550705 17.66423 5.249924 C 17.43767 4.945236 17.12321 4.792892 16.72087 4.792892 z M 8.382978 8.501877 C 8.382978 8.236252 8.457197 8.017502 8.605635 7.845627 C 8.757978 7.673752 8.941572 7.587814 9.156416 7.587814 C 9.285322 7.587814 9.408369 7.611252 9.525557 7.658127 C 9.642744 7.701096 9.798994 7.771408 9.994307 7.869064 C 10.19352 7.962814 10.35759 8.031174 10.48649 8.074143 C 10.6154 8.117111 10.77165 8.138596 10.95524 8.138596 C 11.13493 8.138596 11.26774 8.103439 11.35368 8.033127 C 11.43962 7.958908 11.48259 7.867111 11.48259 7.757736 C 11.48259 7.66008 11.45524 7.580002 11.40056 7.517502 C 11.34587 7.455002 11.2736 7.404221 11.18376 7.365158 C 11.09392 7.322189 10.96696 7.269455 10.8029 7.206955 C 10.63884 7.144455 10.38102 7.042892 10.02946 6.902267 C 9.662275 6.746017 9.379072 6.599533 9.179853 6.462814 C 8.980635 6.322189 8.826338 6.144455 8.716963 5.929611 C 8.607588 5.710861 8.5529 5.439377 8.5529 5.115158 C 8.5529 4.747971 8.650557 4.400314 8.845869 4.072189 C 9.045088 3.744064 9.328291 3.480393 9.695478 3.281174 C 10.06657 3.078049 10.4904 2.976486 10.96696 2.976486 C 11.17009 2.976486 11.39665 3.001877 11.64665 3.052658 C 11.89665 3.099533 12.13298 3.179611 12.35563 3.292893 C 12.5822 3.402268 12.76579 3.542893 12.90642 3.714768 C 13.05095 3.886643 13.12321 4.089767 13.12321 4.324142 C 13.12321 4.476486 13.08806 4.615158 13.01774 4.740158 C 12.95134 4.861252 12.85759 4.955002 12.73649 5.021408 C 12.61931 5.083908 12.48845 5.115158 12.34392 5.115158 C 12.26579 5.115158 12.17985 5.09758 12.0861 5.062424 C 11.99626 5.027267 11.86735 4.970627 11.69938 4.892502 C 11.53532 4.814377 11.38493 4.75383 11.24821 4.710861 C 11.11149 4.667892 10.97673 4.646408 10.84392 4.646408 C 10.7072 4.646408 10.59001 4.679611 10.49235 4.746017 C 10.3986 4.812424 10.35173 4.912033 10.35173 5.044846 C 10.35173 5.197189 10.50407 5.337814 10.80876 5.466721 C 11.11345 5.591721 11.46696 5.736252 11.86931 5.900314 C 12.27556 6.064377 12.61149 6.28508 12.87712 6.562424 C 13.14665 6.839767 13.28142 7.212814 13.28142 7.681564 C 13.28142 8.111252 13.17399 8.488205 12.95915 8.812424 C 12.74431 9.132736 12.45134 9.37883 12.08024 9.550705 C 11.71306 9.72258 11.31267 9.808518 10.87907 9.808518 C 10.24235 9.808518 9.666182 9.689377 9.150557 9.451096 C 8.638838 9.208908 8.382978 8.892502 8.382978 8.501877 z "
     transform="matrix(1.254667,0,0,1.254667,-2.134868,4.82031)"
     style="font-size:12;font-weight:900;fill:#333333;stroke-width:1;font-family:VAG Rounded Black SSi;"
     id="path841" />
  <path
     d="M 40.21822 13.00592 L 40.21822 48.6703 C 55.307 59.41533 70.28146 59.18671 82.62682 48.89891 L 82.96975 13.69177 L 40.21822 13.00592 z "
     transform="matrix(0.589897,0,0,0.589897,-7.540127,17.6297)"
     style="font-size:12;fill:#cccccc;fill-rule:evenodd;stroke:#333333;stroke-width:3.178521;stroke-linecap:round;stroke-linejoin:round;"
     id="path585" />
  <ellipse
     cx="26.9918785"
     cy="25.0905037"
     rx="16.9149113"
     ry="6.8379426"
     transform="matrix(0.749453,0,0,0.749453,8.632255,6.767438)"
     style="font-size:12;fill:#7f7f7f;fill-rule:evenodd;stroke:#333333;stroke-width:2.501825;"
     id="path584" />
  <ellipse
     cx="26.9918785"
     cy="25.0905037"
     rx="16.9149113"
     ry="6.8379426"
     transform="matrix(0.562452,0,0,0.398867,13.5084,15.61286)"
     style="font-size:12;fill:#4c4c4c;fill-rule:evenodd;stroke:#333333;stroke-width:2.639084;"
     id="path586" />
  <path
     d="M 77.92857 25.73131 C 98.98401 28.25796 92.80775 42.29493 77.92857 45.10232 "
     transform="matrix(0.589897,0,0,0.589897,-7.540127,17.6297)"
     style="font-size:12;fill:none;fill-opacity:0.75;fill-rule:evenodd;stroke:#333333;stroke-width:3.178521;stroke-linecap:round;stroke-linejoin:round;"
     id="path587" />
</svg>
