<?xml version="1.0" encoding="UTF-8" standalone="no"?>
<!DOCTYPE svg PUBLIC "-//W3C//DTD SVG 1.0//EN"
"http://www.w3.org/TR/2001/REC-SVG-20010904/DTD/svg10.dtd">
<!-- Created with Sodipodi ("http://www.sodipodi.com/") -->
<svg
   xmlns="http://www.w3.org/2000/svg"
   xmlns:xlink="http://www.w3.org/1999/xlink"
   version="1.0"
   x="0"
   y="0"
   width="60"
   height="60"
   id="svg1">
  <defs
     id="defs3">
    <linearGradient
       id="linearGradient900">
      <stop
         style="stop-color:#000000;stop-opacity:1;"
         offset="0"
         id="stop901" />
      <stop
         style="stop-color:#ffffff;stop-opacity:1;"
         offset="1"
         id="stop902" />
    </linearGradient>
    <linearGradient
       id="linearGradient903"
       xlink:href="#linearGradient900" />
    <linearGradient
       id="linearGradient904"
       xlink:href="#linearGradient900" />
    <linearGradient
       id="linearGradient905"
       xlink:href="#linearGradient900" />
    <linearGradient
       id="linearGradient906"
       xlink:href="#linearGradient900" />
    <linearGradient
       id="linearGradient907"
       xlink:href="#linearGradient900" />
  </defs>
  <rect
     width="50.7447319"
     height="50.3848419"
     rx="2"
     x="4.67859221"
     y="5.1165123"
     style="font-size:12;fill:#b3b3b3;fill-rule:evenodd;stroke:#333333;stroke-width:3.125;stroke-linejoin:round;"
     id="rect812" />
  <g
     style="font-size:12;"
     id="g846">
    <g
       transform="matrix(0.721716,0,0,0.721716,8.272542,8.93338)"
       id="g900">
      <path
         d="M 2.029995 37.61261 L 13.35036 37.41458 C 9.297255 40.38505 12.27296 42.76143 17.38921 42.95946 C 22.53803 42.95946 25.799 39.98898 23.41739 37.61261 L 32.13077 37.61261 L 34.3129 24.3445 C 30.721 26.91891 28.93086 23.35434 29.48192 18.79962 C 30.19844 14.44293 33.39166 10.68033 36.07163 13.6508 L 37.92806 2.36301 L 2.084368 2.36301 L 2.029995 37.61261 z "
         transform="matrix(0.879627,5.092431e-2,-9.386e-2,0.882106,4.124551,0.283331)"
         style="fill:#cccccc;fill-rule:evenodd;stroke-width:2.5;stroke-linecap:round;stroke-linejoin:round;"
         id="path833" />
      <path
         d="M -50.35231 31.92844 C -43.51437 33.00812 -40.99513 49.20325 -45.67372 50.28292 C -50.71221 51.72249 -58.26993 44.52466 -58.26993 40.20596 C -58.26993 35.88725 -57.55015 30.48888 -50.35231 31.92844 z "
         transform="matrix(0.419259,5.392037e-2,-7.445515e-2,0.421884,46.52735,-1.55452)"
         style="fill:#4c4c4c;fill-rule:evenodd;stroke-width:1.482386;stroke-linecap:round;stroke-linejoin:round;"
         id="path854" />
      <path
         d="M -67.62712 49.56314 C -64.38809 45.24444 -50.71221 58.56043 -55.75069 62.51924 C -59.7095 65.39838 -63.66831 66.83794 -66.90733 61.79946 C -70.14636 56.76098 -70.86614 52.44227 -67.62712 49.56314 z "
         transform="matrix(0.419259,5.392037e-2,-7.445515e-2,0.421884,46.52735,-1.55452)"
         style="fill:#4c4c4c;fill-rule:evenodd;stroke-width:1.482386;stroke-linecap:round;stroke-linejoin:round;"
         id="path855" />
      <path
         d="M -73.74528 69.71708 C -66.90733 60.35989 -56.47047 76.91491 -59.34961 80.15394 C -64.38809 84.83253 -75.90463 75.47535 -73.74528 69.71708 z "
         transform="matrix(0.419259,5.392037e-2,-7.445515e-2,0.421884,46.52735,-1.55452)"
         style="fill:#4c4c4c;fill-rule:evenodd;stroke-width:1.482386;stroke-linecap:round;stroke-linejoin:round;"
         id="path856" />
      <path
         d="M 29.75 5.875 C 28.5755 5.981536 27.67782 6.930681 27.46875 9 C 27.39233 12.49371 27.15244 16.97343 29.875 17.53125 C 30.95193 13.80054 33.66289 10.99653 36.0625 13.65625 L 36.46875 11.1875 C 36.37136 11.00065 36.35377 10.81563 36.21875 10.625 C 34.46239 7.789455 31.70749 5.69744 29.75 5.875 z "
         transform="matrix(0.879627,5.092431e-2,-9.386e-2,0.882106,4.124551,0.283331)"
         style="fill:#4c4c4c;fill-rule:evenodd;stroke-width:0.713558;stroke-linecap:round;stroke-linejoin:round;"
         id="path870" />
      <path
         d="M 29.46875 20.21875 C 26.86468 20.34374 24.31356 21.17919 22.53125 23.1875 C 20.07447 25.84424 18.96405 29.48322 18.6875 33.03125 C 18.50376 36.20805 18.86829 39.52411 19.875 42.59375 C 23.42418 41.80681 25.35456 39.56903 23.40625 37.625 L 27.1875 37.625 C 27.20035 37.30224 27.1144 36.98388 27.1875 36.65625 C 27.57229 34.63057 29.71314 34.29027 31.34375 33.78125 C 31.91687 33.5243 32.38347 33.04756 32.9375 32.71875 L 34.3125 24.34375 C 31.12065 26.63143 29.43879 24.01104 29.46875 20.21875 z "
         transform="matrix(0.879627,5.092431e-2,-9.386e-2,0.882106,4.124551,0.283331)"
         style="fill:#4c4c4c;fill-rule:evenodd;stroke-width:0.713558;stroke-linecap:round;stroke-linejoin:round;"
         id="path872" />
      <path
         d="M 2.029995 37.61261 L 13.35036 37.41458 C 9.297255 40.38505 12.27296 42.76143 17.38921 42.95946 C 22.53803 42.95946 25.799 39.98898 23.41739 37.61261 L 32.13077 37.61261 L 34.3129 24.3445 C 30.721 26.91891 28.93086 23.35434 29.48192 18.79962 C 30.19844 14.44293 33.39166 10.68033 36.07163 13.6508 L 37.92806 2.36301 L 2.084368 2.36301 L 2.029995 37.61261 z "
         transform="matrix(0.879627,5.092431e-2,-9.386e-2,0.882106,4.124551,0.283331)"
         style="fill:none;fill-rule:evenodd;stroke:#333333;stroke-width:2.5;stroke-linecap:round;stroke-linejoin:round;"
         id="path874" />
    </g>
    <path
       d="M 87.9375 2.375 L 86.0625 13.65625 C 83.38253 10.68578 80.18527 14.45581 79.46875 18.8125 C 78.91769 23.36722 80.7206 26.91816 84.3125 24.34375 L 82.125 37.625 L 73.40625 37.625 C 75.78786 40.00138 72.52382 42.96875 67.375 42.96875 C 62.25875 42.77072 59.29065 40.37672 63.34375 37.40625 L 52.03125 37.625 L 51.96875 56.15625 C 51.96875 57.29485 52.89265 58.1875 54.03125 58.1875 L 105.875 58.1875 C 107.0136 58.1875 107.9375 57.29485 107.9375 56.15625 L 107.9375 4.28125 C 107.9375 3.142649 107.0136 2.25 105.875 2.25 L 87.9375 2.375 z "
       transform="matrix(0.496901,0,0,0.496901,-3.994497,21.70101)"
       style="fill:#b3b3b3;fill-rule:evenodd;stroke-width:2.5;stroke-linecap:round;stroke-linejoin:round;"
       id="path835" />
    <path
       d="M 86.46875 11.1875 L 86.0625 13.65625 C 83.6629 10.99653 80.95125 13.80179 79.875 17.53125 C 79.98995 17.5548 80.03023 17.67873 80.15625 17.6875 C 83.11942 17.89363 88.42437 14.93959 86.46875 11.1875 z "
       transform="matrix(0.496901,0,0,0.496901,-3.994497,21.70101)"
       style="fill:#4c4c4c;fill-rule:evenodd;stroke-width:1.482386;stroke-linecap:round;stroke-linejoin:round;"
       id="path860" />
    <path
       d="M 80.875 20.125 C 80.40351 20.09645 79.93955 20.19615 79.46875 20.21875 C 79.44109 24.00559 81.12465 26.62857 84.3125 24.34375 L 82.9375 32.71875 C 85.39684 31.25917 87.63594 29.29165 88.375 26.5 C 89.08367 23.6583 86.47028 21.1708 83.875 20.65625 C 82.90563 20.37571 81.90145 20.18715 80.875 20.125 z M 91.4375 35.09375 C 90.71775 35.06167 90.0063 35.18266 89.28125 35.5 C 87.71562 36.26773 85.70746 38.00147 86.53125 39.9375 C 86.97679 41.70245 89.76421 41.618 90.0625 43.125 C 87.77799 45.07129 84.28954 46.32915 81.5 44.625 C 79.12669 43.16631 77.07268 40.50905 77.1875 37.625 L 73.40625 37.625 C 75.35839 39.57285 73.43717 41.81063 69.875 42.59375 C 70.79665 45.40401 72.24342 48.02189 74.40625 50.09375 C 77.55528 52.73541 81.62253 54.53187 85.78125 54.46875 C 91.3836 54.37088 95.98752 49.84614 97.625 44.71875 C 98.25021 42.61849 98.83469 39.89984 97.1875 38.125 C 95.65979 36.65461 93.59674 35.19 91.4375 35.09375 z "
       transform="matrix(0.496901,0,0,0.496901,-3.994497,21.70101)"
       style="fill:#4c4c4c;fill-rule:evenodd;stroke-width:1.482386;stroke-linecap:round;stroke-linejoin:round;"
       id="path862" />
    <path
       d="M 87.9375 2.375 L 86.0625 13.65625 C 83.38253 10.68578 80.18527 14.45581 79.46875 18.8125 C 78.91769 23.36722 80.7206 26.91816 84.3125 24.34375 L 82.125 37.625 L 73.40625 37.625 C 75.78786 40.00138 72.52382 42.96875 67.375 42.96875 C 62.25875 42.77072 59.29065 40.37672 63.34375 37.40625 L 52.03125 37.625 L 51.96875 56.15625 C 51.96875 57.29485 52.89265 58.1875 54.03125 58.1875 L 105.875 58.1875 C 107.0136 58.1875 107.9375 57.29485 107.9375 56.15625 L 107.9375 4.28125 C 107.9375 3.142649 107.0136 2.25 105.875 2.25 L 87.9375 2.375 z "
       transform="matrix(0.496901,0,0,0.496901,-3.994497,21.70101)"
       style="fill:none;fill-rule:evenodd;stroke:#333333;stroke-width:2.5;stroke-linecap:round;stroke-linejoin:round;"
       id="path875" />
  </g>
</svg>
