<?xml version="1.0" encoding="UTF-8" standalone="no"?>
<!DOCTYPE svg PUBLIC "-//W3C//DTD SVG 1.0//EN"
"http://www.w3.org/TR/2001/REC-SVG-20010904/DTD/svg10.dtd">
<!-- Created with Sodipodi ("http://www.sodipodi.com/") -->
<svg
   xmlns="http://www.w3.org/2000/svg"
   xmlns:xlink="http://www.w3.org/1999/xlink"
   version="1.0"
   x="0"
   y="0"
   width="60"
   height="60"
   id="svg1">
  <defs
     id="defs3">
    <linearGradient
       id="linearGradient900">
      <stop
         style="stop-color:#000000;stop-opacity:1;"
         offset="0"
         id="stop901" />
      <stop
         style="stop-color:#ffffff;stop-opacity:1;"
         offset="1"
         id="stop902" />
    </linearGradient>
    <linearGradient
       id="linearGradient903"
       xlink:href="#linearGradient900" />
    <linearGradient
       id="linearGradient904"
       xlink:href="#linearGradient900" />
    <linearGradient
       id="linearGradient905"
       xlink:href="#linearGradient900" />
    <linearGradient
       id="linearGradient906"
       xlink:href="#linearGradient900" />
    <linearGradient
       id="linearGradient907"
       xlink:href="#linearGradient900" />
  </defs>
  <rect
     width="50.7447319"
     height="50.3848419"
     rx="2"
     x="4.67859221"
     y="5.1165123"
     style="font-size:12;fill:#b3b3b3;fill-rule:evenodd;stroke:#333333;stroke-width:3.125;"
     id="rect812" />
  <rect
     width="43.7708817"
     height="43.7708817"
     rx="2"
     x="5.34411955"
     y="10.1215525"
     transform="matrix(0.631093,-0.301467,0.301467,0.631093,3.269899,18.41499)"
     style="font-size:12;fill:#cccccc;fill-rule:evenodd;stroke:#4c4c4c;stroke-width:3.574491;stroke-linecap:round;stroke-linejoin:round;"
     id="rect904" />
  <path
     d="M -59.84346 25.16953 L -59.84346 18.49571 C -59.84346 18.15977 -59.75361 17.90196 -59.57393 17.72227 C -59.39424 17.54258 -59.15986 17.45274 -58.8708 17.45274 C -58.57783 17.45274 -58.34346 17.54063 -58.16768 17.71641 C -57.98799 17.89219 -57.89814 18.15196 -57.89814 18.49571 L -57.89814 24.33164 L -55.81221 24.33164 C -55.50752 24.33164 -55.26924 24.41172 -55.09736 24.57188 C -54.92549 24.72813 -54.83955 24.95078 -54.83955 25.23985 C -54.83955 25.5211 -54.92549 25.74375 -55.09736 25.90782 C -55.26924 26.07188 -55.50752 26.15391 -55.81221 26.15391 L -58.8708 26.15391 C -59.13252 26.15391 -59.36103 26.06602 -59.55635 25.89024 C -59.74775 25.71055 -59.84346 25.47032 -59.84346 25.16953 z "
     transform="matrix(1.404405,-0.579447,0.579447,1.404405,87.97038,-35.00544)"
     style="font-size:12;font-weight:900;fill:#666666;stroke:#333333;stroke-width:0.822776;font-family:VAG Rounded Black SSi;"
     id="path846" />
  <path
     d="M 29.50211 37.96496 L 29.50211 33.30039 L 26.94728 29.83758 C 26.40723 29.06609 26.06896 28.56165 25.93247 28.32427 C 25.79597 28.08688 25.72773 27.8317 25.72773 27.55871 C 25.72773 27.16703 25.87609 26.84656 26.17282 26.59731 C 26.47548 26.34806 26.84936 26.22343 27.29445 26.22343 C 27.63865 26.22343 27.92055 26.31542 28.14012 26.49939 C 28.36564 26.68336 28.58225 26.92668 28.78996 27.22934 L 30.97981 30.38059 L 33.16966 27.22934 C 33.38331 26.91481 33.59695 26.66852 33.81059 26.49049 C 34.02424 26.31245 34.3091 26.22343 34.66517 26.22343 C 35.11026 26.22343 35.48117 26.34509 35.7779 26.58841 C 36.08056 26.83172 36.2319 27.15516 36.2319 27.55871 C 36.2319 27.8317 36.16068 28.08985 36.01825 28.33317 C 35.88176 28.57649 35.54645 29.07795 35.01234 29.83758 L 32.45752 33.30039 L 32.45752 37.96496 C 32.45752 38.48126 32.32102 38.87591 32.04803 39.1489 C 31.78098 39.41595 31.4249 39.54948 30.97981 39.54948 C 30.54659 39.54948 30.19051 39.41299 29.91159 39.14 C 29.6386 38.86107 29.50211 38.46939 29.50211 37.96496 z "
     style="font-size:12;font-weight:900;fill:#cccccc;stroke:#333333;stroke-width:1.25;font-family:VAG Rounded Black SSi;"
     id="path845" />
  <path
     d="M -41.62395 68.73904 L -40.5341 67.21561 C -40.40129 67.01639 -40.28606 66.85428 -40.1884 66.72928 C -40.08684 66.60428 -39.9716 66.50467 -39.8427 66.43045 C -39.70988 66.35232 -39.5634 66.31326 -39.40324 66.31326 C -39.08293 66.31326 -38.83293 66.40506 -38.65324 66.58865 C -38.47356 66.76834 -38.38371 66.98123 -38.38371 67.22732 C -38.38371 67.48123 -38.50481 67.76834 -38.74699 68.08865 L -40.45207 70.36795 L -38.37199 73.18045 C -38.21184 73.39529 -38.10246 73.56131 -38.04387 73.6785 C -37.98528 73.79569 -37.95598 73.94412 -37.95598 74.12381 C -37.95598 74.40506 -38.04582 74.63553 -38.22551 74.81522 C -38.4052 74.9949 -38.62981 75.08475 -38.89934 75.08475 C -39.08293 75.08475 -39.24699 75.04373 -39.39153 74.9617 C -39.53606 74.87967 -39.6884 74.72928 -39.84856 74.51053 L -41.62395 72.06131 L -43.39934 74.51053 C -43.55949 74.72537 -43.71184 74.87576 -43.85637 74.9617 C -43.99699 75.04373 -44.16106 75.08475 -44.34856 75.08475 C -44.61809 75.08475 -44.84465 74.9949 -45.02824 74.81522 C -45.20793 74.63162 -45.29778 74.40115 -45.29778 74.12381 C -45.29778 73.95194 -45.27043 73.80936 -45.21574 73.69607 C -45.16106 73.57889 -45.04778 73.40701 -44.8759 73.18045 L -42.80168 70.36795 L -44.50676 68.08865 C -44.74504 67.77225 -44.86418 67.48514 -44.86418 67.22732 C -44.86418 66.98123 -44.77434 66.76834 -44.59465 66.58865 C -44.41496 66.40506 -44.16496 66.31326 -43.84465 66.31326 C -43.60637 66.31326 -43.41301 66.38553 -43.26457 66.53006 C -43.11223 66.67069 -42.93059 66.8992 -42.71965 67.21561 L -41.62395 68.73904 z "
     transform="matrix(1.519247,0,-0.291115,1.519247,125.2454,-78.7604)"
     style="font-size:12;font-weight:900;fill:#999999;stroke:#333333;stroke-width:0.822776;font-family:VAG Rounded Black SSi;"
     id="path844" />
</svg>
