<?xml version="1.0" encoding="UTF-8" standalone="no"?>
<!DOCTYPE svg PUBLIC "-//W3C//DTD SVG 1.0//EN"
"http://www.w3.org/TR/2001/REC-SVG-20010904/DTD/svg10.dtd">
<!-- Created with Sodipodi ("http://www.sodipodi.com/") -->
<svg
   xmlns="http://www.w3.org/2000/svg"
   xmlns:xlink="http://www.w3.org/1999/xlink"
   version="1.0"
   x="0"
   y="0"
   width="60"
   height="60"
   id="svg1">
  <defs
     id="defs3">
    <linearGradient
       id="linearGradient900">
      <stop
         style="stop-color:#000000;stop-opacity:1;"
         offset="0"
         id="stop901" />
      <stop
         style="stop-color:#ffffff;stop-opacity:1;"
         offset="1"
         id="stop902" />
    </linearGradient>
    <linearGradient
       id="linearGradient903"
       xlink:href="#linearGradient900" />
    <linearGradient
       id="linearGradient904"
       xlink:href="#linearGradient900" />
    <linearGradient
       id="linearGradient905"
       xlink:href="#linearGradient900" />
    <linearGradient
       id="linearGradient906"
       xlink:href="#linearGradient900" />
    <linearGradient
       id="linearGradient907"
       xlink:href="#linearGradient900" />
  </defs>
  <rect
     width="50.7447319"
     height="50.3848419"
     rx="2"
     x="4.67859221"
     y="5.1165123"
     style="font-size:12;fill:#b3b3b3;fill-rule:evenodd;stroke:#333333;stroke-width:3.125;stroke-linejoin:round;"
     id="rect812" />
  <path
     d="M 43.49359 25.69234 L 46.06066 22.10396 C 46.37349 21.63471 46.64492 21.25287 46.87494 20.95844 C 47.11417 20.66401 47.3856 20.42939 47.68923 20.25457 C 48.00206 20.07055 48.3471 19.97854 48.72434 19.97854 C 49.47882 19.97854 50.06768 20.19476 50.49093 20.62721 C 50.91417 21.05045 51.12579 21.55191 51.12579 22.13157 C 51.12579 22.72963 50.84056 23.4059 50.2701 24.16038 L 46.25388 29.52915 L 51.1534 36.15385 C 51.53064 36.65991 51.78826 37.05095 51.92628 37.32698 C 52.06429 37.60301 52.1333 37.95264 52.1333 38.37589 C 52.1333 39.03836 51.92168 39.58122 51.49843 40.00446 C 51.07519 40.42771 50.54613 40.63933 49.91127 40.63933 C 49.47882 40.63933 49.09238 40.54272 48.75194 40.3495 C 48.41151 40.15628 48.05267 39.80204 47.67543 39.28679 L 43.49359 33.51777 L 39.31174 39.28679 C 38.9345 39.79284 38.57566 40.14708 38.23523 40.3495 C 37.90399 40.54272 37.51755 40.63933 37.0759 40.63933 C 36.44104 40.63933 35.90738 40.42771 35.47494 40.00446 C 35.05169 39.57201 34.84007 39.02916 34.84007 38.37589 C 34.84007 37.97104 34.90447 37.63521 35.03329 37.36838 C 35.1621 37.09235 35.42893 36.68751 35.83378 36.15385 L 40.71949 29.52915 L 36.70327 24.16038 C 36.14201 23.4151 35.86138 22.73883 35.86138 22.13157 C 35.86138 21.55191 36.073 21.05045 36.49625 20.62721 C 36.91949 20.19476 37.50835 19.97854 38.26283 19.97854 C 38.82409 19.97854 39.27954 20.14876 39.62918 20.48919 C 39.98801 20.82043 40.41586 21.35869 40.91271 22.10396 L 43.49359 25.69234 z M 22.8604 38.15507 L 22.8604 22.4628 C 22.8604 21.75433 23.08582 21.19307 23.53667 20.77902 C 23.99672 20.35578 24.53498 20.14416 25.15144 20.14416 L 32.16258 20.14416 C 32.88946 20.14416 33.45072 20.33738 33.84636 20.72382 C 34.25121 21.11026 34.45363 21.63471 34.45363 22.29718 C 34.45363 22.95965 34.25121 23.47951 33.84636 23.85675 C 33.44152 24.23399 32.88026 24.42261 32.16258 24.42261 L 27.44249 24.42261 L 27.44249 28.1214 L 31.76234 28.1214 C 32.48002 28.1214 33.04128 28.31002 33.44612 28.68726 C 33.85096 29.0645 34.05338 29.58436 34.05338 30.24683 C 34.05338 30.9185 33.85096 31.44296 33.44612 31.82019 C 33.04128 32.19743 32.48002 32.38605 31.76234 32.38605 L 27.44249 32.38605 L 27.44249 36.18145 L 32.3282 36.18145 C 33.04588 36.18145 33.60714 36.37007 34.01198 36.74732 C 34.41682 37.11536 34.61925 37.63981 34.61925 38.32068 C 34.61925 38.98315 34.41682 39.50761 34.01198 39.89405 C 33.60714 40.28049 33.04588 40.47371 32.3282 40.47371 L 25.15144 40.47371 C 24.53498 40.47371 23.99672 40.26669 23.53667 39.85264 C 23.08582 39.4294 22.8604 38.86354 22.8604 38.15507 z M 12.90954 38.18267 L 12.90954 24.42261 L 10.34247 24.42261 C 9.606395 24.42261 9.026732 24.22939 8.603489 23.84295 C 8.180243 23.45651 7.96862 22.94125 7.96862 22.29718 C 7.96862 21.61631 8.175643 21.08726 8.589686 20.71002 C 9.003732 20.33278 9.587991 20.14416 10.34247 20.14416 L 20.0587 20.14416 C 20.83158 20.14416 21.42045 20.33278 21.82529 20.71002 C 22.23013 21.08726 22.43255 21.61631 22.43255 22.29718 C 22.43255 22.94125 22.22553 23.45651 21.81149 23.84295 C 21.39744 24.22939 20.81318 24.42261 20.0587 24.42261 L 17.49163 24.42261 L 17.49163 38.18267 C 17.49163 38.98315 17.28001 39.59502 16.85676 40.01826 C 16.44272 40.43231 15.89066 40.63933 15.20059 40.63933 C 14.52892 40.63933 13.97686 40.42771 13.54441 40.00446 C 13.12117 39.57201 12.90954 38.96475 12.90954 38.18267 z "
     style="font-size:12;font-weight:900;fill:#333333;stroke-width:1;font-family:VAG Rounded Black SSi;"
     id="path837" />
</svg>
