<?xml version="1.0" encoding="UTF-8" standalone="no"?>
<!DOCTYPE svg PUBLIC "-//W3C//DTD SVG 1.0//EN"
"http://www.w3.org/TR/2001/REC-SVG-20010904/DTD/svg10.dtd">
<!-- Created with Sodipodi ("http://www.sodipodi.com/") -->
<svg
   xmlns="http://www.w3.org/2000/svg"
   xmlns:xlink="http://www.w3.org/1999/xlink"
   version="1.0"
   x="0"
   y="0"
   width="60"
   height="60"
   id="svg1">
  <defs
     id="defs3" />
  <path
     d="M 30.09375 2.9375 C 15.0031 2.9375 2.749998 15.1906 2.75 30.28125 C 2.75 45.3719 15.0031 57.625 30.09375 57.625 C 45.1844 57.625 57.43751 45.3719 57.4375 30.28125 C 57.4375 15.1906 45.1844 2.9375 30.09375 2.9375 z M 30.09375 8.90625 C 31.41975 8.90625 32.52881 9.372556 33.46875 10.3125 C 34.4087 11.25244 34.875 12.37597 34.875 13.71875 C 34.875 15.11188 34.4087 16.29559 33.46875 17.21875 C 32.52881 18.14191 31.41975 18.59375 30.09375 18.59375 C 28.78455 18.59375 27.6587 18.12744 26.71875 17.1875 C 25.77881 16.24756 25.28125 15.07831 25.28125 13.71875 C 25.28125 12.40954 25.77881 11.30048 26.71875 10.34375 C 27.6587 9.387022 28.78455 8.90625 30.09375 8.90625 z M 30.09375 23.375 C 31.28547 23.375 32.23022 23.78808 32.96875 24.59375 C 33.72405 25.38263 34.09375 26.37079 34.09375 27.5625 L 34.09375 47.46875 C 34.09375 48.66047 33.72405 49.6463 32.96875 50.46875 C 32.23022 51.27442 31.28547 51.6875 30.09375 51.6875 C 28.91883 51.6875 27.9428 51.27442 27.1875 50.46875 C 26.44897 49.6463 26.0625 48.66046 26.0625 47.46875 L 26.0625 27.5625 C 26.0625 26.37079 26.44897 25.38263 27.1875 24.59375 C 27.9428 23.78808 28.91883 23.375 30.09375 23.375 z "
     style="font-size:12;fill:#b3b3b3;fill-rule:evenodd;stroke:#333333;stroke-width:3.125;"
     id="path838" />
</svg>
