<?xml version="1.0" encoding="UTF-8" standalone="no"?>
<!DOCTYPE svg PUBLIC "-//W3C//DTD SVG 1.0//EN"
"http://www.w3.org/TR/2001/REC-SVG-20010904/DTD/svg10.dtd">
<!-- Created with Sodipodi ("http://www.sodipodi.com/") -->
<svg
   xmlns="http://www.w3.org/2000/svg"
   xmlns:xlink="http://www.w3.org/1999/xlink"
   version="1.0"
   x="0"
   y="0"
   width="60"
   height="60"
   id="svg1">
  <defs
     id="defs3">
    <linearGradient
       id="linearGradient900">
      <stop
         style="stop-color:#000000;stop-opacity:1;"
         offset="0"
         id="stop901" />
      <stop
         style="stop-color:#ffffff;stop-opacity:1;"
         offset="1"
         id="stop902" />
    </linearGradient>
    <linearGradient
       id="linearGradient903"
       xlink:href="#linearGradient900" />
    <linearGradient
       id="linearGradient904"
       xlink:href="#linearGradient900" />
    <linearGradient
       id="linearGradient905"
       xlink:href="#linearGradient900" />
    <linearGradient
       id="linearGradient906"
       xlink:href="#linearGradient900" />
    <linearGradient
       id="linearGradient907"
       xlink:href="#linearGradient900" />
  </defs>
  <path
     d="M 8.232319 8.486678 C 7.706071 8.486678 7.263569 8.92918 7.263569 9.455428 L 7.263569 14.33043 C 7.262418 14.35541 7.232319 14.36765 7.232319 14.39293 L 7.232319 51.39293 C 7.232319 52.27672 7.942275 52.98668 8.826069 52.98668 L 46.10732 52.98668 C 46.99111 52.98668 47.70107 52.27672 47.70107 51.39293 L 47.70107 14.39293 C 47.70107 13.50913 46.99111 12.79918 46.10732 12.79918 L 31.38857 12.79918 L 31.38857 9.455428 C 31.38857 8.92918 30.94607 8.486678 30.41982 8.486678 L 8.232319 8.486678 z "
     transform="translate(-0.254482,0)"
     style="font-size:12;fill:#b3b3b3;fill-rule:evenodd;stroke:#333333;stroke-width:3.125;stroke-linejoin:round;"
     id="path938" />
  <rect
     width="40.4764328"
     height="33.450367"
     rx="1.59529591"
     x="25.032259"
     y="23.3980198"
     transform="matrix(1,0,-0.169015,0.933087,-8.023231,0)"
     style="font-size:12;fill:#7f7f7f;fill-rule:evenodd;stroke:#333333;stroke-width:3.23511;stroke-linejoin:round;"
     id="rect922" />
  <path
     d="M 19.47004 44.83487 L 20.6797 47.11119 L 25.2046 44.73139 L 27.47288 45.97304 L 26.6785 50.05119 L 29.69075 50.02363 L 32.28906 45.83924 L 35.55148 44.73139 L 38.10622 47.00773 L 40.72492 44.73139 L 38.32675 40.96367 C 24.12239 50.34935 21.40044 35.88372 32.75071 29.8319 L 33.67011 27.65904 L 32.41653 28.17639 L 30.0718 26.13731 L 27.08616 27.95688 L 27.64484 31.38392 L 25.3246 34.17757 L 21.12936 34.8287 L 19.86044 37.79898 L 23.45792 38.83367 L 23.42094 41.54974 L 19.47004 44.83487 z "
     transform="matrix(1,0,0.204306,1,-8.277713,-0.254482)"
     style="font-size:12;fill:#333333;fill-rule:evenodd;stroke:#333333;stroke-width:1.25;stroke-linecap:round;stroke-linejoin:round;"
     id="path705" />
</svg>
