<?xml version="1.0" encoding="UTF-8" standalone="no"?>
<!DOCTYPE svg PUBLIC "-//W3C//DTD SVG 1.0//EN"
"http://www.w3.org/TR/2001/REC-SVG-20010904/DTD/svg10.dtd">
<!-- Created with Sodipodi ("http://www.sodipodi.com/") -->
<svg
   xmlns="http://www.w3.org/2000/svg"
   xmlns:xlink="http://www.w3.org/1999/xlink"
   version="1.0"
   x="0"
   y="0"
   width="60"
   height="60"
   id="svg1">
  <defs
     id="defs3">
    <linearGradient
       id="linearGradient900">
      <stop
         style="stop-color:#000000;stop-opacity:1;"
         offset="0"
         id="stop901" />
      <stop
         style="stop-color:#ffffff;stop-opacity:1;"
         offset="1"
         id="stop902" />
    </linearGradient>
    <linearGradient
       id="linearGradient903"
       xlink:href="#linearGradient900" />
    <linearGradient
       id="linearGradient904"
       xlink:href="#linearGradient900" />
    <linearGradient
       id="linearGradient905"
       xlink:href="#linearGradient900" />
    <linearGradient
       id="linearGradient906"
       xlink:href="#linearGradient900" />
    <linearGradient
       id="linearGradient907"
       xlink:href="#linearGradient900" />
  </defs>
  <rect
     width="50.7447319"
     height="50.3848419"
     rx="2"
     x="4.67859221"
     y="5.1165123"
     style="font-size:12;fill:#b3b3b3;fill-rule:evenodd;stroke:#333333;stroke-width:3.125;stroke-linejoin:round;"
     id="rect812" />
  <path
     d="M 22.32437 28.2566 L 22.32437 22.4148 L 21.23453 22.4148 C 20.92203 22.4148 20.67594 22.33277 20.49625 22.16871 C 20.31656 22.00465 20.22672 21.7859 20.22672 21.51246 C 20.22672 21.2234 20.31461 20.99879 20.49039 20.83863 C 20.66617 20.67848 20.91422 20.5984 21.23453 20.5984 L 25.35953 20.5984 C 25.68766 20.5984 25.93766 20.67848 26.10953 20.83863 C 26.28141 20.99879 26.36734 21.2234 26.36734 21.51246 C 26.36734 21.7859 26.27945 22.00465 26.10367 22.16871 C 25.92789 22.33277 25.67984 22.4148 25.35953 22.4148 L 24.26969 22.4148 L 24.26969 28.2566 C 24.26969 28.59644 24.17984 28.85621 24.00016 29.0359 C 23.82437 29.21168 23.59 29.29957 23.29703 29.29957 C 23.01187 29.29957 22.7775 29.20973 22.59391 29.03004 C 22.41422 28.84644 22.32437 28.58863 22.32437 28.2566 z "
     transform="matrix(1.867835,0,0,1.867835,-15.93394,-8.364822)"
     style="font-size:12;font-weight:900;fill:#7f7f7f;stroke:#333333;stroke-width:0.669224;font-family:VAG Rounded Black SSi;"
     id="path844" />
  <path
     d="M 8.189922 14.09907 L 8.189922 8.257278 L 7.100078 8.257278 C 6.787578 8.257278 6.541484 8.175247 6.361797 8.011185 C 6.182109 7.847122 6.092266 7.628372 6.092266 7.354935 C 6.092266 7.065872 6.180156 6.841263 6.355938 6.681107 C 6.531719 6.52095 6.779766 6.440872 7.100078 6.440872 L 11.22508 6.440872 C 11.5532 6.440872 11.8032 6.52095 11.97508 6.681107 C 12.14695 6.841263 12.23289 7.065872 12.23289 7.354935 C 12.23289 7.628372 12.145 7.847122 11.96922 8.011185 C 11.79344 8.175247 11.54539 8.257278 11.22508 8.257278 L 10.13523 8.257278 L 10.13523 14.09907 C 10.13523 14.43892 10.04539 14.69868 9.865703 14.87837 C 9.689922 15.05415 9.455547 15.14204 9.162578 15.14204 C 8.877422 15.14204 8.643047 15.0522 8.459453 14.87251 C 8.279766 14.68892 8.189922 14.43111 8.189922 14.09907 z "
     transform="matrix(1.867835,0,0,1.867835,16.45072,23.52309)"
     style="font-size:12;font-weight:900;fill:#4c4c4c;stroke:#333333;stroke-width:0.669224;font-family:VAG Rounded Black SSi;"
     id="path845" />
  <path
     d="M 34.99278 11.94012 L 34.99278 8.149106 L 34.77598 8.149106 C 34.46739 8.149106 34.22715 8.07684 34.05528 7.932309 C 33.8795 7.787778 33.7916 7.569028 33.7916 7.276059 C 33.7916 6.979184 33.8795 6.760434 34.05528 6.619809 C 34.22715 6.479184 34.46739 6.408872 34.77598 6.408872 L 34.99278 6.408872 L 34.99278 5.172543 C 34.99278 4.891293 35.07871 4.656918 35.25059 4.469418 C 35.42246 4.281918 35.64707 4.188168 35.92442 4.188168 C 36.20567 4.188168 36.43223 4.281918 36.6041 4.469418 C 36.77598 4.656918 36.86192 4.891293 36.86192 5.172543 L 36.86192 6.408872 L 37.37754 6.408872 C 37.69395 6.408872 37.93614 6.479184 38.1041 6.619809 C 38.27598 6.760434 38.36192 6.979184 38.36192 7.276059 C 38.36192 7.569028 38.27598 7.787778 38.1041 7.932309 C 37.93614 8.07684 37.69395 8.149106 37.37754 8.149106 L 36.86192 8.149106 L 36.86192 11.94012 C 36.86192 12.21747 36.77403 12.45184 36.59825 12.64325 C 36.42637 12.83075 36.20176 12.9245 35.92442 12.9245 C 35.65098 12.9245 35.42637 12.83075 35.25059 12.64325 C 35.07871 12.45184 34.99278 12.21747 34.99278 11.94012 z M 27.83848 11.94012 L 27.83848 7.311215 C 27.83848 7.033872 27.92442 6.803403 28.09629 6.619809 C 28.27207 6.432309 28.49668 6.338559 28.77012 6.338559 C 28.99668 6.338559 29.192 6.399106 29.35606 6.5202 C 29.52403 6.637387 29.64121 6.776059 29.70762 6.936215 C 30.01231 6.455747 30.54942 6.215512 31.31895 6.215512 C 31.76036 6.215512 32.15684 6.29559 32.5084 6.455747 C 32.86387 6.615903 33.14121 6.861997 33.34043 7.194028 C 33.54356 7.522153 33.64512 7.936215 33.64512 8.436215 L 33.64512 11.94012 C 33.64512 12.22137 33.55723 12.45575 33.38145 12.64325 C 33.20567 12.83075 32.98106 12.9245 32.70762 12.9245 C 32.43418 12.9245 32.20957 12.82879 32.03379 12.63739 C 31.85801 12.44598 31.77012 12.21356 31.77012 11.94012 L 31.77012 8.95184 C 31.77012 8.611997 31.67832 8.338559 31.49473 8.131528 C 31.31504 7.92059 31.06309 7.815122 30.73887 7.815122 C 30.41856 7.815122 30.16661 7.92059 29.98301 8.131528 C 29.79942 8.342465 29.70762 8.615903 29.70762 8.95184 L 29.70762 11.94012 C 29.70762 12.21747 29.61973 12.45184 29.44395 12.64325 C 29.27207 12.83075 29.04746 12.9245 28.77012 12.9245 C 28.49668 12.9245 28.27207 12.83075 28.09629 12.64325 C 27.92442 12.45184 27.83848 12.21747 27.83848 11.94012 z M 24.06504 6.215512 C 24.53379 6.215512 24.96153 6.303403 25.34825 6.479184 C 25.73887 6.651059 26.07286 6.893247 26.3502 7.205747 C 26.63145 7.518247 26.84629 7.879575 26.99473 8.289731 C 27.14707 8.695981 27.22325 9.141293 27.22325 9.625668 C 27.22325 10.25458 27.09043 10.8327 26.82481 11.36004 C 26.56309 11.88348 26.192 12.29559 25.71153 12.59637 C 25.23106 12.89715 24.68223 13.04754 24.06504 13.04754 C 23.6002 13.04754 23.17442 12.96161 22.7877 12.78973 C 22.40489 12.61786 22.0709 12.37372 21.78575 12.05731 C 21.50059 11.737 21.28379 11.36981 21.13536 10.95575 C 20.98692 10.53778 20.9127 10.09442 20.9127 9.625668 C 20.9127 9.004575 21.04551 8.432309 21.31114 7.908872 C 21.57676 7.381528 21.94786 6.967465 22.42442 6.666684 C 22.90489 6.365903 23.45176 6.215512 24.06504 6.215512 z M 24.06504 8.031918 C 23.66661 8.031918 23.35215 8.184262 23.12168 8.48895 C 22.89512 8.793637 22.78184 9.172543 22.78184 9.625668 C 22.78184 9.914731 22.83262 10.18426 22.93418 10.43426 C 23.03575 10.68036 23.18223 10.87567 23.37364 11.0202 C 23.56895 11.16473 23.79942 11.237 24.06504 11.237 C 24.46739 11.237 24.78184 11.08465 25.0084 10.77997 C 25.23496 10.47137 25.34825 10.08661 25.34825 9.625668 C 25.34825 9.168637 25.23496 8.789731 25.0084 8.48895 C 24.78184 8.184262 24.46739 8.031918 24.06504 8.031918 z M 17.64903 11.94012 L 17.64903 8.149106 L 17.43223 8.149106 C 17.12364 8.149106 16.8834 8.07684 16.71153 7.932309 C 16.53575 7.787778 16.44786 7.569028 16.44786 7.276059 C 16.44786 6.979184 16.53575 6.760434 16.71153 6.619809 C 16.8834 6.479184 17.12364 6.408872 17.43223 6.408872 L 17.64903 6.408872 L 17.64903 5.559262 C 17.64903 5.281918 17.6959 5.016293 17.78965 4.762387 C 17.8834 4.508481 18.01621 4.289731 18.18809 4.106137 C 18.36387 3.918637 18.56895 3.774106 18.80332 3.672544 C 19.0377 3.570981 19.29942 3.5202 19.58848 3.5202 C 19.94786 3.5202 20.24473 3.584653 20.47911 3.713559 C 20.71739 3.838559 20.83653 4.065122 20.83653 4.393247 C 20.83653 4.979184 20.54161 5.272153 19.95176 5.272153 C 19.79942 5.272153 19.68809 5.315122 19.61778 5.401059 C 19.55137 5.486997 19.51817 5.647153 19.51817 5.881528 L 19.51817 6.408872 L 20.03379 6.408872 C 20.3502 6.408872 20.59239 6.479184 20.76036 6.619809 C 20.93223 6.760434 21.01817 6.979184 21.01817 7.276059 C 21.01817 7.569028 20.93223 7.787778 20.76036 7.932309 C 20.59239 8.07684 20.3502 8.149106 20.03379 8.149106 L 19.51817 8.149106 L 19.51817 11.94012 C 19.51817 12.21747 19.43028 12.45184 19.2545 12.64325 C 19.08262 12.83075 18.85801 12.9245 18.58067 12.9245 C 18.30723 12.9245 18.08262 12.83075 17.90684 12.64325 C 17.73496 12.45184 17.64903 12.21747 17.64903 11.94012 z "
     transform="matrix(2.067486,0,0,2.067486,-26.73511,0.560937)"
     style="font-size:12;font-weight:900;fill:#333333;stroke-width:1;font-family:VAG Rounded Black SSi;"
     id="path843" />
</svg>
