<?xml version="1.0" encoding="UTF-8" standalone="no"?>
<!DOCTYPE svg PUBLIC "-//W3C//DTD SVG 1.0//EN"
"http://www.w3.org/TR/2001/REC-SVG-20010904/DTD/svg10.dtd">
<!-- Created with Sodipodi ("http://www.sodipodi.com/") -->
<svg
   xmlns="http://www.w3.org/2000/svg"
   xmlns:xlink="http://www.w3.org/1999/xlink"
   version="1.0"
   x="0"
   y="0"
   width="60"
   height="60"
   id="svg1">
  <defs
     id="defs3">
    <linearGradient
       id="linearGradient900">
      <stop
         style="stop-color:#000000;stop-opacity:1;"
         offset="0"
         id="stop901" />
      <stop
         style="stop-color:#ffffff;stop-opacity:1;"
         offset="1"
         id="stop902" />
    </linearGradient>
    <linearGradient
       id="linearGradient903"
       xlink:href="#linearGradient900" />
    <linearGradient
       id="linearGradient904"
       xlink:href="#linearGradient900" />
    <linearGradient
       id="linearGradient905"
       xlink:href="#linearGradient900" />
    <linearGradient
       id="linearGradient906"
       xlink:href="#linearGradient900" />
    <linearGradient
       id="linearGradient907"
       xlink:href="#linearGradient900" />
  </defs>
  <rect
     width="50.7447319"
     height="50.3848419"
     rx="2"
     x="4.67859221"
     y="5.1165123"
     style="font-size:12;fill:#b3b3b3;fill-rule:evenodd;stroke:#333333;stroke-width:3.125;stroke-linejoin:round;"
     id="rect812" />
  <path
     d="M 21.1464 39.36342 L 31.88922 39.36342 "
     style="font-size:12;fill:none;fill-opacity:0.75;fill-rule:evenodd;stroke:#333333;stroke-width:1.875;stroke-linecap:round;stroke-linejoin:round;"
     id="path750" />
  <path
     d="M 21.1464 47.19811 L 31.88922 47.19811 "
     style="font-size:12;fill:none;fill-opacity:0.75;fill-rule:evenodd;stroke:#333333;stroke-width:1.875;stroke-linecap:round;stroke-linejoin:round;"
     id="path751" />
  <path
     d="M 28.98109 35.38459 L 39.72391 35.38459 "
     style="font-size:12;fill:none;fill-opacity:0.75;fill-rule:evenodd;stroke:#333333;stroke-width:1.875;stroke-linecap:round;stroke-linejoin:round;"
     id="path758" />
  <path
     d="M 28.98109 43.21928 L 39.72391 43.21928 "
     style="font-size:12;fill:none;fill-opacity:0.75;fill-rule:evenodd;stroke:#333333;stroke-width:1.875;stroke-linecap:round;stroke-linejoin:round;"
     id="path759" />
  <path
     d="M 28.98109 51.05397 L 39.72391 51.05397 "
     style="font-size:12;fill:none;fill-opacity:0.75;fill-rule:evenodd;stroke:#333333;stroke-width:1.875;stroke-linecap:round;stroke-linejoin:round;"
     id="path760" />
  <path
     d="M 43.73122 10.9979 C 48.85636 7.456943 52.01646 10.95272 49.83915 16.26218 C 42.57028 29.62437 31.35234 33.93694 30.06761 31.95483 C 27.8782 31.07441 30.52438 19.73636 43.73122 10.9979 z "
     style="font-size:12;fill:#7f7f7f;fill-rule:evenodd;stroke:#333333;stroke-width:1.875;stroke-linecap:round;stroke-linejoin:round;"
     id="path767" />
  <rect
     width="8.92165279"
     height="10.1112061"
     rx="3.30531001"
     x="26.4477272"
     y="28.9978733"
     style="font-size:12;fill:#595959;fill-rule:evenodd;stroke:#333333;stroke-width:2.257873;stroke-linecap:round;stroke-linejoin:round;"
     id="rect768" />
  <path
     d="M 20.62917 14.91846 L 20.62917 8.244634 C 20.62917 7.943852 20.72487 7.705571 20.91628 7.52979 C 21.11159 7.350102 21.3401 7.260259 21.60182 7.260259 L 23.93971 7.260259 C 24.37721 7.260259 24.76979 7.322759 25.11745 7.447759 C 25.4651 7.572759 25.76589 7.756352 26.01979 7.99854 C 26.2737 8.236821 26.46706 8.520024 26.59987 8.848149 C 26.73268 9.176274 26.79909 9.539556 26.79909 9.937993 C 26.79909 10.2544 26.75221 10.54932 26.65846 10.82276 C 26.56862 11.09229 26.43581 11.33252 26.26003 11.54346 C 26.08815 11.75049 25.87917 11.92432 25.63307 12.06495 C 25.38698 12.20557 25.11159 12.30518 24.8069 12.36377 L 26.4944 14.20948 C 26.76784 14.50635 26.90456 14.7876 26.90456 15.05323 C 26.90456 15.24463 26.81862 15.44385 26.64674 15.65088 C 26.47878 15.85792 26.23268 15.96143 25.90846 15.96143 C 25.6819 15.96143 25.50417 15.92432 25.37526 15.8501 C 25.25026 15.77588 25.1194 15.65284 24.98268 15.48096 L 22.59792 12.43409 L 22.57448 12.43409 L 22.57448 14.91846 C 22.57448 15.25831 22.48464 15.51807 22.30495 15.69776 C 22.12917 15.87354 21.89479 15.96143 21.60182 15.96143 C 21.31667 15.96143 21.08229 15.87159 20.8987 15.6919 C 20.71901 15.50831 20.62917 15.25049 20.62917 14.91846 z M 22.57448 9.076665 L 22.57448 10.98096 L 23.85768 10.98096 C 24.16628 10.98096 24.40846 10.89112 24.58424 10.71143 C 24.76393 10.52784 24.85378 10.29346 24.85378 10.00831 C 24.85378 9.727056 24.76003 9.502446 24.57253 9.334477 C 24.38503 9.162602 24.14674 9.076665 23.85768 9.076665 L 22.57448 9.076665 z M 12.87721 13.94581 L 14.75221 8.848149 C 14.92018 8.398931 15.05885 8.066899 15.16823 7.852055 C 15.2776 7.633305 15.42799 7.449712 15.6194 7.301274 C 15.81081 7.14893 16.06081 7.072759 16.3694 7.072759 C 16.68581 7.072759 16.94167 7.14893 17.13698 7.301274 C 17.3362 7.453618 17.49245 7.645024 17.60573 7.875493 C 17.72292 8.102056 17.85964 8.426274 18.01589 8.848149 L 19.88503 13.94581 C 20.00221 14.2544 20.07839 14.49268 20.11354 14.66065 C 20.1526 14.82471 20.17214 14.99073 20.17214 15.1587 C 20.17214 15.40088 20.0862 15.5962 19.91432 15.74463 C 19.74635 15.88917 19.52174 15.96143 19.24049 15.96143 C 19.04518 15.96143 18.88112 15.92237 18.74831 15.84424 C 18.61549 15.76612 18.50807 15.65674 18.42604 15.51612 C 18.34792 15.37549 18.2776 15.20362 18.2151 15.00049 L 17.98073 14.23292 L 14.78737 14.23292 L 14.54714 15.00049 C 14.44557 15.3169 14.32253 15.55713 14.17799 15.7212 C 14.03737 15.88135 13.82057 15.96143 13.5276 15.96143 C 13.25026 15.96143 13.0237 15.88917 12.84792 15.74463 C 12.67604 15.5962 12.5901 15.40088 12.5901 15.1587 C 12.5901 15.01417 12.60573 14.86377 12.63698 14.70752 C 12.67214 14.54737 12.75221 14.29346 12.87721 13.94581 z M 17.40065 12.41065 L 16.42799 9.252446 L 16.40456 9.252446 L 15.36159 12.41065 L 17.40065 12.41065 z M 8.845963 14.91846 L 8.845963 9.076665 L 7.75612 9.076665 C 7.44362 9.076665 7.197526 8.994634 7.017838 8.830571 C 6.838151 8.666509 6.748307 8.447759 6.748307 8.174321 C 6.748307 7.885259 6.836198 7.660649 7.011979 7.500493 C 7.18776 7.340337 7.435807 7.260259 7.75612 7.260259 L 11.88112 7.260259 C 12.20924 7.260259 12.45924 7.340337 12.63112 7.500493 C 12.80299 7.660649 12.88893 7.885259 12.88893 8.174321 C 12.88893 8.447759 12.80104 8.666509 12.62526 8.830571 C 12.44948 8.994634 12.20143 9.076665 11.88112 9.076665 L 10.79128 9.076665 L 10.79128 14.91846 C 10.79128 15.25831 10.70143 15.51807 10.52174 15.69776 C 10.34596 15.87354 10.11159 15.96143 9.81862 15.96143 C 9.533463 15.96143 9.299088 15.87159 9.115495 15.6919 C 8.935807 15.50831 8.845963 15.25049 8.845963 14.91846 z "
     transform="scale(1.173408,1.173408)"
     style="font-size:12;font-weight:900;fill:#333333;stroke-width:1;font-family:VAG Rounded Black SSi;"
     id="path844" />
</svg>
