<?xml version="1.0" encoding="UTF-8" standalone="no"?>
<!DOCTYPE svg PUBLIC "-//W3C//DTD SVG 1.0//EN"
"http://www.w3.org/TR/2001/REC-SVG-20010904/DTD/svg10.dtd">
<!-- Created with Sodipodi ("http://www.sodipodi.com/") -->
<svg
   xmlns="http://www.w3.org/2000/svg"
   xmlns:xlink="http://www.w3.org/1999/xlink"
   version="1.0"
   x="0"
   y="0"
   width="60"
   height="60"
   id="svg1">
  <defs
     id="defs3">
    <linearGradient
       id="linearGradient900">
      <stop
         style="stop-color:#000000;stop-opacity:1;"
         offset="0"
         id="stop901" />
      <stop
         style="stop-color:#ffffff;stop-opacity:1;"
         offset="1"
         id="stop902" />
    </linearGradient>
    <linearGradient
       id="linearGradient903"
       xlink:href="#linearGradient900" />
    <linearGradient
       id="linearGradient904"
       xlink:href="#linearGradient900" />
    <linearGradient
       id="linearGradient905"
       xlink:href="#linearGradient900" />
    <linearGradient
       id="linearGradient906"
       xlink:href="#linearGradient900" />
    <linearGradient
       id="linearGradient907"
       xlink:href="#linearGradient900" />
  </defs>
  <rect
     width="50.7447319"
     height="50.3848419"
     rx="2"
     x="4.67859221"
     y="5.1165123"
     style="font-size:12;fill:#b3b3b3;fill-rule:evenodd;stroke:#333333;stroke-width:3.125;stroke-linejoin:round;"
     id="rect812" />
  <path
     d="M 75.89959 58.19609 C 73.45559 56.72969 60.74682 55.62989 50.11545 58.80709 C 48.03805 59.05149 43.76107 60.88448 41.92807 63.32847 C 32.39649 77.62584 28.6083 76.03724 28.2417 74.81525 C 27.8751 73.59325 29.4637 64.42827 41.43927 64.42827 C 46.69386 63.57287 50.60425 40.84373 51.70405 34.48934 C 52.19284 28.13496 49.50445 25.81317 48.77125 27.89056 C 47.06046 34.24494 51.33745 49.15331 54.88124 52.5749 C 56.71423 55.62989 68.68981 60.76228 72.478 61.37328 C 76.99939 62.47308 80.29878 59.66248 75.89959 58.19609 z "
     transform="matrix(0.814123,0,0,0.814123,-12.98603,-11.27225)"
     style="font-size:12;fill:none;fill-opacity:0.75;fill-rule:evenodd;stroke:#333333;stroke-width:3.070789;stroke-linejoin:round;"
     id="path1142" />
</svg>
