<?xml version="1.0" encoding="UTF-8" standalone="no"?>
<!DOCTYPE svg PUBLIC "-//W3C//DTD SVG 1.0//EN"
"http://www.w3.org/TR/2001/REC-SVG-20010904/DTD/svg10.dtd">
<!-- Created with Sodipodi ("http://www.sodipodi.com/") -->
<svg
   xmlns="http://www.w3.org/2000/svg"
   xmlns:xlink="http://www.w3.org/1999/xlink"
   version="1.0"
   x="0"
   y="0"
   width="60"
   height="60"
   id="svg1">
  <defs
     id="defs3" />
  <path
     d="M 28.76613 54.86245 L 28.76613 52.25512 C 26.91456 52.12287 25.02519 51.8678 23.09804 51.48993 C 21.17089 51.11206 19.44213 50.43189 17.91174 49.44942 C 16.40025 48.44806 15.64451 47.11606 15.64451 45.45342 C 15.64451 44.20644 16.04127 43.08227 16.83481 42.0809 C 17.64723 41.07954 18.63915 40.57886 19.81055 40.57886 C 20.32068 40.57886 21.23702 40.86227 22.55958 41.42908 C 23.88213 41.99588 24.95906 42.42099 25.79039 42.7044 C 26.6406 42.9878 27.63252 43.1295 28.76613 43.1295 L 28.76613 34.03222 C 26.34775 33.29537 24.31668 32.53017 22.67294 31.73664 C 21.02919 30.92422 19.69719 30.03622 18.67693 29.07264 C 17.65668 28.09017 16.91983 27.03213 16.46638 25.89851 C 16.03183 24.76489 15.81455 23.50847 15.81455 22.12923 C 15.81455 20.20208 16.15464 18.44498 16.83481 16.85791 C 17.51498 15.25195 18.44076 13.87272 19.61217 12.72021 C 20.80247 11.5488 22.19115 10.61357 23.77822 9.914503 C 25.36528 9.21544 27.02792 8.799778 28.76613 8.667521 L 28.76613 5.9185 C 28.76613 4.76599 29.34239 4.189732 30.4949 4.189732 C 31.6663 4.189732 32.25201 4.76599 32.25201 5.9185 L 32.25201 8.667521 C 33.66903 8.705311 35.17108 8.922588 36.75814 9.319353 C 38.3641 9.697226 39.72444 10.33961 40.83916 11.2465 C 41.95388 12.15339 42.51125 13.36259 42.51125 14.87408 C 42.51125 15.61093 42.3412 16.32889 42.00112 17.02795 C 41.67993 17.70812 41.21704 18.25604 40.61244 18.6717 C 40.02674 19.08736 39.36546 19.29519 38.62861 19.29519 C 38.17516 19.29519 37.62725 19.15349 36.98486 18.87008 C 36.36137 18.58668 35.79456 18.31272 35.28444 18.04821 C 34.77431 17.76481 34.27363 17.53808 33.78239 17.36804 C 33.29116 17.1791 32.78103 17.08464 32.25201 17.08464 L 32.25201 25.38839 C 36.20078 26.46532 39.36546 27.98626 41.74606 29.9512 C 44.14555 31.91613 45.34529 34.74073 45.34529 38.42499 C 45.34529 40.61665 44.93908 42.57214 44.12665 44.29146 C 43.33312 45.99189 42.28453 47.41835 40.98086 48.57086 C 39.69609 49.70448 38.28852 50.57359 36.75814 51.17819 C 35.22775 51.78278 33.72571 52.14176 32.25201 52.25512 L 32.25201 54.86245 C 32.25201 56.01496 31.6663 56.59121 30.4949 56.59121 C 29.34239 56.59121 28.76613 56.01496 28.76613 54.86245 z M 28.76613 24.33979 L 28.76613 17.08464 C 27.82145 17.29246 27.04681 17.73646 26.44222 18.41663 C 25.85651 19.07791 25.56366 19.92812 25.56366 20.96728 C 25.56366 21.83638 25.85651 22.55434 26.44222 23.12115 C 27.04681 23.68796 27.82145 24.09417 28.76613 24.33979 z M 32.25201 34.93911 L 32.25201 43.1295 C 33.1778 43.1295 33.96188 42.72329 34.60426 41.91086 C 35.26554 41.09843 35.59618 40.17265 35.59618 39.1335 C 35.59618 37.9432 35.31277 37.03631 34.74597 36.41281 C 34.19805 35.77043 33.36673 35.2792 32.25201 34.93911 z "
     style="font-size:12;font-weight:900;fill:#333333;stroke-width:1;font-family:VAG Rounded Black SSi;"
     id="path828" />
</svg>
