<?xml version="1.0" encoding="UTF-8" standalone="no"?>
<!DOCTYPE svg PUBLIC "-//W3C//DTD SVG 1.0//EN"
"http://www.w3.org/TR/2001/REC-SVG-20010904/DTD/svg10.dtd">
<!-- Created with Sodipodi ("http://www.sodipodi.com/") -->
<svg
   xmlns="http://www.w3.org/2000/svg"
   xmlns:xlink="http://www.w3.org/1999/xlink"
   version="1.0"
   x="0"
   y="0"
   width="60"
   height="60"
   id="svg1">
  <defs
     id="defs3">
    <linearGradient
       id="linearGradient900">
      <stop
         style="stop-color:#000000;stop-opacity:1;"
         offset="0"
         id="stop901" />
      <stop
         style="stop-color:#ffffff;stop-opacity:1;"
         offset="1"
         id="stop902" />
    </linearGradient>
    <linearGradient
       id="linearGradient903"
       xlink:href="#linearGradient900" />
    <linearGradient
       id="linearGradient904"
       xlink:href="#linearGradient900" />
    <linearGradient
       id="linearGradient905"
       xlink:href="#linearGradient900" />
    <linearGradient
       id="linearGradient906"
       xlink:href="#linearGradient900" />
    <linearGradient
       id="linearGradient907"
       xlink:href="#linearGradient900" />
  </defs>
  <rect
     width="50.7447319"
     height="50.3848419"
     rx="2"
     x="4.6785965"
     y="5.1165123"
     style="font-size:12;fill:#b3b3b3;fill-rule:evenodd;stroke:#333333;stroke-width:3.125;stroke-linecap:round;stroke-linejoin:round;"
     id="rect812" />
  <g
     transform="translate(-0.145791,-0.635488)"
     style="font-size:12;"
     id="g873">
    <path
       d="M 25.14051 28.88691 L 11.78794 35.50825 C 10.91488 35.94036 10.55907 36.998 10.99118 37.87105 L 11.10107 38.09085 C 11.53318 38.9639 12.59082 39.31972 13.46387 38.88761 L 26.96756 32.21132 C 27.42656 31.98414 27.7407 31.57953 27.87421 31.12608 C 26.70089 30.55209 25.7528 29.7967 25.14051 28.88691 z "
       style="fill:#333333;fill-rule:evenodd;stroke:#333333;stroke-width:1.268654;stroke-linecap:round;stroke-linejoin:round;"
       id="path854" />
    <path
       d="M 10.67522 19.57308 C 10.41966 19.57417 10.19271 19.69609 10.02957 19.9852 C 9.728601 20.62063 10.18939 21.01162 10.84007 21.33145 L 24.53607 27.67804 C 24.33752 27.05499 24.26181 26.42099 24.3987 25.79604 L 11.58188 19.86156 C 11.25123 19.69904 10.94527 19.57193 10.67522 19.57308 z "
       style="fill:#333333;fill-rule:evenodd;stroke:#333333;stroke-width:1.268654;stroke-linecap:round;stroke-linejoin:round;"
       id="path856" />
    <path
       d="M 19.15108 13.91335 C 19.01834 13.91184 18.8681 13.95499 18.71149 14.03698 C 18.06095 14.43604 18.24268 15.05809 18.64281 15.7404 L 24.42618 25.60372 C 24.43011 25.58969 24.43578 25.57652 24.43991 25.56251 C 24.63208 24.91 25.02551 24.37111 25.53889 23.91404 L 20.20885 14.84748 C 19.90288 14.32573 19.58717 13.91831 19.15108 13.91335 z "
       style="fill:#333333;fill-rule:evenodd;stroke:#333333;stroke-width:1.268654;stroke-linecap:round;stroke-linejoin:round;"
       id="path858" />
    <path
       d="M 29.86611 13.59739 C 29.38003 13.7039 29.11909 14.23394 28.91824 14.88869 L 26.0609 23.59809 C 26.74073 23.14065 27.55943 22.83607 28.49239 22.70517 L 30.86893 15.50687 C 31.13081 14.65312 31.19415 13.92947 30.38813 13.63861 C 30.19733 13.58577 30.01279 13.56526 29.86611 13.59739 z M 30.38813 13.63861 C 30.4081 13.64414 30.42257 13.63204 30.44307 13.63861 L 30.34691 13.61113 C 30.36601 13.61724 30.36995 13.63204 30.38813 13.63861 z "
       style="fill:#333333;fill-rule:evenodd;stroke:#333333;stroke-width:1.268654;stroke-linecap:round;stroke-linejoin:round;"
       id="path860" />
    <path
       d="M 40.66356 17.85593 C 40.32014 17.8309 39.9103 17.96807 39.48216 18.15815 L 29.42652 22.2381 C 29.17839 22.34827 29.03759 22.51312 28.84956 22.65022 C 29.79225 22.56673 30.77879 22.60269 31.80306 22.89749 C 32.08401 22.97835 32.29572 23.13598 32.55861 23.24092 L 40.32013 20.08136 C 41.16118 19.70796 41.75974 19.2736 41.43285 18.44663 C 41.24873 18.06285 40.98992 17.87972 40.66356 17.85593 z M 41.43285 18.44663 C 41.44247 18.4667 41.46491 18.46656 41.47406 18.48784 L 41.43285 18.40542 C 41.43939 18.42065 41.42693 18.43167 41.43285 18.44663 z "
       style="fill:#333333;fill-rule:evenodd;stroke:#333333;stroke-width:1.268654;stroke-linecap:round;stroke-linejoin:round;"
       id="path862" />
    <path
       d="M 28.98693 31.63436 L 25.49768 46.00349 C 25.26846 46.95027 25.85593 47.88981 26.80271 48.11902 L 27.3522 48.25639 C 28.29898 48.4856 29.25226 47.91187 29.48147 46.96509 L 33.02567 32.30748 C 33.06691 32.13714 33.04786 31.9791 33.03941 31.81294 C 31.86546 32.07292 30.56627 32.12182 29.20672 31.73052 C 29.12611 31.70732 29.06611 31.65962 28.98693 31.63436 z "
       style="fill:#333333;fill-rule:evenodd;stroke:#333333;stroke-width:1.268654;stroke-linecap:round;stroke-linejoin:round;"
       id="path866" />
    <path
       d="M 36.33634 29.58751 C 35.89874 30.47311 35.06902 31.13433 34.04223 31.55194 L 41.7488 44.03907 C 42.42462 45.14561 43.22628 45.8526 44.31766 45.27541 C 45.33993 44.59634 44.99352 43.60711 44.31766 42.5005 L 36.33634 29.58751 z M 44.31766 45.27541 C 44.28632 45.29623 44.28298 45.32388 44.24898 45.3441 L 44.41382 45.24794 C 44.37975 45.26819 44.35118 45.25769 44.31766 45.27541 z "
       style="fill:#333333;fill-rule:evenodd;stroke:#333333;stroke-width:1.268654;stroke-linecap:round;stroke-linejoin:round;"
       id="path868" />
    <path
       d="M 35.71816 25.46635 C 36.49641 26.48991 36.84312 27.65258 36.61109 28.77702 L 47.99924 36.41491 C 48.85102 36.98547 49.67395 37.23394 50.26588 36.45612 C 50.77779 35.62905 50.19761 35.03501 49.34548 34.46422 L 36.37755 25.76857 C 36.14439 25.61239 35.93789 25.56938 35.71816 25.46635 z M 50.26588 36.45612 C 50.25084 36.48042 50.25539 36.5001 50.2384 36.52481 L 50.32083 36.40117 C 50.30361 36.42623 50.28351 36.43295 50.26588 36.45612 z "
       style="fill:#333333;fill-rule:evenodd;stroke:#333333;stroke-width:1.268654;stroke-linecap:round;stroke-linejoin:round;"
       id="path870" />
    <path
       d="M 32.79214 23.17223 C 32.73362 23.18943 32.69289 23.24 32.64103 23.26839 C 33.38325 23.57366 34.02753 23.9496 34.59171 24.40858 C 35.15431 24.86627 35.61045 25.36647 35.9517 25.91968 L 47.07884 28.40611 C 48.02511 28.62079 48.81749 28.63806 49.07074 27.74673 C 49.26609 26.81901 48.55521 26.45215 47.60086 26.23563 L 34.08344 23.22718 C 33.59817 23.11709 33.15127 23.06668 32.79214 23.17223 z M 49.07074 27.74673 C 49.06743 27.76245 49.07458 27.77188 49.07074 27.78794 L 49.09821 27.69178 C 49.09245 27.71586 49.07723 27.72387 49.07074 27.74673 z "
       style="fill:#333333;fill-rule:evenodd;stroke:#333333;stroke-width:1.268654;stroke-linecap:round;stroke-linejoin:round;"
       id="path872" />
  </g>
</svg>
