<?xml version="1.0" encoding="UTF-8" standalone="no"?>
<!DOCTYPE svg PUBLIC "-//W3C//DTD SVG 1.0//EN"
"http://www.w3.org/TR/2001/REC-SVG-20010904/DTD/svg10.dtd">
<!-- Created with Sodipodi ("http://www.sodipodi.com/") -->
<svg
   xmlns="http://www.w3.org/2000/svg"
   xmlns:xlink="http://www.w3.org/1999/xlink"
   version="1.0"
   x="0"
   y="0"
   width="60"
   height="60"
   id="svg1">
  <defs
     id="defs3">
    <linearGradient
       id="linearGradient900">
      <stop
         style="stop-color:#000000;stop-opacity:1;"
         offset="0"
         id="stop901" />
      <stop
         style="stop-color:#ffffff;stop-opacity:1;"
         offset="1"
         id="stop902" />
    </linearGradient>
    <linearGradient
       id="linearGradient903"
       xlink:href="#linearGradient900" />
    <linearGradient
       id="linearGradient904"
       xlink:href="#linearGradient900" />
    <linearGradient
       id="linearGradient905"
       xlink:href="#linearGradient900" />
    <linearGradient
       id="linearGradient906"
       xlink:href="#linearGradient900" />
    <linearGradient
       id="linearGradient907"
       xlink:href="#linearGradient900" />
  </defs>
  <rect
     width="50.7447319"
     height="50.3848419"
     rx="2"
     x="4.67859364"
     y="5.11651182"
     style="font-size:12;fill:#b3b3b3;fill-rule:evenodd;stroke:#333333;stroke-width:3.125;stroke-linejoin:round;"
     id="rect812" />
  <path
     d="M 20.31028 18.14158 L 20.31028 11.46776 C 20.31028 11.13182 20.40012 10.87401 20.57981 10.69432 C 20.7595 10.51463 20.99387 10.42479 21.28294 10.42479 C 21.57591 10.42479 21.81028 10.51268 21.98606 10.68846 C 22.16575 10.86424 22.25559 11.12401 22.25559 11.46776 L 22.25559 17.30369 L 24.34153 17.30369 C 24.64622 17.30369 24.8845 17.38377 25.05637 17.54393 C 25.22825 17.70018 25.31419 17.92283 25.31419 18.2119 C 25.31419 18.49315 25.22825 18.7158 25.05637 18.87987 C 24.8845 19.04393 24.64622 19.12596 24.34153 19.12596 L 21.28294 19.12596 C 21.02122 19.12596 20.7927 19.03807 20.59739 18.86229 C 20.40598 18.6826 20.31028 18.44237 20.31028 18.14158 z M 18.04856 19.24315 L 17.53294 18.79198 C 16.92356 19.14354 16.20872 19.31932 15.38841 19.31932 C 14.76341 19.31932 14.19114 19.21385 13.67161 19.00291 C 13.15208 18.79198 12.70677 18.48924 12.33567 18.09471 C 11.96848 17.70018 11.68528 17.22362 11.48606 16.66502 C 11.28684 16.10252 11.18723 15.48338 11.18723 14.8076 C 11.18723 14.13182 11.28684 13.51463 11.48606 12.95604 C 11.68919 12.39354 11.97434 11.91698 12.34153 11.52635 C 12.70872 11.13573 13.15208 10.83494 13.67161 10.62401 C 14.19114 10.41307 14.76341 10.3076 15.38841 10.3076 C 16.01341 10.3076 16.58567 10.41307 17.1052 10.62401 C 17.62864 10.83494 18.072 11.13573 18.43528 11.52635 C 18.80247 11.91698 19.08567 12.39354 19.28489 12.95604 C 19.48802 13.51463 19.58958 14.13182 19.58958 14.8076 C 19.58958 15.91698 19.33372 16.84862 18.822 17.60252 L 19.28489 18.01268 C 19.53098 18.2158 19.697 18.38768 19.78294 18.5283 C 19.86887 18.66502 19.91184 18.81151 19.91184 18.96776 C 19.91184 19.20604 19.83372 19.40526 19.67747 19.56541 C 19.52122 19.72948 19.33177 19.81151 19.10911 19.81151 C 18.99583 19.81151 18.89036 19.79588 18.7927 19.76463 C 18.69895 19.73338 18.59739 19.67869 18.48802 19.60057 C 18.37864 19.52244 18.23216 19.4033 18.04856 19.24315 z M 15.38841 12.11815 C 14.91575 12.11815 14.51927 12.24315 14.19895 12.49315 C 13.87864 12.74315 13.64427 13.07518 13.49583 13.48924 C 13.34739 13.8994 13.27317 14.33885 13.27317 14.8076 C 13.27317 15.28026 13.34739 15.72362 13.49583 16.13768 C 13.64427 16.55174 13.87864 16.88377 14.19895 17.13377 C 14.51927 17.38377 14.91575 17.50877 15.38841 17.50877 C 15.60716 17.50877 15.80247 17.47948 15.97434 17.42088 L 15.95091 17.40916 C 15.70091 17.18651 15.53489 17.00877 15.45286 16.87596 C 15.37083 16.74315 15.32981 16.60057 15.32981 16.44823 C 15.32981 16.20604 15.40598 16.00682 15.55833 15.85057 C 15.71458 15.69041 15.90598 15.61033 16.13255 15.61033 C 16.30052 15.61033 16.45481 15.64744 16.59544 15.72166 C 16.73997 15.79588 16.93723 15.94627 17.18723 16.17283 L 17.24583 16.21971 C 17.4138 15.79783 17.49778 15.32713 17.49778 14.8076 C 17.49778 14.32323 17.42356 13.87791 17.27512 13.47166 C 17.12669 13.06541 16.89231 12.73924 16.572 12.49315 C 16.25559 12.24315 15.86106 12.11815 15.38841 12.11815 z M 4.548563 17.90135 C 4.548563 17.61619 4.630594 17.37205 4.794656 17.16893 C 4.958719 16.9619 5.181375 16.85838 5.462625 16.85838 C 5.591531 16.85838 5.796609 16.91307 6.077859 17.02244 C 6.359109 17.12791 6.601297 17.2119 6.804422 17.2744 C 7.011453 17.33299 7.263406 17.36229 7.560281 17.36229 C 7.91575 17.36229 8.175516 17.28416 8.339578 17.12791 C 8.507547 16.97166 8.591531 16.7783 8.591531 16.54783 C 8.591531 16.38768 8.548562 16.25487 8.462625 16.1494 C 8.376687 16.04002 8.2595 15.94823 8.111062 15.87401 C 7.962625 15.79588 7.747781 15.7119 7.466531 15.62205 C 7.185281 15.53221 6.945047 15.45604 6.745828 15.39354 C 6.339578 15.26463 5.991922 15.1201 5.702859 14.95994 C 5.413797 14.79588 5.173563 14.56151 4.982156 14.25682 C 4.79075 13.94823 4.695047 13.55174 4.695047 13.06737 C 4.695047 12.4619 4.833719 11.95213 5.111063 11.53807 C 5.392313 11.12401 5.765359 10.81541 6.230203 10.61229 C 6.695047 10.40916 7.206766 10.3076 7.765359 10.3076 C 8.530984 10.3076 9.126687 10.42674 9.552469 10.66502 C 9.97825 10.9033 10.19114 11.2158 10.19114 11.60252 C 10.19114 11.86424 10.10911 12.08494 9.945047 12.26463 C 9.784891 12.44041 9.577859 12.5283 9.323953 12.5283 C 9.148172 12.5283 8.905984 12.47166 8.597391 12.35838 C 8.288797 12.2451 7.980203 12.18846 7.671609 12.18846 C 7.405984 12.18846 7.191141 12.25487 7.027078 12.38768 C 6.863016 12.52049 6.780984 12.69041 6.780984 12.89744 C 6.780984 13.01854 6.810281 13.11619 6.868875 13.19041 C 6.931375 13.26073 7.04075 13.33299 7.197 13.40721 C 7.357156 13.48143 7.597391 13.57127 7.917703 13.67674 C 8.241922 13.78221 8.470437 13.85838 8.60325 13.90526 C 9.247781 14.11619 9.755594 14.40526 10.12669 14.77244 C 10.49778 15.13573 10.68333 15.69041 10.68333 16.43651 C 10.68333 17.38182 10.37864 18.09862 9.769266 18.5869 C 9.159891 19.07518 8.376687 19.31932 7.419656 19.31932 C 6.993875 19.31932 6.560281 19.26658 6.118875 19.16112 C 5.681375 19.05565 5.310281 18.89354 5.005594 18.67479 C 4.700906 18.45604 4.548563 18.19823 4.548563 17.90135 z "
     transform="scale(2.012605,2.012605)"
     style="font-size:12;font-weight:900;fill:#333333;stroke-width:1;font-family:VAG Rounded Black SSi;"
     id="path839" />
</svg>
