<?xml version="1.0" encoding="UTF-8" standalone="no"?>
<!DOCTYPE svg PUBLIC "-//W3C//DTD SVG 1.0//EN"
"http://www.w3.org/TR/2001/REC-SVG-20010904/DTD/svg10.dtd">
<!-- Created with Sodipodi ("http://www.sodipodi.com/") -->
<svg
   xmlns="http://www.w3.org/2000/svg"
   xmlns:xlink="http://www.w3.org/1999/xlink"
   version="1.0"
   x="0"
   y="0"
   width="60"
   height="60"
   id="svg1">
  <defs
     id="defs3">
    <linearGradient
       id="linearGradient900">
      <stop
         style="stop-color:#000000;stop-opacity:1;"
         offset="0"
         id="stop901" />
      <stop
         style="stop-color:#ffffff;stop-opacity:1;"
         offset="1"
         id="stop902" />
    </linearGradient>
    <linearGradient
       id="linearGradient903"
       xlink:href="#linearGradient900" />
    <linearGradient
       id="linearGradient904"
       xlink:href="#linearGradient900" />
    <linearGradient
       id="linearGradient905"
       xlink:href="#linearGradient900" />
    <linearGradient
       id="linearGradient906"
       xlink:href="#linearGradient900" />
    <linearGradient
       id="linearGradient907"
       xlink:href="#linearGradient900" />
  </defs>
  <rect
     width="50.7447319"
     height="50.3848419"
     rx="2"
     x="4.67859221"
     y="5.1165123"
     style="font-size:12;fill:#b3b3b3;fill-rule:evenodd;stroke:#333333;stroke-width:3.125;"
     id="rect812" />
  <path
     d="M 10.95751 14.80072 L 11.16845 13.22455 L 10.71728 13.22455 C 10.51806 13.22455 10.37157 13.16791 10.27782 13.05462 C 10.18407 12.93744 10.1372 12.79876 10.1372 12.63861 C 10.1372 12.47845 10.18407 12.34369 10.27782 12.23431 C 10.37157 12.12103 10.51806 12.06439 10.71728 12.06439 L 11.32665 12.06439 L 11.52001 10.62298 L 11.06298 10.62298 C 10.86767 10.62298 10.72313 10.56634 10.62938 10.45306 C 10.53563 10.33587 10.48876 10.1972 10.48876 10.03705 C 10.48876 9.872984 10.53563 9.736265 10.62938 9.62689 C 10.72313 9.513609 10.86767 9.456968 11.06298 9.456968 L 11.69579 9.456968 L 11.9536 7.576109 C 11.98095 7.37689 12.04345 7.222593 12.1411 7.113218 C 12.24267 7.003843 12.40282 6.949156 12.62157 6.949156 C 12.77782 6.949156 12.90673 6.994078 13.00829 7.083921 C 13.10985 7.169859 13.16063 7.289 13.16063 7.441343 C 13.16063 7.50775 13.14501 7.652281 13.11376 7.874937 L 12.89696 9.456968 L 13.98095 9.456968 L 14.2329 7.576109 C 14.26024 7.37689 14.32274 7.222593 14.4204 7.113218 C 14.52196 7.003843 14.68212 6.949156 14.90087 6.949156 C 15.05712 6.949156 15.18603 6.994078 15.28759 7.083921 C 15.38915 7.173765 15.43993 7.292906 15.43993 7.441343 C 15.43993 7.50775 15.42431 7.652281 15.39306 7.874937 L 15.17626 9.456968 L 15.63329 9.456968 C 15.83642 9.456968 15.9829 9.513609 16.07274 9.62689 C 16.16649 9.736265 16.21337 9.872984 16.21337 10.03705 C 16.21337 10.1972 16.16649 10.33587 16.07274 10.45306 C 15.97899 10.56634 15.83251 10.62298 15.63329 10.62298 L 15.02392 10.62298 L 14.83056 12.06439 L 15.28759 12.06439 C 15.49071 12.06439 15.6372 12.11908 15.72704 12.22845 C 15.81688 12.33783 15.86181 12.47455 15.86181 12.63861 C 15.86181 12.80267 15.81493 12.94134 15.72118 13.05462 C 15.63134 13.16791 15.48681 13.22455 15.28759 13.22455 L 14.64892 13.22455 L 14.39696 15.09955 C 14.36962 15.29486 14.30712 15.4472 14.20946 15.55658 C 14.11181 15.66595 13.95165 15.72064 13.72899 15.72064 C 13.57274 15.72064 13.44188 15.67767 13.33642 15.59173 C 13.23485 15.50189 13.18407 15.3808 13.18407 15.22845 C 13.18407 15.15033 13.20165 15.00775 13.23681 14.80072 L 13.4536 13.22455 L 12.36962 13.22455 L 12.11767 15.09955 C 12.09032 15.29876 12.02587 15.45306 11.92431 15.56244 C 11.82665 15.66791 11.66649 15.72064 11.44384 15.72064 C 11.29149 15.72064 11.16259 15.67767 11.05712 15.59173 C 10.95556 15.50189 10.90478 15.3808 10.90478 15.22845 C 10.90478 15.15033 10.92235 15.00775 10.95751 14.80072 z M 13.62938 12.06439 L 13.82274 10.62298 L 12.7329 10.62298 L 12.53954 12.06439 L 13.62938 12.06439 z M 2.713369 11.33197 C 2.713369 10.68744 2.812979 10.08783 3.012198 9.53314 C 3.215323 8.974546 3.502432 8.496031 3.873526 8.097593 C 4.244619 7.69525 4.691885 7.384703 5.215323 7.165953 C 5.742666 6.943296 6.320791 6.831968 6.949698 6.831968 C 7.648916 6.831968 8.252432 6.941343 8.760244 7.160093 C 9.271963 7.378843 9.527822 7.724546 9.527822 8.197203 C 9.527822 8.443296 9.447744 8.662046 9.287588 8.853453 C 9.131338 9.040953 8.932119 9.134703 8.689932 9.134703 C 8.568838 9.134703 8.371572 9.083921 8.098135 8.982359 C 7.828604 8.880796 7.631338 8.810484 7.506338 8.771421 C 7.381338 8.732359 7.211416 8.712828 6.996573 8.712828 C 6.500479 8.712828 6.086416 8.833921 5.754385 9.076109 C 5.42626 9.31439 5.184073 9.634703 5.027823 10.03705 C 4.875479 10.43939 4.799307 10.87103 4.799307 11.33197 C 4.799307 12.05462 4.977041 12.66205 5.33251 13.15423 C 5.687979 13.64251 6.186026 13.88666 6.826651 13.88666 C 7.166494 13.88666 7.434073 13.86126 7.629385 13.81048 C 7.824698 13.7597 8.027822 13.69134 8.23876 13.60541 C 8.449697 13.51947 8.615713 13.4765 8.736807 13.4765 C 8.971182 13.4765 9.152822 13.53119 9.281729 13.64056 C 9.410635 13.74603 9.496572 13.86908 9.539541 14.0097 C 9.58251 14.15033 9.603994 14.27728 9.603994 14.39056 C 9.603994 14.72259 9.463369 14.99798 9.182119 15.21673 C 8.900869 15.43548 8.55126 15.59369 8.133291 15.69134 C 7.715323 15.79291 7.309073 15.84369 6.914541 15.84369 C 6.043448 15.84369 5.289541 15.64447 4.652823 15.24603 C 4.02001 14.84369 3.537588 14.30072 3.205557 13.61712 C 2.877432 12.92962 2.713369 12.16791 2.713369 11.33197 z "
     transform="scale(3.187649,3.187649)"
     style="font-size:12;font-weight:900;fill:#333333;stroke-width:1;font-family:VAG Rounded Black SSi;"
     id="path841" />
  <path
     d="M 40.39042 13.00682 L 37.00956 13.00682 C 37.00956 13.26072 37.12675 13.50096 37.36113 13.72752 C 37.5955 13.95018 37.97831 14.06151 38.50956 14.06151 C 38.783 14.06151 39.00956 14.02635 39.18925 13.95604 C 39.36894 13.88572 39.58964 13.78612 39.85136 13.65721 C 40.11698 13.5244 40.30839 13.45799 40.42558 13.45799 C 40.64433 13.45799 40.82988 13.53416 40.98222 13.68651 C 41.13456 13.83885 41.21073 14.03612 41.21073 14.2783 C 41.21073 14.56737 41.0662 14.83104 40.77714 15.06932 C 40.49198 15.30369 40.12284 15.48338 39.66972 15.60838 C 39.21659 15.73729 38.7498 15.80174 38.26933 15.80174 C 37.77323 15.80174 37.32402 15.7158 36.92167 15.54393 C 36.52323 15.37205 36.17753 15.12987 35.88456 14.81737 C 35.5955 14.50096 35.3748 14.13377 35.22245 13.7158 C 35.07011 13.29393 34.99394 12.84862 34.99394 12.37987 C 34.99394 11.93846 35.07402 11.50877 35.23417 11.0908 C 35.39433 10.67283 35.62089 10.30565 35.91386 9.98924 C 36.20683 9.672833 36.55644 9.424787 36.96269 9.245099 C 37.36894 9.061505 37.80448 8.969708 38.26933 8.969708 C 38.86698 8.969708 39.39628 9.120099 39.85722 9.42088 C 40.31816 9.721662 40.67363 10.11619 40.92363 10.60447 C 41.17753 11.09276 41.30448 11.61619 41.30448 12.17479 C 41.30448 12.4951 41.23222 12.71385 41.08769 12.83104 C 40.94316 12.94822 40.71073 13.00682 40.39042 13.00682 z M 37.00956 11.70604 L 39.42948 11.70604 C 39.42948 11.5576 39.37675 11.39354 39.27128 11.21385 C 39.16581 11.03026 39.02128 10.87791 38.83769 10.75682 C 38.658 10.63182 38.45292 10.56932 38.22245 10.56932 C 37.99198 10.56932 37.783 10.63182 37.5955 10.75682 C 37.41191 10.88182 37.26738 11.03416 37.16191 11.21385 C 37.06034 11.38963 37.00956 11.55369 37.00956 11.70604 z M 29.43925 12.37987 C 29.43925 11.75877 29.57206 11.18651 29.83769 10.66307 C 30.10331 10.13572 30.47441 9.721662 30.95097 9.42088 C 31.43144 9.120099 31.97831 8.969708 32.59159 8.969708 C 32.91581 8.969708 33.2498 9.008771 33.59355 9.086896 C 33.9373 9.161115 34.22636 9.290021 34.46073 9.473615 C 34.69511 9.657208 34.8123 9.905255 34.8123 10.21776 C 34.8123 10.46776 34.73808 10.67674 34.58964 10.84471 C 34.44511 11.01268 34.26347 11.09666 34.04472 11.09666 C 33.93925 11.09666 33.83573 11.07908 33.73417 11.04393 C 33.63652 11.00877 33.53691 10.97166 33.43534 10.9326 C 33.33769 10.88963 33.23222 10.85447 33.11894 10.82713 C 33.00956 10.79979 32.87089 10.78612 32.70292 10.78612 C 32.39823 10.78612 32.14042 10.85838 31.92948 11.00291 C 31.72245 11.14354 31.5662 11.33494 31.46073 11.57713 C 31.35917 11.81541 31.30839 12.08299 31.30839 12.37987 C 31.30839 12.66893 31.35917 12.93846 31.46073 13.18846 C 31.5623 13.43455 31.70878 13.62987 31.90019 13.7744 C 32.0955 13.91893 32.32597 13.99119 32.59159 13.99119 C 32.89238 13.99119 33.19511 13.93455 33.4998 13.82127 C 33.80448 13.70799 33.98613 13.65135 34.04472 13.65135 C 34.18534 13.65135 34.31425 13.69237 34.43144 13.7744 C 34.54863 13.85643 34.64042 13.96385 34.70683 14.09666 C 34.77714 14.22557 34.8123 14.35838 34.8123 14.4951 C 34.8123 14.78416 34.68534 15.0283 34.43144 15.22752 C 34.18144 15.42674 33.88261 15.57127 33.53495 15.66112 C 33.1873 15.75487 32.87284 15.80174 32.59159 15.80174 C 32.12675 15.80174 31.70097 15.7158 31.31425 15.54393 C 30.93144 15.37205 30.59745 15.12791 30.3123 14.81151 C 30.02714 14.49119 29.81034 14.12401 29.66191 13.70994 C 29.51347 13.29197 29.43925 12.84862 29.43925 12.37987 z M 25.46659 14.69432 L 25.46659 10.06541 C 25.46659 9.788068 25.55253 9.557599 25.72441 9.374005 C 25.90019 9.186505 26.1248 9.092755 26.39823 9.092755 C 26.6248 9.092755 26.82011 9.153302 26.98417 9.274396 C 27.15214 9.391583 27.26933 9.530255 27.33573 9.690412 C 27.73808 9.209943 28.16972 8.969708 28.63066 8.969708 C 28.88456 8.969708 29.10722 9.061505 29.29863 9.245099 C 29.49394 9.424787 29.59159 9.657208 29.59159 9.942365 C 29.59159 10.23533 29.4998 10.44822 29.3162 10.58104 C 29.13651 10.71385 28.83769 10.8408 28.41972 10.9619 C 27.99394 11.08299 27.70683 11.23533 27.55839 11.41893 C 27.40995 11.59862 27.33573 11.92283 27.33573 12.39158 L 27.33573 14.69432 C 27.33573 14.97166 27.24784 15.20604 27.07206 15.39744 C 26.90019 15.58494 26.67558 15.67869 26.39823 15.67869 C 26.1248 15.67869 25.90019 15.58494 25.72441 15.39744 C 25.55253 15.20604 25.46659 14.97166 25.46659 14.69432 z M 24.59941 10.06541 L 24.59941 13.28221 C 24.59941 13.84471 24.4705 14.31346 24.21269 14.68846 C 23.95488 15.06346 23.60722 15.34276 23.16972 15.52635 C 22.73222 15.70994 22.24003 15.80174 21.69316 15.80174 C 21.14628 15.80174 20.65409 15.70994 20.21659 15.52635 C 19.783 15.34276 19.4373 15.06346 19.17948 14.68846 C 18.92167 14.31346 18.79276 13.84471 18.79276 13.28221 L 18.79276 10.06541 C 18.79276 9.788068 18.8787 9.557599 19.05058 9.374005 C 19.22636 9.186505 19.45097 9.092755 19.72441 9.092755 C 20.00175 9.092755 20.22636 9.186505 20.39823 9.374005 C 20.57401 9.557599 20.66191 9.788068 20.66191 10.06541 L 20.66191 13.01854 C 20.66191 13.34666 20.76542 13.60252 20.97245 13.78612 C 21.18339 13.96971 21.42363 14.06151 21.69316 14.06151 C 21.95878 14.06151 22.19706 13.96971 22.408 13.78612 C 22.61894 13.59862 22.72441 13.34276 22.72441 13.01854 L 22.72441 10.06541 C 22.72441 9.791974 22.8123 9.561505 22.98808 9.374005 C 23.16386 9.186505 23.38847 9.092755 23.66191 9.092755 C 23.93534 9.092755 24.15995 9.186505 24.33573 9.374005 C 24.51151 9.557599 24.59941 9.788068 24.59941 10.06541 z M 15.01933 8.969708 C 15.48808 8.969708 15.91581 9.057599 16.30253 9.23338 C 16.69316 9.405255 17.02714 9.647443 17.30448 9.959943 C 17.58573 10.27244 17.80058 10.63377 17.94901 11.04393 C 18.10136 11.45018 18.17753 11.89549 18.17753 12.37987 C 18.17753 13.00877 18.04472 13.5869 17.77909 14.11424 C 17.51738 14.63768 17.14628 15.04979 16.66581 15.35057 C 16.18534 15.65135 15.63651 15.80174 15.01933 15.80174 C 14.55448 15.80174 14.1287 15.7158 13.74198 15.54393 C 13.35917 15.37205 13.02519 15.12791 12.74003 14.81151 C 12.45487 14.49119 12.23808 14.12401 12.08964 13.70994 C 11.9412 13.29197 11.86698 12.84862 11.86698 12.37987 C 11.86698 11.75877 11.9998 11.18651 12.26542 10.66307 C 12.53105 10.13572 12.90214 9.721662 13.3787 9.42088 C 13.85917 9.120099 14.40605 8.969708 15.01933 8.969708 z M 15.01933 10.78612 C 14.62089 10.78612 14.30644 10.93846 14.07597 11.24315 C 13.84941 11.54783 13.73612 11.92674 13.73612 12.37987 C 13.73612 12.66893 13.78691 12.93846 13.88847 13.18846 C 13.99003 13.43455 14.13651 13.62987 14.32792 13.7744 C 14.52323 13.91893 14.7537 13.99119 15.01933 13.99119 C 15.42167 13.99119 15.73612 13.83885 15.96269 13.53416 C 16.18925 13.22557 16.30253 12.8408 16.30253 12.37987 C 16.30253 11.92283 16.18925 11.54393 15.96269 11.24315 C 15.73612 10.93846 15.42167 10.78612 15.01933 10.78612 z M 6.681437 14.4951 C 6.681437 14.22947 6.755656 14.01072 6.904093 13.83885 C 7.056437 13.66697 7.240031 13.58104 7.454874 13.58104 C 7.583781 13.58104 7.706828 13.60447 7.824015 13.65135 C 7.941203 13.69432 8.097453 13.76463 8.292765 13.86229 C 8.491984 13.95604 8.656046 14.0244 8.784953 14.06737 C 8.913859 14.11033 9.070109 14.13182 9.253703 14.13182 C 9.43339 14.13182 9.566203 14.09666 9.65214 14.02635 C 9.738078 13.95213 9.781046 13.86033 9.781046 13.75096 C 9.781046 13.6533 9.753703 13.57322 9.699015 13.51072 C 9.644328 13.44822 9.572062 13.39744 9.482218 13.35838 C 9.392375 13.31541 9.265421 13.26268 9.101359 13.20018 C 8.937296 13.13768 8.679484 13.03612 8.327921 12.89549 C 7.960734 12.73924 7.677531 12.59276 7.478312 12.45604 C 7.279093 12.31541 7.124796 12.13768 7.015421 11.92283 C 6.906046 11.70408 6.851359 11.4326 6.851359 11.10838 C 6.851359 10.74119 6.949015 10.39354 7.144328 10.06541 C 7.343546 9.737287 7.626749 9.473615 7.993937 9.274396 C 8.365031 9.071271 8.788859 8.969708 9.265421 8.969708 C 9.468546 8.969708 9.695109 8.995099 9.945109 9.04588 C 10.19511 9.092755 10.43144 9.172833 10.65409 9.286115 C 10.88066 9.39549 11.06425 9.536115 11.20487 9.70799 C 11.34941 9.879865 11.42167 10.08299 11.42167 10.31737 C 11.42167 10.46971 11.38651 10.60838 11.3162 10.73338 C 11.2498 10.85447 11.15605 10.94822 11.03495 11.01463 C 10.91776 11.07713 10.78691 11.10838 10.64237 11.10838 C 10.56425 11.10838 10.47831 11.0908 10.38456 11.05565 C 10.29472 11.02049 10.16581 10.96385 9.997843 10.88572 C 9.833781 10.8076 9.68339 10.74705 9.546671 10.70408 C 9.409953 10.66112 9.275187 10.63963 9.142375 10.63963 C 9.005656 10.63963 8.888468 10.67283 8.790812 10.73924 C 8.697062 10.80565 8.650187 10.90526 8.650187 11.03807 C 8.650187 11.19041 8.802531 11.33104 9.107218 11.45994 C 9.411906 11.58494 9.765421 11.72947 10.16776 11.89354 C 10.57401 12.0576 10.90995 12.2783 11.17558 12.55565 C 11.44511 12.83299 11.57987 13.20604 11.57987 13.67479 C 11.57987 14.10447 11.47245 14.48143 11.25761 14.80565 C 11.04276 15.12596 10.7498 15.37205 10.3787 15.54393 C 10.01151 15.7158 9.611125 15.80174 9.177531 15.80174 C 8.540812 15.80174 7.96464 15.6826 7.449015 15.44432 C 6.937296 15.20213 6.681437 14.88572 6.681437 14.4951 z "
     transform="scale(1.254667,1.254667)"
     style="font-size:12;font-weight:900;fill:#333333;stroke-width:1;font-family:VAG Rounded Black SSi;"
     id="path840" />
</svg>
