<?xml version="1.0" encoding="UTF-8" standalone="no"?>
<!DOCTYPE svg PUBLIC "-//W3C//DTD SVG 1.0//EN"
"http://www.w3.org/TR/2001/REC-SVG-20010904/DTD/svg10.dtd">
<!-- Created with Sodipodi ("http://www.sodipodi.com/") -->
<svg
   xmlns="http://www.w3.org/2000/svg"
   xmlns:xlink="http://www.w3.org/1999/xlink"
   version="1.0"
   x="0"
   y="0"
   width="60"
   height="60"
   id="svg1">
  <defs
     id="defs3">
    <linearGradient
       id="linearGradient900">
      <stop
         style="stop-color:#000000;stop-opacity:1;"
         offset="0"
         id="stop901" />
      <stop
         style="stop-color:#ffffff;stop-opacity:1;"
         offset="1"
         id="stop902" />
    </linearGradient>
    <linearGradient
       id="linearGradient903"
       xlink:href="#linearGradient900" />
    <linearGradient
       id="linearGradient904"
       xlink:href="#linearGradient900" />
    <linearGradient
       id="linearGradient905"
       xlink:href="#linearGradient900" />
    <linearGradient
       id="linearGradient906"
       xlink:href="#linearGradient900" />
    <linearGradient
       id="linearGradient907"
       xlink:href="#linearGradient900" />
  </defs>
  <rect
     width="50.7447319"
     height="50.3848419"
     rx="2"
     x="4.67859221"
     y="5.1165123"
     style="font-size:12;fill:#b3b3b3;fill-rule:evenodd;stroke:#333333;stroke-width:3.125;stroke-linejoin:round;"
     id="rect812" />
  <rect
     width="41.5674934"
     height="40.1803856"
     rx="2"
     x="67.4796906"
     y="34.1777649"
     transform="matrix(0.800655,0,0,0.800655,-36.3019,-15.29102)"
     style="font-size:12;fill:#4c4c4c;fill-rule:evenodd;stroke-width:3.125;"
     id="rect803" />
  <rect
     width="41.5674934"
     height="40.1803856"
     rx="2"
     x="65.5002975"
     y="36.4678383"
     transform="matrix(0.800655,0,0,0.800655,-36.3019,-15.29102)"
     style="font-size:12;fill:#7f7f7f;fill-rule:evenodd;stroke-width:3.125;"
     id="rect802" />
  <rect
     width="41.5674934"
     height="40.1803856"
     rx="2"
     x="62.0813255"
     y="40.42342"
     transform="matrix(0.800655,0,0,0.800655,-36.3019,-15.29102)"
     style="font-size:12;fill:#cccccc;fill-rule:evenodd;stroke:#333333;stroke-width:3.122443;stroke-linejoin:round;"
     id="rect788" />
  <rect
     width="52.1842995"
     height="8.09756374"
     rx="2.02797198"
     x="56.8628922"
     y="33.997818"
     transform="matrix(0.800655,0,0,0.800655,-36.3019,-15.29102)"
     style="font-size:12;fill:#4c4c4c;fill-rule:evenodd;stroke:#333333;stroke-width:3.122443;stroke-linecap:round;stroke-linejoin:round;"
     id="rect804" />
  <path
     d="M 35.33898 23.67035 C 36.37846 23.67035 37.33207 23.85564 38.1998 24.22624 C 39.07658 24.59684 39.81325 25.09398 40.40982 25.71766 C 41.00639 26.33231 41.47189 27.06446 41.80633 27.91412 C 42.14077 28.75474 42.30799 29.65412 42.30799 30.61224 C 42.30799 31.91384 41.93288 33.38719 41.18265 35.03227 C 40.44146 36.67736 39.52401 38.25013 38.4303 39.75059 C 37.33658 41.24201 36.27903 42.47131 35.25763 43.43847 C 35.05878 43.62829 34.76049 43.84974 34.36278 44.10283 C 34.16392 44.23842 33.88824 44.30621 33.53572 44.30621 C 33.12897 44.30621 32.6951 44.08927 32.23411 43.65541 C 31.78217 43.2125 31.55619 42.74247 31.55619 42.24533 C 31.55619 42.07359 31.60139 41.90637 31.69178 41.74367 C 31.78217 41.57193 31.93131 41.35952 32.1392 41.10643 C 32.39229 40.79007 32.8352 40.27937 33.46793 39.57433 C 34.10969 38.86026 34.61587 38.2908 34.98647 37.86598 C 35.35706 37.44115 35.68698 37.02084 35.97623 36.60505 L 35.92199 36.55081 C 35.43389 36.77679 34.85088 36.88977 34.17296 36.88977 C 33.09733 36.88977 32.11661 36.60505 31.23079 36.03559 C 30.34498 35.4571 29.64446 34.68427 29.12924 33.71711 C 28.62306 32.7409 28.36997 31.70595 28.36997 30.61224 C 28.36997 29.69027 28.53719 28.81801 28.87163 27.99547 C 29.20607 27.16389 29.68966 26.4227 30.32238 25.7719 C 30.96414 25.11205 31.70986 24.59684 32.55951 24.22624 C 33.41821 23.85564 34.3447 23.67035 35.33898 23.67035 z M 35.33898 33.52729 C 36.11633 33.52729 36.74906 33.2516 37.23716 32.70023 C 37.72526 32.14886 37.96931 31.45286 37.96931 30.61224 C 37.96931 29.80778 37.72978 29.12082 37.25072 28.55136 C 36.78069 27.98191 36.14345 27.69719 35.33898 27.69719 C 34.56164 27.69719 33.92439 27.98191 33.42725 28.55136 C 32.93915 29.11178 32.6951 29.79874 32.6951 30.61224 C 32.6951 31.40766 32.92559 32.09462 33.38658 32.67311 C 33.8566 33.24257 34.5074 33.52729 35.33898 33.52729 z M 21.30606 41.93349 L 21.30606 27.85989 L 19.66549 27.85989 C 19.0418 27.85989 18.57178 27.67459 18.25542 27.30399 C 17.93906 26.9334 17.78087 26.48145 17.78087 25.94815 C 17.78087 25.4239 17.9481 24.96743 18.28253 24.57876 C 18.62601 24.19008 19.087 23.99575 19.66549 23.99575 L 23.61098 23.99575 C 23.99965 23.99575 24.33409 24.08614 24.6143 24.26692 C 24.89451 24.43866 25.10692 24.67367 25.25155 24.97195 C 25.39617 25.2612 25.46848 25.60468 25.46848 26.00239 L 25.46848 41.93349 C 25.46848 42.63853 25.27866 43.18086 24.89903 43.5605 C 24.51939 43.94013 24.01773 44.12995 23.39405 44.12995 C 22.7794 44.12995 22.27774 43.93561 21.88907 43.54694 C 21.50039 43.15827 21.30606 42.62045 21.30606 41.93349 z "
     style="font-size:12;fill:#333333;stroke-width:1;font-family:VAG Rounded Black SSi;"
     id="path845" />
</svg>
