<?xml version="1.0" encoding="UTF-8" standalone="no"?>
<!DOCTYPE svg PUBLIC "-//W3C//DTD SVG 1.0//EN"
"http://www.w3.org/TR/2001/REC-SVG-20010904/DTD/svg10.dtd">
<!-- Created with Sodipodi ("http://www.sodipodi.com/") -->
<svg
   xmlns="http://www.w3.org/2000/svg"
   xmlns:xlink="http://www.w3.org/1999/xlink"
   version="1.0"
   x="0"
   y="0"
   width="60"
   height="60"
   id="svg1">
  <defs
     id="defs3">
    <linearGradient
       id="linearGradient900">
      <stop
         style="stop-color:#000000;stop-opacity:1;"
         offset="0"
         id="stop901" />
      <stop
         style="stop-color:#ffffff;stop-opacity:1;"
         offset="1"
         id="stop902" />
    </linearGradient>
    <linearGradient
       id="linearGradient903"
       xlink:href="#linearGradient900" />
    <linearGradient
       id="linearGradient904"
       xlink:href="#linearGradient900" />
    <linearGradient
       id="linearGradient905"
       xlink:href="#linearGradient900" />
    <linearGradient
       id="linearGradient906"
       xlink:href="#linearGradient900" />
    <linearGradient
       id="linearGradient907"
       xlink:href="#linearGradient900" />
  </defs>
  <rect
     width="50.7447319"
     height="50.3848419"
     rx="2"
     x="4.67859221"
     y="5.1165123"
     style="font-size:12;fill:#b3b3b3;fill-rule:evenodd;stroke:#333333;stroke-width:3.125;stroke-linejoin:round;"
     id="rect812" />
  <g
     transform="translate(4.214674e-2,0.259065)"
     style="font-size:12;"
     id="g849">
    <g
       id="g844">
      <path
         d="M -31.49053 45.24444 L -19.25421 45.24444 C -17.2748 39.84606 -10.22901 25.6048 1.107577 18.94681 C -11.84853 20.92621 -28.97128 36.0672 -31.49053 45.24444 z "
         transform="matrix(0.62281,0,0,0.62281,29.15602,1.584134)"
         style="fill:#7f7f7f;fill-rule:evenodd;stroke:#333333;stroke-width:3.010549;stroke-linecap:round;stroke-linejoin:round;"
         id="path843" />
      <path
         d="M 33.32933 45.24444 L 21.09301 45.24444 C 19.11361 39.84606 12.02951 25.6048 0.692922 18.94681 C 13.64902 20.92621 30.81009 36.0672 33.32933 45.24444 z "
         transform="matrix(0.62281,0,0,0.62281,29.71638,1.584134)"
         style="fill:#4c4c4c;fill-rule:evenodd;stroke:#333333;stroke-width:3.010549;stroke-linecap:round;stroke-linejoin:round;"
         id="path844" />
    </g>
    <path
       d="M 33.68409 42.1269 L 35.04993 34.24461 C 35.30711 32.77798 36.06824 32.04466 37.33329 32.04466 C 37.88936 32.04466 38.33074 32.16282 38.65743 32.39915 C 38.99108 32.63548 39.26911 33.01083 39.49154 33.5252 C 39.72092 34.03261 39.99895 34.80068 40.32564 35.82941 L 42.0147 41.10512 L 42.05641 41.10512 L 43.74547 35.82941 C 44.07216 34.80068 44.34672 34.03261 44.56915 33.5252 C 44.79853 33.01083 45.07656 32.63548 45.40326 32.39915 C 45.7369 32.16282 46.17828 32.04466 46.7274 32.04466 C 47.99941 32.04466 48.764 32.77798 49.02118 34.24461 L 50.38703 42.1269 C 50.76933 44.37898 50.96048 45.66837 50.96048 45.99506 C 50.96048 46.41906 50.81103 46.80136 50.51214 47.14195 C 50.22021 47.48255 49.82748 47.65284 49.33397 47.65284 C 48.85436 47.65284 48.47554 47.55205 48.1975 47.35048 C 47.91947 47.14195 47.72137 46.87087 47.60321 46.53723 C 47.48504 46.20358 47.39468 45.80739 47.33212 45.34863 L 46.29992 38.54025 L 46.25821 38.54025 L 43.93315 46.07847 C 43.76633 46.64149 43.53695 47.04464 43.24501 47.28792 C 42.95307 47.5312 42.54992 47.65284 42.03556 47.65284 C 41.52119 47.65284 41.11804 47.5312 40.82611 47.28792 C 40.53417 47.04464 40.30479 46.64149 40.13797 46.07847 L 37.80248 38.54025 L 37.76077 38.54025 L 36.73899 45.34863 C 36.67644 45.80739 36.58607 46.20358 36.46791 46.53723 C 36.34974 46.87087 36.15165 47.14195 35.87361 47.35048 C 35.59557 47.55205 35.21328 47.65284 34.72672 47.65284 C 34.24016 47.65284 33.84743 47.48255 33.54854 47.14195 C 33.25661 46.80136 33.11064 46.41906 33.11064 45.99506 C 33.11064 45.58496 33.30179 44.29557 33.68409 42.1269 z M 24.78002 35.26639 L 24.78002 39.47862 L 26.6359 39.47862 C 27.10161 39.47862 27.50824 39.3813 27.85578 39.18668 C 28.20332 38.99206 28.46746 38.73487 28.64818 38.41513 C 28.8289 38.09539 28.91926 37.75133 28.91926 37.38293 C 28.91926 36.71565 28.71074 36.19781 28.29368 35.82941 C 27.87663 35.45406 27.32404 35.26639 26.6359 35.26639 L 24.78002 35.26639 z M 21.31848 45.79696 L 21.31848 33.92139 C 21.31848 33.38618 21.48878 32.96218 21.82937 32.64939 C 22.17692 32.32965 22.58355 32.16978 23.04925 32.16978 L 27.29276 32.16978 C 28.19637 32.16978 29.04785 32.37135 29.8472 32.7745 C 30.65351 33.1707 31.29646 33.765 31.77607 34.5574 C 32.26263 35.34285 32.50591 36.28469 32.50591 37.38293 C 32.50591 38.39081 32.30781 39.29094 31.91161 40.08334 C 31.51541 40.86879 30.93502 41.48394 30.17042 41.9288 C 29.40582 42.37365 28.48483 42.59608 27.40745 42.59608 L 24.78002 42.59608 L 24.78002 45.79696 C 24.78002 46.40168 24.62015 46.86392 24.30041 47.18366 C 23.98762 47.49645 23.57057 47.65284 23.04925 47.65284 C 22.54184 47.65284 22.12479 47.49297 21.7981 47.17323 C 21.47836 46.84654 21.31848 46.38778 21.31848 45.79696 z M 9.057149 45.79696 L 9.057149 33.92139 C 9.057149 33.38618 9.227445 32.96218 9.568039 32.64939 C 9.915581 32.32965 10.32221 32.16978 10.78792 32.16978 L 14.94801 32.16978 C 15.72651 32.16978 16.42507 32.28099 17.0437 32.50342 C 17.66233 32.72584 18.19755 33.05254 18.64935 33.48349 C 19.10116 33.90749 19.44523 34.41143 19.68155 34.99531 C 19.91788 35.57918 20.03605 36.22561 20.03605 36.9346 C 20.03605 37.49762 19.95264 38.02241 19.78582 38.50897 C 19.62595 38.98858 19.38962 39.41606 19.07683 39.7914 C 18.77099 40.1598 18.39912 40.46912 17.96122 40.71935 C 17.52331 40.96958 17.03327 41.14683 16.49111 41.25109 L 19.49388 44.53538 C 19.98044 45.06364 20.22372 45.5641 20.22372 46.03676 C 20.22372 46.37736 20.0708 46.73185 19.76497 47.10025 C 19.46608 47.46864 19.02817 47.65284 18.45125 47.65284 C 18.0481 47.65284 17.73184 47.58681 17.50246 47.45474 C 17.28003 47.32267 17.04718 47.10372 16.8039 46.79788 L 12.56039 41.3762 L 12.51868 41.3762 L 12.51868 45.79696 C 12.51868 46.40168 12.35881 46.86392 12.03907 47.18366 C 11.72628 47.49645 11.30923 47.65284 10.78792 47.65284 C 10.2805 47.65284 9.86345 47.49297 9.53676 47.17323 C 9.217019 46.84654 9.057149 46.38778 9.057149 45.79696 z M 12.51868 35.40193 L 12.51868 38.79048 L 14.80204 38.79048 C 15.35116 38.79048 15.78212 38.63061 16.09491 38.31087 C 16.41465 37.98418 16.57452 37.56713 16.57452 37.05971 C 16.57452 36.55925 16.4077 36.15958 16.07405 35.86069 C 15.74041 35.55485 15.31641 35.40193 14.80204 35.40193 L 12.51868 35.40193 z "
       style="font-weight:900;fill:#333333;stroke-width:1;font-family:VAG Rounded Black SSi;"
       id="path839" />
  </g>
</svg>
