<?xml version="1.0" encoding="UTF-8" standalone="no"?>
<!DOCTYPE svg PUBLIC "-//W3C//DTD SVG 1.0//EN"
"http://www.w3.org/TR/2001/REC-SVG-20010904/DTD/svg10.dtd">
<!-- Created with Sodipodi ("http://www.sodipodi.com/") -->
<svg
   xmlns="http://www.w3.org/2000/svg"
   xmlns:xlink="http://www.w3.org/1999/xlink"
   version="1.0"
   x="0"
   y="0"
   width="60"
   height="60"
   id="svg1">
  <defs
     id="defs3">
    <linearGradient
       id="linearGradient900">
      <stop
         style="stop-color:#000000;stop-opacity:1;"
         offset="0"
         id="stop901" />
      <stop
         style="stop-color:#ffffff;stop-opacity:1;"
         offset="1"
         id="stop902" />
    </linearGradient>
    <linearGradient
       id="linearGradient903"
       xlink:href="#linearGradient900" />
    <linearGradient
       id="linearGradient904"
       xlink:href="#linearGradient900" />
    <linearGradient
       id="linearGradient905"
       xlink:href="#linearGradient900" />
    <linearGradient
       id="linearGradient906"
       xlink:href="#linearGradient900" />
    <linearGradient
       id="linearGradient907"
       xlink:href="#linearGradient900" />
  </defs>
  <rect
     width="50.7447319"
     height="50.3848419"
     rx="2"
     x="4.67859221"
     y="5.1165123"
     style="font-size:12;fill:#b3b3b3;fill-rule:evenodd;stroke:#333333;stroke-width:3.125;stroke-linejoin:round;"
     id="rect812" />
  <path
     d="M 50.62431 31.0882 L 46.38246 31.0882 C 46.38246 31.40677 46.52949 31.70818 46.82355 31.99244 C 47.11762 32.2718 47.59792 32.41148 48.26446 32.41148 C 48.60753 32.41148 48.89179 32.36737 49.11724 32.27915 C 49.34269 32.19093 49.6196 32.06596 49.94797 31.90422 C 50.28124 31.73758 50.52139 31.65427 50.66842 31.65427 C 50.94288 31.65427 51.17568 31.74984 51.36682 31.94098 C 51.55796 32.13212 51.65353 32.37962 51.65353 32.68349 C 51.65353 33.04616 51.47219 33.37698 51.10952 33.67595 C 50.75174 33.97001 50.28859 34.19546 49.72007 34.35229 C 49.15155 34.51403 48.56587 34.59489 47.96305 34.59489 C 47.34061 34.59489 46.77699 34.48707 46.27219 34.27143 C 45.77228 34.05578 45.33854 33.75191 44.97096 33.35983 C 44.60828 32.96285 44.33137 32.50215 44.14023 31.97774 C 43.94909 31.44843 43.85352 30.8897 43.85352 30.30158 C 43.85352 29.74776 43.95399 29.20865 44.15494 28.68424 C 44.35588 28.15983 44.64014 27.69913 45.00772 27.30214 C 45.3753 26.90516 45.81394 26.59394 46.32365 26.36849 C 46.83336 26.13814 47.37982 26.02297 47.96305 26.02297 C 48.71291 26.02297 49.377 26.21166 49.95532 26.58904 C 50.53364 26.96642 50.97964 27.46142 51.29331 28.07406 C 51.61187 28.68669 51.77116 29.34343 51.77116 30.04427 C 51.77116 30.44616 51.68049 30.72062 51.49915 30.86765 C 51.31781 31.01468 51.0262 31.0882 50.62431 31.0882 z M 46.38246 29.45615 L 49.41866 29.45615 C 49.41866 29.26991 49.35249 29.06407 49.22016 28.83862 C 49.08784 28.60827 48.9065 28.41713 48.67615 28.2652 C 48.4507 28.10836 48.1934 28.02995 47.90423 28.02995 C 47.61507 28.02995 47.35287 28.10836 47.11762 28.2652 C 46.88727 28.42203 46.70593 28.61317 46.5736 28.83862 C 46.44617 29.05917 46.38246 29.26501 46.38246 29.45615 z M 36.88424 30.30158 C 36.88424 29.52231 37.05087 28.80431 37.38414 28.14757 C 37.71742 27.48593 38.18302 26.96642 38.78094 26.58904 C 39.38377 26.21166 40.06992 26.02297 40.83938 26.02297 C 41.24617 26.02297 41.66521 26.07198 42.0965 26.17 C 42.52779 26.26312 42.89047 26.42486 43.18453 26.6552 C 43.47859 26.88555 43.62562 27.19677 43.62562 27.58885 C 43.62562 27.90252 43.5325 28.16473 43.34626 28.37547 C 43.16493 28.58622 42.93703 28.69159 42.66257 28.69159 C 42.53024 28.69159 42.40036 28.66953 42.27293 28.62542 C 42.15041 28.58131 42.02543 28.53475 41.898 28.48574 C 41.77548 28.43183 41.64315 28.38772 41.50102 28.35342 C 41.36379 28.31911 41.1898 28.30195 40.97906 28.30195 C 40.59678 28.30195 40.27331 28.39262 40.00865 28.57396 C 39.7489 28.7504 39.55286 28.99055 39.42053 29.29442 C 39.2931 29.59338 39.22939 29.9291 39.22939 30.30158 C 39.22939 30.66426 39.2931 31.00243 39.42053 31.3161 C 39.54796 31.62486 39.73174 31.86991 39.9719 32.05125 C 40.21695 32.23259 40.50611 32.32326 40.83938 32.32326 C 41.21676 32.32326 41.59659 32.2522 41.97887 32.11006 C 42.36115 31.96794 42.58905 31.89687 42.66257 31.89687 C 42.83901 31.89687 43.00074 31.94833 43.14777 32.05125 C 43.2948 32.15418 43.40998 32.28895 43.4933 32.45559 C 43.58151 32.61732 43.62562 32.78396 43.62562 32.9555 C 43.62562 33.31817 43.46634 33.62449 43.14777 33.87444 C 42.83411 34.12439 42.45918 34.30573 42.02298 34.41846 C 41.58679 34.53608 41.19226 34.59489 40.83938 34.59489 C 40.25616 34.59489 39.72194 34.48707 39.23674 34.27143 C 38.75644 34.05578 38.3374 33.74946 37.97962 33.35248 C 37.62185 32.95059 37.34984 32.4899 37.1636 31.97039 C 36.97736 31.44597 36.88424 30.8897 36.88424 30.30158 z M 31.89988 33.20545 L 31.89988 27.39771 C 31.89988 27.04974 32.0077 26.76058 32.22335 26.53023 C 32.44389 26.29498 32.7257 26.17735 33.06878 26.17735 C 33.35304 26.17735 33.59809 26.25332 33.80393 26.40525 C 34.01468 26.55228 34.16171 26.72627 34.24503 26.92721 C 34.74983 26.32438 35.2914 26.02297 35.86972 26.02297 C 36.18829 26.02297 36.46765 26.13814 36.7078 26.36849 C 36.95285 26.59394 37.07538 26.88555 37.07538 27.24333 C 37.07538 27.61091 36.96021 27.87802 36.72986 28.04465 C 36.50441 28.21129 36.12948 28.37057 35.60507 28.5225 C 35.07085 28.67443 34.71063 28.86557 34.52439 29.09592 C 34.33815 29.32137 34.24503 29.72816 34.24503 30.31628 L 34.24503 33.20545 C 34.24503 33.55342 34.13475 33.84748 33.91421 34.08764 C 33.69856 34.32289 33.41675 34.44051 33.06878 34.44051 C 32.7257 34.44051 32.44389 34.32289 32.22335 34.08764 C 32.0077 33.84748 31.89988 33.55342 31.89988 33.20545 z M 30.81185 27.39771 L 30.81185 31.43372 C 30.81185 32.13947 30.65011 32.7276 30.32664 33.1981 C 30.00317 33.6686 29.56698 34.01902 29.01806 34.24937 C 28.46915 34.47972 27.85162 34.59489 27.16547 34.59489 C 26.47932 34.59489 25.86179 34.47972 25.31288 34.24937 C 24.76886 34.01902 24.33512 33.6686 24.01165 33.1981 C 23.68818 32.7276 23.52645 32.13947 23.52645 31.43372 L 23.52645 27.39771 C 23.52645 27.04974 23.63427 26.76058 23.84992 26.53023 C 24.07046 26.29498 24.35227 26.17735 24.69534 26.17735 C 25.04332 26.17735 25.32513 26.29498 25.54078 26.53023 C 25.76132 26.76058 25.8716 27.04974 25.8716 27.39771 L 25.8716 31.1029 C 25.8716 31.51459 26.00147 31.83561 26.26123 32.06596 C 26.52588 32.2963 26.8273 32.41148 27.16547 32.41148 C 27.49874 32.41148 27.79771 32.2963 28.06236 32.06596 C 28.32702 31.83071 28.45935 31.50969 28.45935 31.1029 L 28.45935 27.39771 C 28.45935 27.05464 28.56962 26.76548 28.79017 26.53023 C 29.01071 26.29498 29.29252 26.17735 29.6356 26.17735 C 29.97867 26.17735 30.26048 26.29498 30.48103 26.53023 C 30.70157 26.76058 30.81185 27.04974 30.81185 27.39771 z M 18.79204 26.02297 C 19.38016 26.02297 19.91683 26.13324 20.40203 26.35379 C 20.89214 26.56944 21.31117 26.8733 21.65915 27.26538 C 22.01202 27.65747 22.28158 28.11081 22.46782 28.62542 C 22.65896 29.13513 22.75453 29.69385 22.75453 30.30158 C 22.75453 31.09065 22.5879 31.816 22.25463 32.47764 C 21.92626 33.13438 21.46066 33.65144 20.85783 34.02882 C 20.255 34.4062 19.5664 34.59489 18.79204 34.59489 C 18.20882 34.59489 17.6746 34.48707 17.1894 34.27143 C 16.7091 34.05578 16.29006 33.74946 15.93228 33.35248 C 15.57451 32.95059 15.3025 32.4899 15.11626 31.97039 C 14.93002 31.44597 14.8369 30.8897 14.8369 30.30158 C 14.8369 29.52231 15.00353 28.80431 15.3368 28.14757 C 15.67007 27.48593 16.13567 26.96642 16.7336 26.58904 C 17.33643 26.21166 18.02257 26.02297 18.79204 26.02297 z M 18.79204 28.30195 C 18.29213 28.30195 17.8976 28.4931 17.60844 28.87538 C 17.32418 29.25766 17.18205 29.73306 17.18205 30.30158 C 17.18205 30.66426 17.24576 31.00243 17.37319 31.3161 C 17.50061 31.62486 17.6844 31.86991 17.92455 32.05125 C 18.16961 32.23259 18.45877 32.32326 18.79204 32.32326 C 19.29685 32.32326 19.69138 32.13212 19.97564 31.74984 C 20.2599 31.36266 20.40203 30.8799 20.40203 30.30158 C 20.40203 29.72816 20.2599 29.25276 19.97564 28.87538 C 19.69138 28.4931 19.29685 28.30195 18.79204 28.30195 z M 8.330762 32.9555 C 8.330762 32.62223 8.423882 32.34777 8.610122 32.13212 C 8.801262 31.91647 9.031611 31.80865 9.301169 31.80865 C 9.462903 31.80865 9.617286 31.83806 9.764317 31.89687 C 9.911348 31.95078 10.10739 32.039 10.35244 32.16153 C 10.6024 32.27915 10.80824 32.36492 10.96997 32.41883 C 11.13171 32.47274 11.32775 32.4997 11.5581 32.4997 C 11.78355 32.4997 11.95018 32.45559 12.05801 32.36737 C 12.16583 32.27425 12.21974 32.15908 12.21974 32.02185 C 12.21974 31.89932 12.18543 31.79885 12.11682 31.72043 C 12.0482 31.64202 11.95753 31.5783 11.84481 31.52929 C 11.73209 31.47538 11.5728 31.40922 11.36696 31.3308 C 11.16112 31.25238 10.83765 31.12495 10.39655 30.94852 C 9.935854 30.75248 9.580528 30.56869 9.330575 30.39715 C 9.080622 30.22071 8.88703 29.99772 8.749801 29.72816 C 8.612572 29.4537 8.543957 29.11308 8.543957 28.70629 C 8.543957 28.24559 8.666483 27.8094 8.911536 27.39771 C 9.161489 26.98603 9.516815 26.6552 9.977513 26.40525 C 10.44311 26.1504 10.97488 26.02297 11.5728 26.02297 C 11.82766 26.02297 12.11192 26.05483 12.42558 26.11854 C 12.73925 26.17735 13.03576 26.27782 13.31512 26.41995 C 13.59938 26.55718 13.82973 26.73362 14.00617 26.94927 C 14.18751 27.16491 14.27818 27.41977 14.27818 27.71383 C 14.27818 27.90497 14.23407 28.07896 14.14585 28.23579 C 14.06253 28.38772 13.94491 28.50535 13.79298 28.58867 C 13.64594 28.66708 13.48176 28.70629 13.30042 28.70629 C 13.2024 28.70629 13.09458 28.68424 12.97695 28.64013 C 12.86423 28.59602 12.70249 28.52495 12.49175 28.42693 C 12.2859 28.32891 12.09721 28.25295 11.92568 28.19903 C 11.75414 28.14512 11.58506 28.11817 11.41842 28.11817 C 11.24688 28.11817 11.09985 28.15983 10.97733 28.24314 C 10.8597 28.32646 10.80089 28.45144 10.80089 28.61807 C 10.80089 28.80921 10.99203 28.98565 11.37431 29.14738 C 11.75659 29.30422 12.20014 29.48556 12.70494 29.6914 C 13.21465 29.89725 13.63614 30.17415 13.96941 30.52213 C 14.30758 30.8701 14.47667 31.33815 14.47667 31.92628 C 14.47667 32.46539 14.34189 32.93834 14.07234 33.34513 C 13.80278 33.74701 13.4352 34.05578 12.9696 34.27143 C 12.5089 34.48707 12.00654 34.59489 11.46253 34.59489 C 10.66366 34.59489 9.940755 34.44541 9.293817 34.14645 C 8.65178 33.84258 8.330762 33.4456 8.330762 32.9555 z "
     style="font-size:12;font-weight:900;fill:#333333;stroke-width:1;font-family:VAG Rounded Black SSi;"
     id="path837" />
</svg>
