<?xml version="1.0" encoding="UTF-8" standalone="no"?>
<!DOCTYPE svg PUBLIC "-//W3C//DTD SVG 1.0//EN"
"http://www.w3.org/TR/2001/REC-SVG-20010904/DTD/svg10.dtd">
<!-- Created with Sodipodi ("http://www.sodipodi.com/") -->
<svg
   xmlns="http://www.w3.org/2000/svg"
   xmlns:xlink="http://www.w3.org/1999/xlink"
   version="1.0"
   x="0"
   y="0"
   width="60"
   height="60"
   id="svg1">
  <defs
     id="defs3">
    <linearGradient
       id="linearGradient900">
      <stop
         style="stop-color:#000000;stop-opacity:1;"
         offset="0"
         id="stop901" />
      <stop
         style="stop-color:#ffffff;stop-opacity:1;"
         offset="1"
         id="stop902" />
    </linearGradient>
    <linearGradient
       id="linearGradient903"
       xlink:href="#linearGradient900" />
    <linearGradient
       id="linearGradient904"
       xlink:href="#linearGradient900" />
    <linearGradient
       id="linearGradient905"
       xlink:href="#linearGradient900" />
    <linearGradient
       id="linearGradient906"
       xlink:href="#linearGradient900" />
    <linearGradient
       id="linearGradient907"
       xlink:href="#linearGradient900" />
  </defs>
  <rect
     width="50.7447319"
     height="50.3848419"
     rx="2"
     x="4.67859221"
     y="5.1165123"
     style="font-size:12;fill:#b3b3b3;fill-rule:evenodd;stroke-width:3.125;"
     id="rect812" />
  <path
     d="M 15.78125 20.875 C 14.63724 20.71617 13.59633 21.51224 13.4375 22.65625 L 10.5 43.8125 C 10.34117 44.95651 11.13724 45.99742 12.28125 46.15625 L 53.65625 51.90625 C 54.38374 52.00725 54.99137 51.63934 55.4375 51.125 L 55.4375 26.375 L 15.78125 20.875 z "
     style="font-size:12;fill:#8c8c8c;fill-rule:evenodd;stroke-width:1.874999;"
     id="path944" />
  <path
     d="M 13.90625 34.5 C 12.75934 34.34751 11.74373 34.97188 11.625 35.875 L 11.03125 40.40625 C 10.91252 41.30937 11.72809 42.16001 12.875 42.3125 L 54.375 47.84375 C 54.7724 47.89659 55.10296 47.76608 55.4375 47.65625 L 55.4375 40.03125 C 55.42709 40.02974 55.41671 40.03264 55.40625 40.03125 L 13.90625 34.5 z "
     style="font-size:12;fill:#4c4c4c;fill-rule:evenodd;stroke-width:1;"
     id="path940" />
  <path
     d="M 15.78125 20.875 C 14.63724 20.71617 13.59633 21.51224 13.4375 22.65625 L 10.5 43.8125 C 10.34117 44.95651 11.13724 45.99742 12.28125 46.15625 L 53.65625 51.90625 C 54.38374 52.00725 54.99137 51.63934 55.4375 51.125 L 55.4375 26.375 L 15.78125 20.875 z "
     style="font-size:12;fill:none;fill-rule:evenodd;stroke:#4c4c4c;stroke-width:1.874999;"
     id="path942" />
  <rect
     width="38.8683052"
     height="21.593504"
     rx="1.76326537"
     x="-26.9918785"
     y="13.5739679"
     transform="matrix(1.164392,-0.205328,0.205328,1.164392,33.05738,-6.268548)"
     style="font-size:12;fill:#666666;fill-rule:evenodd;stroke:#333333;stroke-width:2.000629;"
     id="rect1177" />
  <path
     d="M -26.4257 -0.452994 L -24.77336 -4.853385 C -24.64836 -5.158073 -24.51945 -5.382682 -24.38664 -5.527213 C -24.24992 -5.671744 -24.0175 -5.74401 -23.68937 -5.74401 C -23.51359 -5.74401 -23.35344 -5.699088 -23.2089 -5.609244 C -23.06047 -5.523307 -22.94523 -5.406119 -22.8632 -5.257682 C -22.78117 -5.113151 -22.74015 -4.954948 -22.74015 -4.783073 C -22.74015 -4.654166 -22.80851 -4.417838 -22.94523 -4.074088 L -25.37101 1.984506 C -25.50383 2.328256 -25.63859 2.588021 -25.77531 2.763803 C -25.91203 2.939584 -26.13664 3.027474 -26.44914 3.027474 C -26.67179 3.027474 -26.84953 2.980599 -26.98234 2.886849 C -27.11515 2.789193 -27.21476 2.679818 -27.28117 2.558724 C -27.34758 2.437631 -27.43156 2.246224 -27.53312 1.984506 L -29.90617 -4.074088 C -30.04289 -4.413932 -30.11125 -4.65026 -30.11125 -4.783073 C -30.11125 -4.954948 -30.07023 -5.113151 -29.9882 -5.257682 C -29.90617 -5.406119 -29.79289 -5.523307 -29.64836 -5.609244 C -29.49992 -5.699088 -29.33781 -5.74401 -29.16203 -5.74401 C -28.83 -5.74401 -28.59562 -5.669791 -28.4589 -5.521354 C -28.32219 -5.372916 -28.19719 -5.15026 -28.0839 -4.853385 L -26.4257 -0.452994 z "
     transform="matrix(2.106222,-0.333185,0.333185,2.106222,73.61544,20.06289)"
     style="font-size:12;font-weight:900;fill:#cccccc;stroke:#333333;stroke-width:0.739525;font-family:VAG Rounded Black SSi;"
     id="path854" />
  <path
     d="M -19.66501 1.625442 L -19.66501 9.060988 C -19.66501 9.342238 -19.75289 9.576613 -19.92868 9.764113 C -20.10446 9.951613 -20.32907 10.04536 -20.60251 10.04536 C -20.81735 10.04536 -20.99899 9.98677 -21.14743 9.869582 C -21.29196 9.752395 -21.40133 9.61177 -21.47555 9.447707 C -21.68649 9.70552 -21.92086 9.889113 -22.17868 9.998488 C -22.43258 10.11177 -22.73532 10.16841 -23.08688 10.16841 C -23.62204 10.16841 -24.11032 10.01802 -24.55172 9.717238 C -24.98922 9.412551 -25.33688 8.998488 -25.59469 8.475051 C -25.8486 7.947707 -25.97555 7.371535 -25.97555 6.746535 C -25.97555 6.129348 -25.8486 5.559035 -25.59469 5.035598 C -25.33688 4.508254 -24.98727 4.094192 -24.54586 3.79341 C -24.10446 3.488723 -23.61813 3.336379 -23.08688 3.336379 C -22.71969 3.336379 -22.42086 3.383254 -22.19039 3.477004 C -21.95602 3.570754 -21.73922 3.701613 -21.54001 3.869582 L -21.54001 1.625442 C -21.54001 1.348098 -21.45211 1.115676 -21.27633 0.928176 C -21.09664 0.73677 -20.87204 0.641067 -20.60251 0.641067 C -20.33297 0.641067 -20.11032 0.734817 -19.93454 0.922317 C -19.75485 1.109817 -19.66501 1.344192 -19.66501 1.625442 z M -22.82321 5.152785 C -23.22164 5.152785 -23.5361 5.305129 -23.76657 5.609817 C -23.99313 5.914504 -24.10641 6.29341 -24.10641 6.746535 C -24.10641 7.035598 -24.05563 7.305129 -23.95407 7.555129 C -23.85251 7.801223 -23.70602 7.996535 -23.51461 8.141067 C -23.3193 8.285598 -23.08883 8.357863 -22.82321 8.357863 C -22.42086 8.357863 -22.10641 8.20552 -21.87985 7.900832 C -21.65329 7.592238 -21.54001 7.207473 -21.54001 6.746535 C -21.54001 6.289504 -21.65329 5.910598 -21.87985 5.609817 C -22.10641 5.305129 -22.42086 5.152785 -22.82321 5.152785 z M -29.94821 9.060988 L -29.94821 4.432082 C -29.94821 4.154738 -29.86227 3.92427 -29.69039 3.740676 C -29.51461 3.553176 -29.29001 3.459426 -29.01657 3.459426 C -28.79001 3.459426 -28.59469 3.519973 -28.43063 3.641067 C -28.26266 3.758254 -28.14547 3.896926 -28.07907 4.057082 C -27.67672 3.576613 -27.24508 3.336379 -26.78414 3.336379 C -26.53024 3.336379 -26.30758 3.428176 -26.11618 3.61177 C -25.92086 3.791457 -25.82321 4.023879 -25.82321 4.309035 C -25.82321 4.602004 -25.91501 4.814895 -26.0986 4.947707 C -26.27829 5.08052 -26.57711 5.207473 -26.99508 5.328567 C -27.42086 5.44966 -27.70797 5.602004 -27.85641 5.785598 C -28.00485 5.965285 -28.07907 6.289504 -28.07907 6.758254 L -28.07907 9.060988 C -28.07907 9.338332 -28.16696 9.572707 -28.34274 9.764113 C -28.51461 9.951613 -28.73922 10.04536 -29.01657 10.04536 C -29.29001 10.04536 -29.51461 9.951613 -29.69039 9.764113 C -29.86227 9.572707 -29.94821 9.338332 -29.94821 9.060988 z M -30.78024 4.432082 L -30.78024 9.060988 C -30.78024 9.342238 -30.86813 9.576613 -31.04391 9.764113 C -31.21969 9.951613 -31.4443 10.04536 -31.71774 10.04536 C -31.93258 10.04536 -32.11422 9.98677 -32.26266 9.869582 C -32.40719 9.752395 -32.51657 9.61177 -32.59079 9.447707 C -32.80172 9.70552 -33.0361 9.889113 -33.29391 9.998488 C -33.54782 10.11177 -33.85055 10.16841 -34.20211 10.16841 C -34.73727 10.16841 -35.22555 10.01802 -35.66696 9.717238 C -36.10446 9.412551 -36.45211 8.998488 -36.70993 8.475051 C -36.96383 7.947707 -37.09079 7.371535 -37.09079 6.746535 C -37.09079 6.129348 -36.96383 5.559035 -36.70993 5.035598 C -36.45211 4.508254 -36.10251 4.094192 -35.6611 3.79341 C -35.21969 3.488723 -34.73336 3.336379 -34.20211 3.336379 C -33.84665 3.336379 -33.54391 3.391067 -33.29391 3.500442 C -33.04001 3.609817 -32.80563 3.795363 -32.59079 4.057082 C -32.52047 3.896926 -32.4111 3.758254 -32.26266 3.641067 C -32.11422 3.519973 -31.93258 3.459426 -31.71774 3.459426 C -31.4443 3.459426 -31.21969 3.553176 -31.04391 3.740676 C -30.86813 3.92427 -30.78024 4.154738 -30.78024 4.432082 z M -33.93844 5.152785 C -34.33688 5.152785 -34.65133 5.305129 -34.8818 5.609817 C -35.10836 5.914504 -35.22165 6.29341 -35.22165 6.746535 C -35.22165 7.035598 -35.17086 7.305129 -35.0693 7.555129 C -34.96774 7.801223 -34.82126 7.996535 -34.62985 8.141067 C -34.43454 8.285598 -34.20407 8.357863 -33.93844 8.357863 C -33.5361 8.357863 -33.22165 8.20552 -32.99508 7.900832 C -32.76852 7.592238 -32.65524 7.207473 -32.65524 6.746535 C -32.65524 6.289504 -32.76852 5.910598 -32.99508 5.609817 C -33.22165 5.305129 -33.5361 5.152785 -33.93844 5.152785 z M -42.64547 6.746535 C -42.64547 6.125442 -42.51266 5.553176 -42.24704 5.029738 C -41.98141 4.502395 -41.61032 4.088332 -41.13376 3.787551 C -40.65329 3.48677 -40.10641 3.336379 -39.49313 3.336379 C -39.16891 3.336379 -38.83493 3.375442 -38.49118 3.453567 C -38.14743 3.527785 -37.85836 3.656692 -37.62399 3.840285 C -37.38961 4.023879 -37.27243 4.271926 -37.27243 4.584426 C -37.27243 4.834426 -37.34665 5.04341 -37.49508 5.211379 C -37.63961 5.379348 -37.82126 5.463332 -38.04001 5.463332 C -38.14547 5.463332 -38.24899 5.445754 -38.35055 5.410598 C -38.44821 5.375442 -38.54782 5.338332 -38.64938 5.29927 C -38.74704 5.256301 -38.85251 5.221145 -38.96579 5.193801 C -39.07516 5.166457 -39.21383 5.152785 -39.3818 5.152785 C -39.68649 5.152785 -39.9443 5.225051 -40.15524 5.369582 C -40.36227 5.510207 -40.51852 5.701613 -40.62399 5.943801 C -40.72555 6.182082 -40.77633 6.44966 -40.77633 6.746535 C -40.77633 7.035598 -40.72555 7.305129 -40.62399 7.555129 C -40.52243 7.801223 -40.37594 7.996535 -40.18454 8.141067 C -39.98922 8.285598 -39.75876 8.357863 -39.49313 8.357863 C -39.19235 8.357863 -38.88961 8.301223 -38.58493 8.187942 C -38.28024 8.07466 -38.0986 8.01802 -38.04001 8.01802 C -37.89938 8.01802 -37.77047 8.059035 -37.65329 8.141067 C -37.5361 8.223098 -37.4443 8.33052 -37.3779 8.463332 C -37.30758 8.592238 -37.27243 8.725051 -37.27243 8.86177 C -37.27243 9.150832 -37.39938 9.394973 -37.65329 9.594192 C -37.90329 9.79341 -38.20211 9.937942 -38.54977 10.02778 C -38.89743 10.12153 -39.21188 10.16841 -39.49313 10.16841 C -39.95797 10.16841 -40.38376 10.08247 -40.77047 9.910598 C -41.15329 9.738723 -41.48727 9.494582 -41.77243 9.178176 C -42.05758 8.857863 -42.27438 8.490676 -42.42282 8.076613 C -42.57126 7.658645 -42.64547 7.215285 -42.64547 6.746535 z "
     transform="matrix(1.083323,-0.178121,0.178121,1.083323,70.17995,15.43509)"
     style="font-size:12;font-weight:900;fill:#b3b3b3;stroke:#333333;stroke-width:0.718197;font-family:VAG Rounded Black SSi;"
     id="path853" />
  <rect
     width="50.7447319"
     height="50.3848419"
     rx="2"
     x="4.67859221"
     y="5.1165123"
     style="font-size:12;fill:none;fill-rule:evenodd;stroke:#333333;stroke-width:3.125;"
     id="rect935" />
</svg>
