<?xml version="1.0" encoding="UTF-8" standalone="no"?>
<!DOCTYPE svg PUBLIC "-//W3C//DTD SVG 1.0//EN"
"http://www.w3.org/TR/2001/REC-SVG-20010904/DTD/svg10.dtd">
<!-- Created with Sodipodi ("http://www.sodipodi.com/") -->
<svg
   xmlns="http://www.w3.org/2000/svg"
   xmlns:xlink="http://www.w3.org/1999/xlink"
   version="1.0"
   x="0"
   y="0"
   width="60"
   height="60"
   id="svg1">
  <defs
     id="defs3">
    <linearGradient
       id="linearGradient900">
      <stop
         style="stop-color:#000000;stop-opacity:1;"
         offset="0"
         id="stop901" />
      <stop
         style="stop-color:#ffffff;stop-opacity:1;"
         offset="1"
         id="stop902" />
    </linearGradient>
    <linearGradient
       id="linearGradient903"
       xlink:href="#linearGradient900" />
    <linearGradient
       id="linearGradient904"
       xlink:href="#linearGradient900" />
    <linearGradient
       id="linearGradient905"
       xlink:href="#linearGradient900" />
    <linearGradient
       id="linearGradient906"
       xlink:href="#linearGradient900" />
    <linearGradient
       id="linearGradient907"
       xlink:href="#linearGradient900" />
  </defs>
  <rect
     width="50.7447319"
     height="50.3848419"
     rx="2"
     x="4.67859221"
     y="5.1165123"
     style="font-size:12;fill:#b3b3b3;fill-rule:evenodd;stroke:#333333;stroke-width:3.125;stroke-linejoin:round;"
     id="rect812" />
  <path
     d="M 30.85006 25.9759 L 30.85006 21.34699 C 30.85006 21.06965 30.93599 20.83918 31.10787 20.65559 C 31.28365 20.46809 31.50826 20.37434 31.7817 20.37434 C 32.05904 20.37434 32.28365 20.46809 32.45552 20.65559 C 32.63131 20.83918 32.7192 21.06965 32.7192 21.34699 L 32.7192 25.9759 C 32.7192 26.25324 32.63131 26.48762 32.45552 26.67902 C 32.28365 26.86652 32.05904 26.96027 31.7817 26.96027 C 31.50826 26.96027 31.28365 26.86652 31.10787 26.67902 C 30.93599 26.48762 30.85006 26.25324 30.85006 25.9759 z M 30.66841 18.68098 C 30.66841 18.37629 30.77779 18.11262 30.99654 17.88996 C 31.21529 17.6673 31.47701 17.55598 31.7817 17.55598 C 32.09029 17.55598 32.35396 17.66535 32.57271 17.8841 C 32.79146 18.10285 32.90084 18.36848 32.90084 18.68098 C 32.90084 19.0052 32.79146 19.27473 32.57271 19.48957 C 32.35396 19.70441 32.09029 19.81184 31.7817 19.81184 C 31.47701 19.81184 31.21529 19.70246 30.99654 19.48371 C 30.77779 19.26496 30.66841 18.99738 30.66841 18.68098 z M 26.63716 26.1927 L 25.11373 22.36652 C 24.92232 21.88996 24.82662 21.5384 24.82662 21.31184 C 24.82662 21.14387 24.86763 20.98762 24.94966 20.84309 C 25.0356 20.69855 25.15084 20.58527 25.29537 20.50324 C 25.4399 20.4173 25.59615 20.37434 25.76412 20.37434 C 25.97506 20.37434 26.15474 20.42512 26.30318 20.52668 C 26.45162 20.62434 26.57076 20.80988 26.6606 21.08332 L 27.6567 23.94855 L 27.68013 23.94855 L 28.67623 21.08332 C 28.77388 20.80598 28.89498 20.61848 29.03951 20.52082 C 29.18404 20.42316 29.36373 20.37434 29.57857 20.37434 C 29.71529 20.37434 29.83834 20.39973 29.94771 20.45051 C 30.06099 20.50129 30.15865 20.5677 30.24068 20.64973 C 30.32271 20.72785 30.38912 20.82551 30.4399 20.9427 C 30.49068 21.05598 30.51607 21.17902 30.51607 21.31184 C 30.51607 21.53059 30.41841 21.88215 30.2231 22.36652 L 28.69966 26.1927 C 28.50435 26.70441 28.1606 26.96027 27.66841 26.96027 C 27.18404 26.96027 26.84029 26.70441 26.63716 26.1927 z M 24.48677 18.54035 L 24.48677 25.9759 C 24.48677 26.25715 24.39888 26.49152 24.2231 26.67902 C 24.04732 26.86652 23.82271 26.96027 23.54927 26.96027 C 23.33443 26.96027 23.15279 26.90168 23.00435 26.78449 C 22.85982 26.6673 22.75045 26.52668 22.67623 26.36262 C 22.46529 26.62043 22.23091 26.80402 21.9731 26.9134 C 21.7192 27.02668 21.41646 27.08332 21.0649 27.08332 C 20.52974 27.08332 20.04146 26.93293 19.60006 26.63215 C 19.16256 26.32746 18.8149 25.9134 18.55709 25.38996 C 18.30318 24.86262 18.17623 24.28645 18.17623 23.66145 C 18.17623 23.04426 18.30318 22.47395 18.55709 21.95051 C 18.8149 21.42316 19.16451 21.0091 19.60591 20.70832 C 20.04732 20.40363 20.53365 20.25129 21.0649 20.25129 C 21.43209 20.25129 21.73091 20.29816 21.96138 20.39191 C 22.19576 20.48566 22.41256 20.61652 22.61177 20.78449 L 22.61177 18.54035 C 22.61177 18.26301 22.69966 18.03059 22.87545 17.84309 C 23.05513 17.65168 23.27974 17.55598 23.54927 17.55598 C 23.81881 17.55598 24.04146 17.64973 24.21724 17.83723 C 24.39693 18.02473 24.48677 18.2591 24.48677 18.54035 z M 21.32857 22.0677 C 20.93013 22.0677 20.61568 22.22004 20.38521 22.52473 C 20.15865 22.82941 20.04537 23.20832 20.04537 23.66145 C 20.04537 23.95051 20.09615 24.22004 20.19771 24.47004 C 20.29927 24.71613 20.44576 24.91145 20.63716 25.05598 C 20.83248 25.20051 21.06295 25.27277 21.32857 25.27277 C 21.73091 25.27277 22.04537 25.12043 22.27193 24.81574 C 22.49849 24.50715 22.61177 24.12238 22.61177 23.66145 C 22.61177 23.20441 22.49849 22.82551 22.27193 22.52473 C 22.04537 22.22004 21.73091 22.0677 21.32857 22.0677 z "
     transform="matrix(2.794169,0,0,2.794169,-41.72138,-31.82987)"
     style="font-size:12;font-weight:900;fill:#333333;stroke-width:1;font-family:VAG Rounded Black SSi;"
     id="path837" />
</svg>
