/* XPM */
static char * disk_on_xpm[] = {
"16 16 122 2",
"  	c None",
". 	c #808780",
"+ 	c #8F978F",
"@ 	c #8E978D",
"# 	c #7D867C",
"$ 	c #787F76",
"% 	c #5E675E",
"& 	c #838982",
"* 	c #9AA299",
"= 	c #B2BAB1",
"- 	c #95A094",
"; 	c #8D988C",
"> 	c #778175",
", 	c #717B71",
"' 	c #8A9589",
") 	c #717B70",
"! 	c #C0C6BF",
"~ 	c #D0D4CF",
"{ 	c #CACFCA",
"] 	c #B9BFB9",
"^ 	c #7B807A",
"/ 	c #7C847B",
"( 	c #5A615A",
"_ 	c #9AA399",
": 	c #9CA59C",
"< 	c #494F49",
"[ 	c #C0C6C0",
"} 	c #BDC3BC",
"| 	c #B9C0B9",
"1 	c #969B96",
"2 	c #667C5E",
"3 	c #71B847",
"4 	c #4EAA18",
"5 	c #448520",
"6 	c #6FB645",
"7 	c #575E57",
"8 	c #949F93",
"9 	c #909C8F",
"0 	c #8C978B",
"a 	c #7E9376",
"b 	c #4B8B29",
"c 	c #58A82A",
"d 	c #9ADB73",
"e 	c #ADEC88",
"f 	c #57A82A",
"g 	c #52982C",
"h 	c #718673",
"i 	c #859C88",
"j 	c #707970",
"k 	c #737867",
"l 	c #686B58",
"m 	c #7ABA53",
"n 	c #3B8610",
"o 	c #92E263",
"p 	c #A0E976",
"q 	c #9EE674",
"r 	c #3C850F",
"s 	c #7EC855",
"t 	c #232A24",
"u 	c #465549",
"v 	c #2B332D",
"w 	c #4C4B3D",
"x 	c #2C2B20",
"y 	c #4A9E18",
"z 	c #367810",
"A 	c #64C32E",
"B 	c #6DD72F",
"C 	c #70DB31",
"D 	c #367710",
"E 	c #4BA119",
"F 	c #1D211E",
"G 	c #3F564A",
"H 	c #23312B",
"I 	c #1A1C19",
"J 	c #535B53",
"K 	c #337211",
"L 	c #3B7F14",
"M 	c #4BA417",
"N 	c #56BE1A",
"O 	c #5ECB1D",
"P 	c #347311",
"Q 	c #617E6C",
"R 	c #233931",
"S 	c #10110F",
"T 	c #303530",
"U 	c #377711",
"V 	c #4A9C18",
"W 	c #59C11C",
"X 	c #69D527",
"Y 	c #72DC36",
"Z 	c #5AC21C",
"` 	c #377811",
" .	c #4D6456",
"..	c #284238",
"+.	c #0E1310",
"@.	c #0F110E",
"#.	c #50A321",
"$.	c #4EA819",
"%.	c #6AD929",
"&.	c #82DF4A",
"*.	c #8FE35E",
"=.	c #83E04A",
"-.	c #4EA918",
";.	c #55AB21",
">.	c #36463D",
",.	c #284137",
"'.	c #23332B",
").	c #010001",
"!.	c #4AA219",
"~.	c #7EE043",
"{.	c #97E569",
"].	c #9EE675",
"^.	c #7FE143",
"/.	c #49A216",
"(.	c #96D075",
"_.	c #68AD3F",
":.	c #66B936",
"<.	c #93E563",
"[.	c #A2E97B",
"}.	c #68AD3E",
"|.	c #63C62A",
"1.	c #5BAF2A",
"                                ",
"                                ",
"                                ",
"            . + @ # $ %         ",
"        & * = - ; > , ' )       ",
"      ! ~ { ] ^ / ( - _ : <     ",
"      [ } | 1 2 3 4 5 5 4 6     ",
"    7 8 9 0 a b c d e e d f g   ",
"  h i j k l m n o p q q p o r s ",
"  t u v w x y z A B C C B A D E ",
"  F G H I J K L M N O O N M L P ",
"    Q R S T U V W X Y Y X Z V ` ",
"     ...+.@.#.$.%.&.*.*.=.%.-.;.",
"    >.,.'.).  !.~.{.].].{.^./.(.",
"              _.:.<.[.[.<.:.}.  ",
"                  |.1.1.|.      "};
