/* XPM */
static char * disk_off_xpm[] = {
"16 16 128 2",
"  	c None",
". 	c #808780",
"+ 	c #8F978F",
"@ 	c #8E978D",
"# 	c #7D867C",
"$ 	c #787F76",
"% 	c #5E675E",
"& 	c #838982",
"* 	c #9AA299",
"= 	c #B2BAB1",
"- 	c #95A094",
"; 	c #8D988C",
"> 	c #778175",
", 	c #717B71",
"' 	c #8A9589",
") 	c #717B70",
"! 	c #C0C6BF",
"~ 	c #D0D4CF",
"{ 	c #CACFCA",
"] 	c #B9BFB9",
"^ 	c #7B807A",
"/ 	c #7C847B",
"( 	c #5A615A",
"_ 	c #9AA399",
": 	c #9CA59C",
"< 	c #494F49",
"[ 	c #C0C6C0",
"} 	c #BDC3BC",
"| 	c #B9C0B9",
"1 	c #969B96",
"2 	c #646C64",
"3 	c #555B55",
"4 	c #6A6F6A",
"5 	c #D0D5D0",
"6 	c #CED3CD",
"7 	c #BCC0BB",
"8 	c #464C45",
"9 	c #575E57",
"0 	c #949F93",
"a 	c #909C8F",
"b 	c #8C978B",
"c 	c #7E867E",
"d 	c #29302C",
"e 	c #424540",
"f 	c #A0AA9F",
"g 	c #C3CAC2",
"h 	c #676D67",
"i 	c #3D423C",
"j 	c #718673",
"k 	c #859C88",
"l 	c #707970",
"m 	c #737867",
"n 	c #686B58",
"o 	c #69654C",
"p 	c #5F5841",
"q 	c #514F3F",
"r 	c #798179",
"s 	c #7E887D",
"t 	c #576357",
"u 	c #5C605B",
"v 	c #4A514B",
"w 	c #41463F",
"x 	c #232A24",
"y 	c #465549",
"z 	c #2B332D",
"A 	c #4C4B3D",
"B 	c #2C2B20",
"C 	c #2F3029",
"D 	c #343934",
"E 	c #3A3F3A",
"F 	c #575B53",
"G 	c #BA5D5B",
"H 	c #DB3B3B",
"I 	c #BC3E3E",
"J 	c #B55251",
"K 	c #1D211E",
"L 	c #3F564A",
"M 	c #23312B",
"N 	c #1A1C19",
"O 	c #535B53",
"P 	c #4C5149",
"Q 	c #5E665E",
"R 	c #7C867B",
"S 	c #B55E5B",
"T 	c #D45858",
"U 	c #F0A1A1",
"V 	c #F5B0B0",
"W 	c #DC5D5D",
"X 	c #617E6C",
"Y 	c #233931",
"Z 	c #10110F",
"` 	c #303530",
" .	c #454942",
"..	c #515951",
"+.	c #4A4F49",
"@.	c #BD2424",
"#.	c #CC3939",
"$.	c #E96969",
"%.	c #EA6D6D",
"&.	c #CD3939",
"*.	c #BD2525",
"=.	c #4D6456",
"-.	c #284238",
";.	c #0E1310",
">.	c #0F110E",
",.	c #565F57",
"'.	c #4F564E",
").	c #666E65",
"!.	c #A01414",
"~.	c #D52828",
"{.	c #E65050",
"].	c #E86161",
"^.	c #36463D",
"/.	c #284137",
"(.	c #23332B",
"_.	c #010001",
":.	c #D42E2E",
"<.	c #DF5252",
"[.	c #EC8282",
"}.	c #EF9191",
"|.	c #D32D2D",
"1.	c #E25858",
"2.	c #F09C9C",
"3.	c #F2AAAA",
"4.	c #E05656",
"5.	c #E77474",
"6.	c #E86262",
"7.	c #E15050",
"                                ",
"                                ",
"                                ",
"            . + @ # $ %         ",
"        & * = - ; > , ' )       ",
"      ! ~ { ] ^ / ( - _ : <     ",
"      [ } | 1 2 3 4 5 6 7 8     ",
"    9 0 a b c d e _ f g h i     ",
"  j k l m n o p q r s t u v w   ",
"  x y z A B C D E F G H I H J   ",
"  K L M N O P Q R S T U V U T W ",
"    X Y Z `  ...+.@.#.$.%.$.&.*.",
"    =.-.;.>.,.'.).!.~.{.].{.~.!.",
"    ^./.(._.      :.<.[.}.[.<.|.",
"                    1.2.3.2.4.5.",
"                      6.7.6.    "};
