/* XPM */
static char * disk_achtung_xpm[] = {
"16 16 125 2",
"  	c None",
". 	c #190800",
"+ 	c #000000",
"@ 	c #983200",
"# 	c #9A3300",
"$ 	c #602000",
"% 	c #9E3E0F",
"& 	c #9D3B0A",
"* 	c #652100",
"= 	c #4F544E",
"- 	c #5E675E",
"; 	c #838982",
"> 	c #0F0F0F",
", 	c #973000",
"' 	c #C39F8C",
") 	c #C39B88",
"! 	c #993100",
"~ 	c #090A09",
"{ 	c #8A9589",
"] 	c #717B70",
"^ 	c #C0C6BF",
"/ 	c #969996",
"( 	c #6E2500",
"_ 	c #9D3C0C",
": 	c #DFE1E3",
"< 	c #E0E3E4",
"[ 	c #9C3A0A",
"} 	c #792800",
"| 	c #5E645E",
"1 	c #9CA59C",
"2 	c #494F49",
"3 	c #C0C6C0",
"4 	c #080808",
"5 	c #963000",
"6 	c #CEB3A6",
"7 	c #676768",
"8 	c #717272",
"9 	c #CFB3A6",
"0 	c #983100",
"a 	c #0C0704",
"b 	c #BCC0BB",
"c 	c #464C45",
"d 	c #575E57",
"e 	c #666E66",
"f 	c #772700",
"g 	c #9F4113",
"h 	c #E2E3E3",
"i 	c #484848",
"j 	c #565656",
"k 	c #E4E5E5",
"l 	c #A04315",
"m 	c #852C00",
"n 	c #383B38",
"o 	c #3D423C",
"p 	c #718673",
"q 	c #859C88",
"r 	c #090200",
"s 	c #D2C1B8",
"t 	c #E1E1E1",
"u 	c #535353",
"v 	c #626262",
"w 	c #E3E3E4",
"x 	c #D9C9C1",
"y 	c #973100",
"z 	c #140600",
"A 	c #4A514B",
"B 	c #41463F",
"C 	c #232A24",
"D 	c #2D372F",
"E 	c #7A2900",
"F 	c #9F4415",
"G 	c #DFDFE0",
"H 	c #595959",
"I 	c #6E6E6E",
"J 	c #E4E4E4",
"K 	c #E7E7E8",
"L 	c #A34B1E",
"M 	c #8F3000",
"N 	c #222522",
"O 	c #3C413C",
"P 	c #1D211E",
"Q 	c #120600",
"R 	c #D9D1CD",
"S 	c #E0E1E1",
"T 	c #E2E2E2",
"U 	c #C6C6C6",
"V 	c #CCCCCC",
"W 	c #E6E6E6",
"X 	c #E8E8E8",
"Y 	c #E6E1DF",
"Z 	c #993300",
"` 	c #1E0A00",
" .	c #020202",
"..	c #812B00",
"+.	c #A1481B",
"@.	c #E0E0E0",
"#.	c #EBEBEB",
"$.	c #313131",
"%.	c #3F3F3F",
"&.	c #EDEDED",
"*.	c #EAEAEA",
"=.	c #A8562D",
"-.	c #1D0900",
";.	c #993200",
">.	c #E3E6E7",
",.	c #E5E8E9",
"'.	c #E6E9EA",
").	c #E4E7E8",
"!.	c #E7E9EB",
"~.	c #ECEFF0",
"{.	c #EDEFF1",
"].	c #EFF1F3",
"^.	c #F1F5F6",
"/.	c #9A3401",
"(.	c #311000",
"_.	c #401500",
":.	c #9D3400",
"<.	c #9C3300",
"[.	c #9C3400",
"}.	c #5F1F00",
"|.	c #020000",
"1.	c #170800",
"2.	c #160700",
"3.	c #160600",
"4.	c #170700",
"                                ",
"              . .               ",
"            + @ # +             ",
"            $ % & * = -         ",
"        ; > , ' ) ! ~ { ]       ",
"      ^ / ( _ : < [ } | 1 2     ",
"      3 4 5 6 7 8 9 0 a b c     ",
"    d e f g h i j k l m n o     ",
"  p q r 0 s t u v w x y z A B   ",
"  C D E F G t H I J K L M N O   ",
"  P Q # R S T U V W X Y Z `     ",
"   ...+.@.t #.$.%.&.*.#.=.# +   ",
"  -.;.@.>.,.'.).!.~.{.].^./.(.  ",
"  _.:.<.<.<.<.<.<.<.<.<.<.[.}.  ",
"  |.1.2.3.4.4.4.4.4.4.4.4.4.    ",
"                                "};
