/* XPM */
static char * fetch_on_xpm[] = {
"16 16 115 2",
"  	c None",
". 	c #FEFEFE",
"+ 	c #F9FAF9",
"@ 	c #EEEFEC",
"# 	c #D8DBD4",
"$ 	c #D4D8D0",
"% 	c #D7DBD4",
"& 	c #EFF0ED",
"* 	c #D3D7CF",
"= 	c #EEF0ED",
"- 	c #F1F2EF",
"; 	c #D4D7D0",
"> 	c #D1D4CD",
", 	c #EBECEB",
"' 	c #F2F4F1",
") 	c #CBCEC8",
"! 	c #BEBFBC",
"~ 	c #CBCCCB",
"{ 	c #C9C9C9",
"] 	c #EFF1EF",
"^ 	c #D8DCD5",
"/ 	c #D7DAD3",
"( 	c #C9CBC7",
"_ 	c #C0C0BF",
": 	c #D4D4D4",
"< 	c #E8E8E7",
"[ 	c #F1F1F0",
"} 	c #E2E2E2",
"| 	c #C1C2C0",
"1 	c #FDFDFD",
"2 	c #DFE2DC",
"3 	c #DADCD8",
"4 	c #C6C7C4",
"5 	c #C6C6C6",
"6 	c #D9D9D8",
"7 	c #E9E9E8",
"8 	c #B4CFA4",
"9 	c #70A94F",
"0 	c #579732",
"a 	c #68944F",
"b 	c #71A94F",
"c 	c #CECECC",
"d 	c #C7C7C7",
"e 	c #DEDEDD",
"f 	c #ECECEB",
"g 	c #F2F2F0",
"h 	c #BAD3AB",
"i 	c #88B270",
"j 	c #89B76E",
"k 	c #ACD396",
"l 	c #AACD96",
"m 	c #E7E9E5",
"n 	c #D0D1CF",
"o 	c #DADBD8",
"p 	c #DDDDDB",
"q 	c #6A984F",
"r 	c #619842",
"s 	c #84B966",
"t 	c #AFDF94",
"u 	c #A8D98B",
"v 	c #609641",
"w 	c #E8EAE6",
"x 	c #E6E8E4",
"y 	c #C4C5C2",
"z 	c #BBBCBB",
"A 	c #E6E6E6",
"B 	c #3D6F22",
"C 	c #528B31",
"D 	c #67AC3F",
"E 	c #73BF47",
"F 	c #76C04B",
"G 	c #73C047",
"H 	c #E5E7E3",
"I 	c #D8D8D5",
"J 	c #FAFAF9",
"K 	c #F5F5F4",
"L 	c #3A6622",
"M 	c #4F882E",
"N 	c #61A639",
"O 	c #6CB641",
"P 	c #73BE48",
"Q 	c #3A6522",
"R 	c #F5F6F4",
"S 	c #EFF1EE",
"T 	c #4D832E",
"U 	c #60A637",
"V 	c #79C14F",
"W 	c #8DC969",
"X 	c #95CE75",
"Y 	c #5EA535",
"Z 	c #477F27",
"` 	c #E0E0DE",
" .	c #F0F1EE",
"..	c #EFF0EE",
"+.	c #EDEEEB",
"@.	c #85AC6F",
"#.	c #6DAE47",
"$.	c #86C462",
"%.	c #ADDB93",
"&.	c #AFDB96",
"*.	c #86C461",
"=.	c #6CAD45",
"-.	c #F4F5F4",
";.	c #F4F5F3",
">.	c #F3F4F3",
",.	c #D0DCC9",
"'.	c #96BD7F",
").	c #89BE6B",
"!.	c #A4D488",
"~.	c #A4D18C",
"{.	c #8BBF6C",
"].	c #85B36B",
"^.	c #77BA4F",
"/.	c #7EB45F",
"(.	c #82B068",
"                                ",
"              . +               ",
"          @ # $ % @             ",
"        & * * * * * =           ",
"      - ; * * * * * > ,         ",
"    ' $ * * * * ) ! ~ { ]       ",
"    ^ # ^ / ( _ : < [ } | 1     ",
"    2 3 4 5 6 7 8 9 0 a 0 b     ",
"  . c d e f g h i j k l k j     ",
"  . m n o p c q r s t u t s v   ",
"  . w x y z A B C D E F G D C B ",
"  . w H I J K L M N O P O N M Q ",
"  . w o R - S T U V W X W V Y Z ",
"  . `  ...= +.@.#.$.%.&.%.*.=.  ",
"  . -.-.-.;.>.,.'.).!.~.!.{.    ",
"                  ].^./.^.(.    "};
