/* XPM */
static char * kaffeine16_xpm[] = {
"16 16 151 2",
"  	c None",
". 	c #210F00",
"+ 	c #5D2B00",
"@ 	c #512500",
"# 	c #482100",
"$ 	c #492200",
"% 	c #221000",
"& 	c #000000",
"* 	c #542700",
"= 	c #C65C00",
"- 	c #622E00",
"; 	c #4D2400",
"> 	c #7A3800",
", 	c #A64D00",
"' 	c #F98A00",
") 	c #8F4C00",
"! 	c #5D2C00",
"~ 	c #E76C00",
"{ 	c #562800",
"] 	c #472000",
"^ 	c #753600",
"/ 	c #7C3A00",
"( 	c #DE6A00",
"_ 	c #FE9200",
": 	c #FC7E00",
"< 	c #412300",
"[ 	c #3C1C00",
"} 	c #F07700",
"| 	c #703400",
"1 	c #4E2400",
"2 	c #733500",
"3 	c #914200",
"4 	c #974600",
"5 	c #F37E00",
"6 	c #FE8A00",
"7 	c #FD8000",
"8 	c #9C5700",
"9 	c #BC6000",
"0 	c #B25800",
"a 	c #5C2A00",
"b 	c #7E3A00",
"c 	c #934300",
"d 	c #984600",
"e 	c #BB5800",
"f 	c #FE9100",
"g 	c #FA7900",
"h 	c #FD8200",
"i 	c #C87300",
"j 	c #582C00",
"k 	c #F58200",
"l 	c #863D00",
"m 	c #944400",
"n 	c #A04A00",
"o 	c #AA4E00",
"p 	c #914300",
"q 	c #E97200",
"r 	c #FB8E00",
"s 	c #F47200",
"t 	c #FD7F00",
"u 	c #D37A00",
"v 	c #9F5500",
"w 	c #D16A00",
"x 	c #B85600",
"y 	c #B95600",
"z 	c #B45300",
"A 	c #B55300",
"B 	c #9C4800",
"C 	c #F78600",
"D 	c #EA7800",
"E 	c #EF6F00",
"F 	c #FD7C00",
"G 	c #C46E00",
"H 	c #EA8000",
"I 	c #8E4400",
"J 	c #A44B00",
"K 	c #B65400",
"L 	c #BD5700",
"M 	c #9F4A00",
"N 	c #C65D00",
"O 	c #FC9200",
"P 	c #D46200",
"Q 	c #E06800",
"R 	c #F87500",
"S 	c #9A5400",
"T 	c #100700",
"U 	c #F48400",
"V 	c #843D00",
"W 	c #9E4900",
"X 	c #AE5000",
"Y 	c #904200",
"Z 	c #E57500",
"` 	c #E67E00",
" .	c #C15A00",
"..	c #CA5E00",
"+.	c #E26A00",
"@.	c #603000",
"#.	c #E07800",
"$.	c #361900",
"%.	c #683000",
"&.	c #893F00",
"*.	c #FC8D00",
"=.	c #CC6100",
"-.	c #C05800",
";.	c #BE5800",
">.	c #C05900",
",.	c #120800",
"'.	c #462000",
").	c #CE6C00",
"!.	c #2F1500",
"~.	c #532600",
"{.	c #743500",
"].	c #D56500",
"^.	c #F48A00",
"/.	c #C95D00",
"(.	c #D26200",
"_.	c #DA6600",
":.	c #020100",
"<.	c #C66600",
"[.	c #2C1400",
"}.	c #442000",
"|.	c #6D3200",
"1.	c #803B00",
"2.	c #F07E00",
"3.	c #E07300",
"4.	c #D76400",
"5.	c #ED6E00",
"6.	c #EF7500",
"7.	c #1C1000",
"8.	c #9E4C00",
"9.	c #2E1500",
"0.	c #3B1B00",
"a.	c #FC8C00",
"b.	c #D56400",
"c.	c #683A00",
"d.	c #391B00",
"e.	c #552700",
"f.	c #381A00",
"g.	c #652E00",
"h.	c #E27000",
"i.	c #EE7F00",
"j.	c #FB7A00",
"k.	c #965100",
"l.	c #251100",
"m.	c #924400",
"n.	c #F88700",
"o.	c #F17100",
"p.	c #864300",
"q.	c #080400",
"r.	c #1D0F00",
"s.	c #9E5600",
"t.	c #2F1600",
"            . + @ # $ % & &     ",
"          * = - ; > , ' ) & &   ",
"        ! ~ { ] ^ / ( _ : < & & ",
"      [ } | 1 2 3 4 5 6 7 8 & & ",
"      9 0 a b c d e f g h i & & ",
"    j k l m n o p q r s t u & & ",
"    v w x y z A B C D E F G & & ",
"  & H I J K L M N O P Q R S & & ",
"  T U @ V W X Y Z `  ...+.@.& & ",
"  - #.$.%.&.m n *.=.-.;.>.,.& & ",
"  '.).!.~.> {.].^./.(._.I & &   ",
"  :.<.[.}.|.1.2.3.4.5.6.7.& &   ",
"  & 8.9.0.{ K a.b.5.F c.& &     ",
"    d.e.f.g.h.i.Q j.k.& & &     ",
"    & l.$.m.n.( o.p.:.& &       ",
"      & q.r.s.b t.& & &         "};
