/* XPM */
static char *libreoffice34_impress[] = {
/* columns rows colors chars-per-pixel */
"32 32 144 2 ",
"   c #622502",
".  c #632502",
"X  c #652602",
"o  c #672702",
"O  c #692802",
"+  c #6B2902",
"@  c #6D2902",
"#  c #6E2902",
"$  c #6F2A02",
"%  c #702A02",
"&  c #722B02",
"*  c #742C02",
"=  c #762D02",
"-  c #782D02",
";  c #7A2E02",
":  c #7C2F02",
">  c #7E3002",
",  c #803102",
"<  c #823102",
"1  c #833203",
"2  c #843203",
"3  c #863303",
"4  c #873303",
"5  c #893403",
"6  c #8B3503",
"7  c #8D3503",
"8  c #8F3603",
"9  c #913703",
"0  c #933803",
"q  c #943803",
"w  c #953903",
"e  c #963903",
"r  c #973903",
"t  c #983A03",
"y  c #993A03",
"u  c #9A3A03",
"i  c #9B3B03",
"p  c #9C3B03",
"a  c #9D3C03",
"s  c #9E3C03",
"d  c #A03D03",
"f  c #A23D03",
"g  c #A23E03",
"h  c #A33E03",
"j  c #9E5E39",
"k  c #A05F3A",
"l  c #A2613C",
"z  c #A5643E",
"x  c #A7653F",
"c  c #B06132",
"v  c #B36435",
"b  c #D36118",
"n  c #AA6841",
"m  c #AC6942",
"M  c #AE6B44",
"N  c #B16D46",
"B  c #B36F47",
"V  c #DB7F43",
"C  c #DC8045",
"Z  c #DC8349",
"A  c #DD844B",
"S  c #DFA17A",
"D  c gray70",
"F  c #B4B4B4",
"G  c #B6B6B6",
"H  c gray72",
"J  c gray73",
"K  c #BBBBBB",
"L  c #BCBCBC",
"P  c gray74",
"I  c gray",
"U  c gray75",
"Y  c #D4BDAF",
"T  c #DFC8BA",
"R  c #EEC1A4",
"E  c #F0C7AC",
"W  c #F2CCB4",
"Q  c #F0CFBB",
"!  c #F3D0BA",
"~  c #C0C0C0",
"^  c #C1C1C1",
"/  c #C3C3C3",
"(  c #C5C5C5",
")  c gray78",
"_  c gray79",
"`  c #CBCBCB",
"'  c #CFCCCA",
"]  c #CDCDCD",
"[  c #CECECE",
"{  c gray81",
"}  c #D2CFCD",
"|  c #D3D0CE",
" . c #D0D0D0",
".. c gray82",
"X. c #D2D2D2",
"o. c #D5D3D1",
"O. c gray83",
"+. c gray84",
"@. c #D8D5D3",
"#. c #DAD7D5",
"$. c #D8D8D8",
"%. c #DADADA",
"&. c #DCDAD8",
"*. c #DEDCDA",
"=. c gainsboro",
"-. c gray87",
";. c #DFDFDF",
":. c #F5D5C2",
">. c #F6DAC8",
",. c #F8DECF",
"<. c #E1DEDD",
"1. c #E2DFDE",
"2. c #F9E2D5",
"3. c #FAE6DB",
"4. c #FBE9DF",
"5. c gray88",
"6. c #E1E1E1",
"7. c #E2E2E2",
"8. c gray89",
"9. c #E4E1E0",
"0. c #E4E4E4",
"q. c gray90",
"w. c #E6E6E6",
"e. c #E7E7E7",
"r. c #E9E9E9",
"t. c #EAEAEA",
"y. c gray92",
"u. c #ECECEC",
"i. c #EEEEEE",
"p. c #EFEFEF",
"a. c #FCEDE4",
"s. c #FDF0E9",
"d. c gray94",
"f. c #F1F1F1",
"g. c gray95",
"h. c #F3F3F3",
"j. c #F4F4F4",
"k. c gray96",
"l. c #F6F6F6",
"z. c #F8F8F8",
"x. c #F9F9F9",
"c. c gray98",
"v. c #FBFBFB",
"b. c None",
/* pixels */
"b.b.b.b.d d h h d h f f f f d h d h b.b.b.d d h h d d d h b.b.b.",
"b.b.b.d d d d d d d f f d s d d d d d b.b.d d d d d d d d b.b.b.",
"b.b.b.s s q.q.q.q.q.q.q.q.q.q.q.8.B s s b.b.s s d s s s d b.b.b.",
"b.b.b.i s 8.v.v.v.v.v.v.c.v.v.v.p.1.N p i b.b.s s s i i s b.b.b.",
"b.b.b.r i 6.c.c.c.c.c.c.c.c.c.c.c.p.1.M i i b.b.i i i i i b.b.b.",
"b.b.b.r q -.z.c.z.c.c.z.z.c.z.c.c.c.i.*.m q r b.b.r r r r b.b.b.",
"b.b.b.q q -.c.z.c.z.z.c.c.z.c.z.z.c.z.y.&.m r r b.b.r r r b.b.b.",
"b.b.b.0 q =.z.z.z.z.z.z.z.z.z.z.z.z.z.z.t.+.x q 0 b.b.r 0 b.b.b.",
"b.b.b.0 9 %.l.l.l.l.l.l.l.l.l.l.l.l.l.l.l.t.@.x 9 9 b.b.b.b.b.b.",
"b.b.b.0 9 $.l.j.l.j.j.l.j.l.l.j.l.j.l.l.j.l.e.o.l 6 9 b.b.b.b.b.",
"b.b.b.7 6 +.j.j.j.j.j.j.j.j.j.j.h.h.j.j.h.j.j.q.| k 6 6 b.b.b.b.",
"b.b.b.6 6 O.h.h.h.h.h.h.h.h.h.h.h.h.h.h.h.h.h.j.q.} k 6 6 b.b.b.",
"b.b.b.6 6 X.g.g.T v h h h h h h h h h h h h v T g.6.' 6 6 b.b.b.",
"b.b.b.2 2  .d.d.v Q s.s.s.s.s.s.s.s.s.s.s.a.Q v g.g.X.2 3 b.b.b.",
"b.b.b.2 2 [ p.p.h a.a.a.a.a.a.a.a.a.a.a.a.a.a.h i.i.[ < 3 b.b.b.",
"b.b.b.< < [ i.i.h 4.4.b b b b b b b b b b 4.a.d i.i.[ < < b.b.b.",
"b.b.b.< < ` u.u.d 3.3.b b b b b b b b b b 3.3.h i.y.` < < b.b.b.",
"b.b.b.> : _ t.t.h 2.2.2.2.2.2.2.2.2.2.2.2.2.2.d t.t._ : > b.b.b.",
"b.b.b.: : ) r.r.h ,.,.A A ,.1 1 1 1 3 < 3 ,.,.h t.t.) : : b.b.b.",
"b.b.b.; ; ( e.e.h >.>.Z Z >.< 1 < < < < < >.>.h q.e.( ; ; b.b.b.",
"b.b.b.; - / e.e.h :.:.:.:.:.:.:.:.:.:.:.:.:.:.h q.t.~ ; ; b.b.b.",
"b.b.b.* - U q.q.h ! ! V V ! 2 2 1 1 1 1 3 Q ! h q.q.~ * * b.b.b.",
"b.b.b.* * U q.q.h W W V V W < < < < < < < W W h q.q.~ * * b.b.b.",
"b.b.b.& & P q.q.h E E E E E E E E E E E E E E d q.q.I & & b.b.b.",
"b.b.b.& & P 8.8.c S R R R R R R R R R R R R S c 6.q.I + & b.b.b.",
"b.b.b.+ + K 8.8.Y c h h h h h h h h h h h h c Y q.6.K + + b.b.b.",
"b.b.b.O + H 6.6.8.6.8.6.8.8.6.8.8.6.8.6.8.6.6.6.6.6.H + + b.b.b.",
"b.b.b.O O G 6.6.6.6.5.5.5.6.6.6.6.6.6.6.6.6.6.5.6.6.G O O b.b.b.",
"b.b.b.X O F 5.5.5.5.5.5.5.5.5.5.6.5.5.5.5.5.5.5.5.5.F O O b.b.b.",
"b.b.b.X X F D D D D D D D D D F F D D D D D D D D D D X X b.b.b.",
"b.b.b.X . .   . . . . .   . . .       X   X   X         X b.b.b.",
"b.b.b.b.                                                b.b.b.b."
};
