/* XPM */
static char *libreoffice34_calc[] = {
/* columns rows colors chars-per-pixel */
"32 32 125 2 ",
"   c #106802",
".  c #106902",
"X  c #106B02",
"o  c #116D02",
"O  c #116F02",
"+  c #117002",
"@  c #117102",
"#  c #117202",
"$  c #127402",
"%  c #127602",
"&  c #127802",
"*  c #127A02",
"=  c #137C02",
"-  c #137E02",
";  c #D36118",
":  c #138002",
">  c #138102",
",  c #138202",
"<  c #148302",
"1  c #148402",
"2  c #148502",
"3  c #148703",
"4  c #148903",
"5  c #158B03",
"6  c #158D03",
"7  c #158F03",
"8  c #169103",
"9  c #169303",
"0  c #169403",
"q  c #169503",
"w  c #169603",
"e  c #169703",
"r  c #179803",
"t  c #179903",
"y  c #179A03",
"u  c #179B03",
"i  c #179C03",
"p  c #179E03",
"a  c #18A003",
"s  c #18A203",
"d  c #47A039",
"f  c #47A13A",
"g  c #4AA43C",
"h  c #4CA73E",
"j  c #4DA83F",
"k  c #4FAB41",
"l  c #50AC42",
"z  c #52AF44",
"x  c #54B246",
"c  c #55B347",
"v  c #F09E6F",
"b  c #1C99E0",
"n  c #63BBEE",
"m  c #808080",
"M  c gray70",
"N  c #B4B4B4",
"B  c #B6B6B6",
"V  c gray72",
"C  c gray73",
"Z  c #BBBBBB",
"A  c #BCBCBC",
"S  c gray74",
"D  c gray",
"F  c gray75",
"G  c #92E285",
"H  c #C0C0C0",
"J  c #C1C1C1",
"K  c #C3C3C3",
"L  c #C5C5C5",
"P  c gray78",
"I  c gray79",
"U  c #CBCBCB",
"Y  c #CBCFCA",
"T  c #CDCDCD",
"R  c #CECECE",
"E  c gray81",
"W  c #CED2CD",
"Q  c #CFD3CE",
"!  c #D0D0D0",
"~  c gray82",
"^  c #D2D2D2",
"/  c #D2D6D1",
"(  c gray83",
")  c gray84",
"_  c #D4D8D3",
"`  c #D6DAD5",
"'  c #D8D8D8",
"]  c #DADADA",
"[  c #D9DCD8",
"{  c #DBDEDA",
"}  c gainsboro",
"|  c gray87",
" . c #DFDFDF",
".. c #CCF4C6",
"X. c #DEE1DD",
"o. c #DFE2DE",
"O. c gray88",
"+. c #E1E1E1",
"@. c #E2E2E2",
"#. c gray89",
"$. c #E1E4E0",
"%. c #E4E4E4",
"&. c gray90",
"*. c #E6E6E6",
"=. c #E7E7E7",
"-. c #E9E9E9",
";. c #EAEAEA",
":. c gray92",
">. c #ECECEC",
",. c gray93",
"<. c #EEEEEE",
"1. c #EFEFEF",
"2. c gray94",
"3. c #F1F1F1",
"4. c gray95",
"5. c #F3F3F3",
"6. c #F4F4F4",
"7. c gray96",
"8. c #F6F6F6",
"9. c gray97",
"0. c #F8F8F8",
"q. c #F9F9F9",
"w. c gray98",
"e. c #FBFBFB",
"r. c None",
/* pixels */
"r.r.r.r.s s s s s s s s s s s s s s r.r.r.s s s s s a s s r.r.r.",
"r.r.r.s s a a a a a a a a a a a a a s r.r.s s s a a a a a r.r.r.",
"r.r.r.i i &.&.&.&.&.&.%.&.&.&.&.$.x a i r.r.i i i i i a a r.r.r.",
"r.r.r.i i #.e.e.e.e.e.e.e.e.e.e.4.o.x y i r.r.i i i i i i r.r.r.",
"r.r.r.y y #.e.0.e.e.e.e.0.e.0.e.e.1.o.l y y r.r.y y y y i r.r.r.",
"r.r.r.y y  .e.0.9.e.9.0.0.e.0.e.6.e.1.{ k y y r.r.y y y y r.r.r.",
"r.r.r.0 0  .0.0.e.0.0.e.e.9.e.0.e.e.e.;.' k 0 y r.r.y y 0 r.r.r.",
"r.r.r.0 0 } 0.0.0.0.9.0.0.9.0.0.6.e.6.e.>.` j 0 0 r.r.0 0 r.r.r.",
"r.r.r.0 8 } 6.e.6.e.6.6.9.9.6.9.6.0.0.6.6.;._ j 8 0 r.r.r.r.r.r.",
"r.r.r.8 8 ' 6.6.6.6.6.6.6.6.6.9.6.6.6.6.6.6.&./ g 8 8 r.r.r.r.r.",
"r.r.r.7 7 ( 6.6.6.6.6.6.6.6.6.6.6.6.6.6.6.6.6.&.Q f 7 7 r.r.r.r.",
"r.r.r.7 7 ( 5.4.6.6.6.6.5.5.5.6.6.6.6.6.6.6.4.4.&.W f 7 7 r.r.r.",
"r.r.r.6 4 ^ 4.4.5 5 4 6 4 6 4 6 7 5 5 5 5 5 5 5 4.#.Y 5 5 r.r.r.",
"r.r.r.4 4 ^ 1.1.5 G G G G 4 G G G G 5 G G G G 4 1.4.^ 4 5 r.r.r.",
"r.r.r.2 3 T 1.1.2 G G G G 3 G G G G 2 G G G G 3 1.1.! 4 2 r.r.r.",
"r.r.r.2 3 T 1.1.2 2 2 2 2 2 2 2 2 2 2 2 3 , 3 , 1.1.T 2 2 r.r.r.",
"r.r.r.2 2 I >.>.3 ........3 ........< ........< 1.;.Y , , r.r.r.",
"r.r.r., < I ;.;., ........, ........< ........- ;.;.I , , r.r.r.",
"r.r.r., - P ;.;.= , , = = , , = m m m m m m m m ;.;.P = , r.r.r.",
"r.r.r.= = P &.;.= ........= ....m 0.6.0.0.0.6.m &.=.P = = r.r.r.",
"r.r.r.= - K &.&.= ........= ....m 6.6.6.v ; 6.m &.;.H = = r.r.r.",
"r.r.r.* * H &.&.= * * * * * * * m 4.4.4.v ; 4.m &.&.H * * r.r.r.",
"r.r.r.* * D &.&.* ........* ....m 1.n b v ; 1.m &.&.H * * r.r.r.",
"r.r.r.$ $ D &.$.$ ........$ ....m 1.n b v ; 1.m &.&.D $ $ r.r.r.",
"r.r.r.$ $ C %.#.# # $ # $ $ # # m ;.b b ; ; ;.m #.#.A $ $ r.r.r.",
"r.r.r.# # C #.#.#.#.$.%.#.%.#.#.m m m m m m m m #.#.C # # r.r.r.",
"r.r.r.# # B #.#.#.O.#.#.#.#.#.#.#.#.#.#.#.#.#.#.#.#.B O # r.r.r.",
"r.r.r.O O B  .#.#.O. .#.#. . .#.O. . .#.O. .O.#.#. .B O O r.r.r.",
"r.r.r.O O N O.O.O.O.O.O.O.O.O.O. .O.O.O.O.O.O.O.O.O.N O O r.r.r.",
"r.r.r.. . M M M M M M M M M M M M M M M M M M M M M M . . r.r.r.",
"r.r.r.. . . . . . . . . . . . . . . . . . . . . . . . . . r.r.r.",
"r.r.r.r.                                              . r.r.r.r."
};
