/* XPM */
static char * pan_xpm[] = {
"32 32 4 1",
" 	c None",
".	c #191919",
"+	c #333333",
"@	c #7F0000",
"................................",
".                              .",
".                              .",
".                              .",
".                              .",
".                              .",
".                              .",
".                              .",
".                              .",
".                              .",
".          ++++++++++          .",
".      ++++++++++++++++++      .",
".    ++++++++++         +++    .",
".   +++++++                    .",
".  +++++++ @@@@   @@@  @@@     .",
". +++++++  @   @     @ @  @    .",
". ++++++   @   @  @@@@ @  @    .",
". ++++++   @   @ @   @ @  @    .",
".  ++++++  @@@@   @@@@ @  @    .",
".   ++++++ @                   .",
".    ++++++                    .",
".      ++++++++                .",
".          ++++++++++          .",
".                              .",
".                              .",
".                              .",
".                              .",
".                              .",
".                              .",
".                              .",
".                              .",
"................................"};
